<svg xmlns="http://www.w3.org/2000/svg" xml:space="preserve" id="Layer_1" x="0" y="0" style="enable-background:new 0 0 733 191" version="1.1" viewBox="0 0 733 191"><style>.st1{fill:#fff}</style><circle cx="91.6" cy="95.4" r="88.7" style="fill:#415aff"/><path d="M78 54.8c2.7-6.8 8.6-11.5 15.4-11.5S106 48 108.8 54.8h7.2c-3.1-11.3-12-19.4-22.5-19.4S74.1 43.6 71 54.8h7zM138.4 65.9H46.6c-1.9 21.4-3.6 42.8-4.9 64.2.3 2.7 2.1 7.4 9.8 8H133.3c7.7-.6 9.5-5.2 9.8-8-1.1-21.5-2.8-42.8-4.7-64.2zm-18.4 38c-2.1 6.6-5.9 12.1-11.2 15.8-4.8 3.5-10.6 5.3-16.4 5.3h-.2c-5.7-.1-11.4-1.9-16-5.3-5.2-3.8-9-9.2-11.2-15.8l-.6-1.9h12l.3.7c2.8 6.9 8.9 11.3 15.9 11.3h.3c6.9-.1 12.9-4.4 15.6-11.3l.3-.7h12l-.8 1.9zM251.1 133.6c-9.9 0-21-3.3-30.4-10.7l8.6-13.2c7.7 5.6 15.7 8.5 22.4 8.5 5.8 0 8.5-2.1 8.5-5.3v-.3c0-4.4-6.9-5.8-14.7-8.2-9.9-2.9-21.2-7.5-21.2-21.3v-.3c0-14.4 11.6-22.5 25.9-22.5 9 0 18.8 3 26.5 8.2l-7.7 14c-7-4.1-14-6.6-19.2-6.6-4.9 0-7.4 2.1-7.4 4.9v.2c0 4 6.7 5.8 14.4 8.5 9.9 3.3 21.4 8.1 21.4 21v.3c0 15.7-11.7 22.8-27.1 22.8zM337.5 132.3V92.8c0-9.5-4.5-14.4-12.2-14.4s-12.6 4.9-12.6 14.4v39.5h-20.1V35.8h20.1v35.7c4.6-6 10.6-11.4 20.8-11.4 15.2 0 24.1 10.1 24.1 26.3v45.9h-20.1zM409.8 133.9c-22 0-38.2-16.3-38.2-36.6V97c0-20.4 16.4-36.9 38.5-36.9 22 0 38.2 16.3 38.2 36.6v.3c0 20.4-16.4 36.9-38.5 36.9zM428.5 97c0-10.4-7.5-19.6-18.6-19.6-11.5 0-18.4 8.9-18.4 19.3v.3c0 10.4 7.5 19.6 18.6 19.6 11.5 0 18.4-8.9 18.4-19.3V97zM505.1 133.6c-10.7 0-17.3-4.9-22.1-10.6v30.4h-20.1v-92H483v10.2c4.9-6.6 11.6-11.5 22.1-11.5 16.5 0 32.3 13 32.3 36.6v.3c-.1 23.7-15.5 36.6-32.3 36.6zm12.1-36.9c0-11.8-7.9-19.6-17.3-19.6s-17.2 7.8-17.2 19.6v.3c0 11.8 7.8 19.6 17.2 19.6 9.4 0 17.3-7.7 17.3-19.6v-.3zM623.5 132.9H618l-20.1-57.8-20.2 57.8h-5.6l-24.7-68h7.3l20.4 59.3 20.4-59.5h5.2l20.4 59.5 20.4-59.3h7l-25 68zM695.3 133.9c-13.5 0-22.2-7.7-27.8-16.1v35.7H661V64.9h6.5V80c5.8-8.9 14.4-16.7 27.8-16.7 16.3 0 32.8 13.1 32.8 35v.3c0 22-16.6 35.3-32.8 35.3zm25.8-35.3c0-17.7-12.3-29.1-26.5-29.1-14 0-27.5 11.8-27.5 29v.3c0 17.3 13.5 29 27.5 29 14.7 0 26.5-10.7 26.5-28.8v-.4z" class="st1"/></svg>