<?xml version="1.0" standalone="no"?>
<!DOCTYPE svg PUBLIC "-//W3C//DTD SVG 20010904//EN"
 "http://www.w3.org/TR/2001/REC-SVG-20010904/DTD/svg10.dtd">
<svg version="1.0" xmlns="http://www.w3.org/2000/svg"
 width="500.000000pt" height="500.000000pt" viewBox="0 0 500.000000 500.000000"
 preserveAspectRatio="xMidYMid meet">
<metadata>
Created by potrace 1.14, written by Peter Selinger 2001-2017
</metadata>
<g transform="translate(0.000000,500.000000) scale(0.100000,-0.100000)"
fill="#000000" stroke="none">
<path d="M2388 4955 c-2 -1 -41 -5 -88 -9 -88 -6 -156 -14 -200 -22 -14 -2
-41 -7 -60 -10 -107 -17 -314 -78 -450 -132 -499 -199 -946 -584 -1210 -1044
-102 -176 -231 -491 -253 -618 -3 -14 -12 -52 -20 -85 -8 -33 -18 -80 -22
-105 -4 -25 -9 -53 -10 -62 -2 -9 -7 -48 -11 -85 -4 -37 -8 -81 -10 -98 -4
-39 -4 -321 0 -360 2 -16 6 -61 10 -98 4 -37 9 -78 12 -90 2 -12 8 -47 14 -77
6 -30 13 -68 16 -84 24 -132 141 -473 175 -511 5 -5 9 -17 9 -26 0 -10 3 -19
8 -21 4 -1 23 -34 42 -73 43 -86 182 -295 258 -389 140 -174 380 -388 584
-519 320 -206 727 -345 1098 -375 183 -14 422 -7 585 17 78 12 226 41 245 48
8 3 20 7 25 8 6 2 37 11 70 21 33 10 65 19 70 20 25 4 198 75 278 113 169 80
382 217 522 334 61 51 235 223 290 287 130 150 298 414 369 580 11 25 28 65
39 90 51 116 128 385 143 495 3 28 8 52 9 56 12 18 20 186 20 389 -1 209 -5
282 -19 356 -3 12 -7 37 -10 55 -15 92 -58 262 -91 358 -207 605 -645 1113
-1201 1394 -190 97 -301 140 -480 188 -117 31 -127 33 -185 43 -19 3 -43 8
-55 10 -12 2 -45 7 -75 11 -30 3 -66 8 -81 11 -28 6 -354 14 -360 9z"/>
</g>
</svg>
