<svg id="Layer_1" xmlns="http://www.w3.org/2000/svg" viewBox="100 92.1 300 116.9" enable-background="new 100 92.1 300 116.9"><style>.st0{fill:#FFFFFF;} .st1{filter:url(#Adobe_OpacityMaskFilter);} .st2{fill:url(#SVGID_2_);} .st3{opacity:0.5;mask:url(#SVGID_1_);fill:#FFFFFF;}</style><path class="st0" d="M322.5 150h3.2c18.5 0 35 8.1 41.2 20l.2.4h30.6v-1.5h-29.5l-.4-.6c-6.7-11.9-23.5-20-41.9-20h-1.2V147v-.9-.7c0-18.9-22.6-34.4-50.3-34.4-23.5 0-44.2 11.4-49.2 27.1l-.4 1.3-1.3-.6c-6.3-2.7-13.3-4.1-20.3-4.1-19.6 0-36.5 10.6-40 25.2l-.4 1.6-1.4-.8c-3.7-2-7.9-3.1-12.2-3.1-8.3 0-16 3.9-21.1 10.8l-.4.5h-25.5v1.5h26.4c4.7-7 12.3-11.1 20.4-11.1 4.9 0 9.7 1.5 13.8 4.4l1.1.8.2-1.3c1.8-15 18.9-26.7 38.9-26.7 7.8 0 15.3 1.7 21.8 5l1 .5.2-1.1c3.3-16.1 24-28.2 48.2-28.2 26.8 0 48.6 14.7 48.6 32.7 0 1.3-.1 2.5-.4 3.7l.1.9z"/><defs><filter id="Adobe_OpacityMaskFilter" filterUnits="userSpaceOnUse" x="128.8" y="112.7" width="238.2" height="57.7"><feColorMatrix values="1 0 0 0 0 0 1 0 0 0 0 0 1 0 0 0 0 0 1 0"/></filter></defs><mask maskUnits="userSpaceOnUse" x="128.8" y="112.7" width="238.2" height="57.7" id="SVGID_1_"><g class="st1"><linearGradient id="SVGID_2_" gradientUnits="userSpaceOnUse" x1="247.917" y1="102.062" x2="247.917" y2="171.51"><stop offset="0" stop-color="#FFF"/><stop offset="1"/></linearGradient><path class="st2" d="M323 145.4c0-18-21.8-32.7-48.6-32.7-24.2 0-44.9 12.1-48.2 28.2l-.2 1.1-1-.5c-6.4-3.3-13.9-5-21.8-5-20 0-37.1 11.7-38.9 26.7l-.2 1.3-1.1-.8c-4.1-2.9-8.9-4.4-13.8-4.4-8.1 0-15.7 4.1-20.4 11.1H367l-.2-.4c-6.1-12-22.7-20-41.2-20h-3.2l.2-.9c.3-1.2.4-2.4.4-3.7z"/></g></mask><path class="st3" d="M323 145.4c0-18-21.8-32.7-48.6-32.7-24.2 0-44.9 12.1-48.2 28.2l-.2 1.1-1-.5c-6.4-3.3-13.9-5-21.8-5-20 0-37.1 11.7-38.9 26.7l-.2 1.3-1.1-.8c-4.1-2.9-8.9-4.4-13.8-4.4-8.1 0-15.7 4.1-20.4 11.1H367l-.2-.4c-6.1-12-22.7-20-41.2-20h-3.2l.2-.9c.3-1.2.4-2.4.4-3.7z"/></svg>