<?xml version="1.0" encoding="utf-8"?>
<!-- Generator: Adobe Illustrator 26.0.1, SVG Export Plug-In . SVG Version: 6.00 Build 0)  -->
<svg version="1.1" id="Layer_1" xmlns="http://www.w3.org/2000/svg" xmlns:xlink="http://www.w3.org/1999/xlink" x="0px" y="0px"
	 viewBox="0 0 257.1 290.3" style="enable-background:new 0 0 257.1 290.3;" xml:space="preserve">
<style type="text/css">
	.st0{fill:#FFFFFF;}
</style>
<path class="st0" d="M1152.4,1169.3c-682.7,0-1365.3,0-2048,0 M1152.4-878.7 M90.4,150.6c4.8,2.1,8.5,3.7,12.3,5.4
	c6.2,2.7,12.3,5.5,18.5,8.1c1,0.4,2.3,0.3,3.4,0.6c2.2,0.5,5.1,0.4,6.6,1.8c4.1,4,8.2,2.4,11.1-0.4c3-3,4.1-7.2,1.4-11.7
	c-4.7-8-9.1-16.2-13.3-24.4c-2-3.8-3.3-8-4.9-12.1c0.5-0.4,1.1-0.8,1.6-1.2c4.7,2.1,9.4,4.3,14.1,6.4c6.4,2.8,13.2,5.9,20.1,3.1
	c7.9-3.1,10.4-11.2,7.9-21.1c-2-8.1-3.9-16.3-5.8-24.5c-1.1-4.6-4.7-7.9-8.7-8.1c-4.9-0.3-8.7,1.8-9.3,6.6
	c-0.7,5.3-0.2,10.7,2.5,15.9c2,4,2.5,8.8,4,14.5c-3.7-1.3-6.1-2-8.5-3.1c-2.2-1-4.2-2.4-6.3-3.4c-2.7-1.3-5.5-2.3-8.1-3.6
	c-5.6-2.8-11.2-2.4-16.2,0.9c-2.6,1.7-4.5,4.3-4.6,8.5c-0.1,11.2,4.8,20.7,9.7,30c1.6,3.1,2.3,6.3,4.4,9.6c-1.2-0.2-1.7-0.2-2.1-0.3
	c-11.3-4.5-22.5-9-33.8-13.5c-6.5-2.6-16.3,2.3-13.8,11.1c1.3,4.5,3.4,8.8,5.8,12.8c3.8,6.3,8.1,12.3,12.2,18.5
	c4,5.9,7.7,12,11.9,17.7c2.4,3.3,5.5,3,7.4-0.6c2.2-4,0.1-7.9-1.9-11.3c-5.5-9.4-11.4-18.5-17.1-27.8
	C90.6,153.8,90.7,152.5,90.4,150.6z"/>
<path d="M90.4,150.6c0.3,1.9,0.2,3.2,0.7,4c5.7,9.3,11.6,18.4,17.1,27.8c2,3.4,4.1,7.3,1.9,11.3c-1.9,3.6-5,3.9-7.4,0.6
	c-4.2-5.7-8-11.8-11.9-17.7c-4.1-6.1-8.5-12.1-12.2-18.5c-2.4-4-4.5-8.3-5.8-12.8c-2.5-8.8,7.3-13.7,13.8-11.1
	c11.3,4.5,22.5,9,33.8,13.5c0.4,0.2,0.9,0.1,2.1,0.3c-2.1-3.3-2.8-6.5-4.4-9.6c-5-9.3-9.9-18.8-9.7-30c0-4.1,2-6.7,4.6-8.5
	c5-3.3,10.6-3.7,16.2-0.9c2.7,1.3,5.4,2.3,8.1,3.6c2.2,1,4.1,2.4,6.3,3.4c2.3,1,4.8,1.8,8.5,3.1c-1.5-5.8-2-10.5-4-14.5
	c-2.6-5.2-3.2-10.6-2.5-15.9c0.6-4.7,4.4-6.8,9.3-6.6c4,0.2,7.6,3.5,8.7,8.1c1.9,8.2,3.8,16.4,5.8,24.5c2.5,9.9,0,18-7.9,21.1
	c-7,2.7-13.7-0.3-20.1-3.1c-4.7-2.1-9.4-4.3-14.1-6.4c-0.5,0.4-1.1,0.8-1.6,1.2c1.6,4,2.9,8.2,4.9,12.1c4.2,8.2,8.7,16.4,13.3,24.4
	c2.6,4.5,1.6,8.8-1.4,11.7c-2.9,2.8-7,4.4-11.1,0.4c-1.4-1.4-4.3-1.3-6.6-1.8c-1.1-0.3-2.4-0.2-3.4-0.6c-6.2-2.6-12.3-5.4-18.5-8.1
	C98.9,154.3,95.2,152.7,90.4,150.6z"/>
</svg>
