<?xml version="1.0" encoding="utf-8"?>
<!-- Generator: Adobe Illustrator 26.0.1, SVG Export Plug-In . SVG Version: 6.00 Build 0)  -->
<svg version="1.1" id="Layer_1" xmlns="http://www.w3.org/2000/svg" xmlns:xlink="http://www.w3.org/1999/xlink" x="0px" y="0px"
	 viewBox="0 0 44 44.2" style="enable-background:new 0 0 44 44.2;" xml:space="preserve">
<style type="text/css">
	.st0{fill:#170C2C;stroke:#000000;stroke-miterlimit:10;}
	.st1{stroke:#000000;stroke-miterlimit:10;}
</style>
<g>
	<path class="st0" d="M32.3,21.6L32.3,21.6l-1.2-1.9l0,0L21.6,4.4l-9.4,15.2l-1.5,2.5l0.3,0.5h0l10.7,17.2l8.3-13.4l2.6-4.3
		L32.3,21.6z M30.7,22.6l-1.1,1.8l0,0l-7.9,12.8l-9.1-14.7l-0.3-0.6l0.3-0.4h0l1.2-1.9l0-0.1l7.9-12.8l7.3,11.8l0,0l1.8,2.9h0
		l0.3,0.5L30.7,22.6L30.7,22.6z"/>
	<path class="st1" d="M21.6,42.7L8.8,22.1L21.6,1.6l12.7,20.5L21.6,42.7z M13.9,22.1l7.6,12.3l7.6-12.3L21.6,9.8L13.9,22.1z"/>
</g>
</svg>
