<?xml version="1.0" encoding="utf-8"?>
<!-- Generator: Adobe Illustrator 26.0.1, SVG Export Plug-In . SVG Version: 6.00 Build 0)  -->
<svg version="1.1" id="Layer_1" xmlns="http://www.w3.org/2000/svg" xmlns:xlink="http://www.w3.org/1999/xlink" x="0px" y="0px"
	 viewBox="0 0 122 100" style="enable-background:new 0 0 122 100;" xml:space="preserve">
<g>
	<path d="M38.9,42.8c11.8-2.2,15.2-5.6,17.5-17.5C58.9,37,61.9,40.8,74,42.7c-11.6,2.7-15,6.2-17.1,17.8
		C54,49.1,50.6,45.5,38.9,42.8z"/>
</g>
<g>
	<path d="M69.7,26.1c3.1-0.6,4-1.4,4.5-4.5c0.6,3,1.4,4,4.6,4.5c-3,0.7-3.9,1.6-4.4,4.6C73.6,27.7,72.8,26.8,69.7,26.1z"/>
</g>
<g>
	<path d="M69.8,62.3c4.5-0.9,5.8-2.1,6.7-6.7c0.9,4.4,2.1,5.9,6.7,6.6c-4.4,1.1-5.8,2.4-6.6,6.8C75.6,64.7,74.3,63.3,69.8,62.3z"/>
</g>
</svg>
