<?xml version="1.0" encoding="utf-8"?>
<!-- Generator: Adobe Illustrator 26.0.1, SVG Export Plug-In . SVG Version: 6.00 Build 0)  -->
<svg version="1.1" id="Layer_1" xmlns="http://www.w3.org/2000/svg" xmlns:xlink="http://www.w3.org/1999/xlink" x="0px" y="0px"
	 viewBox="0 0 21.1 17.3" style="enable-background:new 0 0 21.1 17.3;" xml:space="preserve">
<g>
	<path d="M5,14.9c2.7,0.7,6.1,0.4,7.6-2.2c0.6-1.1,0.8-2.4,0.5-3.6c-0.4-1.5-1.1-3-0.4-4.5c0.6-1.4,2-2.4,3.3-3.2
		c0.1-0.1,0-0.3-0.1-0.2c-1.4,0.5-2.8,1.5-3.5,2.8c-0.4,0.6-0.5,1.4-0.5,2.1c0,0.9,0.4,1.8,0.6,2.7c0.5,1.8,0.1,3.8-1.5,4.9
		c-1.7,1.3-4.1,1.1-6,0.9C4.9,14.7,4.9,14.9,5,14.9L5,14.9z"/>
</g>
</svg>
