<?xml version="1.0" encoding="utf-8"?>
<!-- Generator: Adobe Illustrator 26.0.1, SVG Export Plug-In . SVG Version: 6.00 Build 0)  -->
<svg version="1.1" id="Layer_1" xmlns="http://www.w3.org/2000/svg" xmlns:xlink="http://www.w3.org/1999/xlink" x="0px" y="0px"
	 viewBox="0 0 100 100" style="enable-background:new 0 0 100 100;" xml:space="preserve">
<path d="M42.5,80c-0.1-2.8,1.5-5.1,3.6-5.5c2.2-0.4,4.5-0.5,6.8-0.9c1.4-0.2,2.6-0.9,4-1.3c2.5-0.7,5-1.3,7.6-1.8
	c2.7-0.5,5.4-1,8.2-1.3c4.8-0.6,9.6-1.2,14.4-1.8c2.4-0.3,4.8-0.8,7.1-0.6c2.7,0.2,4.7,3.7,3.8,6.3c-0.1,0.3-0.5,0.7-0.8,0.8
	c-2.4,1.4-4.7,2.4-7.7,1.9c-2.3-0.3-4.7,0.5-7,0.8c-4.9,0.7-9.8,1.5-14.7,2.2c-3.8,0.6-7.5,1.6-11.3,1.5c-1.7-0.1-3,0.9-4.7,0.6
	c-1.8-0.3-3.7,0.6-5.6,0.7C44.4,81.7,42.9,81.1,42.5,80z"/>
<path d="M61.7,21.8c0.6-0.4,1.2-0.8,1.8-1.3c0.6,1.4,3,1.8,2.6,3.9c-0.3,1.4,0,3.3-2.4,2.9c0.9,3.3-1.9,4.3-3.3,5.9
	c-1.8,2.1-3.8,4-5.8,5.8c-2.9,2.7-6,5.2-8.8,8c-1.2,1.2-1.8,2.9-3,4.1c-0.8,0.9-0.6,2.2-2.6,2.6c-2.9,0.6-2.8,1.1-3.9,0.6
	c-2.5-1.3-3-4.4-0.9-7.3C38,43.4,40.9,40,44.3,37c3.5-3.1,6.6-6.7,9.8-10.2c1.4-1.5,2.8-3.1,4.4-4.5c0.8-0.6,2-0.7,3.1-1
	C61.6,21.6,61.6,21.7,61.7,21.8z"/>
<path d="M13.6,48.6c-2.5,0-4.4-2.9-3.9-5.9c1.1-6.6,2.6-13.1,3.1-19.8c0.2-2.9,0.2-5.7,1.1-8.4c1-3.1,2.7-4.6,4.8-4.2
	c3.2,0.6,4.3,3.6,4,6.3c-0.7,6.1-1.7,12.1-2.8,18.2c-0.7,3.7-1.8,7.4-2.9,11C16.4,47.2,15.7,49,13.6,48.6z"/>
</svg>
