<?xml version="1.0" encoding="utf-8"?>
<!-- Generator: Adobe Illustrator 26.0.1, SVG Export Plug-In . SVG Version: 6.00 Build 0)  -->
<svg version="1.1" id="Layer_1" xmlns="http://www.w3.org/2000/svg" xmlns:xlink="http://www.w3.org/1999/xlink" x="0px" y="0px"
	 viewBox="0 0 400 400" style="enable-background:new 0 0 400 400;" xml:space="preserve">
<path d="M68,158.8c-2.5,2.3-5.1,4.5-7.5,6.9c-11.1,10.8-22,21.7-33.2,32.4c-1.3,1.3-3.8,1.4-5.7,2.1c-0.2-2.6-1.5-6.5-0.3-7.6
	c13.1-12.7,26.2-25.5,42.7-34c1-0.5,2.1-0.6,3.2-0.9C67.5,158.1,67.7,158.4,68,158.8z"/>
<path d="M300.5,92.5c-14.9,14.7-29.8,29.5-44.9,44.1c-1.3,1.3-3.9,1.2-5.9,1.7c0.4-2.1,0.1-4.9,1.3-6c15.9-14.1,32-28,48.1-42"/>
<path d="M370.5,179.1c-5.1,5.6-10.3,11.1-15.4,16.7c-8,8.5-16,17-24,25.4c-1.1,1.2-2.4,2.4-3.9,3c-0.8,0.4-2.7,0.2-3.1-0.5
	c-0.6-0.9-0.6-2.4-0.5-3.6c0.1-0.7,0.8-1.5,1.4-2c13.2-12.4,26.4-24.8,39.7-37.1"/>
<path d="M174.2,121.8c-12.4,11.8-24.8,23.7-37.2,35.5c-0.6,0.6-1.3,1.4-2,1.5c-1.9,0.2-3.9,0.1-5.8,0.2c0.5-1.8,0.4-4.2,1.5-5.2
	c14-11.5,28.3-22.7,42.5-34"/>
<path d="M378.5,96.4c-9.5,10.6-19.1,21.3-28.6,31.9c-0.8,0.9-1.5,2.1-2.5,2.4c-1.4,0.5-3.9,0.9-4.4,0.2c-0.9-1.1-1.5-3.9-0.7-4.7
	c10.7-12.3,21.3-24.6,36.2-32.2"/>
<path d="M177.1,221.4c-1.1,1.2-1.9,2.3-3,3.2c-9.5,8.6-19,17.1-28.5,25.7c-0.7,0.7-1.4,1.7-2.2,1.9c-1.6,0.4-3.3,0.3-4.9,0.5
	c0-1.5-0.6-3.7,0.2-4.5c10.8-11,22.5-21,36.9-27.3C175.8,220.7,176.2,221,177.1,221.4z"/>
<path d="M193.1,300.9c12.2-11.5,23.7-23.6,38.5-31.7c0.5,0.5,1,1.1,1.5,1.6c-4.7,4.7-9.4,9.3-14.1,14c-1.5,1.5-3.1,2.9-4.4,4.6
	C209.1,296.4,201.7,299.8,193.1,300.9z"/>
<path d="M103.1,272.5c-7.8,6.8-15.6,13.7-23.5,20.4c-3.3,2.8-6.8,5.3-10.3,7.9c-2.6,2-4.9,1.3-7.4-1.7c13.1-10.1,25.6-20.5,40-28.2
	C102.3,271.5,102.7,272,103.1,272.5z"/>
<path d="M172.3,156.1c-2.3,2.7-4.4,5.6-6.9,8.2c-6.8,7-13.8,14-20.7,20.9c-0.4,0.4-0.7,0.9-1.1,1c-1.8,0.2-3.6,0.2-5.3,0.3
	c0.4-1.7,0.3-4,1.4-5c8.3-7.4,16.8-14.7,25.2-21.9c2-1.7,4-3.2,6.1-4.8C171.5,155.2,171.9,155.6,172.3,156.1z"/>
<path d="M55.4,193.3c-0.2,0.6-0.2,1.3-0.5,1.7c-7.8,8.6-15.5,17.2-23.5,25.6c-1.1,1.1-3.5,1-5.3,1.4c0-1.2-0.6-2.8,0-3.5
	C33.7,207.8,44.2,200.3,55.4,193.3z"/>
<path d="M180.3,134.8c-8.7,9-17.4,18.1-26.3,27c-1,1-3.4,0.5-5.2,0.8c0.3-1.5,0-3.6,0.8-4.4c9.2-8.1,18.5-16.1,27.8-24
	c0.5-0.4,1.4-0.4,2.2-0.6C179.9,134,180.1,134.4,180.3,134.8z"/>
<path d="M362.7,203.6c-5.6,5.9-11.2,11.8-16.9,17.6c-0.9,0.9-2,2-3.2,2.4c-1.4,0.4-3,0.1-4.5,0.1c0.4-1.4,0.4-3.3,1.3-4.2
	c6.5-6,13.1-11.8,19.8-17.5"/>
<path d="M284,121.2c-5.3,5.9-10.7,11.8-16.1,17.7c-0.9,1-1.8,2.1-3,2.6c-1.2,0.5-2.7,0.3-4.1,0.4c0.3-1.3,0.1-3.1,0.9-3.9
	c5.9-5.8,11.9-11.5,18-17.2"/>
<path d="M272.5,211.1c-3.3,3.8-6.6,7.6-9.9,11.3c-3,3.3-6,6.7-9.3,9.7c-0.8,0.8-2.6,0.5-3.9,0.8c-0.1-1.1-0.7-2.6-0.2-3.2
	c6.4-7.8,13.8-14.3,22.3-19.7C271.8,210.4,272.1,210.8,272.5,211.1z"/>
<path d="M280,135.7c-1.2,1.7-2.3,3.5-3.7,5c-5.2,5.4-10.4,10.8-15.8,15.9c-0.9,0.9-2.9,0.7-4.3,0.9c0.2-1.4-0.1-3.4,0.8-4.2
	c7.2-6.4,14.5-12.6,21.8-18.8C279.1,134.9,279.6,135.3,280,135.7z"/>
<path d="M177.1,231.9c-2,1.8-4,3.7-6.1,5.5c-4.9,4.2-9.7,8.5-14.8,12.6c-1,0.8-2.8,0.6-4.3,0.8c0.4-1.3,0.3-3.1,1.1-3.8
	c7.4-5.8,14.9-11.3,22.4-16.9C176,230.6,176.5,231.2,177.1,231.9z"/>
<path d="M178.3,236.8c-4.1,9.1-11.1,15.1-18.4,20.9c-0.7,0.6-2.3-0.1-3.5-0.1c0.2-1.2,0.1-2.8,0.8-3.5c1.8-1.9,4.1-3.4,6.1-5.1
	c4.1-3.4,8.1-6.9,12.2-10.3C176.4,237.9,177.4,237.4,178.3,236.8z"/>
<path d="M79.4,308.3c0.1-1-0.3-2.6,0.3-3.1c7.6-6.3,15.4-12.5,23.1-18.8c0.6,0.7,1.1,1.3,1.7,2c-7.8,7-15.6,13.9-23.4,20.9
	C80.5,309,80,308.7,79.4,308.3z"/>
<path d="M375.6,111.4c-1.1,8.3-15.7,21.2-22.7,20.2C361,124.4,368.3,117.9,375.6,111.4"/>
<path d="M278.2,218.9c-4.2,5.2-8.4,10.4-12.7,15.5c-0.9,1.2-1.9,2.3-3.1,3.2c-0.7,0.5-2.1,0.6-2.6,0.2c-0.5-0.4-0.9-2.1-0.5-2.6
	c5.1-6.7,10.9-12.6,17.7-17.3C277.5,218.3,277.9,218.6,278.2,218.9z"/>
<path d="M90.6,310c2.6-9,11.4-12.6,16.8-19.1c0.5,0.5,1,0.9,1.6,1.4c-5.6,6.3-11.3,12.7-16.9,19C91.6,310.9,91.1,310.5,90.6,310z"/>
<path d="M364.7,213.6c-2.9,4.9-5.7,9.8-8.7,14.5c-0.4,0.7-1.9,0.7-2.9,1c-0.1-1.2-0.7-2.7-0.2-3.5c3.2-4.5,6.6-8.9,9.9-13.3"/>
<path d="M240.1,290.9c5.1-4.9,10.1-9.8,15.2-14.7c0.4,0.4,0.8,0.9,1.2,1.3c-4.4,5.7-7.9,12.4-15.6,14.5
	C240.7,291.6,240.4,291.3,240.1,290.9z"/>
<path d="M54.3,210.2c-2.9,3.8-5.8,7.7-8.9,11.4c-0.6,0.7-2.3,0.3-3.6,0.4c0-1.2-0.5-2.9,0.1-3.5c3.4-3.4,7.1-6.6,10.8-9.9
	C53.2,209.2,53.8,209.7,54.3,210.2z"/>
<path d="M236.6,280.8c-2.8,3.3-5.8,6.9-9.3,11C226.8,286.1,230.5,282.3,236.6,280.8z"/>
</svg>
