<?xml version="1.0" encoding="utf-8"?>
<!-- Generator: Adobe Illustrator 24.2.3, SVG Export Plug-In . SVG Version: 6.00 Build 0)  -->
<svg version="1.1" id="Layer_1" focusable="false" xmlns="http://www.w3.org/2000/svg" xmlns:xlink="http://www.w3.org/1999/xlink"
	 x="0px" y="0px" viewBox="0 0 448 451" style="enable-background:new 0 0 448 451;" xml:space="preserve">
<style type="text/css">
	.st0{fill:#29CE6B;}
</style>
<path class="st0" d="M400,450H48c-26.5,0-48-21.5-48-48V50C0,23.5,21.5,2,48,2h352c26.5,0,48,21.5,48,48v352
	C448,428.5,426.5,450,400,450z M195.3,351.9l184-184c6.2-6.2,6.2-16.4,0-22.6l-22.6-22.6c-6.2-6.2-16.4-6.2-22.6,0L184,272.7
	l-70.1-70.1c-6.2-6.2-16.4-6.2-22.6,0l-22.6,22.6c-6.2,6.2-6.2,16.4,0,22.6l104,104C178.9,358.2,189.1,358.2,195.3,351.9
	L195.3,351.9z"/>
<path class="st0" d="M400,450H48c-26.5,0-48-21.5-48-48V50C0,23.5,21.5,2,48,2h352c26.5,0,48,21.5,48,48v352
	C448,428.5,426.5,450,400,450z M195.3,351.9l184-184c6.2-6.2,6.2-16.4,0-22.6l-22.6-22.6c-6.2-6.2-16.4-6.2-22.6,0L184,272.7
	l-70.1-70.1c-6.2-6.2-16.4-6.2-22.6,0l-22.6,22.6c-6.2,6.2-6.2,16.4,0,22.6l104,104C178.9,358.2,189.1,358.2,195.3,351.9
	L195.3,351.9z"/>
</svg>
