<?xml version="1.0" encoding="utf-8"?>
<!-- Generator: Adobe Illustrator 24.1.0, SVG Export Plug-In . SVG Version: 6.00 Build 0)  -->
<svg version="1.1" id="Layer_1" focusable="false" xmlns="http://www.w3.org/2000/svg" xmlns:xlink="http://www.w3.org/1999/xlink"
	 x="0px" y="0px" viewBox="0 0 448 394.2" style="enable-background:new 0 0 448 394.2;" xml:space="preserve">
<path d="M16,72.8h416c8.8,0,16-7.2,16-16v-40c0-8.8-7.2-16-16-16H16C7.2,0.8,0,8,0,16.8v40C0,65.7,7.2,72.8,16,72.8z M16,232.8h416
	c8.8,0,16-7.2,16-16v-40c0-8.8-7.2-16-16-16H16c-8.8,0-16,7.2-16,16v40C0,225.7,7.2,232.8,16,232.8z M16,392.8h416
	c8.8,0,16-7.2,16-16v-40c0-8.8-7.2-16-16-16H16c-8.8,0-16,7.2-16,16v40C0,385.7,7.2,392.8,16,392.8z"/>
</svg>
