<?xml version="1.0" encoding="utf-8"?>
<!-- Generator: Adobe Illustrator 24.2.3, SVG Export Plug-In . SVG Version: 6.00 Build 0)  -->
<svg version="1.1" id="Layer_1" focusable="false" xmlns="http://www.w3.org/2000/svg" xmlns:xlink="http://www.w3.org/1999/xlink"
	 x="0px" y="0px" viewBox="0 0 448 451" style="enable-background:new 0 0 448 451;" xml:space="preserve">
<path d="M400,2H48C21.5,2,0,23.5,0,50v352c0,26.5,21.5,48,48,48h352c26.5,0,48-21.5,48-48V50C448,23.5,426.5,2,400,2z M427,385.5
	c0,24-19.5,43.5-43.5,43.5h-319c-24,0-43.5-19.5-43.5-43.5v-319C21,42.5,40.5,23,64.5,23h319c24,0,43.5,19.5,43.5,43.5V385.5z"/>
</svg>
