<?xml version="1.0" encoding="utf-8"?>
<!-- Generator: Adobe Illustrator 24.1.0, SVG Export Plug-In . SVG Version: 6.00 Build 0)  -->
<svg version="1.1" id="Layer_1" focusable="false" xmlns="http://www.w3.org/2000/svg" xmlns:xlink="http://www.w3.org/1999/xlink"
	 x="0px" y="0px" viewBox="0 0 352 358" style="enable-background:new 0 0 352 358;" xml:space="preserve">
<style type="text/css">
	.st0{fill:#FFFFFF;}
</style>
<path class="st0" d="M242.7,178L342.8,77.9c12.3-12.3,12.3-32.2,0-44.5l-22.2-22.2c-12.3-12.3-32.2-12.3-44.5,0L176,111.3L75.9,11.2
	c-12.3-12.3-32.2-12.3-44.5,0L9.2,33.4c-12.3,12.3-12.3,32.2,0,44.5L109.3,178L9.2,278.1c-12.3,12.3-12.3,32.2,0,44.5l22.2,22.2
	c12.3,12.3,32.2,12.3,44.5,0L176,244.7l100.1,100.1c12.3,12.3,32.2,12.3,44.5,0l22.2-22.2c12.3-12.3,12.3-32.2,0-44.5L242.7,178z"/>
</svg>
