<?xml version="1.0" encoding="utf-8"?>
<!-- Generator: Adobe Illustrator 21.0.0, SVG Export Plug-In . SVG Version: 6.00 Build 0)  -->
<svg version="1.1" id="Capa_1" xmlns="http://www.w3.org/2000/svg" xmlns:xlink="http://www.w3.org/1999/xlink" x="0px" y="0px"
	 viewBox="0 0 50 50" style="enable-background:new 0 0 50 50;" xml:space="preserve">
<style type="text/css">
	.st0{fill:#222220;}
</style>
<g>
	<path class="st0" d="M3.1,15l21.4,11.5c0.2,0.1,0.4,0.2,0.7,0.2s0.5-0.1,0.7-0.2L47.3,15c0.5-0.2,0.8-0.7,0.8-1.3
		c0-0.5-0.3-1-0.8-1.3L25.8,1c-0.4-0.2-0.9-0.2-1.4,0L3.1,12.4c-0.5,0.2-0.8,0.7-0.8,1.3C2.3,14.2,2.6,14.7,3.1,15z M25.2,3.9
		l18.4,9.8l-18.4,9.8L6.8,13.7L25.2,3.9z"/>
	<path class="st0" d="M47.3,23.9L41,20.6c-0.7-0.4-1.6-0.1-1.9,0.6c-0.4,0.7-0.1,1.6,0.6,1.9l3.9,2.1L25.2,35L6.8,25.2l3.9-2.1
		c0.7-0.4,1-1.2,0.6-1.9c-0.4-0.7-1.2-1-1.9-0.6l-6.3,3.4c-0.5,0.2-0.8,0.7-0.8,1.3c0,0.5,0.3,1,0.8,1.3l21.4,11.5
		c0.2,0.1,0.4,0.2,0.7,0.2s0.5-0.1,0.7-0.2l21.4-11.5c0.5-0.2,0.8-0.7,0.8-1.3C48,24.6,47.7,24.1,47.3,23.9z"/>
	<path class="st0" d="M47.3,35.3l-6-3.2c-0.7-0.4-1.6-0.1-1.9,0.6c-0.4,0.7-0.1,1.6,0.6,1.9l3.7,2l-18.4,9.8L6.8,36.6l3.6-1.9
		c0.7-0.4,1-1.2,0.6-1.9c-0.4-0.7-1.2-1-1.9-0.6l-6,3.2c-0.5,0.2-0.8,0.7-0.8,1.3s0.3,1,0.8,1.3l21.4,11.5c0.2,0.1,0.4,0.2,0.7,0.2
		s0.5-0.1,0.7-0.2l21.4-11.5c0.5-0.2,0.8-0.7,0.8-1.3S47.7,35.6,47.3,35.3z"/>
</g>
</svg>
