<?xml version="1.0" encoding="utf-8"?>
<!-- Generator: Adobe Illustrator 21.0.0, SVG Export Plug-In . SVG Version: 6.00 Build 0)  -->
<svg version="1.1" id="Layer_1" xmlns="http://www.w3.org/2000/svg" xmlns:xlink="http://www.w3.org/1999/xlink" x="0px" y="0px"
	 viewBox="0 0 24 24" style="enable-background:new 0 0 24 24;" xml:space="preserve">
<style type="text/css">
	.st0{fill:#5ADCB2;}
</style>
<path class="st0" d="M21.4,9.6c-1.2-0.1-2.9-0.3-4-0.7C18.2,5.5,18.7,0,15.2,0c-1.9,0-2.4,1.7-2.8,3.3c-1.5,5.3-3.9,6.8-6.4,7.4V10
	H0v12h6v-0.9c2.4,0.2,4.1,0.9,6.2,1.7c1.3,0.5,3.1,1.2,5.3,1.2c2.5,0,4.3-1,5-3.7c0.5-1.9,1.5-7.2,1.5-8.2
	C24,10.4,22.8,9.6,21.4,9.6z M4,20H2v-8h2V20z M19.9,14.4c0,0,0.2,0,1.1,0c1.1,0,1.1,1.5,0,1.6l-1.8,0.1c-0.7,0.1-0.7,1.2,0.1,1.2
	c0,0,0.7,0,1.1,0c1.1-0.1,1,1.4,0,1.6c-0.4,0.1-1.7,0.1-1.7,0.1c-0.8,0.1-0.7,1.2,0.1,1.1l0.8,0c0.8-0.1,1,0.8-0.3,1.7
	c-1.6,0.9-4.7,0.1-6.4-0.6c-2.2-1-4.4-1.9-7-2v-6c3.3-0.7,6.3-2.3,8.3-9.1C15.2,0.8,16,2,16,4.5c0,2.1-0.5,3.8-0.9,5.5
	c1.1,0.5,3.4,1.4,6.1,1.6c1.1,0.1,1,1.5-0.1,1.6l-1.4,0.2C19.8,13.3,19.1,14.4,19.9,14.4z"/>
</svg>
