<?xml version="1.0" encoding="utf-8"?>
<!-- Generator: Adobe Illustrator 21.0.0, SVG Export Plug-In . SVG Version: 6.00 Build 0)  -->
<svg version="1.1" id="Capa_1" xmlns="http://www.w3.org/2000/svg" xmlns:xlink="http://www.w3.org/1999/xlink" x="0px" y="0px"
	 viewBox="0 0 50 50" style="enable-background:new 0 0 50 50;" xml:space="preserve">
<path d="M47,31.2c0-0.1,0-0.3-0.1-0.4V8.3c0-5.1-11.1-7.7-22-7.7S3,3.2,3,8.3v33.5c0,5.1,11.1,7.7,22,7.7s22-2.7,22-7.7v-9.9
	C47,31.6,47,31.4,47,31.2z M5.7,12.2C9.6,14.7,17.3,16,25,16c4.1,0,8.1-0.4,11.5-1.1c0.7-0.1,1.2-0.8,1-1.6c-0.1-0.7-0.8-1.2-1.6-1
	c-3.3,0.7-7.1,1-11,1c-5.4,0-10.4-0.6-14.2-1.8c-3.5-1.1-5.1-2.4-5.1-3.3c0-0.8,1.6-2.2,5.1-3.3c3.8-1.2,8.8-1.8,14.2-1.8
	S35.4,3.8,39.2,5c3.5,1.1,5.1,2.4,5.1,3.3v11.2c0,0.8-1.6,2.2-5.1,3.3c-3.8,1.2-8.8,1.8-14.2,1.8s-10.4-0.6-14.2-1.8
	c-3.5-1.1-5.1-2.4-5.1-3.3L5.7,12.2L5.7,12.2z M39.2,45c-3.8,1.2-8.8,1.8-14.2,1.8S14.5,46.2,10.8,45c-3.5-1.1-5.1-2.4-5.1-3.3V23.3
	c3.9,2.5,11.7,3.8,19.3,3.8s15.4-1.3,19.3-3.8v8.2c-0.3,0.8-1.9,2-5,2.9c-3.8,1.2-8.8,1.8-14.2,1.8c-5.4,0-10.4-0.6-14.2-1.8
	c-0.7-0.2-1.4,0.2-1.7,0.9C9,36,9.3,36.8,10,37c4,1.2,9.3,1.9,15,1.9c7.6,0,15.3-1.3,19.2-3.8v6.6C44.3,42.6,42.7,43.9,39.2,45z"/>
</svg>
