<?xml version="1.0" encoding="utf-8"?>
<!-- Generator: Adobe Illustrator 21.0.0, SVG Export Plug-In . SVG Version: 6.00 Build 0)  -->
<svg version="1.1" id="Capa_1" xmlns="http://www.w3.org/2000/svg" xmlns:xlink="http://www.w3.org/1999/xlink" x="0px" y="0px"
	 viewBox="0 0 50 50" style="enable-background:new 0 0 50 50;" xml:space="preserve">
<g>
	<g>
		<path d="M21.3,39.4c-2.4,0-4.3,1.9-4.3,4.3c0,2.4,1.9,4.3,4.3,4.3s4.3-1.9,4.3-4.3C25.6,41.4,23.7,39.4,21.3,39.4z M21.3,45.6
			c-1,0-1.9-0.9-1.9-1.9c0-1,0.9-1.9,1.9-1.9c1,0,1.9,0.9,1.9,1.9C23.2,44.8,22.3,45.6,21.3,45.6z"/>
	</g>
</g>
<g>
	<g>
		<path d="M36.4,39.4c-2.4,0-4.3,1.9-4.3,4.3c0,2.4,1.9,4.3,4.3,4.3s4.3-1.9,4.3-4.3C40.7,41.4,38.8,39.4,36.4,39.4z M36.4,45.6
			c-1,0-1.9-0.9-1.9-1.9c0-1,0.9-1.9,1.9-1.9c1,0,1.9,0.9,1.9,1.9C38.3,44.8,37.5,45.6,36.4,45.6z"/>
	</g>
</g>
<g>
	<g>
		<path d="M37.5,16.8H20.2c-0.7,0-1.2,0.5-1.2,1.2c0,0.7,0.5,1.2,1.2,1.2h17.2c0.7,0,1.2-0.5,1.2-1.2C38.7,17.3,38.1,16.8,37.5,16.8
			z"/>
	</g>
</g>
<g>
	<g>
		<path d="M36.5,23H21.2c-0.7,0-1.2,0.5-1.2,1.2s0.5,1.2,1.2,1.2h15.4c0.7,0,1.2-0.5,1.2-1.2C37.7,23.5,37.2,23,36.5,23z"/>
	</g>
</g>
<g>
	<g>
		<path d="M49.2,11.4c-0.5-0.6-1.1-0.9-1.9-0.9H9.9L9.1,6.8C9,6.1,8.4,5.4,7.7,5.1L2.4,2.8c-0.6-0.3-1.3,0-1.6,0.6
			C0.6,4.1,0.9,4.8,1.5,5l5.3,2.3l5.8,28.2c0.2,1.1,1.2,1.9,2.4,1.9h28.8c0.7,0,1.2-0.5,1.2-1.2c0-0.7-0.5-1.2-1.2-1.2H14.9
			l-0.7-3.4H44c1.1,0,2.1-0.8,2.4-1.9l3.4-16.3C49.8,12.7,49.6,12,49.2,11.4z M44,29.2H13.7l-3.4-16.3l36.9,0L44,29.2z"/>
	</g>
</g>
</svg>
