<?xml version="1.0" encoding="utf-8"?>
<!-- Generator: Adobe Illustrator 21.0.0, SVG Export Plug-In . SVG Version: 6.00 Build 0)  -->
<svg version="1.1" id="Capa_1" xmlns="http://www.w3.org/2000/svg" xmlns:xlink="http://www.w3.org/1999/xlink" x="0px" y="0px"
	 viewBox="0 0 50 50" style="enable-background:new 0 0 50 50;" xml:space="preserve">
<style type="text/css">
	.st0{fill:#222220;}
</style>
<path class="st0" d="M24.9,18c-4.1,0-7.4,3.3-7.4,7.4s3.3,7.4,7.4,7.4s7.4-3.3,7.4-7.4S29,18,24.9,18z M24.9,29.3
	c-2.2,0-3.9-1.8-3.9-3.9s1.8-3.9,3.9-3.9s3.9,1.8,3.9,3.9S27,29.3,24.9,29.3z"/>
<path class="st0" d="M47.8,29.7L43,26.8c0-0.5,0.1-1,0.1-1.4s0-0.9-0.1-1.4l4.8-2.9c0.4-0.2,0.7-0.6,0.8-1.1c0.1-0.4,0-0.9-0.2-1.3
	L41.9,7.8c-0.5-0.8-1.6-1.1-2.4-0.6c-0.8,0.5-1.1,1.6-0.6,2.4l5.7,9.4l-4.3,2.6c-0.6,0.4-0.9,1-0.8,1.7c0.1,0.8,0.2,1.5,0.2,2.1
	s-0.1,1.3-0.2,2.1c-0.1,0.7,0.2,1.4,0.8,1.7l4.3,2.6l-4.8,7.9l-4.3-2.6c-0.6-0.4-1.4-0.3-1.9,0.1c-1,0.7-2,1.3-3,1.7
	c-0.6,0.3-1.1,0.9-1.1,1.6v5h-9.2v-5c0-1-0.8-1.7-1.7-1.7s-1.7,0.8-1.7,1.7v6.7c0,1,0.8,1.7,1.7,1.7h12.7c1,0,1.7-0.8,1.7-1.7v-5.6
	c0.6-0.3,1.1-0.6,1.7-1l4.8,2.9c0.8,0.5,1.9,0.2,2.4-0.6l6.5-10.9C48.9,31.3,48.6,30.2,47.8,29.7z"/>
<path class="st0" d="M20.3,10.2v-5h9.2v5c0,1,0.8,1.7,1.7,1.7s1.7-0.8,1.7-1.7V3.5c0-1-0.8-1.7-1.7-1.7H18.5c-1,0-1.7,0.8-1.7,1.7
	v5.6c-0.6,0.3-1.1,0.6-1.7,1l-4.8-2.9C9.9,6.9,9.4,6.9,9,7C8.5,7.1,8.1,7.4,7.9,7.8L1.4,18.7c-0.5,0.8-0.2,1.9,0.6,2.4l4.8,2.9
	c0,0.5-0.1,1-0.1,1.4s0,0.9,0.1,1.4L2,29.7c-0.8,0.5-1.1,1.6-0.6,2.4L7.9,43c0.3,0.5,0.9,0.8,1.5,0.8c0.3,0,0.6-0.1,0.9-0.2
	c0.8-0.5,1.1-1.6,0.6-2.4l-5.7-9.4l4.3-2.6c0.6-0.4,0.9-1,0.8-1.7c-0.1-0.8-0.2-1.5-0.2-2.1c0-0.6,0.1-1.3,0.2-2.1
	c0.1-0.7-0.2-1.4-0.8-1.7L5.2,19l4.8-7.9l4.3,2.6c0.6,0.4,1.4,0.3,1.9-0.1c1-0.7,2-1.3,3-1.7C19.8,11.5,20.3,10.9,20.3,10.2z"/>
</svg>
