<svg id="Layer_1" xmlns="http://www.w3.org/2000/svg" viewBox="0 0 450 450"><style>.st0{fill:#F0F8FF;} .st1{fill:#27477C;} .st2{fill:#FFFFFF;} .st3{fill:#C2DEFF;}</style><path class="st0" d="M269.6 92c.1-.1.1-.1 0 0zM269.6 92.1zM269.6 92.2c-.2.4-.3.7 0 0zM263.7 90.9v-.2.2zM264 90c-.1.4-.1.7-.2 1 .3.2 1.2.6 1.1.6.7.2 1.4.4 2.1.5.9.1 1 .2.1 0 .5 0 1.1.1 1.6 0h.3c.1 0 .2-.1.3-.1-.1 0-.2-.1-.3-.1-.5-.2-1.1-.4-1.6-.6-1-.4-2.2-.9-3.4-1.3zM93.8 381.2c0-.1 0-.1 0 0 0-.1 0-.1 0 0zM93.8 380.9v.1c.1 0 0 0 0-.1z"/><path class="st1" d="M69.7 111h173v224.2h-173zM374.7 189.3v3.8c0 4.4 3.5 7.9 7.9 7.9h3.8-3.8c-4.4 0-7.9 3.5-7.9 7.9v3.8-3.8c0-4.4-3.5-7.9-7.9-7.9H363h3.8c4.4 0 7.9-3.5 7.9-7.9v-3.8z"/><path class="st1" d="M376.3 212.5h-3.2v-3.8c0-3.4-2.8-6.3-6.3-6.3H363v-3.2h3.8c3.4 0 6.3-2.8 6.3-6.3v-3.8h3.2v3.8c0 3.4 2.8 6.3 6.3 6.3h3.8v3.2h-3.8c-3.4 0-6.3 2.8-6.3 6.3v3.8zm-4.3-11.6c1.1.7 1.9 1.6 2.7 2.7.7-1.1 1.6-1.9 2.7-2.7-1.1-.7-1.9-1.6-2.7-2.7-.7 1.1-1.6 2-2.7 2.7zM266 80.8v3.8c0 4.4 3.5 7.9 7.9 7.9h3.8-3.8c-4.4 0-7.9 3.5-7.9 7.9v3.8-3.8c0-4.4-3.5-7.9-7.9-7.9h-3.8 3.8c4.4 0 7.9-3.5 7.9-7.9v-3.8z"/><path class="st1" d="M267.6 104.1h-3.2v-3.8c0-3.4-2.8-6.3-6.3-6.3h-3.8v-3.2h3.8c3.4 0 6.3-2.8 6.3-6.3v-3.8h3.2v3.8c0 3.4 2.8 6.3 6.3 6.3h3.8V94h-3.8c-3.4 0-6.3 2.8-6.3 6.3v3.8zm-4.2-11.7c1.1.7 1.9 1.6 2.7 2.7.7-1.1 1.6-1.9 2.7-2.7-1.1-.7-1.9-1.6-2.7-2.7-.8 1.2-1.7 2.1-2.7 2.7zM310.5 255h7.6v16.2h-7.6z"/><path class="st1" d="M319.7 272.8h-10.8v-19.4h10.8v19.4zm-7.6-3.2h4.5v-13.1h-4.5v13.1z"/><path class="st1" d="M315.8 255h-3.2v-3.3c0-7.5 6.1-13.5 13.5-13.5h9.9c4.2 0 7.5-3.4 7.5-7.5 0-4.2-3.4-7.5-7.5-7.5h-25.3c-7.5 0-13.5-6.1-13.5-13.5v-12.5c0-4.5-3.6-8.2-8.2-8.2-4.5 0-8.2 3.6-8.2 8.2v45.1c0 5-4 9.1-9.1 9.1-5 0-9.1-4-9.1-9.1v-6.4c0-4-3.3-7.4-7.4-7.4h-5.8v-3.2h5.8c5.8 0 10.4 4.7 10.4 10.4v6.4c0 3.3 2.7 6 6 6s6-2.7 6-6V197c0-6.3 5.1-11.3 11.3-11.3 6.3 0 11.3 5.1 11.3 11.3v12.5c0 5.8 4.7 10.4 10.4 10.4h25.3c5.9 0 10.7 4.8 10.7 10.7s-4.8 10.7-10.7 10.7H326c-5.8 0-10.4 4.7-10.4 10.4v3.2h.2z"/><path class="st2" d="M78.4 123.1h169.9v221.1H78.4z"/><path class="st1" d="M249.8 345.9h-173V121.5h173v224.4zm-169.9-3.2h166.7v-218H79.9v218z"/><path class="st1" d="M249.8 148.9h-173v-27.4h173v27.4zm-169.9-3.2h166.7v-21H79.9v21z"/><path class="st1" d="M90.4 132.7h5.1v5.1h-5.1z"/><path class="st1" d="M97.2 139.4h-8.3v-8.3h8.3v8.3zm-5.2-3.2h2v-2h-2v2zM107 132.7h5.1v5.1H107z"/><path class="st1" d="M113.7 139.4h-8.3v-8.3h8.3v8.3zm-5.1-3.2h2v-2h-2v2zM123.4 132.7h5.1v5.1h-5.1z"/><path class="st1" d="M130.1 139.4h-8.3v-8.3h8.3v8.3zm-5.1-3.2h2v-2h-2v2zM226.448 138.636l8.98-8.98 2.263 2.263-8.98 8.98z"/><path class="st1" d="M226.355 131.866l2.263-2.263 8.98 8.98-2.263 2.263zM210.2 133.7H222v3.2h-11.8zM224.2 180.5h-5.4v-3.2h5.4v3.2zm-11.6 0h-5.4v-3.2h5.4v3.2zm-11.5 0h-5.4v-3.2h5.4v3.2zm-11.7 0H184v-3.2h5.4v3.2zm-11.6 0h-5.4v-3.2h5.4v3.2zm-11.6 0h-5.4v-3.2h5.4v3.2zm-11.5 0h-5.4v-3.2h5.4v3.2zm-11.6 0h-5.4v-3.2h5.4v3.2zm-11.6 0H126v-3.2h5.4v3.2zm-11.5 0h-5.4v-3.2h5.4v3.2zm-11.6 0H103v-3.2h5.4v3.2zM224.2 195.4h-5.4v-3.2h5.4v3.2zm-11.6 0h-5.4v-3.2h5.4v3.2zm-11.5 0h-5.4v-3.2h5.4v3.2zm-11.7 0H184v-3.2h5.4v3.2zm-11.6 0h-5.4v-3.2h5.4v3.2zm-11.6 0h-5.4v-3.2h5.4v3.2zm-11.5 0h-5.4v-3.2h5.4v3.2zm-11.6 0h-5.4v-3.2h5.4v3.2zm-11.6 0H126v-3.2h5.4v3.2zm-11.5 0h-5.4v-3.2h5.4v3.2zm-11.6 0H103v-3.2h5.4v3.2zM224.2 210.4h-5.4v-3.2h5.4v3.2zm-11.6 0h-5.4v-3.2h5.4v3.2zm-11.5 0h-5.4v-3.2h5.4v3.2zm-11.7 0H184v-3.2h5.4v3.2zm-11.6 0h-5.4v-3.2h5.4v3.2zm-11.6 0h-5.4v-3.2h5.4v3.2zm-11.5 0h-5.4v-3.2h5.4v3.2zm-11.6 0h-5.4v-3.2h5.4v3.2zm-11.6 0H126v-3.2h5.4v3.2zm-11.5 0h-5.4v-3.2h5.4v3.2zm-11.6 0H103v-3.2h5.4v3.2zM224.2 225.3h-5.4v-3.2h5.4v3.2zm-11.6 0h-5.4v-3.2h5.4v3.2zm-11.5 0h-5.4v-3.2h5.4v3.2zm-11.7 0H184v-3.2h5.4v3.2zm-11.6 0h-5.4v-3.2h5.4v3.2zm-11.6 0h-5.4v-3.2h5.4v3.2zm-11.5 0h-5.4v-3.2h5.4v3.2zm-11.6 0h-5.4v-3.2h5.4v3.2zm-11.6 0H126v-3.2h5.4v3.2zm-11.5 0h-5.4v-3.2h5.4v3.2zm-11.6 0H103v-3.2h5.4v3.2zM224.2 240.4h-5.4v-3.2h5.4v3.2zm-11.6 0h-5.4v-3.2h5.4v3.2zm-11.5 0h-5.4v-3.2h5.4v3.2zm-11.7 0H184v-3.2h5.4v3.2zm-11.6 0h-5.4v-3.2h5.4v3.2zm-11.6 0h-5.4v-3.2h5.4v3.2zm-11.5 0h-5.4v-3.2h5.4v3.2zm-11.6 0h-5.4v-3.2h5.4v3.2zm-11.6 0H126v-3.2h5.4v3.2zm-11.5 0h-5.4v-3.2h5.4v3.2zm-11.6 0H103v-3.2h5.4v3.2zM224.2 255.3h-5.4v-3.2h5.4v3.2zm-11.6 0h-5.4v-3.2h5.4v3.2zm-11.5 0h-5.4v-3.2h5.4v3.2zm-11.7 0H184v-3.2h5.4v3.2zm-11.6 0h-5.4v-3.2h5.4v3.2zm-11.6 0h-5.4v-3.2h5.4v3.2zm-11.5 0h-5.4v-3.2h5.4v3.2zm-11.6 0h-5.4v-3.2h5.4v3.2zm-11.6 0H126v-3.2h5.4v3.2zm-11.5 0h-5.4v-3.2h5.4v3.2zm-11.6 0H103v-3.2h5.4v3.2zM224.2 270.3h-5.4v-3.2h5.4v3.2zm-11.6 0h-5.4v-3.2h5.4v3.2zm-11.5 0h-5.4v-3.2h5.4v3.2zm-11.7 0H184v-3.2h5.4v3.2zm-11.6 0h-5.4v-3.2h5.4v3.2zm-11.6 0h-5.4v-3.2h5.4v3.2zm-11.5 0h-5.4v-3.2h5.4v3.2zm-11.6 0h-5.4v-3.2h5.4v3.2zm-11.6 0H126v-3.2h5.4v3.2zm-11.5 0h-5.4v-3.2h5.4v3.2zm-11.6 0H103v-3.2h5.4v3.2zM224.2 285.2h-5.4V282h5.4v3.2zm-11.6 0h-5.4V282h5.4v3.2zm-11.5 0h-5.4V282h5.4v3.2zm-11.7 0H184V282h5.4v3.2zm-11.6 0h-5.4V282h5.4v3.2zm-11.6 0h-5.4V282h5.4v3.2zm-11.5 0h-5.4V282h5.4v3.2zm-11.6 0h-5.4V282h5.4v3.2zm-11.6 0H126V282h5.4v3.2zm-11.5 0h-5.4V282h5.4v3.2zm-11.6 0H103V282h5.4v3.2zM224.2 300.2h-5.4V297h5.4v3.2zm-11.6 0h-5.4V297h5.4v3.2zm-11.5 0h-5.4V297h5.4v3.2zm-11.7 0H184V297h5.4v3.2zm-11.6 0h-5.4V297h5.4v3.2zm-11.6 0h-5.4V297h5.4v3.2zm-11.5 0h-5.4V297h5.4v3.2zm-11.6 0h-5.4V297h5.4v3.2zm-11.6 0H126V297h5.4v3.2zm-11.5 0h-5.4V297h5.4v3.2zm-11.6 0H103V297h5.4v3.2zM224.2 315.2h-5.4V312h5.4v3.2zm-11.6 0h-5.4V312h5.4v3.2zm-11.5 0h-5.4V312h5.4v3.2zm-11.7 0H184V312h5.4v3.2zm-11.6 0h-5.4V312h5.4v3.2zm-11.6 0h-5.4V312h5.4v3.2zm-11.5 0h-5.4V312h5.4v3.2zm-11.6 0h-5.4V312h5.4v3.2zm-11.6 0H126V312h5.4v3.2zm-11.5 0h-5.4V312h5.4v3.2zm-11.6 0H103V312h5.4v3.2z"/><path class="st2" d="M165.8 271.2h223.9v105H165.8z"/><path class="st1" d="M391.3 377.7H164.2V269.6h227.1v108.1zm-223.9-3.1h220.8V272.8H167.4v101.8z"/><path class="st3" d="M242.6 350.4h70.1v11.2h-70.1z"/><path class="st3" d="M314.4 363.2h-73.3v-14.4h73.3v14.4zm-70.2-3.1h67V352h-67v8.1z"/><path class="st1" d="M347.1 350.4h27.6v11.2h-27.6z"/><path class="st1" d="M376.3 363.2h-30.8v-14.4h30.8v14.4zm-27.6-3.1h24.5V352h-24.5v8.1zM180.8 350.4h27.6v11.2h-27.6z"/><path class="st1" d="M210 363.2h-30.8v-14.4H210v14.4zm-27.6-3.1h24.5V352h-24.5v8.1zM323.8 350.4h11.5v11.2h-11.5z"/><path class="st1" d="M336.9 363.2h-14.7v-14.4h14.7v14.4zm-11.5-3.1h8.3V352h-8.3v8.1zM220.1 350.4h11.5v11.2h-11.5z"/><path class="st1" d="M233.2 363.2h-14.7v-14.4h14.7v14.4zm-11.5-3.1h8.3V352h-8.3v8.1zM363.7 304.2h11.5v11.2h-11.5z"/><path class="st1" d="M376.7 317H362v-14.4h14.7V317zm-11.5-3.1h8.3v-8.1h-8.3v8.1zM340.9 304.2h11.5v11.2h-11.5z"/><path class="st1" d="M354 317h-14.7v-14.4H354V317zm-11.5-3.1h8.3v-8.1h-8.3v8.1zM318.1 304.2h11.5v11.2h-11.5z"/><path class="st1" d="M331.2 317h-14.7v-14.4h14.7V317zm-11.5-3.1h8.3v-8.1h-8.3v8.1zM295.3 304.2h11.5v11.2h-11.5z"/><path class="st1" d="M308.4 317h-14.7v-14.4h14.7V317zm-11.5-3.1h8.3v-8.1h-8.3v8.1zM272.5 304.2H284v11.2h-11.5z"/><path class="st1" d="M285.6 317h-14.7v-14.4h14.7V317zm-11.5-3.1h8.3v-8.1h-8.3v8.1zM249.7 304.2h11.5v11.2h-11.5z"/><path class="st1" d="M262.8 317h-14.7v-14.4h14.7V317zm-11.5-3.1h8.3v-8.1h-8.3v8.1zM226.8 304.2h11.5v11.2h-11.5z"/><path class="st1" d="M240 317h-14.7v-14.4H240V317zm-11.6-3.1h8.3v-8.1h-8.3v8.1zM204 304.2h11.5v11.2H204z"/><path class="st1" d="M217.2 317h-14.7v-14.4h14.7V317zm-11.6-3.1h8.3v-8.1h-8.3v8.1zM181.3 304.2h11.5v11.2h-11.5z"/><path class="st1" d="M194.3 317h-14.7v-14.4h14.7V317zm-11.5-3.1h8.3v-8.1h-8.3v8.1z"/><path class="st3" d="M354.9 327.3H375v11.2h-20.1z"/><path class="st3" d="M376.7 340.1h-23.3v-14.4h23.3v14.4zm-20.2-3.1h17.1v-8.1h-17.1v8.1zM180.8 327.3h20.1v11.2h-20.1z"/><path class="st3" d="M202.6 340.1h-23.3v-14.4h23.3v14.4zm-20.2-3.1h17.1v-8.1h-17.1v8.1z"/><path class="st1" d="M211.9 327.3h12.4v11.2h-12.4z"/><path class="st1" d="M225.8 340.1h-15.5v-14.4h15.5v14.4zm-12.4-3.1h9.2v-8.1h-9.2v8.1zM235.9 327.3h12.4v11.2h-12.4z"/><path class="st1" d="M249.8 340.1h-15.5v-14.4h15.5v14.4zm-12.4-3.1h9.2v-8.1h-9.2v8.1zM259.9 327.3h12.4v11.2h-12.4z"/><path class="st1" d="M273.7 340.1h-15.5v-14.4h15.5v14.4zm-12.3-3.1h9.2v-8.1h-9.2v8.1zM283.9 327.3h12.4v11.2h-12.4z"/><path class="st1" d="M297.7 340.1h-15.5v-14.4h15.5v14.4zm-12.3-3.1h9.2v-8.1h-9.2v8.1zM307.8 327.3h12.4v11.2h-12.4z"/><path class="st1" d="M321.7 340.1h-15.5v-14.4h15.5v14.4zm-12.4-3.1h9.2v-8.1h-9.2v8.1zM331.8 327.3h12.4v11.2h-12.4z"/><path class="st1" d="M345.7 340.1h-15.5v-14.4h15.5v14.4zm-12.4-3.1h9.2v-8.1h-9.2v8.1zM314.6 148.2L297.9 137v-2.7l16.7-11.2 1.7 2.7-14.6 9.9 14.6 9.8zM350.7 148.2l-1.8-2.7 14.7-9.8-14.7-9.9 1.8-2.7 16.5 11.2v2.7zM325.23 151.805l11.837-33.257 3.014 1.073-11.835 33.258zM107 373.7c-.9 0-1.6-.7-1.6-1.6v-5c0-.9.7-1.6 1.6-1.6s1.6.7 1.6 1.6v5c0 .8-.8 1.6-1.6 1.6zM99.6 376.7c-.4 0-.9-.1-1.1-.4l-3.5-3.5c-.6-.6-.6-1.6 0-2.2.6-.6 1.6-.6 2.2 0l3.5 3.5c.6.6.6 1.6 0 2.2-.3.2-.7.4-1.1.4zM96.5 384h-5c-.9 0-1.6-.7-1.6-1.6 0-.9.7-1.6 1.6-1.6h5c.9 0 1.6.7 1.6 1.6 0 1-.7 1.6-1.6 1.6zM96.1 394.9c-.4 0-.9-.1-1.1-.4-.6-.6-.6-1.6 0-2.2l3.5-3.5c.6-.6 1.6-.6 2.2 0 .6.6.6 1.6 0 2.2l-3.5 3.5c-.4.3-.8.4-1.1.4zM107 399.5c-.9 0-1.6-.7-1.6-1.6v-5c0-.9.7-1.6 1.6-1.6s1.6.7 1.6 1.6v5c0 .8-.8 1.6-1.6 1.6zM117.8 394.9c-.4 0-.9-.1-1.1-.4l-3.5-3.5c-.6-.6-.6-1.6 0-2.2s1.6-.6 2.2 0l3.5 3.5c.6.6.6 1.6 0 2.2-.3.3-.6.4-1.1.4zM122.3 384h-5c-.9 0-1.6-.7-1.6-1.6 0-.9.7-1.6 1.6-1.6h5c.9 0 1.6.7 1.6 1.6 0 1-.7 1.6-1.6 1.6zM114.3 376.7c-.4 0-.9-.1-1.1-.4-.6-.6-.6-1.6 0-2.2l3.5-3.5c.6-.6 1.6-.6 2.2 0 .6.6.6 1.6 0 2.2l-3.5 3.5c-.3.2-.8.4-1.1.4zM136.9 45.3c-.9 0-1.6-.7-1.6-1.6v-5c0-.9.7-1.6 1.6-1.6.9 0 1.6.7 1.6 1.6v5c0 1-.7 1.6-1.6 1.6zM129.6 48.4c-.4 0-.9-.1-1.1-.4l-3.5-3.5c-.6-.6-.6-1.6 0-2.2.6-.6 1.6-.6 2.2 0l3.5 3.5c.6.6.6 1.6 0 2.2-.4.2-.7.4-1.1.4zM126.5 55.8h-5c-.9 0-1.6-.7-1.6-1.6 0-.9.7-1.6 1.6-1.6h5c.9 0 1.6.7 1.6 1.6s-.8 1.6-1.6 1.6zM126 66.7c-.4 0-.9-.1-1.1-.4-.6-.6-.6-1.6 0-2.2l3.5-3.5c.6-.6 1.6-.6 2.2 0 .6.6.6 1.6 0 2.2l-3.5 3.5c-.3.1-.7.4-1.1.4zM136.9 71.1c-.9 0-1.6-.7-1.6-1.6v-5c0-.9.7-1.6 1.6-1.6.9 0 1.6.7 1.6 1.6v5c0 1-.7 1.6-1.6 1.6zM147.8 66.7c-.4 0-.9-.1-1.1-.4l-3.5-3.5c-.6-.6-.6-1.6 0-2.2.6-.6 1.6-.6 2.2 0L149 64c.6.6.6 1.6 0 2.2-.5.2-.8.5-1.2.5zM152.3 55.8h-5c-.9 0-1.6-.7-1.6-1.6 0-.9.7-1.6 1.6-1.6h5c.9 0 1.6.7 1.6 1.6s-.8 1.6-1.6 1.6zM144.3 48.4c-.4 0-.9-.1-1.1-.4-.6-.6-.6-1.6 0-2.2l3.5-3.5c.6-.6 1.6-.6 2.2 0 .6.6.6 1.6 0 2.2l-3.5 3.5c-.4.2-.8.4-1.1.4zM20.5 200c-.9 0-1.6-.7-1.6-1.6v-4.9c0-.9.7-1.6 1.6-1.6s1.6.7 1.6 1.6v5c0 .8-.7 1.5-1.6 1.5zM13.2 203.1c-.4 0-.9-.1-1.1-.4l-3.5-3.5c-.6-.6-.6-1.6 0-2.2.6-.6 1.6-.6 2.2 0l3.5 3.5c.6.6.6 1.6 0 2.2-.3.1-.7.4-1.1.4zM10.2 210.4h-5c-.9 0-1.6-.7-1.6-1.6s.7-1.6 1.6-1.6h5c.9 0 1.6.7 1.6 1.6s-.7 1.6-1.6 1.6zM9.7 221.3c-.4 0-.9-.1-1.1-.4-.6-.6-.6-1.6 0-2.2l3.5-3.5c.6-.6 1.6-.6 2.2 0 .6.6.6 1.6 0 2.2l-3.5 3.5c-.3.3-.7.4-1.1.4zM20.5 225.8c-.9 0-1.6-.7-1.6-1.6v-5c0-.9.7-1.6 1.6-1.6s1.6.7 1.6 1.6v5c0 .9-.7 1.6-1.6 1.6zM31.4 221.3c-.4 0-.9-.1-1.1-.4l-3.5-3.5c-.6-.6-.6-1.6 0-2.2.6-.6 1.6-.6 2.2 0l3.5 3.5c.6.6.6 1.6 0 2.2-.2.3-.7.4-1.1.4zM36 210.4h-5c-.9 0-1.6-.7-1.6-1.6s.7-1.6 1.6-1.6h5c.9 0 1.6.7 1.6 1.6s-.8 1.6-1.6 1.6zM27.9 203.1c-.4 0-.9-.1-1.1-.4-.6-.6-.6-1.6 0-2.2l3.5-3.5c.6-.6 1.6-.6 2.2 0 .6.6.6 1.6 0 2.2l-3.5 3.5c-.3.1-.7.4-1.1.4zM425.1 318.5c-.9 0-1.6-.7-1.6-1.6v-5c0-.9.7-1.6 1.6-1.6.9 0 1.6.7 1.6 1.6v5c0 .9-.8 1.6-1.6 1.6zM417.7 321.6c-.4 0-.9-.1-1.1-.4l-3.5-3.5c-.6-.6-.6-1.6 0-2.2.6-.6 1.6-.6 2.2 0l3.5 3.5c.6.6.6 1.6 0 2.2-.4.1-.7.4-1.1.4zM414.6 328.9h-5c-.9 0-1.6-.7-1.6-1.6 0-.9.7-1.6 1.6-1.6h5c.9 0 1.6.7 1.6 1.6 0 .9-.7 1.6-1.6 1.6zM414.2 339.8c-.4 0-.9-.1-1.1-.4-.6-.6-.6-1.6 0-2.2l3.5-3.5c.6-.6 1.6-.6 2.2 0 .6.6.6 1.6 0 2.2l-3.5 3.5c-.4.3-.8.4-1.1.4zM425.1 344.3c-.9 0-1.6-.7-1.6-1.6v-5c0-.9.7-1.6 1.6-1.6.9 0 1.6.7 1.6 1.6v5c0 .9-.8 1.6-1.6 1.6zM435.9 339.8c-.4 0-.9-.1-1.1-.4l-3.5-3.5c-.6-.6-.6-1.6 0-2.2.6-.6 1.6-.6 2.2 0l3.5 3.5c.6.6.6 1.6 0 2.2-.2.3-.6.4-1.1.4zM440.4 328.9h-5c-.9 0-1.6-.7-1.6-1.6 0-.9.7-1.6 1.6-1.6h5c.9 0 1.6.7 1.6 1.6 0 .9-.7 1.6-1.6 1.6zM432.4 321.6c-.4 0-.9-.1-1.1-.4-.6-.6-.6-1.6 0-2.2l3.5-3.5c.6-.6 1.6-.6 2.2 0 .6.6.6 1.6 0 2.2l-3.5 3.5c-.3.1-.7.4-1.1.4zM376.7 292H368v-9.2h8.7v9.2zm-18.8 0h-8.7v-9.2h8.7v9.2zm-18.8 0h-8.7v-9.2h8.7v9.2zm-18.8 0h-8.8v-9.2h8.7v9.2h.1zm-18.9 0h-8.7v-9.2h8.7v9.2zm-18.8 0h-8.7v-9.2h8.7v9.2zm-18.8 0H255v-9.2h8.7v9.2h.1zm-18.8 0h-8.7v-9.2h8.7v9.2zm-18.9 0h-8.7v-9.2h8.7v9.2zm-18.8 0h-8.8v-9.2h8.7v9.2h.1zm-18.8 0h-8.7v-9.2h8.7v9.2z"/></svg>