<?xml version="1.0" encoding="utf-8"?>
<!-- Generator: Adobe Illustrator 21.1.0, SVG Export Plug-In . SVG Version: 6.00 Build 0)  -->
<svg version="1.1" id="Layer_1" xmlns="http://www.w3.org/2000/svg" xmlns:xlink="http://www.w3.org/1999/xlink" x="0px" y="0px"
	 width="546px" height="100.7px" viewBox="0 0 546 100.7" style="enable-background:new 0 0 546 100.7;" xml:space="preserve">
<style type="text/css">
	.st0{fill:#394752;}
	.st1{fill:#0374AC;}
	.st2{fill:#FFFFFF;}
	.st3{fill:none;stroke:#000000;stroke-miterlimit:10;}
	.st4{font-family:'OpenSans';}
	.st5{font-size:41px;}
</style>
<g>
	<g>
		<path class="st0" d="M199,62.4l1.8-4.3c2.5,1.3,4.9,1.8,7.2,1.8c1.4,0,2.6-0.3,3.6-0.8s1.5-1.3,1.5-2.1c0-1.6-1.7-3-5.3-4.2
			c-5.9-1.9-8.8-4.6-8.8-8.1c0-2.4,0.9-4.4,2.8-5.8c1.8-1.5,4.4-2.1,7.5-2.1c1.3,0,2.7,0.2,4.4,0.7s3.2,1.2,4.4,1.9l-1.9,4.2
			c-1.3-0.6-2.5-1.1-3.6-1.4s-2.2-0.5-3.5-0.5c-1.2,0-2.1,0.3-2.9,0.9c-0.8,0.6-1.2,1.3-1.2,2c0,0.6,0.5,1.2,1.4,1.7s2,1.1,3.5,1.5
			c6.1,2.1,9.1,5.1,9.1,8.8c0,2.6-1,4.6-2.8,6.1c-1.9,1.5-4.6,2.1-8.2,2.1c-1.4,0-2.9-0.2-4.6-0.7C201.6,63.8,200.1,63.1,199,62.4z"
			/>
		<path class="st0" d="M248.6,47v17.2h-6.2V47.4c0-3.7-1.4-5.6-4.2-5.6c-2.2,0-4.8,1.3-7.7,3.7v18.7h-6.2V25.9l6.2-0.6V40
			c1.5-1.1,3.1-1.8,4.6-2.4c1.5-0.6,3.1-0.9,4.5-0.9C245.6,36.6,248.6,40.1,248.6,47z"/>
		<path class="st0" d="M279,58.2c-1.2,2.1-2.7,3.8-4.8,4.9c-2.1,1.2-4.5,1.7-7.4,1.7c-2.8,0-5.2-0.6-7.3-1.7c-2-1.2-3.7-2.8-4.7-4.9
			c-1.2-2.1-1.6-4.5-1.6-7.4c0-2.8,0.6-5.2,1.6-7.4c1.2-2.1,2.7-3.8,4.8-4.9c2.1-1.2,4.5-1.7,7.4-1.7c2.8,0,5.2,0.6,7.4,1.7
			c2,1.2,3.7,2.8,4.8,4.9c1.2,2.1,1.6,4.6,1.6,7.4C280.8,53.5,280.1,56.1,279,58.2z M272.3,57.2c1.4-1.6,2-3.8,2-6.2
			c0-2.6-0.7-4.7-2-6.4c-1.4-1.6-3.1-2.4-5.4-2.4c-2.2,0-4,0.9-5.4,2.5c-1.5,1.6-2.1,3.8-2.1,6.3c0,2.6,0.7,4.7,2,6.4
			c1.4,1.6,3.1,2.4,5.4,2.4C269.1,59.6,270.8,58.8,272.3,57.2z"/>
		<path class="st0" d="M304.3,38.5c2,1.2,3.6,2.8,4.6,4.9c1.1,2.1,1.6,4.6,1.6,7.5c0,2.8-0.6,5.2-1.6,7.4c-1.1,2.1-2.7,3.8-4.7,4.9
			c-2,1.2-4.4,1.7-7.2,1.7c-1.6,0-3.3-0.5-5.1-1.5v12.2l-6.2,0.6V37.5h3.3l1.4,1.7c1.1-0.8,2.2-1.5,3.4-1.8c1.3-0.4,2.3-0.7,3.4-0.7
			C299.9,36.7,302.3,37.3,304.3,38.5z M302.3,57.2c1.3-1.6,1.9-3.7,1.9-6.2c0-2.6-0.6-4.7-1.8-6.4c-1.3-1.6-3-2.4-5.2-2.4
			c-1,0-1.8,0.2-2.7,0.5c-0.9,0.3-1.6,0.8-2.4,1.4v14.1c1.5,1.1,3.2,1.6,5.1,1.6C299.3,59.6,301,58.8,302.3,57.2z"/>
		<path class="st0" d="M318.2,33.2c-1.1,0-1.8-0.4-2.6-1.1c-0.7-0.7-1.1-1.5-1.1-2.6c0-1,0.4-1.8,1.1-2.6c0.7-0.7,1.5-1.1,2.5-1.1
			c1.1,0,1.9,0.4,2.6,1.1s1.1,1.5,1.1,2.6s-0.4,1.9-1.1,2.6C320.2,32.9,319.3,33.2,318.2,33.2z M321.4,37.5v26.7h-6.2V37.5H321.4z"
			/>
		<path class="st0" d="M329.5,42.5h-4.1v-4.7h4.1V35c0-2.9,0.9-5.2,2.5-6.9c1.6-1.6,4-2.5,7-2.5c0.8,0,1.7,0.1,2.7,0.4
			s1.7,0.6,2.2,1.1l-1.7,4.6c-1.2-0.5-2.1-0.7-2.8-0.7c-1.3,0-2.1,0.4-2.7,1.3c-0.6,0.9-0.9,2-0.9,3.5v2h4.9l2,4.7h-7v21.8h-6.2
			V42.5L329.5,42.5z"/>
		<path class="st0" d="M352.5,66.6l1.4-3.7l-9.5-24.5l6-2l6.9,18.8l6.5-17.8h6.5l-11.9,30.9c-0.8,1.9-2,3.7-4,5
			c-1.9,1.5-4,2.4-6.3,2.9l-2.1-4.9c1.8-0.8,3.3-1.5,4.4-2.2C351.3,68.6,352.1,67.7,352.5,66.6z"/>
	</g>
	<g>
		<path class="st0" d="M166.1,37.5l-8.4,26.7h-5.5l-5.4-17.8l-5.2,17.8h-5.4l-8-25.7l6-1.9l4.8,18.2l4.5-17.2h6.8l4.8,17.2l4.5-17.2
			C159.6,37.5,166.1,37.5,166.1,37.5z"/>
		<path class="st0" d="M188.6,38.5c2,1.2,3.6,2.8,4.6,4.9c1.1,2.1,1.6,4.6,1.6,7.5c0,2.7-0.6,5.2-1.6,7.4c-1.1,2.1-2.7,3.8-4.7,4.9
			c-2,1.1-4.4,1.7-7.2,1.7c-1.6,0-3.3-0.5-5.1-1.5v12.2l-6.2,0.6V37.5h3.3l1.4,1.7c1.1-0.8,2.2-1.5,3.4-1.8c1.3-0.4,2.3-0.7,3.4-0.7
			C184.3,36.7,186.6,37.3,188.6,38.5z M186.6,57.2c1.3-1.6,1.9-3.7,1.9-6.2c0-2.6-0.6-4.7-1.8-6.4c-1.3-1.6-3-2.4-5.2-2.4
			c-1,0-1.8,0.2-2.7,0.5s-1.6,0.8-2.4,1.4v14.1c1.5,1.1,3.2,1.6,5.1,1.6C183.6,59.6,185.4,58.8,186.6,57.2z"/>
	</g>
</g>
<circle class="st1" cx="52.2" cy="50.5" r="48.7"/>
<path class="st2" d="M37.2,71.4l-3.4-13.1L33,55.4l-7.3-27.7c-0.4-1.7-1.7-2.3-3-2.3c-0.4,0-0.6,0-1,0.1c-1.6,0.3-3,1.1-3,2.7
	c0,0.3,0.1,0.6,0.1,1l13.3,48.6c0.7,2.5,2.5,3.5,4.7,3.5c1.1,0,2-0.2,2.8-0.7L37.2,71.4z"/>
<path class="st2" d="M86.3,29.1"/>
<path class="st2" d="M83.5,25.5c-0.3-0.1-0.6-0.1-0.9-0.1c-1.5,0-2.7,0.6-3.2,2.3l-4.9,18.6v-0.1l-1.1,4l-1.6,6l3.3,12.2l11.2-39.3
	c0.1-0.3,0.1-0.6,0.1-0.8C86.5,26.7,85.1,25.8,83.5,25.5z"/>
<path class="st2" d="M68.1,71.4L68,70.9l-3-11.3l-2.4-9.2l-1.9-7.1l-3.8-14.6c-0.6-2.3-2.2-3.2-4.4-3.2c-2.4,0-4,0.9-4.6,3.1
	l-5.5,21.5l0.1-0.5l-1.6,6.2l3,10.8L48,49c0,0,0.5-4.1,4.2-4.1c2.6,0,3.7,2.2,4.1,3.4c-0.5-0.8-1.2-1.4-2.2-1.4
	c-2.5,0-3.2,4.5-3.2,4.5L50,55.8h8.1c2.1,8.8,5.2,22,5.2,22c0.6,2.6,2.5,3.5,4.7,3.5c1.1,0,2-0.2,2.8-0.7L68.1,71.4z"/>
<line class="st3" x1="401" y1="15" x2="401" y2="84"/>
<text transform="matrix(1 0 0 1 430 63)" class="st0 st4 st5">Docs</text>
</svg>
