<?xml version="1.0" encoding="utf-8"?>
<!-- Generator: Adobe Illustrator 21.0.0, SVG Export Plug-In . SVG Version: 6.00 Build 0)  -->
<svg version="1.1" id="Layer_1" xmlns="http://www.w3.org/2000/svg" xmlns:xlink="http://www.w3.org/1999/xlink" x="0px" y="0px"
	 viewBox="0 0 80 79.7" style="enable-background:new 0 0 80 79.7;" xml:space="preserve">
<style type="text/css">
	.st0{fill:#FFFFFF;}
	.st1{fill:#91B565;}
	.st2{fill:#90B467;}
	.st3{fill:#91B567;}
	.st4{fill:#90B466;}
	.st5{fill:#8FB268;}
	.st6{fill:#91B566;}
	.st7{fill:#92B566;}
	.st8{fill:#85A964;}
	.st9{fill:#87AB65;}
	.st10{fill:#82A762;}
	.st11{fill:#93B95B;}
</style>
<g>
	<path class="st0" d="M45.4,23.9l-7.6,47.2L10.8,61l10.8-33.9"/>
	<path d="M50.5,58.8c0-0.7,0-1.5,0.1-2.2c0.4-1,0.1-1.9,0.2-2.9c0.1-1.1-0.2-2.2,0.2-3.3c0-0.9,0-1.8,0.1-2.7
		c0.4-0.8,0.1-1.7,0.2-2.5c0.1-1.3-0.2-2.5,0.2-3.7v-3.1c0.6-1.9-0.1-3.9,0.4-5.8c0-0.9,0-1.8,0.1-2.7c0.4-0.9,0.1-1.9,0.2-2.8
		c0.1-1-0.2-2,0.2-3v-3.6c0.6-1.8-0.1-3.6,0.4-5.3c0.1-1.6-0.2-3.1,0.5-4.6c0.3,0.2,0.7,0.4,0.9,0.7c2.2,2.8,5,4.6,8.7,4.2
		c1.5-0.1,1.9,0.7,2.2,2.2c2.3,15.8,4.7,31.6,7,47.4c0.3,2,0.6,4,0.9,5.9c0.1,1-0.1,1.4-1.2,1.6c-7,1.4-14.1,3-21.1,4.4
		c-1.6-0.4-0.7-1.9-1-2.7c0.6-1.9-0.1-3.9,0.4-5.8c0-1,0-2.1,0.1-3.1c0.4-1.3,0.1-2.7,0.2-4C50.5,60.3,50.2,59.4,50.5,58.8z"/>
	<path d="M53.3,10.3c-0.9-0.7-1.7-0.1-2.5,0.1c-0.7,0.2-1.2,0.2-1.6-0.7c-1.4-3.5-3.4-6.3-7.6-6.5c-0.2,0-0.4-0.1-0.6-0.3
		c-3.3-3.1-6.6-2-9.8,0c-3.9,2.4-6.5,6-7.6,10.2c-1.3,5.3-4.2,7.9-9.3,8.6c-1.5,0.1-2.1,1.3-2.3,2.8c-1.7,13.9-3.4,27.7-5.4,41.6
		c-0.4,2.7,0.6,3,2.7,3.4c11.6,2.1,23.2,4.4,34.8,6.5c2.2,0.4,4.2,1.3,6.5,0.7c-0.2-1-0.4-2-0.4-3c0.1-1.9-0.2-3.7,0.3-5.6
		c0.2-1,0.2-2.1,0.1-3.1c-0.1-1.3,0-2.5,0-3.8c0-0.9,0-1.7,0.3-2.5c0.1-0.7,0.2-1.5,0.2-2.2V54c0-1.3-0.1-2.4,0.3-3.6
		c0.1-0.9,0.2-1.8,0.2-2.6c-0.1-0.7,0-1.5,0-2.2c0-1.3-0.1-2.7,0.3-4.1c0.2-1,0.2-2.1,0.1-3.1c0.1-1.9-0.3-3.9,0.2-5.7
		c0.1-0.9,0.2-1.8,0.2-2.7c-0.1-0.9,0-1.8,0-2.7c0-1.1-0.1-2.2,0.3-3.3c0.2-1.1,0.2-2.3,0.1-3.5c0-1.8-0.2-3.6,0.2-5.3
		C53.4,13.3,53.7,11.8,53.3,10.3L53.3,10.3z M40.5,8.1c1.1,4.4,0.7,5.3-3.6,6.6c-1,0.3-2.1,0.6-3.3,1c1-3.4,2.2-6.2,4.8-8.3
		C39.4,6.6,40.1,6.5,40.5,8.1z M37.9,4c-1.3,1.3-2.7,2.2-3.8,3.5c-1.5,2-2.7,4.2-3.1,6.6c-0.4,2.2-1.5,3.2-3.6,3.6
		c-0.9,0.1-1.8,0.5-2.7,0.8C25.7,10.5,32.4,3.1,37.9,4z M41.1,29.8c-0.3,0.6-0.4,1.3-0.7,1.9c-0.5,1.6-0.7,3.6-1.7,4.5
		c-1,1-2.7-0.7-4.3-0.7c-0.8,0-1.6-0.1-2.4,0c-1.6,0.1-3,0.9-3.6,2.6c-0.5,1.7,0.4,2.9,1.6,3.9c1.9,1.5,4,2.6,5.6,4.4
		c3.5,4,3.6,8.5,1.6,13.1c-1.9,4.3-5.4,6.2-10,6c-3.5,0-6.5-1.1-9.3-3.2c-1.1-0.8-1.6-1.6-1-3s0.5-3.6,1.6-4.3
		c1.2-0.8,2.4,1.3,3.9,1.7c0.4,0.1,0.7,0.3,1,0.4c1.8,0.5,3.6,1,4.8-0.9c1-1.5,0.4-3.6-1.3-5.2c-0.7-0.6-1.3-1.2-2.1-1.7
		C17.5,44,20.1,34.3,25,30.4c4.4-3.4,9.4-4.2,14.8-3C41.3,27.8,41.9,28.4,41.1,29.8z M44.4,12.4c-1,0.4-0.9-0.4-0.9-1
		c0-1.8-0.4-3.5-0.8-5.4c2.7,0.8,3.7,2.8,4.2,4.8C47.2,12.4,45.3,11.9,44.4,12.4z"/>
	<path class="st1" d="M50.1,68.1c-0.1,1.9,0.5,3.9-0.4,5.8C49.9,72,49.2,70,50.1,68.1z"/>
	<path class="st2" d="M51.9,32.4c-0.1,1.9,0.5,3.9-0.4,5.8C51.7,36.2,51,34.2,51.9,32.4z"/>
	<path class="st3" d="M52.8,15c-0.1,1.8,0.4,3.6-0.4,5.3C52.6,18.5,52,16.7,52.8,15z"/>
	<path class="st4" d="M51.4,41.3v4c-0.1,0.2-0.3,0.2-0.4,0C51.2,44,50.6,42.6,51.4,41.3z"/>
	<path class="st5" d="M50.5,61c-0.1,1.3,0.4,2.7-0.4,4.1v-4C50.2,60.8,50.4,60.8,50.5,61z"/>
	<path class="st6" d="M51,50.2v3.6c-0.1,0.2-0.3,0.2-0.4,0C50.8,52.6,50.2,51.4,51,50.2z"/>
	<path class="st7" d="M52.3,23.9V27c-0.1,0.2-0.3,0.2-0.4,0C52.1,25.9,51.5,24.8,52.3,23.9z"/>
	<path class="st8" d="M52,27h0.4c-0.1,0.9,0.4,1.9-0.4,2.7V27z"/>
	<path class="st9" d="M50.6,53.8H51c-0.1,0.9,0.4,1.9-0.4,2.7V53.8z"/>
	<path class="st10" d="M51.1,45.3h0.4c-0.1,0.7,0.3,1.6-0.4,2.2C51.1,46.8,51.1,46.1,51.1,45.3z"/>
	<path class="st11" d="M50.5,61h-0.4c0.1-0.7-0.3-1.6,0.4-2.2C50.5,59.5,50.5,60.3,50.5,61z"/>
	<path d="M48.8,76.9l3.7-66.6l0.9,0.1l0.5,2.6l-2.6,63C51.5,76.1,52.6,76.6,48.8,76.9z"/>
</g>
</svg>
