<?xml version="1.0" encoding="utf-8"?>
<!-- Generator: Adobe Illustrator 26.0.1, SVG Export Plug-In . SVG Version: 6.00 Build 0)  -->
<svg version="1.1" id="Layer_1" xmlns="http://www.w3.org/2000/svg" xmlns:xlink="http://www.w3.org/1999/xlink" x="0px" y="0px"
	 viewBox="0 0 500 500" style="enable-background:new 0 0 500 500;" xml:space="preserve">
<style type="text/css">
	.st0{fill:#415AFF;}
	.st1{fill:#FFFFFF;}
</style>
<circle class="st0" cx="250.09" cy="249.54" r="245.11"/>
<path class="st1" d="M212.44,137.43c7.42-18.69,23.91-31.6,42.32-31.6c18.69,0,34.9,12.91,42.32,31.6h19.78
	c-8.24-31.33-32.97-53.86-61.83-53.86c-29.13,0-53.58,22.53-62.38,53.58h19.78V137.43z M379.24,167.93H125.61
	c-5.5,59.08-9.89,118.43-13.46,177.51c0.82,7.42,5.77,20.33,27.2,21.98h225.87c21.16-1.65,26.38-14.56,27.2-21.98
	C389.13,286.09,384.73,227.01,379.24,167.93z M328.4,272.9c-5.77,18.14-16.49,33.52-30.78,43.69
	c-13.19,9.62-29.13,14.84-45.34,14.84h-0.55c-15.94-0.27-31.33-5.5-44.24-14.84c-14.56-10.44-25.01-25.56-30.78-43.69l-1.65-5.5
	h32.97l0.82,1.92c7.69,18.96,24.73,31.05,43.97,31.05h0.82c18.96-0.27,35.72-12.09,43.14-31.05l0.82-1.92h32.97L328.4,272.9
	L328.4,272.9z"/>
</svg>
