<?xml version="1.0" encoding="utf-8"?>
<!-- Generator: Adobe Illustrator 23.0.4, SVG Export Plug-In . SVG Version: 6.00 Build 0)  -->
<svg version="1.1" id="Layer_1" xmlns="http://www.w3.org/2000/svg" xmlns:xlink="http://www.w3.org/1999/xlink" x="0px" y="0px"
	 viewBox="0 0 100 100" style="enable-background:new 0 0 100 100;" xml:space="preserve">
<style type="text/css">
	.st0{fill:#415AFF;}
	.st1{fill:#FFFFFF;}
</style>
<circle class="st0" cx="50.2" cy="50.3" r="47"/>
<g>
	<path class="st1" d="M54.8,33.5c-4.2,5.9-13.6,20.8-13.6,20.8l-10-19.9c-2.4-4.7-7.1-7.6-12.3-7.6h-13c-0.4,0-0.7,0.4-0.5,0.8
		l18.8,38.5c2.3,5.1,9.4,5.5,12.3,0.8c7.1-11.4,17.4-27.6,18.3-29C54.8,37.9,54.8,33.5,54.8,33.5z"/>
	<path class="st1" d="M28,78.9l-1-0.6c-0.3-0.2-0.4-0.7-0.2-1L52.9,36l2.4,1.5L29,78.7C28.8,79,28.3,79.1,28,78.9z"/>
	<path class="st1" d="M65.4,79.2L65.4,79.2c-0.6-0.4-0.8-1.3-0.4-1.9l25-40.1l2.4,1.5l-25,40.1C66.9,79.4,66.1,79.6,65.4,79.2z"/>
	<path class="st1" d="M96.5,29.5L96.5,29.5c0.6,0.4,0.8,1.3,0.4,1.9L71.8,71.3l-2.4-1.5l25.1-39.9C95.1,29.3,95.9,29.1,96.5,29.5z"
		/>
	<path class="st1" d="M91.3,36.8V35c-4.8,7-11.9,19.3-11.9,19.3l-8.6-19.4c-2.2-5-7.1-8.2-12.6-8.2h-13c-0.4,0-0.7,0.4-0.5,0.8
		L62.3,66c2.3,5.1,9.4,5.5,12.3,0.8C81.7,55.4,91.2,40,92.2,38.7c0.4-0.6,0.8-1.3,1.3-1.9H91.3L91.3,36.8z"/>
</g>
</svg>
