<?xml version="1.0" encoding="utf-8"?>
<!-- Generator: Adobe Illustrator 26.0.1, SVG Export Plug-In . SVG Version: 6.00 Build 0)  -->
<svg version="1.1" id="Layer_1" xmlns="http://www.w3.org/2000/svg" xmlns:xlink="http://www.w3.org/1999/xlink" x="0px" y="0px"
	 viewBox="0 0 500 800" style="enable-background:new 0 0 500 800;" xml:space="preserve">
<style type="text/css">
	.st0{fill:#C8C2FE;}
	.st1{fill:#ECEAFE;}
	.st2{fill:#D3CFFE;}
	.st3{fill:#E8E6FE;}
</style>
<path class="st0" d="M447.3,454c-1.5,1.5-3,3-4.4,4.6c-3.5,3.9-7.2,7.5-11.1,11.1c-1.6,1.6-3.2,3.1-4.8,4.7c-0.8,0.2-1,1.2-1.8,1.4
	c-5.3,5.3-11.2,10-16.9,14.8c-8.8,7.4-18.1,14.3-27.5,20.9c-6.5,4.6-13.1,8.9-19.9,13.1c-13.8,8.6-28,16.5-42.6,23.7
	c-12.7,6.2-25.6,11.9-38.8,17.2c-11.5,4.6-23.2,8.6-35,12.3c-11.4,3.6-22.9,6.6-34.5,9.2c-11,2.5-22,4.5-33.1,6
	c-6.6,0.9-13.2,1.5-19.8,2c-8.7,0.6-17.5,1-26.3,0.7c-16-0.4-31.8-2.2-47.2-6.6c-11.6-3.3-22.8-7.8-33.1-14.2
	c-6.6-4.1-12.7-9-17.8-14.9c-8-9.3-12.9-20.1-14.1-32.4c-0.9-9.9,0.1-19.6,2.8-29.1c4.3-15.5,11.9-29.4,20.7-42.7
	c4.2-6.3,8.7-12.3,13.6-18.1c3.1-3.7,6.1-7.5,9.5-11c0.1-0.7,1-0.9,1.1-1.6c1.7-1.7,3.3-3.4,5-5.1c0.6-1.3,2-1.9,2.7-3.1
	c3.2-3.2,6.3-6.4,9.5-9.5c1.3-0.7,1.9-2,3.1-2.7c1.9-1.9,3.9-3.8,5.8-5.8c0.7-0.2,0.9-1,1.5-1.1c3.5-3.4,7.3-6.4,10.6-10
	c1.4-1,2.6-2.3,3.7-3.7c7.6-7.6,14.2-15.9,18.8-25.7c3.3-7.2,5.1-14.6,3.3-22.6c-1-4.2-3.1-7.9-5.9-11.2
	c-6.3-7.3-14.5-11.4-23.2-14.8c-11.5-4.5-23.6-6.1-35.6-8.6c-12.1-2.6-23.8-6.5-34.5-13.1c-5.4-3.3-10.3-7.2-14.4-12
	c-7.2-8.4-11.3-18.2-12.3-29.4c-0.8-9.9,0.7-19.4,3.6-28.8c4.2-13.8,10.9-26.3,18.9-38.3c4.7-7,9.7-13.8,15.2-20.2
	c3.6-4.2,7-8.5,10.9-12.4c0.3-0.9,1.3-1.2,1.6-2.1c5.8-5.8,11.6-11.6,17.4-17.4c0.9-0.3,1.2-1.3,2.1-1.6c5.4-5.1,11.1-9.9,16.7-14.7
	c5.3-4.4,10.6-8.7,16.1-12.8c8.1-6.1,16.3-11.9,24.8-17.3c9.8-6.3,19.8-12.3,30-17.9c10.6-5.8,21.4-11.3,32.4-16.3
	c8.8-4.1,17.8-7.8,26.8-11.5c4-1.6,8-3.1,12-4.5c8.4-2.9,16.8-5.8,25.3-8.3c7.4-2.2,14.8-4.3,22.2-6.1c13.7-3.4,27.6-6.2,41.6-8
	c10.3-1.4,20.7-2.3,31.1-2.7c7.8-0.3,15.7-0.3,23.5,0.1c12.6,0.7,25.2,2.3,37.4,5.6c13.7,3.7,26.8,9,38.7,17
	c3.2,2.2,6.4,4.5,9.1,7.3c1.6,1.2,3,2.6,4.3,4.3c8.4,9,13.5,19.7,15.2,31.9c1.4,10.5,0.2,20.8-2.7,30.9
	c-4.3,15.5-11.9,29.4-20.8,42.6c-4.6,6.8-9.6,13.4-14.9,19.7c-2.2,2.6-4.3,5.3-6.7,7.7c-0.1,0.7-1,0.9-1.1,1.6
	c-1.4,1.4-2.8,2.8-4.2,4.3c-0.4,1-1.5,1.4-1.9,2.3c-5.2,5.2-10.4,10.4-15.6,15.6c-1,0.4-1.4,1.5-2.3,1.9c-1.6,1.6-3.2,3.1-4.8,4.7
	c-0.7,0.1-0.9,1-1.6,1.1c-4.6,4.5-9.5,8.6-13.9,13.3c-6.3,6.8-12.3,13.8-16.5,22.1c-4,7.7-6.4,15.8-4.6,24.6c1,4.8,3.3,9,6.7,12.7
	c6.1,6.7,13.9,10.7,22.2,13.9c11.6,4.5,23.9,6.2,35.9,8.7c12.1,2.6,23.8,6.5,34.5,13.1c4,2.5,7.8,5.2,11.1,8.6
	c0.6,0.3,1,0.7,1.3,1.3c9.7,10,14.3,22,14.4,36c0,8.2-1.3,16-3.7,23.8c-4.3,14.1-11.3,26.9-19.3,39.2c-3.9,5.9-8.2,11.5-12.5,17.1
	c-2.1,2.7-4.5,5.1-6.6,7.8c-1.7,2.2-3.7,4.2-5.6,6.2C448.3,453.1,447.5,453.3,447.3,454z"/>
<path class="st1" d="M39.8,1213.2c14,0,27.9,0,41.9,0c-1,1.1-2.4,0.9-3.7,0.9c-11.5,0-22.9,0-34.4,0
	C42.2,1214,40.8,1214.3,39.8,1213.2z"/>
<path class="st2" d="M918.7,465.2c0-5.4,0-10.7,0-16.1C920.1,454.5,920.2,459.8,918.7,465.2z"/>
<path class="st2" d="M514.6,661.2c2.7,0.2,5.5-0.9,8,0.8C520,661.8,517.1,662.9,514.6,661.2z"/>
<path class="st2" d="M581.7,662c2.5-1.8,5.4-0.6,8-0.8C587.2,662.9,584.3,661.8,581.7,662z"/>
<path class="st2" d="M-59.3-114.7c-2.2,1.7-4.7,0.6-7,0.8C-64.2-115.5-61.6-114.5-59.3-114.7z"/>
<path class="st2" d="M13.8-113.8c-2.4-0.2-4.9,0.8-7-0.8C9.1-114.5,11.6-115.5,13.8-113.8z"/>
<path class="st2" d="M15.7,1212.1c2,0.2,4.2-0.7,6,0.8C19.7,1212.8,17.5,1213.7,15.7,1212.1z"/>
<path class="st2" d="M491.6,660.2c1.7,0.1,3.6-0.6,5.1,0.8C494.9,661,493.1,661.6,491.6,660.2z"/>
<path class="st2" d="M605.7,661c1.5-1.5,3.3-0.7,5-0.8C609.2,661.6,607.4,660.9,605.7,661z"/>
<path class="st3" d="M412.8,1029c0-1.6,0-3.3,0-4.9C414.1,1025.8,414.1,1027.4,412.8,1029z"/>
<path class="st2" d="M98.7,1212.9c1.5-1.4,3.3-0.7,5-0.8C102.3,1213.5,100.4,1212.9,98.7,1212.9z"/>
</svg>
