<?xml version="1.0" encoding="utf-8"?>
<!-- Generator: Adobe Illustrator 26.0.1, SVG Export Plug-In . SVG Version: 6.00 Build 0)  -->
<svg version="1.1" id="Layer_1" xmlns="http://www.w3.org/2000/svg" xmlns:xlink="http://www.w3.org/1999/xlink" x="0px" y="0px"
	 viewBox="0 0 174 76" style="enable-background:new 0 0 174 76;" xml:space="preserve">
<style type="text/css">
	.st0{fill:#141414;}
</style>
<path class="st0" d="M11.1,69.5c-0.1,0.4-0.2,0.8,0.1,1c0.4,0.3,0.7,0,1-0.3c0.6-0.7,1.2-1.5,1.8-2.3c3.9-5.8,7.7-11.7,11.3-17.8
	c5.2-8.9,12.2-16.3,19.3-23.7c1.9-1.9,3.8-3.7,6-5.3c0.4-0.3,0.7-0.8,1.4-0.5c-0.1,0.4-0.2,0.9-0.3,1.3c-1.3,4.3-2.7,8.6-4,12.9
	c-1.6,5.2-3.2,10.3-4,15.7C43.1,53.8,43,57,44.3,60c1.3,2.9,3.6,3.8,6.6,2.6c1.4-0.6,2.6-1.5,3.8-2.3c7-5,13-11.2,19.4-16.9
	c10-8.9,21-16.3,33.6-21.1c7.8-3,15.9-5.3,24.3-6c8-0.6,16,0.1,24.1,0.5c-0.3,1-1.1,1.2-1.7,1.6c-1.3,0.9-2.5,1.8-3.6,2.9
	c-0.4,0.4-0.7,1-0.4,1.6c0.3,0.7,1,0.9,1.7,0.7c0.9-0.2,1.7-0.5,2.5-0.8c4.3-1.8,8.1-4.6,12.4-6.4c1.6-0.6,2-2.1,1.6-3.7
	c-0.4-1.7-1.5-2.4-3-2.9c-3.9-1.2-7.8-2.3-11.6-3.9c-1-0.4-2-0.6-3-0.9c-0.8-0.2-1.7-0.2-2.2,0.7c-0.6,1,0,1.7,0.7,2.3
	c0.7,0.7,1.6,1.3,2.5,1.8c1,0.6,2,1.2,3.3,2c-2.3,0-4.3,0.1-6.1,0c-7.2-0.5-14.5-0.7-21.7,0.3C108,14.9,91,23.1,75.9,35.3
	c-4.6,3.7-8.8,7.9-13.1,12c-3.6,3.4-7.3,6.7-11.2,9.7c-0.5,0.4-1.1,0.8-1.6,1.1c-1.1,0.6-1.8,0.3-2.2-0.9c-0.2-0.5-0.2-1-0.3-1.5
	c-0.1-2.1-0.1-4.3,0.3-6.4c0.6-3.6,1.6-7.2,2.6-10.8c1.6-5.5,3.3-10.9,4.9-16.4c0.3-1.1,0.6-2.1,0.6-3.3c-0.1-2.3-1.9-3.4-4-2.5
	c-1.4,0.6-2.5,1.5-3.6,2.5C40,26.3,32.5,34.2,26.4,43.3c-5.4,8.1-9.9,16.8-14.9,25.2C11.4,68.8,11.2,69.1,11.1,69.5z"/>
</svg>
