<?xml version="1.0" encoding="utf-8"?>
<!-- Generator: Adobe Illustrator 23.0.4, SVG Export Plug-In . SVG Version: 6.00 Build 0)  -->
<svg version="1.1" id="Layer_1" xmlns="http://www.w3.org/2000/svg" xmlns:xlink="http://www.w3.org/1999/xlink" x="0px" y="0px"
	 viewBox="0 0 1600 500" style="enable-background:new 0 0 1600 500;" xml:space="preserve">
<style type="text/css">
	.st0{fill:#FF5967;}
	.st1{fill:#8DD941;}
	.st2{fill:#FF8126;}
	.st3{fill:#4DA6FF;}
	.st4{fill:#FFC926;}
	.st5{fill:#FFD659;}
	.st6{fill:none;stroke:#4DA6FF;stroke-miterlimit:10;}
	.st7{fill:none;stroke:#FF5967;stroke-miterlimit:10;}
</style>
<polygon class="st0" points="158,19 162.4,28.3 150.7,26.3 "/>
<polygon class="st1" points="178.2,301.1 171.7,287.4 189,290.5 "/>
<polygon class="st2" points="1547,152.9 1538.6,141 1555.5,141 "/>
<polygon class="st1" points="454.7,466.6 440.2,465.9 450.5,452.7 "/>
<circle class="st3" cx="168.5" cy="465.6" r="10.9"/>
<circle class="st0" cx="36.9" cy="446.2" r="5.2"/>
<image style="overflow:visible;" width="87" height="87" xlink:href="8F26FC86B3C77CCD.png"  transform="matrix(1 0 0 1 285 59)">
</image>
<g>
	
		<image style="overflow:visible;" width="90" height="90" xlink:href="8F26FC86B3C77CCE.png"  transform="matrix(1 0 0 1 1435 273)">
	</image>
</g>
<circle class="st0" cx="1343" cy="77.2" r="9.8"/>
<rect x="1317.6" y="433.9" transform="matrix(0.7591 -0.651 0.651 0.7591 32.2192 968.2654)" class="st3" width="13.3" height="13.3"/>
<rect x="21.4" y="173.4" transform="matrix(0.9397 -0.342 0.342 0.9397 -59.8835 20.4636)" class="st4" width="13.3" height="13.3"/>
<rect x="1386.7" y="190.3" transform="matrix(0.9848 -0.1736 0.1736 0.9848 -12.9253 244.8203)" class="st1" width="11.9" height="11.9"/>
<polygon class="st5" points="1531.7,460.1 1545,450.5 1545.2,469.4 "/>
<line class="st6" x1="189" y1="138" x2="148.5" y2="178.5"/>
<line class="st7" x1="1299" y1="273" x2="1266.5" y2="305.5"/>
</svg>
