<?xml version="1.0" encoding="utf-8"?>
<!-- Generator: Adobe Illustrator 26.0.1, SVG Export Plug-In . SVG Version: 6.00 Build 0)  -->
<svg version="1.1" id="Layer_1" xmlns="http://www.w3.org/2000/svg" xmlns:xlink="http://www.w3.org/1999/xlink" x="0px" y="0px"
	 viewBox="0 0 122 100" style="enable-background:new 0 0 122 100;" xml:space="preserve">
<style type="text/css">
	.st0{fill:#FDFDFD;}
	.st1{fill:#A5A5A5;}
</style>
<path class="st0" d="M81.9,85.8c3.3,0,6.6,0,10,0C88.5,87.3,85.2,87.3,81.9,85.8z"/>
<path d="M117.8,52.8c-1.3-0.7-2.6-1.5-3.8-2.3c-12.9-7.9-26.4-14.1-41.9-13.6c-6.8,0.2-12.6-1.8-17.5-6c-13.5-11.7-30-14.8-46.9-17
	c-1.6-0.2-4-1-4.8,1.4c-0.8,2.9-3.7,5.8-1.1,8.8c2.6,3,2.2,6.1,1.6,9.4c-0.9,5.1-1.2,10.3,0,15.3C5.8,58.5,13.5,63,22.3,65.2
	c9,2.3,17.1-0.5,23.4-7.5c1.7-1.8,3.6-3.6,4.8-5.7c1.8-3.1,4.5-2.6,7-2.1c2.5,0.4,3.1,2.8,3.2,5c0.2,2.8,0,5.7,0.1,8.5
	c0.2,12.1,8.9,21.3,21,22.3c3.3,0.8,6.6,0.7,10,0c1.1-0.2,2.3-0.3,3.4-0.8c7.3-3.2,11.2-9.7,15-16.1c1.3-2.2,2.5-4.1,5.5-4.3
	c4.1-0.2,3.8-4.1,4.8-6.7C121.5,55.5,119.9,53.9,117.8,52.8z M49.6,44.6c-4.3,6.3-8.4,12.8-16.4,15.2C21.6,63.4,7.7,53,7.9,39.8
	C8.6,35.9,9,31,10.6,26.2c1.3-4,4.3-5.4,8.1-5c10.5,1.1,20,4.9,28.6,10.8C52.8,35.7,53.3,39,49.6,44.6z M108.6,59.8
	c-2.5,6.7-5.7,13.1-11.3,17.9c-2.9,2.4-6.3,3.6-9.5,3.1c-17.5-0.8-23.9-11.4-21.7-28c1.3-10.1,3-11.1,13.4-10
	c9.7,1,18.6,4.3,26.6,10.1C108.4,54.6,109.6,57.2,108.6,59.8z"/>
<path class="st1" d="M90.6,50.3c12.2,2.1,15.8,7.3,10.5,15.9C100.5,58.8,96.8,53.8,90.6,50.3z"/>
<path class="st1" d="M32.9,29.6c-7.2-1.4-14.2-1.8-19.6,5.4c-0.1-7.2,1.8-9.3,7.4-9.2C24.7,25.8,29.1,27.1,32.9,29.6z"/>
</svg>
