<svg version="1.1" id="Layer_1" xmlns="http://www.w3.org/2000/svg" x="0" y="0" viewBox="0 0 729.6 1179.1" style="enable-background:new 0 0 729.6 1179.1" xml:space="preserve"><style>.st0{fill:#f5b4c4}.st1{fill:#fcce44}.st2{fill:#030207}.st3{fill:#0068a8}.st5{fill:none;stroke:#170c2c;stroke-width:3;stroke-linejoin:bevel}.st6{fill:#fff}.st7{fill:#170c2c}</style><path class="st0" d="m82.93 345.55-65.74 41.98-3.61-78.12z"/><path class="st1" d="M509.96 247.48c-19.96-52.82 6.68-111.81 59.49-131.77 52.82-19.96 111.81 6.68 131.77 59.49l-191.26 72.28z"/><path class="st2" d="m422.7 828.55-84.56-146-94.41 106.26 22.47 231-159.29-27.24c17.28-23.25 50.85-27.75 50.85-27.75s-40.71-151.4-37.87-210.56c3.81-79.4 169.1-253.62 246.42-226.18 81.6 29 183.27 204.12 188.86 278 5.21 68.92-34.05 225.64-34.05 225.64l39.26 38.43-153.31-26.21 15.63-215.39z"/><path class="st3" d="m269.6 392.32 45.84 84.61c9 16.62 29.77 22.81 46.4 13.81a34.19 34.19 0 0 0 12.44-11.51l52.88-81.7c14.5-22.4-1.06-52-27.73-52.82l-98.71-2.9c-26.38-.79-43.69 27.31-31.12 50.51z"/><path class="st1" d="m359.37 373.98 10-54.88s25.67-2.18 28.07-19-15.94-16.29-15.94-16.29 1.12-23.91-20.72-34.73c-21.84-10.82-38.35-2.63-48.44 14-17.52 28.82-5 45.35 28.16 59l-5.74 35.57"/><path class="st2" d="M392.58 286.92s16.51-21-8.83-44-36.06-15.5-43.7-27.49-38.46 15.76-9.46 39.49 29.14 21.11 29.14 21.11-8.43 14.54.33 18.66 20.61-9 20.61-9"/><path style="fill:none;stroke:#170c2c;stroke-width:3;stroke-miterlimit:10" d="m327.12 261.25-10.43 10.11"/><circle class="st2" cx="334.75" cy="264.93" r="3.95"/><circle class="st2" cx="322.41" cy="255.77" r="3.95"/><path class="st5" d="M254.5 348.14c-43.85 3.21-101.53 98.67-101.53 98.67M254.5 437.58s-49.64 80-87.8 85.33-68.06-45.1-76.52-45.1"/><path class="st5" d="M108.24 466.21s-38.92 23.8-48.36 21.54 33.62-27.94 33.62-27.94-54.85 32.23-62.93 25.31c-4.41-3.78 46.31-32.49 46.31-32.49s-42.13 22.48-49.87 20C18.69 470 74.23 440.9 74.23 440.9s-33.24 1.7-24.74-9.26c2.07-2.67 47-10.2 62.53-7.18s64.22 42.51 64.22 42.51M437.42 441.27s94.77 64 129.23 56.62 82.93-69 82.93-69 32-2.82 40.61-6.54 25-23.72 21.7-27.41-26.9 15.72-26.9 15.72"/><path class="st5" d="M665.12 401.96s27-7.34 36.17-3.48M641.42 388.96s-13.23-4.92-22.15 0-60.31 36.31-60.31 36.31-76.92-65.84-104-66.77"/><circle class="st3" cx="662.68" cy="370.5" r="38.62"/><path class="st6" d="M154.73 212.46c-25.95-.09-51.23-8.29-72.29-23.45a122.251 122.251 0 0 1-44.94-61.54l116.25-36.53 36.53 116.26a123.602 123.602 0 0 1-35.58 5.26h.03z"/><path class="st7" d="m152.8 92.81 35.62 113.37a121.506 121.506 0 0 1-33.69 4.77c-25.64-.08-50.61-8.17-71.42-23.14a120.804 120.804 0 0 1-43.88-59.35L152.8 92.81m2-3.76L35.64 126.49c20.59 65.75 90.58 102.36 156.33 81.77.07-.02.15-.05.22-.07L154.76 89.06l.04-.01z"/><path transform="rotate(-80.299 319.114 1045.925)" class="st0" d="M302.22 751.01h33.77v589.81h-33.77z"/><path transform="rotate(-40.389 359.079 60.034)" style="fill:#c64f4b" d="M325.57 26.52h67.03v67.03h-67.03z"/><path class="st6" d="M329.36 1166.81c-27.44 0-49.69-22.25-49.69-49.69 0-27.44 22.25-49.69 49.69-49.69s49.69 22.25 49.69 49.69c-.04 27.43-22.27 49.66-49.69 49.69z"/><path class="st7" d="M329.36 1068.89c26.61.01 48.19 21.59 48.18 48.2-.01 26.61-21.59 48.19-48.2 48.18-26.61-.01-48.18-21.58-48.18-48.19.03-26.6 21.59-48.16 48.2-48.19m0-3c-28.27 0-51.19 22.92-51.19 51.19 0 28.27 22.92 51.19 51.19 51.19 28.27 0 51.19-22.92 51.19-51.19 0-28.27-22.92-51.19-51.19-51.19z"/></svg>