<svg id="Layer_1" xmlns="http://www.w3.org/2000/svg" viewBox="100 92.1 300 116.9" enable-background="new 100 92.1 300 116.9"><style>.st0{fill:#fff}.st1{filter:url(#Adobe_OpacityMaskFilter)}.st2{fill:url(#SVGID_2_)}.st3{opacity:.5;mask:url(#SVGID_1_);fill:#fff}</style><path class="st0" d="M331 167.1h31.5v-1.8h-30.4l-.4-.5c-3-3.2-7.2-5.1-11.6-5.1-.7 0-1.5.1-2.3.2l-1.2.1-.4-1.1c-2.6-7.5-9.2-13-17-14.3l-1-.2-.2-1c-3.1-14.4-15.5-24.4-30.2-24.4-15.3 0-28.1 10.9-30.5 25.9l-.3 2-1.8-.9c-5-2.5-10.9-3.7-17-3.7-13.5 0-25.2 6.5-28 15.3l-.4 1.4-1.4-.3c-2.6-.6-4.9-1-7.1-1-7.2 0-13.8 2.7-17.6 7.3l-.4.5h-30.6v1.8H164c3.1-4.6 9.7-7.7 16.9-7.7 3.3 0 6.4.6 9.1 1.7l1.3.5.1-1.4c.7-8.9 12.5-16.2 26.4-16.2 7.1 0 14.1 2 19.2 5.4l1.5 1 .1-1.8c.6-15.6 13.3-27.8 28.9-27.8 14.3 0 26.4 10.3 28.6 24.5l.1.8.8.1c8.5.8 15.7 6.9 17.7 15.2l.2 1 .9-.3c1.6-.4 2.9-.6 4.1-.6 4.4 0 8.5 2 11.1 5.4z"/><defs><filter id="Adobe_OpacityMaskFilter" filterUnits="userSpaceOnUse" x="164.3" y="121.1" width="166.4" height="45.8"><feColorMatrix values="1 0 0 0 0 0 1 0 0 0 0 0 1 0 0 0 0 0 1 0"/></filter></defs><mask maskUnits="userSpaceOnUse" x="164.3" y="121.1" width="166.4" height="45.8" id="SVGID_1_"><g class="st1"><linearGradient id="SVGID_2_" gradientUnits="userSpaceOnUse" x1="247.5" y1="112.723" x2="247.5" y2="170.37"><stop offset="0" stop-color="#FFF"/><stop offset="1"/></linearGradient><path class="st2" d="M319.9 161.8c-1.2 0-2.5.2-4.1.6l-.9.3-.2-1c-2-8.4-9.2-14.5-17.7-15.2l-.8-.1-.1-.8c-2.2-14.2-14.2-24.5-28.6-24.5-15.6 0-28.3 12.2-28.9 27.8l-.1 1.8-1.5-1c-5.1-3.4-12.1-5.4-19.2-5.4-13.9 0-25.7 7.3-26.4 16.2l-.1 1.4-1.3-.5c-2.7-1.1-5.8-1.7-9.1-1.7-6.9 0-13.3 2.8-16.5 7.2h166.4c-2.8-3.2-6.7-5.1-10.9-5.1z"/></g></mask><path class="st3" d="M319.9 161.8c-1.2 0-2.5.2-4.1.6l-.9.3-.2-1c-2-8.4-9.2-14.5-17.7-15.2l-.8-.1-.1-.8c-2.2-14.2-14.2-24.5-28.6-24.5-15.6 0-28.3 12.2-28.9 27.8l-.1 1.8-1.5-1c-5.1-3.4-12.1-5.4-19.2-5.4-13.9 0-25.7 7.3-26.4 16.2l-.1 1.4-1.3-.5c-2.7-1.1-5.8-1.7-9.1-1.7-6.9 0-13.3 2.8-16.5 7.2h166.4c-2.8-3.2-6.7-5.1-10.9-5.1z"/></svg>