<svg id="Layer_1" xmlns="http://www.w3.org/2000/svg" viewBox="100 92.1 300 116.9" enable-background="new 100 92.1 300 116.9"><style>.st0{fill:#fff}.st1{filter:url(#Adobe_OpacityMaskFilter)}.st2{fill:url(#SVGID_2_)}.st3{opacity:.4;mask:url(#SVGID_1_);fill:#fff}</style><path class="st0" d="M329.9 168.3l-.3-1.1c-3.1-11.6-21.3-20.1-43.2-20.1-6.8 0-13.6.9-19.7 2.5l-2.4.7.6-2.5c.4-1.8.7-3.9.7-6.2 0-17.6-15.5-32-34.6-32s-34.6 14.4-34.6 32c0 .8 0 1.6.1 2.3l.2 1.7h-3.5c-12.9 0-23.4 7.9-23.4 17.5v1.9h-26v1.8h28.4l-.2-1c-.1-.2-.1-.5-.1-.8v-.1c-.1-.6-.2-1.3-.2-1.9 0-8.7 9.7-15.7 21.7-15.7 1.4 0 2.8.1 4.1.3l1.3.2-.2-1.4c-.3-1.5-.4-3.2-.4-5.1 0-16.5 14.6-30 32.6-30s32.6 13.5 32.6 30c0 3.3-.6 6.7-1.8 9.9l-.8 2.1 2.1-.7c7-2.5 15.1-3.8 23.5-3.8 22.6 0 41.1 9.4 41.7 21h28.3V168l-26.5.3z"/><defs><filter id="Adobe_OpacityMaskFilter" filterUnits="userSpaceOnUse" x="171.6" y="111.6" width="155.7" height="55.1"><feColorMatrix values="1 0 0 0 0 0 1 0 0 0 0 0 1 0 0 0 0 0 1 0"/></filter></defs><mask maskUnits="userSpaceOnUse" x="171.6" y="111.6" width="155.7" height="55.1" id="SVGID_1_"><g class="st1"><linearGradient id="SVGID_2_" gradientUnits="userSpaceOnUse" x1="249.477" y1="110.228" x2="249.477" y2="170.895"><stop offset="0" stop-color="#FFF"/><stop offset="1"/></linearGradient><path class="st2" d="M286.3 149.1c-8.4 0-16.5 1.3-23.5 3.8l-2.1.7.8-2.1c1.2-3.2 1.8-6.6 1.8-9.9 0-16.5-14.6-30-32.6-30s-32.6 13.5-32.6 30c0 1.9.1 3.5.4 5.1l.2 1.4-1.3-.2c-1.4-.2-2.8-.3-4.1-.3-12 0-21.7 7-21.7 15.7 0 .6.1 1.3.2 1.9v.1c0 .3.1.5.1.8l.2.7h155.2c-3.6-10.1-20.6-17.7-41-17.7z"/></g></mask><path class="st3" d="M286.3 149.1c-8.4 0-16.5 1.3-23.5 3.8l-2.1.7.8-2.1c1.2-3.2 1.8-6.6 1.8-9.9 0-16.5-14.6-30-32.6-30s-32.6 13.5-32.6 30c0 1.9.1 3.5.4 5.1l.2 1.4-1.3-.2c-1.4-.2-2.8-.3-4.1-.3-12 0-21.7 7-21.7 15.7 0 .6.1 1.3.2 1.9v.1c0 .3.1.5.1.8l.2.7h155.2c-3.6-10.1-20.6-17.7-41-17.7z"/></svg>