<svg id="Layer_1" xmlns="http://www.w3.org/2000/svg" viewBox="0 0 673.2 81.8"><style>.st0{fill:#3957a7}.st1{fill:#fff}.st2{fill:#f9a533}.st3{fill:#1c3663}.st4{fill:#13457c}.st5{fill:#fbb231}.st5,.st6,.st7{fill-rule:evenodd;clip-rule:evenodd}.st6{fill:#ec1c2e}.st7{fill:#fff}.st8{fill:none;stroke:#fff;stroke-width:.216;stroke-miterlimit:2.6131}.st9{fill:#0078a9}.st10{fill:#f1f2f2}.st11{fill:#f58220}.st12{fill:url(#SVGID_1_)}.st13{fill:#001722}.st14{fill:#231f20}</style><path class="st0" d="M126.5 76c0 2.3-1.9 4.2-4.2 4.2H5.2C2.9 80.2 1 78.3 1 76V6c0-2.3 1.9-4.2 4.2-4.2h117.1c2.3 0 4.2 1.9 4.2 4.2v70z"/><path class="st1" d="M58.8 52.8h-6.2l3.9-23.6h6.1zM47.5 29.2l-5.8 16.2-.7-3.5-2.1-10.6s-.2-2.1-2.9-2.1h-9.7l-.1.4s3 .6 6.4 2.7l5.3 20.4h6.4l9.8-23.5h-6.6zm48.2 23.6h5.6l-4.9-23.5h-4.9c-2.3 0-2.8 1.8-2.8 1.8l-9.1 21.8H86l1.3-3.5H95l.7 3.4zm-6.8-8.3l3.2-8.8 1.8 8.8h-5zM80 34.9l.9-5.1s-2.7-1-5.5-1c-3 0-10.3 1.3-10.3 7.8 0 6.1 8.5 6.2 8.5 9.3 0 3.2-7.6 2.6-10.1.6l-.9 5.3s2.7 1.3 6.9 1.3S80 50.9 80 45c0-6.1-8.6-6.7-8.6-9.3 0-2.6 6-2.2 8.6-.8z"/><path class="st2" d="M40.9 41.9l-2.1-10.6s-.2-2.1-2.9-2.1h-9.7l-.1.4s4.6 1 9.1 4.6c4.4 3.5 5.7 7.7 5.7 7.7z"/><path class="st3" d="M672.2 76.6c0 2.3-1.9 4.2-4.2 4.2H551c-2.3 0-4.2-1.9-4.2-4.2v-70c0-2.3 1.9-4.2 4.2-4.2h117.1c2.3 0 4.2 1.9 4.2 4.2v70z"/><path class="st1" d="M607.4 36.8c-.4 0-1 .4-1.3.8 0 0-3 5.1-3.3 5.6-.2.3-.3.1-.3 0s-.9-5.6-.9-5.6c-.1-.4-.6-.8-1.1-.8h-1.9c-.5 0-.7.4-.6.8 0 0 1.4 8.1 1.7 10 .1 1.1 0 1.2 0 1.2l-1.8 3.2c-.3.4-.1.8.3.8h2.2c.4 0 1-.4 1.3-.8l8.3-14.1s.8-1.2.1-1.2c-.6.1-2.7.1-2.7.1m-26.2 2.9c-.6.5-1.5.7-2.6.7h-.6c-.5 0-.7-.4-.6-.8l.6-2.7c.1-.4.5-.8 1-.8h.7c.8 0 1.4.1 1.8.4.4.3.6.7.6 1.2 0 .9-.3 1.5-.9 2m4.5-4.2c-.3-.5-.6-.9-1.1-1.2-.5-.3-1.1-.5-1.8-.7-.7-.1-1.5-.2-2.5-.2h-4.4c-.5 0-.9.4-1 .8L572 47c-.1.4.2.8.6.8h2.1c.5 0 .9-.4 1-.8l.7-3.1c.1-.4.5-.8 1-.8h.6c2.6 0 4.5-.5 6-1.6 1.4-1 2.1-2.4 2.1-4.1 0-.8-.1-1.4-.4-1.9m10.1 1.8c-.8-.4-2-.7-3.7-.7-.8 0-1.7.1-2.5.2-.6.1-.7.1-1.1.2-.8.2-.9 1-.9 1l-.3 1c-.1.7.2.6.4.6.3-.1.5-.2 1.2-.4s1.4-.3 2-.3c.8 0 1.5.1 1.9.3.4.2.6.5.6.9v.3c0 .1-.1.2-.3.2-1.2.1-2 .2-3.1.3-1 .1-1.9.4-2.7.7-.8.4-1.4.8-1.8 1.4-.4.6-.6 1.3-.6 2.2 0 .8.3 1.5.9 2 .6.5 1.3.8 2.2.8.6 0 1 0 1.3-.1.3-.1.7-.2 1-.3.3-.1.6-.3.9-.5.3-.2.5-.3.8-.5l-.1.3c-.1.4.2.7.6.8h1.9c.4-.1.8-.4.9-.8l1.5-6.6c0-.2.1-.3.1-.5v-.5c.1-.8-.3-1.5-1.1-2zm-3.7 7.9c-.3.2-.5.3-.8.4-.4.2-.8.2-1.1.2-.5 0-.9-.1-1.2-.2-.3-.1-.4-.4-.4-.8s.1-.8.3-1c.2-.3.5-.5.9-.6.4-.1.8-.2 1.4-.3.5-.1 1.4-.2 1.5-.2.1 0 .2-.1.1.3 0 .1-.3 1.3-.4 1.8 0 .1-.2.3-.3.4zm41.6-7.9c-.8-.4-2-.7-3.7-.7-.8 0-1.7.1-2.5.2-.6.1-.7.1-1.1.2-.8.2-.9 1-.9 1l-.3 1c-.1.7.2.6.4.6.3-.1.5-.2 1.2-.4s1.4-.3 2-.3c.8 0 1.5.1 1.9.3.4.2.6.5.6.9v.3c0 .1-.1.2-.3.2-1.2.1-2.1.2-3.1.3-1 .1-1.9.4-2.7.7-.8.4-1.4.8-1.8 1.4-.4.6-.6 1.3-.6 2.2 0 .8.3 1.5.9 2 .6.5 1.3.8 2.2.8.6 0 1 0 1.3-.1.3-.1.6-.2 1-.3.3-.1.6-.3.9-.5.3-.2.5-.3.8-.5l-.1.3c-.1.4.2.7.6.8h1.9c.4 0 .8-.4.9-.8l1.5-6.6c0-.2.1-.3.1-.5v-.5c.1-.8-.3-1.5-1.1-2zm-3.7 7.9c-.3.2-.5.3-.8.4-.4.2-.8.2-1.1.2-.5 0-.9-.1-1.2-.2-.3-.1-.4-.4-.4-.8s.1-.8.3-1c.2-.3.5-.5.9-.6.4-.1.8-.2 1.4-.3.5-.1 1.4-.2 1.5-.2.1 0 .2-.1.1.3 0 .1-.3 1.3-.4 1.8 0 .1-.2.3-.3.4zm-10.9-5.5c-.6.5-1.5.7-2.6.7h-.5c-.4 0-.7-.4-.6-.8l.6-2.7c.1-.4.6-.8 1-.8h.7c.8 0 1.4.1 1.8.4.4.3.6.7.6 1.2-.1.9-.4 1.6-1 2m4.5-4.2c-.3-.5-.7-.9-1.2-1.2-.5-.3-1.1-.5-1.8-.7-.7-.1-1.5-.2-2.5-.2h-4.4c-.5 0-.9.4-1 .8L609.9 47c-.1.4.2.8.6.8h2.1c.4 0 .9-.4 1-.8l.7-3.1c.1-.4.6-.8 1-.8h.6c2.6 0 4.5-.5 6-1.6 1.4-1.1 2.1-2.4 2.1-4.1 0-.7-.1-1.4-.4-1.9m17.3-1.9H639c-.4 0-.8.3-1 .7v.1s0 .2-.1.5l-2.6 11.7c-.1.3-.1.5-.1.5-.1.4.2.7.6.8h2c.4 0 .8-.3 1-.7v-.1l2.8-12.7c0-.5-.3-.8-.7-.8zm2.8 2.5h-.4c-.2 0-.4-.1-.5-.2-.1-.1-.2-.3-.2-.5v-1.1h-.2V34h.2v-.6h.3v.6h.7v.3h-.6v1.1c0 .1 0 .1.1.2l.1.1h.5v.4zm3.4.1h-.3v-1.5c0-.1 0-.1-.1-.2 0-.1-.1-.1-.1-.1h-.2c-.1 0-.2 0-.3.1-.1 0-.2.1-.3.2v1.5h-.3v-1.7c0-.1-.1-.1-.1-.1h-.2c-.1 0-.2 0-.3.1-.1 0-.2.1-.3.2v1.5h-.3v-2h.3v.2c.1-.1.2-.2.3-.2.1 0 .2-.1.3-.1.1 0 .3 0 .4.1.1.1.2.1.2.2.1-.1.3-.2.4-.3.1-.1.2-.1.4-.1s.4.1.5.2c.1.1.2.3.2.6v1.4z"/><path class="st4" d="M262.8 76c0 2.3-1.9 4.2-4.2 4.2h-117c-2.3 0-4.2-1.9-4.2-4.2V6c0-2.3 1.9-4.2 4.2-4.2h117.1c2.3 0 4.2 1.9 4.2 4.2v70z"/><path class="st5" d="M215.2 63.5h1.1l1.2-.1 1.1-.2 1.1-.2 1.1-.2 1.1-.3 1-.4 1-.4 1-.4 1-.5.9-.6 1-.5.8-.7.9-.6.8-.7.8-.8.8-.8.7-.8.6-.9.7-.8.5-1 .6-.9.5-1 .4-1 .4-1 .4-1 .3-1.1.2-1.1.2-1.1.2-1.1.1-1.2v-2.3l-.1-1.1-.2-1.2-.2-1.1-.2-1-.3-1.1-.4-1.1-.4-1-.4-1-.5-.9-.6-1-.5-.9-.7-.9-.6-.8-.7-.8-.8-.8-.8-.8-.8-.7-.9-.6-.8-.7-1-.5-.9-.6-1-.5-1-.4-1-.4-1-.4-1.1-.3-1.1-.2-1.1-.2-1.1-.2-1.2-.1H214l-1.1.1-1.2.2-1.1.2-1.1.2-1 .3-1.1.4-1 .4-1 .4-1 .5-.9.6-.9.5-.9.7-.8.6-.8.7-.8.8-.8.8-.7.8-.6.8-.7.9-.6.9-.5 1-.5.9-.4 1-.4 1-.4 1.1-.3 1.1-.2 1-.2 1.1-.2 1.2-.1 1.1v2.3l.1 1.2.2 1.1.2 1.1.2 1.1.3 1.1.4 1 .4 1 .4 1 .5 1 .5.9.6 1 .7.8.6.9.7.8.8.8.8.8.8.7.8.6.9.7.9.5.9.6 1 .5 1 .4 1 .4 1.1.4 1 .3 1.1.2 1.1.2 1.2.2 1.1.1h1.2z"/><path class="st6" d="M185.1 63.5h1.1l1.2-.1 1.1-.2 1.1-.2 1.1-.2 1-.3 1.1-.4 1-.4 1-.4 1-.5.9-.6.9-.5.9-.7.8-.6.9-.7.7-.8.8-.8.7-.8.7-.9.6-.8.6-1 .5-.9.5-1 .5-1 .4-1 .3-1 .3-1.1.3-1.1.2-1.1.1-1.1.1-1.2v-2.3l-.1-1.1-.1-1.2-.2-1.1-.3-1-.3-1.1-.3-1.1-.4-1-.5-1-.5-.9-.5-1-.6-.9-.6-.9-.7-.8-.7-.8-.8-.8-.7-.8-.9-.7-.8-.6-.9-.7-.9-.5-.9-.6-1-.5-1-.4-1-.4-1.1-.4-1-.3-1.1-.2-1.1-.2-1.1-.2-1.2-.1h-2.3l-1.2.1-1.1.2-1.1.2-1.1.2-1 .3-1.1.4-1 .4-1 .4-1 .5-.9.6-1 .5-.8.7-.9.6-.8.7-.8.8-.7.8-.7.8-.7.8-.6.9-.6.9-.6 1-.5.9-.4 1-.4 1-.4 1.1-.3 1.1-.2 1-.2 1.1-.2 1.2-.1 1.1v2.3l.1 1.2.2 1.1.2 1.1.2 1.1.3 1.1.4 1 .4 1 .4 1 .5 1 .6.9.6 1 .6.8.7.9.7.8.7.8.8.8.8.7.9.6.8.7 1 .5.9.6 1 .5 1 .4 1 .4 1.1.4 1 .3 1.1.2 1.1.2 1.1.2 1.2.1h1.2z"/><path class="st5" d="M197.5 27.1h11.9v-1.2h-10.9l-1 1.2zm-1.8 2.7h13.7v-1.2h-13l-.7 1.2zm-1.4 2.8h15.1v-1.3h-14.5l-.6 1.3zm-.9 2.7h16v-1.2h-15.6l-.4 1.2zm.6 13.1h15.5v-1.2h-15.9l.4 1.2zm1.1 2.7h14.4v-1.2h-15l.6 1.2zm1.6 2.7h12.8v-1.2h-13.6l.8 1.2zm2.2 2.8h10.6v-1.3h-11.6l1 1.3zm-6-18.6h16.5v-1.2h-16.3l-.2 1.2zm10.1 7.7h6.3v-1.2h-6.1l-.2 1.2zm.5-2.7h5.8v-1.2h-5.6l-.2 1.2zm-11-1.2h1.6V43h-1.6v-1.2z"/><path class="st7" d="M189.4 40.3h-.2l-.1-.1h-.5l-.1-.1h-.9l-.3.1h-.3l-.1.1h-.1l-.1.1h-.1l-.1.1v.1h-.1v.5l.1.1v.1l.2.1.2.2.2.1h.2l.3.1.2.1.3.1.2.1.2.1.2.2.2.2.2.2.1.3.1.3v.9l-.1.4v.3l-.2.3-.1.2-.2.2-.2.2-.2.2-.2.2-.3.1-.2.1h-.3l-.3.1h-.2l-.3.1h-2l-.2-.1h-.5l-.1-.1h-.3l-.1-.1h-.1l-.2-.1.4-1.6h.2l.2.1h.2l.2.1h.4l.2.1h1.5l.2-.1.1-.1.1-.1.1-.1.1-.1v-.7l-.2-.1-.1-.1-.3-.2-.2-.1-.3-.1-.3-.1-.3-.1-.3-.2-.3-.2-.2-.2-.2-.3-.2-.4v-1.2l.1-.2V40l.1-.2.2-.3.1-.2.2-.1.1-.2.3-.2.2-.1.3-.1.3-.1h.3l.4-.1h2.5l.1.1h.5v.1h.1l-.4 1.7z"/><path class="st8" d="M189.4 40.3h-.2l-.1-.1h-.5l-.1-.1h-.9l-.3.1h-.3l-.1.1h-.1l-.1.1h-.1l-.1.1v.1h-.1v.5l.1.1v.1l.2.1.2.2.2.1h.2l.3.1.2.1.3.1.2.1.2.1.2.2.2.2.2.2.1.3.1.3v.9l-.1.4v.3l-.2.3-.1.2-.2.2-.2.2-.2.2-.2.2-.3.1-.2.1h-.3l-.3.1h-.2l-.3.1h-2l-.2-.1h-.5l-.1-.1h-.3l-.1-.1h-.1l-.2-.1.4-1.6h.2l.2.1h.2l.2.1h.4l.2.1h1.5l.2-.1.1-.1.1-.1.1-.1.1-.1v-.7l-.2-.1-.1-.1-.3-.2-.2-.1-.3-.1-.3-.1-.3-.1-.3-.2-.3-.2-.2-.2-.2-.3-.2-.4v-1.2l.1-.2V40l.1-.2.2-.3.1-.2.2-.1.1-.2.3-.2.2-.1.3-.1.3-.1h.3l.4-.1h2.5l.1.1h.5v.1h.1l-.4 1.7"/><path class="st7" d="M191.2 36.7h2.1l-.3 1.8h1.3l-.3 1.7h-1.3l-.8 4.2v.2l.1.1v.1l.1.1.2.1h1.1v-.1h.2l-.3 1.4-.1.1h-.1l-.1.1h-.2l-.1.1h-.5l-.1.1h-.6l-.3-.1h-.5l-.2-.1-.2-.1h-.2l-.1-.1-.1-.1-.1-.1v-.2l-.1-.1v-.6l.1-.2 1.4-8.3z"/><path class="st8" d="M191.2 36.7h2.1l-.3 1.8h1.3l-.3 1.7h-1.3l-.8 4.2v.2l.1.1v.1l.1.1.2.1h1.1v-.1h.2l-.3 1.4-.1.1h-.1l-.1.1h-.2l-.1.1h-.5l-.1.1h-.6l-.3-.1h-.5l-.2-.1-.2-.1h-.2l-.1-.1-.1-.1-.1-.1v-.2l-.1-.1v-.6l.1-.2 1.4-8.3"/><path class="st8" d="M195.9 43.1v.4l.1.2v.1l.1.1.1.2v.1l.2.1.1.2.1.1.1.1h.2l.1.1.2.1h.5l.2.1h1l.2-.1h.4l.2-.1.2-.1.3-.1.2-.1.2-.1-.3 1.8-.1.1h-.1l-.2.1h-.1l-.1.1h-.2l-.2.1h-1l-.2.1h-.3l-.4-.1h-.7l-.4-.1-.4-.2-.3-.1-.4-.2-.3-.2-.3-.3-.2-.3-.3-.3-.1-.4-.2-.5v-.5l-.1-.5.1-.7v-.5l.1-.3.1-.3.1-.3.1-.4.2-.3.2-.3.3-.3.3-.3.3-.3.4-.2.4-.2.5-.1.6-.1h1.2l.3.1h.3l.3.1.3.2.3.2.2.2.3.2.1.3.2.4.1.4.1.4v.6l-.1.5-.1.7v.4h-5.6l.4-1.5h3.3V41l-.1-.2v-.1l-.1-.1-.1-.1-.1-.1-.1-.1-.1-.1h-.1l-.1-.1h-.3l-.1-.1-.2.1h-.2l-.2.1h-.1l-.1.1-.1.1-.1.1-.1.1-.1.1-.1.1-.1.1v.2l-.1.1v.2l-.1.1-.3 1.6"/><path class="st7" d="M214 39l-.1-.1-.2-.1h-.1l-.1-.1h-.1l-.1-.1h-.3l-.2-.1h-.5l-.1-.1h-.6l-.2.1h-.4l-.2.1-.2.1-.2.1-.3.1-.2.2-.2.2-.2.2-.1.3-.2.3-.2.4-.1.4-.1.5-.1.3v1l.1.3v.2l.1.2.1.2.2.2.1.2.2.2.2.1.2.1.3.1.3.1h.3l.2.1h.7l.2-.1h.2l.2-.1h.2l.2-.1.2-.1.1-.1.2-.2-.4 2.1-.1.1-.1.1h-.1l-.1.1h-.1l-.1.1h-.2l-.2.1h-2.3l-.4-.1-.3-.1-.4-.2-.3-.1-.3-.3-.3-.2-.3-.3-.2-.4-.3-.4-.1-.4-.2-.5-.1-.5V42l.1-.6.1-.3v-.3l.1-.3.1-.3.1-.3.1-.2.1-.3.1-.2.1-.3.1-.2.1-.2.2-.2.1-.2.2-.2.1-.1.2-.2.1-.1.2-.2.2-.1.2-.1.2-.2.2-.1h.2l.2-.1.3-.1.2-.1h.2l.3-.1h.8l.3-.1.2.1h.9l.2.1h.2l.2.1h.2l.2.1h.1l.1.1h.2l.1.1-.4 2.1z"/><path class="st8" d="M214 39l-.1-.1-.2-.1h-.1l-.1-.1h-.1l-.1-.1h-.3l-.2-.1h-.5l-.1-.1h-.6l-.2.1h-.4l-.2.1-.2.1-.2.1-.3.1-.2.2-.2.2-.2.2-.1.3-.2.3-.2.4-.1.4-.1.5-.1.3v1l.1.3v.2l.1.2.1.2.2.2.1.2.2.2.2.1.2.1.3.1.3.1h.3l.2.1h.7l.2-.1h.2l.2-.1h.2l.2-.1.2-.1.1-.1.2-.2-.4 2.1-.1.1-.1.1h-.1l-.1.1h-.1l-.1.1h-.2l-.2.1h-2.3l-.4-.1-.3-.1-.4-.2-.3-.1-.3-.3-.3-.2-.3-.3-.2-.4-.3-.4-.1-.4-.2-.5-.1-.5V42l.1-.6.1-.3v-.3l.1-.3.1-.3.1-.3.1-.2.1-.3.1-.2.1-.3.1-.2.1-.2.2-.2.1-.2.2-.2.1-.1.2-.2.1-.1.2-.2.2-.1.2-.1.2-.2.2-.1h.2l.2-.1.3-.1.2-.1h.2l.3-.1h.8l.3-.1.2.1h.9l.2.1h.2l.2.1h.2l.2.1h.1l.1.1h.2l.1.1-.4 2.1"/><path class="st7" d="M232.7 46.7h-2.1l.2-.9v-.1l-.1.2-.2.1-.1.1-.1.2h-.2l-.1.1-.1.1-.2.1h-.1l-.2.1h-.4l-.2.1h-.3l-.4-.1h-.3l-.4-.2-.3-.2-.2-.2-.3-.2-.2-.3-.2-.3-.1-.4-.1-.3-.1-.4-.1-.4v-1.2l.1-.3.1-.5.2-.4.1-.4.2-.4.2-.3.2-.3.3-.3.2-.2.3-.3.3-.1.2-.2.3-.1.3-.1.3-.1.3-.1h.6l.2.1h.4l.1.1.2.1.1.1h.2l.1.1.1.1.1.1.1.1.1.1.1.1v.1l.1.1.5-3h2.1l-1.8 10z"/><path class="st8" d="M232.7 46.7h-2.1l.2-.9v-.1l-.1.2-.2.1-.1.1-.1.2h-.2l-.1.1-.1.1-.2.1h-.1l-.2.1h-.4l-.2.1h-.3l-.4-.1h-.3l-.4-.2-.3-.2-.2-.2-.3-.2-.2-.3-.2-.3-.1-.4-.1-.3-.1-.4-.1-.4v-1.2l.1-.3.1-.5.2-.4.1-.4.2-.4.2-.3.2-.3.3-.3.2-.2.3-.3.3-.1.2-.2.3-.1.3-.1.3-.1.3-.1h.6l.2.1h.4l.1.1.2.1.1.1h.2l.1.1.1.1.1.1.1.1.1.1.1.1v.1l.1.1.5-3h2.1l-1.8 10"/><path class="st5" d="M229.3 44.8h.4l.2-.1.2-.1.1-.1.2-.1.1-.1.2-.2.1-.1.1-.2.1-.1.1-.2v-.2l.1-.2v-.2l.1-.2v-1.3l-.1-.1v-.2l-.1-.2-.1-.1-.1-.1-.1-.1-.1-.1-.2-.1h-.7l-.2.1h-.1l-.2.1-.1.2-.2.1-.1.1-.1.2-.1.2-.1.2-.1.1-.1.3v.2l-.1.2v.2l-.1.3v.4l.1.4.1.3.1.3.2.3.3.2h.3z"/><path class="st7" d="M182.7 45l-.3 1.7h-1.9v-.4l.1-.2v-.4l-.1.2-.1.1-.2.1-.1.1-.2.1-.2.1-.2.1-.2.1h-.2l-.2.1h-.2l-.3.1h-.6l-.2-.1h-.3l-.2-.1-.3-.1-.1-.1-.2-.1-.2-.2-.1-.1-.1-.2-.1-.1-.1-.2v-.2l-.1-.1v-1.3l.1-.3.1-.2.1-.3.2-.2.1-.2.2-.2.2-.2.2-.1.2-.2.3-.1.2-.1.3-.1h.2l.3-.1h.4l.1-.1h2.1v-.2l.1-.2v-.3l-.1-.1-.1-.2-.1-.1-.2-.1h-.1l-.2-.1h-1.6l-.3.1h-.4l-.2.1h-.4l-.2.1h-.1l-.1.1h-.1l.5-1.8.2-.1h.2l.1-.1h.2l.2-.1h.6l.2-.1h1.7l.2.1h.5l.2.1.3.1.2.1.2.1.3.2.1.2.2.1.2.2.1.3.1.2v.9l-.8 4z"/><path class="st8" d="M182.7 45l-.3 1.7h-1.9v-.4l.1-.2v-.4l-.1.2-.1.1-.2.1-.1.1-.2.1-.2.1-.2.1-.2.1h-.2l-.2.1h-.2l-.3.1h-.6l-.2-.1h-.3l-.2-.1-.3-.1-.1-.1-.2-.1-.2-.2-.1-.1-.1-.2-.1-.1-.1-.2v-.2l-.1-.1v-1.3l.1-.3.1-.2.1-.3.2-.2.1-.2.2-.2.2-.2.2-.1.2-.2.3-.1.2-.1.3-.1h.2l.3-.1h.4l.1-.1h2.1v-.2l.1-.2v-.3l-.1-.1-.1-.2-.1-.1-.2-.1h-.1l-.2-.1h-1.6l-.3.1h-.4l-.2.1h-.4l-.2.1h-.1l-.1.1h-.1l.5-1.8.2-.1h.2l.1-.1h.2l.2-.1h.6l.2-.1h1.7l.2.1h.5l.2.1.3.1.2.1.2.1.3.2.1.2.2.1.2.2.1.3.1.2v.9l-.8 4"/><path class="st6" d="M180.9 43l-.1-.1h-.2l-.1-.1h-.2l-.1.1h-.6l-.1.1h-.2l-.1.1h-.2l-.1.1h-.1l-.1.1-.1.1-.1.1h-.1l-.1.1v.1l-.1.1v.2l-.1.1v.2l.1.2v.2l.1.1.2.1h.1l.1.1h.4l.2-.1h.3l.2-.1.1-.1h.2l.1-.1.1-.1.1-.1v-.1l.1-.1h.1V44l.1-.1v-.2l.1-.3v-.2l.1-.2z"/><path class="st7" d="M166.7 46.7h-2.1l1.8-10h3.6l.3 5.9 2.5-5.9h3.7l-1.7 10h-2.1l1.3-7.5h-.1l-3.1 7.5h-2.3v-.4l-.1-.8v-1.2l-.1-1.3-.1-1.4v-1.2l-.1-.8v-.4h-.1l-1.3 7.5z"/><path class="st8" d="M166.7 46.7h-2.1l1.8-10h3.6l.3 5.9 2.5-5.9h3.7l-1.7 10h-2.1l1.3-7.5h-.1l-3.1 7.5h-2.3v-.4l-.1-.8v-1.2l-.1-1.3-.1-1.4v-1.2l-.1-.8v-.4h-.1l-1.3 7.5"/><path class="st7" d="M220.4 45l-.4 1.7h-1.9l.1-.4v-.5l-.1.1-.1.1-.2.1-.1.1-.2.1-.2.1-.2.1-.1.1h-.2l-.3.1h-.2l-.2.1h-.6l-.2-.1h-.3l-.2-.1-.3-.1-.2-.1-.1-.1-.2-.2-.1-.1-.1-.2-.1-.1-.1-.2v-.2l-.1-.1v-1.3l.1-.3.1-.2.1-.3.2-.2.1-.2.2-.2.2-.2.2-.1.2-.2.3-.1.2-.1.2-.1h.3l.3-.1h.3l.2-.1h2.1v-.4l.1-.1-.1-.2v-.1l-.1-.2-.1-.1-.2-.1h-.1l-.2-.1h-1.6l-.2.1h-.5l-.2.1h-.4l-.2.1h-.1l-.1.1h-.1l.5-1.8.2-.1h.2l.1-.1h.2l.2-.1h.6l.2-.1h1.7l.2.1h.5l.2.1.3.1.2.1.2.1.2.2.2.2.2.1.1.2.2.3v.2l.1.3v.6l-.8 4z"/><path class="st7" d="M220 46.7h.1l.3-1.7h-.1l-.3 1.6v.1h.1-.1zm-1.9 0h1.9v-.1h-1.9l.1.1h-.1z"/><path class="st7" d="M218.2 45.8l-.1-.1v1h.1v-.9l-.1-.1.1.1z"/><path class="st7" d="M215.3 46.8h1l.2-.1h.3l.2-.1.2-.1.2-.1h.1l.2-.1.2-.2.1-.1.1-.1.1-.1-.1-.1-.1.2-.1.1-.1.1-.1.1-.2.1-.2.1h-.2l-.2.1-.2.1h-.2l-.2.1h-1v.1zm-1.9-2.3v.3l.1.2v.3l.1.2.1.2.1.1.1.2.1.1.1.2.2.1.2.1.2.1.3.1.3.1v-.1l-.3-.1-.2-.1-.2-.1-.2-.1-.2-.1-.1-.1-.2-.2-.1-.1v-.2l-.1-.1-.1-.2V45l-.1-.2v-.3h-.1z"/><path class="st7" d="M216.2 41.6h-.3l-.3.1-.2.1-.3.1-.2.1-.2.1-.2.2-.2.2-.2.2-.2.2-.1.2-.1.3-.1.2-.1.3-.1.3v.3h.1v-.3l.1-.3.1-.3.1-.2.1-.2.1-.3.2-.2.1-.2.2-.1.2-.2.2-.1.3-.1.2-.2h.3l.2-.1h.3v-.1zm1.5-.2h-.5l-.2.1h-.7l-.1.1v.1-.1h.7l.1-.1h.7v-.1zm1 .1l.1-.1h-1.1v.1h1.1-.1z"/><path class="st7" d="M218.8 41v.4l-.1.1h.1v-.1l.1-.1V41h-.1z"/><path class="st7" d="M217.9 40.2v.1h.3l.2.1.1.1.1.1.1.1.1.1v.2h.1v-.2l-.1-.1-.1-.2-.1-.1-.2-.1-.1-.1h-.2l-.2-.1v.1zm-3.2.4v.1l.1-.1h.1l.1-.1h.2l.2-.1h.4l.2-.1h.7l.3-.1h.9l-.2-.1h-.7l-.3.1h-.7l-.2.1h-.4l-.2.1h-.2l-.1.1h-.1l-.1.1zm.5-1.9v.1l-.5 1.8.6-1.8h-.1v-.1.1-.1z"/><path class="st7" d="M218.6 38.4h-2.1l-.2.1h-.4l-.2.1h-.1l-.2.1h-.2v.1h.2l.2-.1h.2l.1-.1h.2l.2-.1h2.3v-.1zm2.6 2.6v-.9l-.1-.2-.1-.3-.2-.2-.2-.2-.1-.2-.3-.1-.2-.1-.2-.1-.3-.1-.2-.1-.3-.1h-.4v.1h.4l.3.1.2.1.2.1.3.1.2.1.2.1.2.2.2.2.1.2.1.2.1.2v.9h.1zm-.8 4l.8-4h-.1l-.8 4h.1z"/><path class="st5" d="M218.5 43v-.1h-.2v-.1h-.4l-.1.1h-.6l-.1.1h-.2l-.1.1h-.1l-.1.1h-.1l-.1.1-.1.1h-.1l-.1.1-.1.1v.1l-.1.1v.2l-.1.1v.2l.1.2v.2l.1.1.1.1h.2l.1.1h.4l.2-.1h.2l.1-.1h.2l.2-.1.1-.1.1-.1h.1l.1-.1.1-.1.1-.1v-.1l.1-.1v-.4l.1-.2V43z"/><path class="st7" d="M234.2 45.6v-.4l.1-.1.2-.2.1-.1.2-.1.2-.1h.4l.2.1.2.1.2.1.1.2.1.1.1.2v.2h-.2l-.1-.1v-.2l-.1-.1-.1-.2-.1-.1-.1-.1h-.7l-.2.1-.1.1-.1.2-.1.1v.3h-.2z"/><path class="st7" d="M234.8 45.6v-.4h.7l.1.1v.3h-.3.1l.1-.1v-.1l-.1-.1h-.4v.3h-.2zm-.6 0v.5l.1.2.2.1.1.1.2.1.2.1h.4l.2-.1.2-.1.2-.1.1-.1.1-.2.1-.2v-.3h-.2v.1l-.1.1v.2l-.1.2-.1.1-.1.1-.1.1h-.7l-.2-.1-.1-.1-.1-.1-.1-.2v-.4h-.2z"/><path class="st7" d="M234.8 45.6v.5h.2v-.4h.2l.2.4h.2l-.2-.4h.1l.1-.1h-.8z"/><path class="st8" d="M234.2 45.7v-.2l.1-.2.1-.2.1-.2.2-.1.2-.1.2-.1h.4l.2.1.2.1.2.1.1.2.1.2.1.2v.4l-.1.2-.1.2-.1.2-.2.1-.2.1-.2.1h-.4l-.2-.1-.2-.1-.2-.1-.1-.2-.1-.2-.1-.2v-.2m.8.4h-.2v-.9h.8v.4h-.2l.2.4h-.2l-.2-.4h-.2v.5m.2-.5h.1v-.1h-.3v.3h.2m0 .7h.2l.2-.1.1-.1.1-.1.1-.1.1-.1v-.8l-.1-.2-.1-.1-.1-.1-.1-.1-.2-.1h-.4l-.2.1-.1.1-.1.1-.1.1-.1.2v.8l.1.1.1.1.1.1.1.1.2.1h.2"/><path class="st7" d="M220.9 46.7h2.2l.7-4.4.1-.1V42l.1-.2v-.1l.1-.2.1-.2.1-.1.1-.2.1-.1.2-.1.2-.1.2-.1.2-.1h.2l.3-.1h.5l.3-2-.2.1h-.4l-.2.1h-.1l-.2.1-.1.1-.2.1-.1.1-.2.1-.1.1-.1.1-.1.2-.1.1-.1.1-.1.2.2-1.4h-2.2l-1.4 8.2z"/><path class="st8" d="M220.9 46.7h2.2l.7-4.4.1-.1V42l.1-.2v-.1l.1-.2.1-.2.1-.1.1-.2.1-.1.2-.1.2-.1.2-.1.2-.1h.2l.3-.1h.5l.3-2-.2.1h-.4l-.2.1h-.1l-.2.1-.1.1-.2.1-.1.1-.2.1-.1.1-.1.1-.1.2-.1.1-.1.1-.1.2.2-1.4h-2.2l-1.4 8.2"/><path class="st7" d="M200.8 46.7h2.2l.7-4.4.1-.1v-.4l.1-.1.1-.2v-.1l.1-.1.1-.2.1-.1.2-.1.2-.1.1-.1h.2l.3-.1h.2l.3-.1h.1v.1h.2v-.3l.1-.1V40l.1-.3v-.2l.1-.2.1-.1V39l.1-.1.1-.1.1-.2.1-.1h-.2l-.1-.1h-.1l-.2.1h-.4l-.2.1h-.2l-.1.1-.2.1-.1.1-.2.1-.1.1-.1.1-.1.1-.1.1-.1.2-.1.1-.1.2.2-1.4h-2.2l-1.4 8.2z"/><path class="st8" d="M200.8 46.7h2.2l.7-4.4.1-.1v-.4l.1-.1.1-.2v-.1l.1-.1.1-.2.1-.1.2-.1.2-.1.1-.1h.2l.3-.1h.2l.3-.1h.1v.1h.2v-.3l.1-.1V40l.1-.3v-.2l.1-.2.1-.1V39l.1-.1.1-.1.1-.2.1-.1h-.2l-.1-.1h-.1l-.2.1h-.4l-.2.1h-.2l-.1.1-.2.1-.1.1-.2.1-.1.1-.1.1-.1.1-.1.1-.1.2-.1.1-.1.2.2-1.4h-2.2l-1.4 8.2"/><path class="st5" d="M234.2 54.6v-.2l.1-.2.2-.1.1-.1.2-.1.2-.1h.4l.2.1.2.1.2.1.1.1.1.2.1.2h-.3v-.1l-.1-.2-.1-.1-.1-.1-.1-.1h-.2l-.2-.1-.2.1h-.1l-.2.1-.1.1-.1.1-.1.2v.1h-.2z"/><path class="st5" d="M234.8 54.6v-.2h.7l.1.1v.1h-.1v-.1h-.5v.1h-.2zm-.6.2v-.2h.2v.2h-.2z"/><path class="st5" d="M234.8 54.8v-.2h.2v.2h.4v-.1h.1v-.1h.1v.2h-.8zm1.3 0l-.1-.2h.3v.2h-.2zm-1.9 0v.5l.1.1.2.2.1.1.2.1.2.1h.4l.2-.1.2-.1.2-.1.1-.2.1-.1.1-.3v-.2h-.2l-.1.2v.2l-.1.1-.1.1-.1.2h-.1l-.2.1h-.4l-.1-.1h-.2l-.1-.2-.1-.1-.1-.1v-.4h-.2z"/><path class="st5" d="M234.8 54.8v.4h.2v-.3h.2l.2.3h.2l-.2-.3h.1v-.1h.1-.8z"/><path class="st7" d="M201.1 40.9l-.1-.5-.1-.4-.2-.3-.2-.3-.2-.3-.2-.2-.3-.2-.3-.1-.3-.1-.3-.1-.3-.1h-1.2l-.5.1-.5.1-.4.2-.4.2-.3.3-.3.3-.2.3-.2.3-.2.3-.1.3-.1.3-.1.3-.1.3v1.7l.1.5.1.4.2.4.2.3.3.3.3.3.3.2.3.2.4.1.4.1.4.1.4.1h2.9l.1-.1.1-.1.3-1.9-.2.1-.2.1-.2.1-.2.1-.2.1h-2.4l-.2-.1-.2-.1-.1-.1-.1-.1-.1-.1-.1-.1-.1-.1-.1-.1-.1-.1-.1-.1-.1-.1v-.4h4.9V42l.1-.6v-.5zm-2.1.7h-2.8v-.5l.1-.2.1-.1.1-.1.1-.1.1-.1.1-.1.1-.1.1-.1.1-.1.1-.1h.8l.1.1.1.1.1.1.1.1.1.1.1.1.1.1.3.3v.6z"/><path class="st9" d="M535.8 76.4c0 2.3-1.9 4.2-4.2 4.2H414.5c-2.3 0-4.2-1.9-4.2-4.2v-70c0-2.3 1.9-4.2 4.2-4.2h117.1c2.3 0 4.2 1.9 4.2 4.2v70z"/><path class="st1" d="M449.3 39.6v-1.3l-.6 1.3h-5.2l-.7-1.3v1.3h-9.7l-1.1-2.7h-2l-1.2 2.7h-5v-8.2l3.7-8.3h7.1l1 2.4v-2.3h8.6l1.9 4 1.9-4h27.3s1.4 0 2.4.6v-.6h6.9v.8s1.2-.9 3.1-.9h12.1l1.1 2.4V23h7.8l1.4 2.4V23h7.4v16.6h-7.6l-1.8-2.9v2.9h-9.5l-1.3-3h-1.9l-1.2 3h-5.7s-2.1 0-3.7-1.2v1.2H473v-3.9c0-.6-.4-.5-.4-.5h-.4v4.4h-22.9zm-5.7 3.6h15l2.2 2.5 2.2-2.5h11.5s1.1 0 2.1.6v-.6h10.3c1.3 0 2.4.7 2.4.7v-.7h13.2v.6s.9-.6 2.2-.6h8.6v.6s1.1-.6 2.2-.6h6.8v15.6s-.9 1-2.7 1h-8.9v-.5s-.8.5-2.1.5h-23.7v-4c0-.4-.2-.5-.5-.5h-.4v4.5h-7.4v-4.5s-.8.4-2.2.4h-2.7v4h-9.1l-2.1-2.5-2.2 2.5h-14.8V43.2z"/><path class="st9" d="M490.9 45.7h9.4v2.5h-6.5v2.2h6.3v2.2h-6.3v2.3h6.5v2.5h-9.4zm27.6 4.5c3.5.2 3.8 2 3.8 3.8 0 2.2-1.8 3.4-3.7 3.4h-6.1v-2.5h4.7c.8 0 2 0 2-1.1 0-.5-.2-.9-1.1-1-.4-.1-1.8-.1-2-.1-3.2-.1-3.9-1.7-3.9-3.6 0-2.2 1.5-3.4 3.4-3.4h6.1v2.5h-4.4c-1 0-2.1-.1-2.1 1 0 .7.5.9 1.2.9.3.1 1.9.1 2.1.1zm-10.8 0c3.5.2 3.8 2 3.8 3.8 0 2.2-1.8 3.4-3.7 3.4h-6.1v-2.5h4.7c.8 0 2 0 2-1.1 0-.5-.2-.9-1.1-1-.4-.1-1.8-.1-2-.1-3.2-.1-3.9-1.7-3.9-3.6 0-2.2 1.5-3.4 3.4-3.4h6.1v2.5h-4.4c-1 0-2.1-.1-2.1 1 0 .7.5.9 1.2.9.3.1 1.8.1 2.1.1zm-34.2-4.5h-10.1l-3.3 3.6-3.2-3.7h-11.4v11.7h11l3.5-3.9 3.4 3.9h5.5v-4h3.9c1.5 0 4.2-.1 4.2-4.2 0-2.8-2.1-3.4-3.5-3.4zM455 54.9h-6.6v-2.3h6.4v-2.2h-6.4v-2.2h7l2.8 3.2-3.2 3.5zm11 1.4l-4.1-4.9 4.1-4.6v9.5zm6.5-5.3h-3.6v-2.8h3.6c1.2 0 1.6.8 1.6 1.3 0 .8-.4 1.5-1.6 1.5zm14.9 1.1c1.6-.8 2-1.8 2-3.2 0-2.5-2-3.1-3.5-3.1h-7.5v11.7h2.9v-4.1h3.8c1 0 1.4 1 1.4 2l.1 2.2h2.8l-.1-2.4c0-2.1-.5-3-1.9-3.1zm-2.5-1.2h-3.6v-2.7h3.6c1.2 0 1.6.8 1.6 1.3 0 .8-.4 1.4-1.6 1.4zm-5.3-25.5h2.9v11.8h-2.9zm-23.6 0h9.4v2.5h-6.5v2.2h6.3v2.3h-6.3v2.3h6.5v2.5H456zm20.1 6.4c1.6-.8 2-1.8 2-3.2 0-2.5-2-3.1-3.5-3.1h-7.5v11.7h2.9V33h3.8c1 0 1.4 1 1.4 2l.1 2.2h2.8l-.1-2.4c0-1.9-.5-2.8-1.9-3zm-2.5-1.2H470v-2.7h3.6c1.2 0 1.6.8 1.6 1.3 0 .9-.4 1.4-1.6 1.4zm-24.3-5.2l-3.5 7.9-3.5-7.9h-4.5v11.3l-5-11.3H429l-5.1 11.7h3l1.1-2.6h5.8l1.1 2.6h5.8v-8.7l3.9 8.7h2.6l3.9-8.6v8.6h2.9V25.4h-4.7zM429 32l1.7-4.1 1.8 4.1H429zm83.2-6.6v8.1l-4.9-8.1H503v11l-4.9-11h-3.8l-4 9.1h-1.8c-.7-.1-1.8-.6-1.8-2.7v-.9c0-2.8 1.5-3 3.4-3h1.8v-2.6h-3.8c-1.3 0-4.2 1-4.3 5.8-.1 3.2 1.3 5.9 4.5 5.9h3.8l1.1-2.6h5.8l1.1 2.6h5.7v-8.6L511 37h3.9V25.4h-2.7zM494.5 32l1.7-4.1L498 32h-3.5z"/><path class="st10" d="M399.3 76.4c0 2.3-1.9 4.2-4.2 4.2H278c-2.3 0-4.2-1.9-4.2-4.2v-70c0-2.3 1.9-4.2 4.2-4.2h117.1c2.3 0 4.2 1.9 4.2 4.2v70z"/><path class="st11" d="M308.3 80.6h86.8c2.3 0 4.2-1.9 4.2-4.2V47.1c-8.3 5.3-39.7 23.5-91 33.5z"/><radialGradient id="SVGID_1_" cx="331.686" cy="-444.645" r="6.181" gradientTransform="translate(6.416 486.083)" gradientUnits="userSpaceOnUse"><stop offset=".006" stop-color="#ffeee0"/><stop offset=".11" stop-color="#fee9d7"/><stop offset=".279" stop-color="#fddbbf"/><stop offset=".493" stop-color="#fbc597"/><stop offset=".744" stop-color="#f8a560"/><stop offset="1" stop-color="#f48120"/></radialGradient><path class="st12" d="M338.1 35.3c-3.5 0-6.3 2.7-6.3 6 0 3.5 2.7 6.2 6.3 6.2 3.5 0 6.2-2.7 6.2-6.1.1-3.4-2.7-6.1-6.2-6.1z"/><path class="st13" d="M302.6 35.5h-3.4v11.7h3.3c1.8 0 3.1-.4 4.2-1.4 1.3-1.1 2.1-2.8 2.1-4.5.1-3.3-2.5-5.8-6.2-5.8zm2.7 8.9c-.7.7-1.7.9-3.1.9h-.6v-7.8h.6c1.5 0 2.4.3 3.1.9.8.7 1.3 1.8 1.3 2.9-.1 1.2-.6 2.4-1.3 3.1zm4.6-8.9h2.3v11.7h-2.3zm7.9 4.5c-1.4-.5-1.8-.8-1.8-1.5s.7-1.3 1.7-1.3c.7 0 1.2.3 1.8.9l1.2-1.6c-1-.9-2.2-1.3-3.5-1.3-2.1 0-3.7 1.4-3.7 3.4 0 1.6.7 2.4 2.9 3.2.9.3 1.4.5 1.6.7.5.3.7.7.7 1.2 0 1-.8 1.7-1.8 1.7-1.1 0-2-.5-2.5-1.6l-1.5 1.4c1.1 1.5 2.3 2.2 4.1 2.2 2.4 0 4-1.6 4-3.9.2-1.7-.6-2.5-3.2-3.5zm4.1 1.4c0 3.5 2.7 6.1 6.2 6.1 1 0 1.8-.2 2.9-.7v-2.7c-.9.9-1.7 1.3-2.8 1.3-2.3 0-3.9-1.7-3.9-4 0-2.2 1.7-4 3.8-4 1.1 0 1.9.4 2.9 1.3V36c-1-.5-1.8-.7-2.8-.7-3.5 0-6.3 2.7-6.3 6.1zm27.6 2l-3.1-7.9h-2.5l5 12.1h1.2l5.1-12.1h-2.5zm6.7 3.9h6.5v-2h-4.2v-3.2h4.1v-2h-4.1v-2.6h4.2v-2h-6.5zm15.6-8.3c0-2.2-1.5-3.5-4.2-3.5h-3.4v11.7h2.3v-4.7h.3l3.2 4.7h2.8l-3.7-4.9c1.7-.3 2.7-1.5 2.7-3.3zm-4.6 1.9h-.7v-3.6h.7c1.4 0 2.2.6 2.2 1.7 0 1.3-.7 1.9-2.2 1.9z"/><path class="st14" d="M373.4 36.4c0-.2-.1-.3-.4-.3h-.3v1h.2v-.4l.3.4h.3l-.3-.4c.1 0 .2-.1.2-.3zm-.4.2v-.3c.1 0 .2 0 .2.1-.1.1-.1.2-.2.2z"/><path class="st14" d="M373.1 35.7c-.5 0-.9.4-.9.9s.4.9.9.9.9-.4.9-.9c-.1-.5-.5-.9-.9-.9zm0 1.7c-.4 0-.7-.3-.7-.7 0-.4.3-.7.7-.7.4 0 .7.3.7.7 0 .3-.4.7-.7.7z"/></svg>