<?xml version="1.0" encoding="utf-8"?>
<!-- Generator: Adobe Illustrator 21.0.0, SVG Export Plug-In . SVG Version: 6.00 Build 0)  -->
<svg version="1.1" id="Layer_1" xmlns="http://www.w3.org/2000/svg" xmlns:xlink="http://www.w3.org/1999/xlink" x="0px" y="0px"
	 viewBox="0 0 80 79.7" style="enable-background:new 0 0 80 79.7;" xml:space="preserve">
<g>
	<path d="M57.4,25.4c-0.7-1.5-1.3-3-1.1-4.6c0.4-3.1,2.3-4.9,5.5-5.5C46.9,1.4,22.3,5.9,13.3,21.6h1.4c2.9-0.1,5.6-0.2,8.5-0.4
		c1-0.1,1.8,0.2,1.8,1.3c0.1,1.1-0.8,1.4-1.8,1.5c-0.6,0-1.2,0.1-1.8,0.1c-1,0-1.4,0.2-1,1.4C24.3,36.7,28,47.8,31.8,59
		c0.6-0.5,0.6-1,0.7-1.5c2-6,4-12,6.1-18c0.4-1,0.3-1.8-0.1-2.9c-1.3-3.3-2.6-6.6-3.6-9.9c-0.6-1.9-1.5-3-3.6-2.8
		c-0.9,0.1-2-0.2-1.9-1.4c0.1-1.4,1.1-1.4,2.2-1.3c4.2,0.4,8.3,0.4,12.5,0.3c1.3-0.1,2.5-0.2,3.8-0.3c0.9-0.1,1.5,0.4,1.5,1.3
		c0.1,0.8-0.5,1.3-1.3,1.4c-0.6,0.1-1.4,0.2-2,0.2c-1.3,0-1.6,0.4-1.1,1.7c2.4,7,4.7,13.9,7.1,21c1.4,4,2.7,8,4.1,12
		c2-5.8,3.9-11.7,5.5-17.6c1-3.9,0.3-7.6-1.6-11.1C59.1,28.5,58.2,27,57.4,25.4z"/>
	<path d="M78,37.3C77.2,17.5,59.3,0.9,39.2,1.6c-21.6,0.7-37.7,18.1-37,40c0.6,20,18.7,36.6,38.8,35.8C62.7,76.7,78.7,59.2,78,37.3z
		 M40,75.7c-20-0.1-36.1-16.4-36-36.3c0-20,16.3-36.1,36.1-36.1c20,0,36.2,16.3,36.2,36.2C76.2,59.5,60,75.7,40,75.7z"/>
</g>
<path d="M40.7,42.4c2.5,6.7,4.7,12.9,7,19.2c0.9,2.6,1.8,5.1,2.8,7.7c0.3,0.7,0.2,1.1-0.6,1.3C43.9,72.3,38,72.5,32,71
	c-1-0.3-1.2-0.6-0.8-1.5C34.5,60.6,37.5,51.6,40.7,42.4z M25.8,68.5c-15.5-7-22.5-26.8-15.3-42.1C15.6,40.5,20.7,54.4,25.8,68.5z
	 M69.3,25.1c8.3,17,0.1,35.3-12.3,41.9c-0.5-0.4-0.1-0.7,0.1-1.1c3.3-9.5,6.6-19.1,9.9-28.6c1.2-3.5,1.9-7.1,1.9-10.9
	C68.8,26,68.4,25.4,69.3,25.1z"/>
<path d="M69.3,25.1c-0.6,0.4-0.1,1-0.4,1.4c-0.3-0.6-0.4-1.4-0.2-2.1C69.1,24.5,69.2,24.7,69.3,25.1z"/>
</svg>
