<?xml version="1.0" encoding="utf-8"?>
<!-- Generator: Adobe Illustrator 21.0.0, SVG Export Plug-In . SVG Version: 6.00 Build 0)  -->
<svg version="1.1" id="Layer_1" xmlns="http://www.w3.org/2000/svg" xmlns:xlink="http://www.w3.org/1999/xlink" x="0px" y="0px"
	 viewBox="0 0 450 450" style="enable-background:new 0 0 450 450;" xml:space="preserve">
<style type="text/css">
	.Drop_x0020_Shadow{fill:none;}
	.Round_x0020_Corners_x0020_2_x0020_pt{fill:#FFFFFF;stroke:#231F20;stroke-miterlimit:10;}
	.Live_x0020_Reflect_x0020_X{fill:none;}
	.Bevel_x0020_Soft{fill:url(#SVGID_1_);}
	.Dusk{fill:#FFFFFF;}
	.Foliage_GS{fill:#FFDD00;}
	.Pompadour_GS{fill-rule:evenodd;clip-rule:evenodd;fill:#44ADE2;}
	.st0{fill:#DCEAF9;}
	.st1{fill:#FFF5C9;}
	.st2{fill:#F0F8FF;}
	.st3{fill:#C2DEFF;}
	.st4{fill:#F0F8FA;}
	.st5{fill:#27477C;}
	.st6{fill:#FFFFFF;}
</style>
<linearGradient id="SVGID_1_" gradientUnits="userSpaceOnUse" x1="0" y1="0" x2="0.7071" y2="0.7071">
	<stop  offset="0" style="stop-color:#DEDFE3"/>
	<stop  offset="0.1783" style="stop-color:#DADBDF"/>
	<stop  offset="0.3611" style="stop-color:#CECFD3"/>
	<stop  offset="0.546" style="stop-color:#B9BCBF"/>
	<stop  offset="0.7324" style="stop-color:#9CA0A2"/>
	<stop  offset="0.9181" style="stop-color:#787D7E"/>
	<stop  offset="1" style="stop-color:#656B6C"/>
</linearGradient>
<g>
	<path class="st0" d="M83.2,109.1c-2.3-1.5-5.2-0.8-7.8,0.2c-0.3-0.1-0.5-0.1-0.8-0.1c-2.3-0.2-4.6-0.2-6.9,0c-0.1,0-0.2,0-0.3-0.1
		c-2.4-0.4-4.8-0.6-7.2-0.3c-0.4,0-0.8,0-1.3,0.2c-1.1,0.2-2.1,0.5-3.1,0.9c-0.7,0.3-1.4,0.7-1.9,1.1c-1.5,0.4-2.3,1.5-2.7,2.9
		c-1.2,0.5-2,1.7-2,3.4c0.2,5.4,0.5,10.9,0.7,16.3c0,1,0.3,1.7,0.8,2.3c-0.2,1.2-0.3,2.4-0.4,3.6c-0.4,4.3,6.7,5.1,7.5,0.9
		c1.1-6.2,2.3-12.5,7.1-16.9c2-1.9,4.5-3.2,7-4.4c1.3-0.6,2.7-1.2,4.1-1.7c0.5-0.2,1-0.3,1.4-0.5c1.3-0.2,2.6-0.4,3.9-0.5
		C85.1,115.8,86.6,111.3,83.2,109.1z"/>
	<path class="st0" d="M186.6,27.6c-0.3-2-1.9-3-3.8-3.2c-9-1-18.7-0.8-27.5,1.8c-0.2,0-0.3,0.1-0.5,0.1c-1.5-1.1-3.7-1.3-5,0.4
		c-1.2,0.4-2.3,1.2-3.2,2.2c-3.5,4-3.4,10.4-3.4,15.4c-0.1,6.3,0,12.5,0.1,18.8c0.1,4.9,7.7,4.8,7.6-0.1c-0.1-4.6-0.4-9.5-0.4-14.2
		c2,1.3,5.2,0.4,5.9-2.2c3.2-12.5,17-13,27.6-14.7C185.8,31.5,186.9,29.3,186.6,27.6z"/>
	<path class="st0" d="M311.2,34.7c-7-1.7-14-0.9-21,0c-5.9,0.7-13.8,0.2-18.3,4.8c-3.8,3.9-3.9,9.8-3.6,14.8
		c0.5,7.8,1.2,15.6,1.8,23.4c0.4,4.9,8,4.8,7.6-0.1c-0.1-1.6-0.2-3.2-0.4-4.8c1.1-0.6,2-1.7,2.1-3.3c0.5-6.2,1-13.7,6.2-17.9
		c5.1-4.1,12.3-4.9,18-7.9c0.4-0.2,0.8-0.5,1-0.8c1.9-0.3,3.7-0.5,5.6-0.7C314.5,41.8,315.6,35.8,311.2,34.7z"/>
	<path class="st0" d="M391.6,131.1c-4.4,0.5-8.9,1-13.2,2c-2.3,0.2-4.6,0.2-6.9,0.1c-1.3-1.6-3.8-2.4-5.8-0.5c0,0-0.1,0.1-0.1,0.1
		c-4.2-0.2-8.4,0.3-11.5,3.9c-1.8,2.2-2.3,4.8-2.6,7.6c-0.3,3.4-0.5,6.9-0.7,10.3c-0.3,7.2-0.4,14.3-0.1,21.5
		c0.2,4.9,7.8,4.8,7.6-0.1c-0.1-1.6-0.1-3.1-0.1-4.7c1-0.3,1.9-1.2,2.2-2.6c1.2-4.9,5.6-7.8,9.7-10.3c4.5-2.7,9.1-5.3,12.4-9.4
		c0.9-1.1,1.1-2.5,0.8-3.7c2.4-1.9,4.9-3.9,7.3-5.8c0.2-0.1,0.3-0.3,0.4-0.4c0.6-0.1,1.2-0.2,1.8-0.3
		C397,137.8,395.9,130.6,391.6,131.1z"/>
	<path class="st0" d="M383.1,258.1c-11.8-0.1-23.9,0-35.6,1.3c-3.9,0.4-8.3,3.4-7.1,7.6c-1.8,4.2-1.5,9.2-1.2,13.8
		c0.5,7.5,0.9,14.9,1.4,22.4c-0.2,1.2-0.3,2.4-0.4,3.7c-0.1,4.9,7.5,4.8,7.6-0.1c0-0.4,0-0.9,0.1-1.3c0.2-0.5,0.3-1.1,0.3-1.8
		c0,0,0-0.1,0-0.1c0.8-4,2.9-7.6,4.8-11.2c2.4-4.4,4.8-8.9,8.1-12.8c3.9-4.5,8.6-8.1,13.9-10.6c2.5-0.3,4.9-0.8,7.3-1.5
		c1-0.3,1.7-0.9,2.1-1.8C388.5,264.3,387.2,258.1,383.1,258.1z M356.2,267.7c-0.2-0.1-0.4-0.2-0.7-0.3c-0.1-0.2-0.2-0.3-0.4-0.5
		c0.5,0.1,1.1,0.2,1.6,0.3C356.6,267.3,356.4,267.5,356.2,267.7z"/>
	<path class="st0" d="M162.4,327.4c-7.5-1.4-14.8,0-22.3,0c-5.8,0-12.4-1.9-17.5,1.9c-5.4,4.1-4.7,12.2-5,18.3
		c-0.3,5.1-0.4,10.2-0.2,15.3c-0.4,3.6-0.5,7.2-0.5,10.9c0,4.5,6.5,4.8,7.5,0.9c0.5-0.3,0.9-0.8,1.1-1.4c0.6-0.5,1.1-1.1,1.2-2.1
		c2.9-18.3,17.4-33.2,35.7-36.5C166.2,334.1,166,328.1,162.4,327.4z"/>
	<path class="st0" d="M80.5,231.4c-3.9-0.3-7.8-0.3-11.7,0c-7,0-13.9-0.1-20.9,0c-4.3,0.1-8.4,1.1-10.5,5.2c-1.4,2.7-1.6,5.9-1.2,9
		c-0.4,1.9-0.6,3.9-0.8,5.9c-0.9,6.7-1.5,13.4-1.8,20.2c-0.1,1.6,0.7,2.7,1.8,3.2c-0.1,0.4-0.3,0.7-0.4,1.1
		c-1.7,4.6,5.7,6.5,7.4,1.9c2.4-6.7,4.9-13.4,7.3-20.2c1.1-3.1,2.2-6.2,3.8-9.2c1.4-2.5,2.8-4.8,3.8-7.5c4-0.9,8.1-1.6,12.2-1.9
		c3.7,0,7.4,0,11.1,0C85.7,239,85.3,231.8,80.5,231.4z"/>
	<path class="st1" d="M173.8,52.4c-2.8,1.1-6.6,0.5-9.4-0.3c-2.4-0.7-4.7-2.6-6-4.8c-0.7-3.3-6-4.3-6.8-0.4c-0.9,4.4,4.6,9.3,8.3,11
		c4.4,2.1,11.3,3.1,15.9,1.3C179.9,57.6,178.1,50.7,173.8,52.4z"/>
	<path class="st2" d="M309.5,57c-2.2,1.8-4.4,3.6-6.8,5.2c-2.1,1.5-3.9,3.4-6.4,1.8c-2.1-1.3-3.9-2.9-6.1-4
		c-1.8-0.9-4.5-1.5-5.5-3.5c-2-4.1-8-0.5-6.1,3.6c1.5,3.2,4.6,4.3,7.6,5.8c3.1,1.5,5.6,4.1,8.9,5.4c3.5,1.3,6.5,0.1,9.5-1.8
		c3.5-2.3,6.8-4.8,10-7.5C317.9,59.1,312.9,54.1,309.5,57z"/>
	<path class="st2" d="M86,143c-2.9,0.2-5.9,0.3-8.8,0.2c-1.5,0-2.9,0-4.4-0.1c-0.7,0-1.5-0.1-2.2-0.1c-0.2,0-0.4-0.1-0.6-0.1
		c-1-0.8-2.3-1-3.7-0.1c0,0-0.1,0.1-0.1,0.1c-1.6,1.1-2.3,3.1-1.3,4.8c1.7,3,6.1,2.3,9,2.4c4.1,0.1,8.1,0.1,12.2-0.2
		C90.5,149.8,90.5,142.7,86,143z"/>
	<path class="st2" d="M85.1,134.3c-5.6,0.7-11.2,0.7-16.7-0.3c-4.4-0.8-6.3,6-1.9,6.8c6.2,1.1,12.4,1.3,18.6,0.5
		C89.5,140.8,89.6,133.7,85.1,134.3z"/>
	<path class="st2" d="M87.4,124.8c-6.5,0.8-13.2,1.7-19.7,0.5c-4.4-0.8-6.3,6-1.9,6.8c7.2,1.3,14.3,0.7,21.6-0.2
		C91.9,131.3,91.9,124.3,87.4,124.8z"/>
	<path class="st2" d="M182.4,48.3c-1.1-4.4-7.9-2.5-6.8,1.9c0.6,2.5,1.1,4.8-0.7,6.8c-0.6,0-1.3,0.1-1.9,0.5c-1.1,0.6-4.6,4-5.9,3.4
		c-1.1-0.5-2.3-0.5-3.3,0c-1.4-0.7-3-1.1-4.4-1.8c-4.3-2.2-5.6-7.5-6.5-11.9c-0.9-4.4-7.7-2.6-6.8,1.9c1,4.9,2.7,9.7,6.2,13.4
		c1.6,1.6,3.5,2.9,5.6,3.7c2.5,1,3.3,1.4,4.5,3.9c1.3,2.8,5.8,1.9,6.4-0.8c0.1-0.3,0.1-0.6,0.2-0.8c0.1,0,0.2,0,0.3-0.1
		c4.4-1.3,8.6-3.6,11.5-7.1C183.9,57.2,183.5,52.9,182.4,48.3z"/>
	<path class="st2" d="M389.2,149.3c-2.5-3.8-8.6-0.2-6.1,3.6c3.2,4.7,2.1,11.1-3.1,13.9c-5,2.6-10.5,0-12.8-4.8
		c-2-4.1-8.1-0.5-6.1,3.6c4,8.3,14.3,11.7,22.4,7.3C392,168.3,394.4,157.2,389.2,149.3z"/>
	<path class="st2" d="M386.2,286.4c0.2-2.5-2.4-3.7-4.5-3.4c-1.8,0.3-3,1.2-3.6,2.5c-0.2-0.1-0.3-0.1-0.5-0.2
		c-1.7-0.6-3.5-1.1-5.3-1.4c-3.4-0.6-6.9-0.9-10.3-0.7c-3.4,0.2-6.9,0.7-10,1.9c-1.2,0.4-2.2,1-3.1,1.9c-1.8,0.2-2.8,2.3-2.5,4.2
		c-0.3,1.1-0.3,2.2,0.1,3.3c1,2.7,4.7,3.6,6.4,1c4.9,1.5,10,2.2,15.2,1.9c2.5-0.1,5.1-0.4,6.8-2.5c0.7-0.8,1.1-1.8,1.3-2.7
		c0,0,0.1,0,0.1,0c1.1,0.4,2.3,1.1,3.5,1.6c2.5,2.2,6.9-0.2,6-3.2C386.1,289.2,386.1,287.7,386.2,286.4z"/>
	<path class="st2" d="M156.9,354.8c-1.7-1.4-4-1.1-6.1-0.9c-2.8,0.3-5.6,0.6-8.3,1c-0.8,0.1-1.3,0.4-1.7,0.8
		c-3.6-0.5-7.3-0.4-10.9,0.1c-4.5,0.6-2.6,7.4,1.9,6.8c5.1-0.7,10.6-0.1,15.3,2.2c3.4,1.6,7.6,7.3,11.1,2.3
		C160.2,364.1,159.9,357.2,156.9,354.8z"/>
	<path class="st2" d="M73.5,271.7c-1.4-4.2-2.8-8.3-4.2-12.5c-1-3-1.7-7-4.8-8.5c-2.2-1-4.3-0.1-5.2,2.1c-1.4,3.6-2.8,7.2-4.2,10.8
		c-1,2.6-3.2,6.1-2.5,8.9c0.4,1.6,1.9,2.4,3.4,2.6c0.1,0,0.2,0,0.3,0c1.6,0.2,2.9-1.3,3.4-2.6l0.1-0.2c0.3-0.7,0.3-1.2,0.2-1.8
		c0.3-0.6,0.5-1.3,0.7-1.9c0.6-1.6,1.2-3.2,1.9-4.9c0.2-0.4,0.3-0.8,0.5-1.3l0.6,1.7c1,3.1,2.1,6.2,3.1,9.2
		C68.2,277.9,75,276.1,73.5,271.7z"/>
	<path class="st3" d="M275.5,357.2c-0.4,0.8-0.8,1.6-1.2,2.3c-1.3,0-2.6,0.7-3.3,2.1c-0.9-1.3-2.6-2.1-4-1.7
		c-0.8-2.6-4.9-3.7-6.5-0.8c-0.9,1.7-1.9,3.4-2.7,5.1c-1-2.5-4.6-3.7-6.2-0.7c-0.5,0.9-1,1.9-1.6,2.9c-1.4-0.2-2.8,0.2-3.5,1.6
		c-4.8,9.5-9.2,19.2-13.3,29c-1.5,3.6-2.9,7.2-4.3,10.9c-2.3,5-4.6,9.9-6.8,15c-1.8,4.1,4,7.7,6.1,3.6c0.6-1.2,1.2-2.3,1.8-3.5
		c0.6,0.1,1.3,0.1,1.9-0.2c1.3,0.5,2.6,0.9,3.9,1.1c0.8,1.6,2.7,2.6,4.7,1.3c1.1-0.8,2.3-1.4,3.5-1.9c0.4-0.1,0.7-0.2,1.1-0.3
		c0.1,0,0.2-0.1,0.3-0.1l0,0c0,0,0.1,0,0.1,0c1.3,1.7,4.3,2,5.9-0.2c0.4-0.6,0.9-1.3,1.3-1.9c1.3,0.4,2.8,0.1,3.6-1.3
		c0.3,0.1,0.7,0.2,1,0.3c1.6,0.4,3.1-0.3,4-1.6c0.9-1.4,1.7-2.8,2.4-4.3c1.4,0,2.8-0.7,3.4-2.4c5.8-16.8,10.9-33.9,15-51.2
		C282.9,356.1,277.4,353.5,275.5,357.2z"/>
	<path class="st3" d="M262.7,363.1c-1.7-0.9-3.5-1.4-5.3-1.8c-1.1-2.1-4.2-3-5.8-0.7c-1.2-0.1-2.5-0.1-3.7-0.1c-0.8,0-1.6,0-2.4-0.1
		c-0.8-0.3-1.7-0.4-2.6-0.2c-0.4-0.1-0.9-0.1-1.4,0c-3.5-0.1-7-0.3-10.5-0.2c-0.7,0-1.4,0.1-2,0.2c-0.4,0-0.9,0.2-1.3,0.4
		c-2.8,1.2-3.8,3.9-4.5,7.4c-0.9,5.2-1.5,10.4,0.1,15.6c0.2,0.8,0.7,1.3,1.2,1.8c-1.3,9.9-2,19.8-2,29.8c0,1.9,1.1,3,2.5,3.3
		c1.1,2.3,4.4,3.3,6.1,0.4c0.5-0.9,0.9-1.7,1.4-2.6c0.5-0.8,1-1.7,1.4-2.6c3.8-7.3,7.3-14.7,10.4-22.2c3.8-7.8,7.6-15.6,11.5-23.4
		c1.2,0.2,2.3,0.6,3.4,1.2C263.2,371.3,266.7,365.2,262.7,363.1z"/>
	<g>
		<path class="st0" d="M296.6,222.6c-0.9,0-1.7,0.2-2.4,0.4c-0.2-0.1-0.4-0.2-0.6-0.2c-2.1-1.4-4.8-2-7.5-1.4c0.3-2,0.1-4.1-0.8-6.2
			c-0.7-1.8-2.3-2.6-3.8-2.5c0.4-3,0.4-6,0.2-9c-0.1-0.6-0.3-1.2-0.6-1.7c0,0,0-0.1,0-0.1c3-1.2,6-2.4,9-3.6
			c2.7-1.1,6.7-1.9,8.8-4.1c1.5-1.5,1.7-3.4,1.2-5.3c0.2-5.1-2.2-9.6-6.3-12.6c-0.1-0.1-0.1-0.2-0.2-0.2c-1.1-1.3-2.9-1.2-4.3-0.6
			c-0.6,0.3-1.2,0.6-1.6,1c-0.9-0.1-1.8-0.1-2.7-0.1c-3.4,0.2-6.8,1.2-10.2,1.2c-1,0-1.9-0.1-2.7-0.4c-1.6-3.1-3.1-6.2-4.6-9.4
			c-1-2.1-2.3-4.2-0.8-6.4c1-1.5,2.5-2.6,3.6-4c0.4-0.5,0.8-1.1,1.1-1.7c0.7-0.3,1.3-0.7,1.7-1.5c0.8-1.7,0.9-3.5,0-5.2
			c-0.4-0.8-1.2-1.6-2-2.1c-0.7-0.9-1.6-1.6-2.6-2.3c-1.1-0.8-2.8-1.3-3.5-2.5c-0.3-0.5-0.6-0.8-1-1.1c-0.7-2.3-3.7-4-5.8-1.7
			c-3.8,4.1-7.5,9.1-12.4,12.1c-2.4-0.4-4.8-0.9-7.2-1.5c-2.1-0.6-5.5-1.5-6.9-3.3c-1.4-1.8-0.9-5.4-1-7.6c-0.2-2.9-0.4-5.8-0.6-8.7
			c-0.3-4.5-7.4-4.5-7.1,0c0.2,3.8,0.5,7.6,0.7,11.4c0.2,3.2,0.1,6.6,2.3,9.2c4.1,5,11.6,6.3,17.7,7.3c1,0.7,2.3,0.9,3.7,0.3
			c0.5-0.2,0.9-0.4,1.3-0.7c0.9,0.6,2.2,0.7,3.4-0.2c1.6-1.1,3.2-2.2,4.9-3c0.8-0.4,1.6-0.8,2.5-1.1c-0.2,0.1,1.7-0.5,1.8-0.8
			c0.1,1-3.4,7.1-3.7,8c-1.7,6.3,2.1,14.2,6,19c1,1.3,2.1,2.2,3.3,2.9c0.2,0.4,0.4,0.8,0.6,1.1c0.7,1.5,2,2,3.3,1.7
			c0.9,0.7,1.8,1.2,2.7,1.5c2.8,2.7,0.9,10.3,0.6,13.4c-0.5,6-1.1,12-1.6,18c0,0.4,0,0.7,0.1,1.1c-1.3,3.6-3.1,7-5.5,10
			c-2.4,3-6.2,5.7-9.2,8.7c-1.3-0.3-2.7,0.1-4,0.8c-0.3-0.8-0.8-1.5-1.5-1.9c-0.5-2.9-0.1-6.1,0.2-9c1.9-3.1,3.7-6.1,4.9-9.6
			c1.6-4.5,2.3-9.4,2-14.2c-0.5-9-4.6-17.9-11.5-23.8c-7.4-6.2-17-8.3-26.4-8.2c-0.8,0-1.7,0-2.5,0.1c-0.1-2-1.7-3.7-4.3-3
			c-1.2,0.3-2.3,0.7-3.5,1.1c-7.3,2.1-15,2.4-21.2,7.6c-6.9,5.8-9.7,15-9.9,23.8c0,1.6,0,3.1,0.1,4.6c-1.2,6.4-1.4,13.1-1,19.7
			c0.4,6.2,2.1,11.2,6.5,15.7c3.3,3.4,6.9,6.8,11.2,8.6c1.1,1.2,2.4,2.3,3.8,3.2c2.6,1.7,5.7,2.8,8.8,2.9c0,0.2,0,0.4,0,0.6
			c-4.8-1.8-10.1-2-15-0.5c-0.2,0.1-0.5,0.2-0.7,0.2c-0.7-0.1-1.4-0.2-2.1-0.3c-3.1-0.3-6.1-0.2-8.9,0.8c0.1-1,0.2-2,0.2-3
			c-0.1-2-0.4-4.1-1-6c-1.4-4.1-3.9-7.8-7.3-10.6c-7.6-6.3-18.1-7.1-27.2-3.9c-4.3,1.5-2.4,8.3,1.9,6.8c7.2-2.5,15.8-2.3,21.6,3.2
			c1.5,1.5,2.8,3.3,3.7,5.2c-0.2,0.2-0.4,0.4-0.6,0.7c-2.7,4.2-5.6,8.4-8.2,12.8c-2.3,3.8-2.1,7.2,1,10.4c5,5.2,11.7,7.9,17.8,2.7
			c2.1-1.8,3.6-4.1,5.4-6c2.5-2.7,4.4-2.7,7.9-1.6c2.2,0.7,4.4,1.5,6.5,2.2c1.1,0.4,2.7,0.6,3.7,1.2c0.9,0.6,0.9,0.9,1.1,2.1
			c0.2,0.9,0.3,1.9,0.5,2.8c-0.5,4.3,0.2,8.6,2,12.7c1.8,4,7,0.9,6.4-2.7c-0.1-0.4-0.1-0.8-0.2-1.2c0.6-0.6,1-1.3,1-2.3
			c0.4-9.9,0.1-19.8-0.7-29.7c1.6-2,2.2-4.7,0-6.6c0-0.5,0-1,0-1.5c0-1.6-1-2.7-2.3-3.2c-0.6-2-2.9-2.4-4.7-1.6
			c-0.4-0.8-1-1.5-1.9-2c-1.4-0.7-2.9-0.5-4,0.3c-0.8-0.2-1.5-0.5-2.2-0.8c-1.1-0.8-2.2-1.7-3.3-2.4c0.7-1.2,0.7-2.7-0.5-4.2
			c-1.2-1.4-2.5-2.7-4-3.8c-2-2.4-3.6-5-4.8-8c-0.3-5.3-0.2-10.5,0.3-15.8c0.1-0.3,0.1-0.7,0.2-1c1.1-5.2,2.8-11.9,7.1-15.5
			c0.7-0.6,1.1-1.3,1.2-2c0.1-0.1,0.2-0.2,0.4-0.3c6.1-4.6,14.4-5.5,21.8-5.6c9-0.1,18.1,2,24.3,8.9c5.8,6.4,7.9,15.6,6.1,24
			c-2,9.4-9.6,16-11.7,25.4c-0.6,2.7-0.9,5.4-1.2,8.1c-0.2,2.1-0.3,4,1.5,5.4c2,1.6,5.2,1.6,7.7,2c2.9,0.5,5.8,1,8.7,1.4
			c0.1,0,0.3,0,0.4,0c0.3,0.3,0.6,0.5,0.8,0.8c0.2,0.2,0.5,0.4,0.7,0.5c0.9,1.2,2.1,2.2,3,3.3c1.2,1.4,3.7,1.3,5,0
			c1.4-1.5,1.3-3.5,0-5c-0.5-0.5-1-1.1-1.4-1.6c2.5-5.7,6.8-10.3,10.9-15c1,1.3,3,2,4.5,1.2c0.3,0.1,0.6,0.1,0.9,0.2
			c0.7,0.6,1.5,1.1,2.4,1c0.3,0.4,0.7,0.8,1.2,1c0.3,0.5,0.6,0.9,1.2,1.2c0.6,0.9,1.7,1.5,2.9,1.6c1.6,0.8,3.8,0.3,4.7-1.3
			c2.7-4.9,4.7-10.1,6-15.6C300.5,224.9,299,222.5,296.6,222.6z"/>
		<path class="st2" d="M155.4,193.5c-3.3-1.2-6.5-2.5-9.7-3.9c-1.7-0.8-3.8-0.5-4.8,1.3c-0.9,1.5-0.5,4,1.3,4.8
			c3.7,1.7,7.6,3.2,11.4,4.6C157.8,201.8,159.7,195,155.4,193.5z"/>
		<path class="st2" d="M166.5,155.3c0.2,0,0.3,0.1,0.5,0.1c0.4,0.8,0.8,1.7,1.2,2.4c0.8,1.6,1.7,3.3,2.5,4.9c2.1,4,8.1,0.5,6.1-3.6
			c-1.5-3-2.8-6.3-4.7-9.1c-2.2-3.3-6.6-2.8-8,0.9C163.3,152.8,164.8,154.8,166.5,155.3z"/>
	</g>
	<g>
		<path class="st2" d="M101.8,79.9C101.8,79.9,101.8,79.9,101.8,79.9c0-0.1,0-0.1,0-0.1C101.8,79.8,101.8,79.9,101.8,79.9
			C101.8,79.9,101.8,79.9,101.8,79.9z"/>
		<g>
			<g>
				<path class="st4" d="M403.3,134.7c-0.1-0.1-0.2-0.3-0.3-0.5c0.1,0.3,0.2,0.6,0.3,0.7C403.3,134.8,403.3,134.7,403.3,134.7z"/>
			</g>
			<path class="st2" d="M120.9,379.2c0,0,0.1,0.1,0.1,0.1C120.9,379.2,120.9,379.2,120.9,379.2C120.9,379.2,120.9,379.2,120.9,379.2
				z"/>
			<path class="st2" d="M182.5,345.6c-0.1-0.1-0.1-0.3-0.2-0.4c0,0,0-0.1-0.1-0.1C182.4,345.5,182.5,345.6,182.5,345.6z"/>
		</g>
	</g>
	<g>
		<path class="st2" d="M344.8,96.3c2.6-0.3,5.1-0.4,7.7-0.4c-0.1,1.7-0.3,3.3-0.5,5c-0.7,4.4,6.1,6.4,6.8,1.9
			c0.3-2.2,0.6-4.3,0.7-6.5c0.7,0.1,1.4,0.2,2.1,0.3c4.4,0.6,6.4-6.1,1.9-6.8c-1.3-0.2-2.6-0.3-3.9-0.5c-0.2-3.2-0.5-6.3-1.2-9.5
			c-0.9-4.4-7.7-2.6-6.8,1.9c0.5,2.4,0.8,4.8,1,7.3c-2.5,0-5.1,0.1-7.7,0.4C340.4,89.8,340.3,96.9,344.8,96.3z"/>
		<path class="st2" d="M222,37.3c2,0.2,3.9,0.4,5.9,0.4c0,1.7,0,3.5,0.1,5.3c0.2,4.5,7.2,4.5,7.1,0c-0.1-1.8-0.1-3.6-0.1-5.4
			c1.9-0.1,3.8-0.3,5.7-0.6c4.5-0.6,2.6-7.4-1.9-6.8c-1.1,0.2-2.3,0.3-3.4,0.4c0.2-1.8,0.4-3.6,0.7-5.4c0.7-4.4-6.1-6.3-6.8-1.9
			c-0.4,2.5-0.7,5-1,7.5c-2.1-0.1-4.2-0.2-6.2-0.5C217.5,29.7,217.6,36.8,222,37.3z"/>
		<path class="st2" d="M92.7,84c3-0.3,6.1-0.4,9.1-0.4c0.1,1.4,0.1,2.8,0.1,4.2c-0.1,4.5,7,4.5,7.1,0c0-1.4,0-2.7-0.1-4.1
			c0.3,0,0.6,0,0.9,0c4.5,0.2,4.5-6.8,0-7.1c-0.5,0-1,0-1.5-0.1c-0.4-2.9-1-5.8-1.7-8.7c-1.2-4.4-8-2.5-6.8,1.9
			c0.6,2.2,1.1,4.5,1.4,6.7c-2.8,0.1-5.6,0.2-8.4,0.4C88.2,77.3,88.2,84.4,92.7,84z"/>
		<path class="st2" d="M146.5,123.2c-4.4,1.1-2.5,7.9,1.9,6.8c6.6-1.6,8.8-10.3,4.3-15.2c-3.1-3.3-8.1,1.7-5,5
			c0.5,0.5,0.6,1.1,0.2,1.9C147.6,122.5,147.2,123,146.5,123.2z"/>
		<path class="st2" d="M236.1,101.3c3.6-2.7,0.1-8.8-3.6-6.1c-2.7,2-6.2,2-8.7-0.5c-3.2-3.3-8.2,1.7-5,5
			C223.3,104.2,230.9,105.1,236.1,101.3z"/>
		<path class="st2" d="M407.9,220.7c-2.5-1.1-5-1.7-7.5-1.8c0.1-2,0.2-4,0.3-6c0.2-4.5-6.8-4.5-7.1,0c-0.1,1.1-0.1,2.2-0.2,3.3
			c-0.2,0.1-0.5,0.3-0.7,0.5c-1.4,1.4-2.9,2.2-4.9,2.3c-1.5,0.1-3.1,1.1-3.4,2.6c-1,5.2,4.1,6,8.3,6.5c-0.1,1.6-0.2,3.1-0.3,4.7
			c-0.2,3.9,6.3,4.9,6.9,0.9c0.3-1.6,0.4-3.2,0.5-4.8c3.1,0.2,6.2-0.2,8.6-2.7C410.1,224.8,410,221.7,407.9,220.7z"/>
		<path class="st2" d="M342.8,215.1c-3.6-1.2-7.6-0.8-10.9,0.8c-0.5,0-0.9,0.1-1.4,0.2c-1.7,0.3-2.5,1.5-2.5,2.8
			c-0.1,0.1-0.2,0.2-0.2,0.3c-4,4.6-2.8,11.9,3.4,14c5.4,1.8,11-2.8,11-8.4c0-1-0.1-1.8-0.4-2.7
			C345.4,222.6,346.8,216.4,342.8,215.1z M334.9,225c-0.1,1.3-2.1,2.3-2.7,0.6c-0.3-0.9,0.5-1.8,1.4-2.5
			C334.4,223.4,335,224.1,334.9,225z"/>
		<path class="st2" d="M348.9,333.5c-1.5-1.2-3.3-1.8-5.2-2c-1.3-2.4-5.6-2.8-6.5,0.7c0,0,0,0,0,0c-0.6,0-1.2,0-1.7,0.1
			c-2,0.2-4.3,2.1-3.4,4.5c0.1,0.2,0.2,0.4,0.3,0.6c-0.3,0.3-0.7,0.5-1,0.8c-1,0.3-2,0.6-2.9,1.1c-1.8,0.9-2.2,3.3-1.2,4.9
			c-0.3,0.6-0.5,1.3-0.6,1.9c-1.5,6.6,3.5,8.7,8.9,8.2c0.5,2.1,1.7,3.8,4.2,4.2c4.6,0.9,7.3-3.5,7.9-7.5c0.3-1.8,0.2-3.6-0.1-5.4
			c1-0.5,1.9-1.2,2.5-2c1.5-1.9,1.3-3.9,0.3-5.6C351.1,336.4,350.3,334.7,348.9,333.5z M335,347.6c-0.5,0.1-1.1,0.2-1.5,0.1
			c0-0.1,0-0.2,0-0.4C334.1,347.4,334.5,347.5,335,347.6C335,347.6,335,347.6,335,347.6z"/>
		<path class="st2" d="M159.9,96.1c0.7-0.1,1.2-0.2,1.7-0.5c2.8,0.5,5.7,0.7,8.5,0.8c4.9,0.1,9.8,0.3,14.8,0.4
			c0,0.1,0.1,0.1,0.1,0.2c0.5,4.1,1.3,8.1,2.6,12.1c0.4,1.1,4.5,10,3.5,10.3c-4.4,1.2-2.5,7.8,1.9,6.8c6.1-1.4,6.6-8.5,5.3-13.5
			c-1-4.1-2.4-8.1-4-12c0.1-1,0.1-2.1,0.1-3.1c0.4-0.2,0.9-0.5,1.3-0.8c1.3-0.2,2.6-0.5,3.9-1c7.1-2.9,9.3-10.7,10.1-17.7
			c0.5-4.6,0.5-9.4,0.7-14c0.2-4.7,0.5-9.3,0.4-14c-0.1-8.3-1.9-16.6-8.5-22.1c0,0,0-0.1-0.1-0.1c0,0,0,0,0,0
			c-0.2-0.2-0.5-0.4-0.7-0.6c-3.3-2.5-6.8,2.7-4.3,5.5c2.4,2.7,1.6,7.8,1.6,11.1c0,4.3-0.2,8.7-0.5,13c-0.4,6-1.1,12-2.1,18
			c-14.7,3.6-29.7,4.8-44.8,3.5c-0.5,0-0.9,0-1.3,0.2c-1.7-1.5-3.7-2.5-6-3c-0.9-0.2-1.7-0.1-2.4,0.3c-0.2-0.7-0.3-1.4-0.4-2.1
			c-0.6-5.9,0.5-11.9,0.8-17.8c0.3-6.3,0.4-12.6,0.2-18.8c-0.1-4.5-7.2-4.5-7.1,0c0.2,7.2,0,14.5-0.4,21.7
			c-0.4,6.8-1.7,14.1,0.5,20.8C138.8,89.8,149.2,96.9,159.9,96.1z"/>
		<path class="st2" d="M410.1,147.5c-0.7-4.5-7.5-2.6-6.8,1.9c1.3,8.5,2,17.2,1.7,25.7c-0.1,2.6-0.8,6.2-2.2,9.1
			c-0.8,0-1.6,0.3-2.3,1.1c-1,1.2-2.2,2.1-3.5,2.7c-0.6-0.5-1.3-0.8-2.4-0.7c-10.5,1.4-21.1,1.5-31.6,0.4c-1.7-0.2-2.8,0.7-3.2,1.9
			c-4.5-1-8.9-3-11.9-6.4c0.1-14.8,1.1-29.6,2.8-44.3c0.5-4.5-6.5-4.5-7.1,0c0,0.2,0,0.3-0.1,0.5c-2-0.8-5,0.3-5.3,3.1
			c-0.8,7.7-1.5,15.5-1.9,23.3c-0.2,2.8-0.6,6.1-0.6,9.3c-6.1,1.6-12,3.4-17.9,5.6c-0.3,0.1-0.6,0.1-1,0.2c-0.6,0.1-1,0.4-1.4,0.7
			c0,0-0.1,0-0.1,0c-0.3,0.1-0.5,0.2-0.7,0.4c-0.7-2.2-1.4-4.3-2.3-6.2c-1.9-4.4-4-10.1-7.8-13.3c-3.7-3.2-8.3-3.3-12.8-2.4
			c-2.2,0.4-4.4,1.1-6.6,1.6c-0.9,0.2-1.9,0.4-2.9,0.6c-0.2,0-1.3,0-2.2,0c0.2-0.3,0.4-0.7,0.6-1c0.7-1.1,1.4-2.2,2.1-3.3
			c0.3-0.6,0.7-1.1,1-1.7c1.8-0.5,2.6-2.7,2.2-4.5c0.2-0.5,0.4-1,0.5-1.5c3-9.5-2.3-17.6-10-22.7c-1.2-0.8-2.4-1.5-3.6-2.1
			c3.4-6.7,7.2-13.2,11.2-19.6c1.5-0.1,3.1-0.4,4.5-0.8c0.6,0,1.2,0,1.8,0c2.7,0.5,5.4,0.9,8.2,1c0.4,0.5,1,0.9,1.7,1
			c0.3,0,0.6,0.1,0.9,0.1c0,0,0,0,0,0c0,0,0,0,0.1,0c11.6,1.3,22.9-3.5,29.3-13.5c3.1-4.8,4.8-10.6,4.9-16.4c0-7-2.1-13.7-1.8-20.7
			c0-1.1-0.3-1.9-0.9-2.5c-0.7-3.4-1.6-6.8-2.7-10.1c-1.3-3.6-7-3.2-6.9,0.9c0.1,6.1,0.5,12.2,1.2,18.3c0.4,3.4,1.1,6.8,1.7,10.2
			c-0.3,0.3-0.6,0.6-0.8,1c-1.7,3-1.7,6.1-1.8,9.4c-0.1,1.9-0.5,3.7-1.2,5.4c-0.5-0.1-1,0-1.7,0.2c-0.5,0.2-1.1,0.4-1.6,0.6
			c-0.6-0.7-1.5-1.2-2.7-1.1c-6.4,0.7-12.8,1.2-19.2,1.6c-3,0.2-6.1,0.3-9.1,0.4c-0.8,0-6.8,0.5-7,0c-0.8-2.2-3-2.8-4.8-2.2
			c-0.5-0.2-1.1-0.2-1.7-0.2c-1.5-1.4-3.8-1.7-5,0.4c-0.6-1-1.2-2.1-1.7-3.2c-0.2-3.4-0.2-6.9-0.5-10.3c-0.8-9.6-2-19.4,1.7-28.5
			c1.7-4.2-5.1-6-6.8-1.9c-3.2,8-3.1,16.5-2.4,24.9c0,0,0,0,0,0c-2.2,4.5-2,9.3-0.5,14c0.3,2.2,0.7,4.4,1.6,6.4
			c0.1,0.3,0.2,0.6,0.4,0.9c0.3,2.1,0.7,4.1,1.6,6c2.1,4.7,6.9,8.4,12.2,7.9c0.6-0.1,1.2-0.3,1.7-0.7c0,0,0.1,0,0.1,0
			c-3.6,5.8-6.9,11.8-10,17.9c-0.7-0.3-1.5-0.6-2.2-0.9c-4.5-1.7-8.9-0.9-11.6,3.2c-0.1,0.1-0.1,0.2-0.2,0.3
			c-1.4-0.4-2.7-0.9-4.1-1.3c-2.3-0.7-4.7-1.5-7.1-2.1c-1.3-5.3-4.2-9.6-9.4-11.8c-5.5-2.4-11.5-1.8-17.2-0.2
			c-5,1.4-11.9,3.1-14.6,8c-1,1.8-1.3,3.9-1.4,5.9c-1.6-0.1-3.1,0.7-3.5,2.5c-0.1,0.5-0.2,1.1-0.2,1.6c-0.2,1.5-0.5,3-1,4.5
			c-0.2,0.1-0.3,0.3-0.4,0.5c-1.2-2.3-3.2-4.2-5.8-5.2c-5-2-10.9-0.8-15.6,1.4c-10.8,4.9-18.8,15.6-26.7,24.1c-3.1,3.3,1.9,8.3,5,5
			c0.1-0.1,0.2-0.2,0.3-0.3c0.4,3,1.7,5.8,3,8.5c-0.8-0.2-1.6-0.2-2.5-0.1c-0.4,0.1-0.8,0.2-1.1,0.3c-0.9-0.3-1.8-0.5-2.8-0.7
			c-3.4-0.8-7.8-1.8-11.1-0.2c-0.4-1-1.1-1.8-2.1-2.2c-2.4-0.9-4.9-1.6-7.4-2.3c-0.6-0.3-1.2-0.7-1.8-1.1c-1.1-0.7-2.3-0.6-3.3-0.1
			c-0.1,0-0.3-0.1-0.4-0.1c-0.3-0.1-0.5-0.1-0.8-0.1c0.1-13.3-1.3-26.6-3.7-39.6c-0.4-2.2-2.2-2.8-3.8-2.4c-1.2-2-2.7-3.9-4.5-5.6
			c-2.1-1.8-6.2-0.8-6,2.5c0.6,8.5,1.1,17.1,1.7,25.6c0.4,5.6,1.4,13.1-2.1,18c-4,5.5-13.9,4.2-19.9,4.2c-8.6,0-17.2-0.4-25.8-1.2
			c-0.1,0-0.1,0-0.2,0c-1.5-1.9-2.7-4-3.5-6.3c-1.1-3.2-5.8-3.5-6.8,0c-2.1,7.4,2.1,14.9,8.5,18.8c7.6,4.6,17.3,4,25.8,3.7
			c2.6-0.1,5.2-0.2,7.9-0.3c0.5,0.4,1.2,0.7,2.1,0.7c6.8,0.2,13.7-0.3,20.4-1.7c3-0.7,5.9-1.7,7.7-4.2c0.3-0.4,0.6-0.8,0.8-1.3
			c1.4,0.3,2.7,0.7,4.1,1.1c2.8,0.8,5.6,1.7,8.5,2.2c0,0.5-0.1,1.1-0.1,1.6c-0.6,2-1.3,3.9-1.9,5.9c-0.5,1.7,0,2.9,1.1,3.6
			c-1,1.9-1.9,3.8-2.3,6c-0.8,3.8-0.8,7.9,0.9,11.5c1.6,3.4,4.9,6.7,8.9,5.9c2,0.8,4.1,1.4,5.8,2.3c0.4,0.2,0.7,0.4,1.1,0.7
			c-3.8,0.3-7.1,2.2-9.5,4.9c-1.6,1.3-2.9,2.8-3.9,4.7c-1.5,3.1-1.8,6.9-0.4,10c0.1,1.7,0.4,3.3,0.7,4.9c1,4.4,2.6,10.3,5.4,15
			c0.9,2.9,2.3,5.6,5.5,6.2c0.4,0.1,0.8,0.1,1.2,0.1c1.8,0.7,3.7,1.1,6,0.7c2.9-0.4,5.3-2,8.1-2.6c1.9-0.4,4.1-0.4,3.1,2.1
			c-0.9,2.2-3.1,3.8-4.5,5.6c-1.6,2-2.9,4.2-3.2,6.8c-0.4,4,1.7,7.4,4.5,10.1c2.3,2.3,6.2,4.5,7.3,7.6c0.9,2.5-1.3,4.9-2.5,6.9
			c-1.4,2.4-2.4,5-3.1,7.7c-0.5,2.3-0.8,4.8-1.3,7.2c-1.5,2.8-3,5.6-4.5,8.4c-2,3.6,2.5,6.8,5.5,4.3c0.3-0.2,0.6-0.5,0.8-0.8
			c0.3,0.1,0.7,0.2,1,0.2c-1,1.8-2,3.6-3,5.4c-2.1,4.1,3.4,7.1,6.1,3.6c0.6-0.8,1.2-1.6,1.7-2.4c2.5,1.5,4.2,4,4.5,6.9
			c0.5,4.5-0.5,8.5,1.5,12.8c0.1,0.2,0.2,0.4,0.3,0.5c0,0.1,0,0.2,0,0.4c-0.1,0.7-0.2,1.5-0.2,2.2c-0.8,0.6-1.3,1.5-1.3,2.7
			c0.2,5.3,0.3,10.5,0.5,15.8c0,1.9,0.1,3.8,0.1,5.6c-1.9,4.6-5.7,7.3-10.9,7.7c-6.4,0.6-12.9,0.4-19.3,0.5c-7,0.2-14,0.3-21,0.5
			c-2.9,0.1-4.1,2.9-3,5.3c4,8.7,14.5,11,23.2,11.2c12.7,0.2,25.4-2,37.4-5.9c2.4-0.8,2.9-3.1,2.1-4.9c4.8-2.9,8.2-7.8,9.8-13.2
			c2.8-9,0.6-18.8-1.1-27.8c-0.3-1.5-0.6-3-0.9-4.4c0.3-0.5,0.5-1.1,0.5-1.8c0-1.6-0.1-3.1-0.2-4.6c1.4,0.2,2.7,0.4,4.1,0.7
			c0.6,0.1,1.1,0.2,1.6,0.4c1.7,0.7,3.4,1.4,5,2.1c2,1.2,3.8,2.7,5.4,4.7c1.6,2,2.9,4.3,3.8,6.6c-1,19.8-1.9,39.7-2.9,59.5
			c-0.1,3,3,4,5.1,3c0,2.6,2.9,3.9,5,3.2c2.1,1.4,5.7,0.2,5.6-2.9c-0.4-10-0.8-20.1-1.3-30.1c-0.2-4.2-0.4-8.4-0.5-12.7
			c0.1-1.5,0.1-3,0.2-4.6c0-0.6-0.1-1.1-0.2-1.5c0.1-1.9,0.2-3.8,0.3-5.7c0.1,0,0.1,0,0.2,0c0-0.1-0.1-0.1-0.1-0.2l0,0
			c0.1,0.1,0.1,0.2,0.2,0.2c0.1,0,0.1,0.1,0.1,0.1c2.6,3,8-0.4,5.7-4.1c-0.4-0.6-0.8-1.1-1.3-1.5c0.5-0.6,0.8-1.3,0.7-2.3
			c0-0.3-0.1-0.7-0.1-1c0.7-0.5,1.2-1.4,1.1-2.7c-0.1-1.1-0.2-2.3-0.3-3.4c0.6,0.2,1.2,0.4,1.8,0.5c2,0.5,3.7-0.7,4.3-2.5
			c3.1-8.2-6.1-13.2-13.4-16.5c-0.5-0.4-1.1-0.7-1.7-0.8c-1.3-0.6-2.5-1.1-3.5-1.6c-10.9-5.2-21.9-10.4-32.8-15.6
			c0.5-1,0.9-2,0.8-3.1c-0.7-5.1-7.8-5.5-10.2-1.6c0-0.1,0-0.2,0-0.3c0.2-2-1.6-3.4-3.4-3.5c0.7-1.6,1.5-3,2.4-4.5
			c1.9-3.2,2.9-6.6,2-10c2.3,1.8,4.8,3.6,7.6,4.1c3.6,0.7,6.3-1.3,8.4-4.1c0.5-0.6,0.9-1.2,1.4-1.8c0.9,1.6,2.7,2.5,4.6,1.2
			c0.2-0.1,0.3-0.2,0.5-0.3c0.3,0.2,0.6,0.4,0.9,0.5c0.3,0.2,0.7,0.4,1,0.6c-0.1,0.5,0,1,0.1,1.4c1.1,3.5,4.8,4.9,7.7,6.7
			c3.7,2.2,7.4,4.4,11.1,6.6c3.9,2.3,7.5-3.8,3.6-6.1l-8.7-5.1c-0.2-0.1-0.5-0.3-0.7-0.4c0.5-1.2,0.3-2.5-0.9-3.5
			c-0.2-0.2-0.5-0.4-0.7-0.5l0,0c-0.1,0-0.1-0.1-0.2-0.1c-0.3-0.2-0.6-0.4-0.9-0.6l-1.3-0.9c1.3-1.5,2.4-3.1,3.1-5
			c1.8-5-1.9-6.7-6-7.9c-3.4-1-8.9-4-12.4-2.1c-1.7,1-2.6,2.8-3.6,4.5l-2.4,4.2c-0.5,0.7-1,1.5-1.4,2.3c-0.4,0.8-0.5,1.7-0.3,2.4
			c-0.1,0.1-0.2,0.3-0.4,0.4c-1.2,1.2-1.8,0.6-3.2-0.3c-4.9-3.2-9.4-7.1-13.4-11.3c-1.6-1.6-3.6-1.2-4.9,0c0-1.1,0.4-2.2,1.5-3.6
			c2.8-3.4,6.5-6.8,6.4-11.4c1.6-0.5,2.7-2,2.8-3.5c0.5-0.6,0.9-1.4,0.8-2.3c-0.2-4.1-3.3-8-7.7-8c-1.1,0-2.2,0.2-3.3,0.6
			c-1.1-0.7-2.5-1-3.8-0.4c0,0-0.1,0-0.1,0c-0.7-0.5-1.6-0.6-2.7-0.2l-5,1.8c-0.3,0.1-0.5,0.2-0.8,0.3c-0.5-1.1-1.5-2-3.1-1.9
			c-0.3,0-0.7,0.1-1,0.1c-0.1-0.3-0.2-0.5-0.3-0.8c-1.4-3.8-2.4-8.4-5-11.7c-0.4-3.6,1.6-7.4,4.8-9c0.5,0.4,1.3,0.7,2.2,0.6
			c3.9-0.3,8.6-1.8,9-6.4c0-0.1,0-0.3,0-0.4c0.3-0.4,0.5-0.9,0.6-1.4c0.5-3,0.8-6.2-0.9-8.9c-0.2-0.4-0.5-0.7-0.8-1
			c-0.3-0.6-0.8-1.2-1.3-1.8c-2.3-2.6-5.8-3.5-8.8-5.1c-0.4-1.3-1.4-2.4-3.2-2.4c1-4.6,2.2-9.1,3.6-13.6c0.4-1.3,0-2.4-0.8-3.2
			c1-1.5,1.9-2.9,2.6-4.5c3.1,0.8,6.1,1.9,8.9,3.4c1.2,0.6,2.3,0.5,3.2,0c0.8,0.2,1.6,0.4,2.5,0.4c3.6,0,6.7-2.4,8.4-5.5
			c4.4-8.1-1.7-15.5-7.5-20.7c-0.5-0.4-1.1-0.7-1.7-0.8c2.2-2.2,5-3.9,7.5-5.6c3.3-2.2,6.8-4.6,10.5-6.2c3.2-1.4,4.4,0.2,5.9,2.5
			c-0.1,0.3-0.2,0.6-0.2,1c-1.1,9.2,11.2,11.1,17.4,8c3.3-1.6,6.1-4.5,7.6-7.9c1.6-3.6,1.3-6.8,0.6-10.5c-0.1-0.8-0.8-3-0.2-3.8
			c0.3-0.3,5.1,0.5,6.2,0.6c4.3,0.4,9,0.3,13.3,1.1c-0.1,0.6-0.2,1.1-0.2,1.5c-0.3,3.2-0.3,6.4,0.4,9.5c1.2,5.9,5.6,10.5,11.7,11.1
			c3.1,0.3,6.2-0.5,8.8-2.2c0.8-0.2,1.5-0.7,2-1.4c0.2-0.2,0.3-0.4,0.5-0.7c0.8-0.9,1.5-1.9,2-3c0.5-1.1,0.5-2.1,0.2-2.9
			c0.8-1.8,1.5-3.7,2.3-5.5c7,3.6,14.3,7.6,19.3,13.6c-5.9,6.4-11.5,15.2-5.7,23.5c0.8,1.1,1.7,2,2.7,2.7c0.1,0.6,0.2,1.2,0.4,1.8
			c1,3.6,5.9,3,6.8,0.1c0.3,0,0.7-0.1,1-0.1c4.1-0.6,7.6-3.1,11.6-3.9c1.8-0.4,3.1,0.2,4,1.2c-0.7,0.8-1,1.8-0.6,3.1
			c0.9,3.1,1.8,6.1,2.7,9.2c0.1,0.8,0.2,1.7,0.3,2.5c0.2,2.1,0.6,4.3,0.5,6.4c0,0.6-0.1,1.2-0.3,1.7c-1.3,0.3-2.9,0.5-3.8,0.7
			c-2.4,0.6-4.9,1.5-7,2.9c-0.5,0.3-0.9,0.7-1.3,1c-0.7-0.7-1.7-1.2-2.7-1.2c-2,0-3.4,1.6-3.5,3.5c-0.1,0.9-0.1,1.8-0.1,2.7
			c-2.1,3.8-0.3,9.2,3.5,11.9c2.7,2,6.1,2.5,9,4c2.3,1.2,4,3,5.3,5.2c-1.5,6.3-2.9,12.6-3.5,19c-0.2-0.1-0.4-0.2-0.6-0.3
			c-0.3-0.1-0.6-0.2-0.8-0.4c0,0,0,0,0,0c0,0,0,0,0,0c-4.8-2-10.5-3.4-15.8-2.8c0,0,0-0.1,0-0.1c-0.2-1.6-2-2.5-3.4-2.6
			c-1.7-0.1-2.7,0.8-3.6,2c-0.3,0.4-0.5,1-0.5,1.5c-0.8,0.9-1.5,1.9-1.9,3.1c-0.5,0.6-1,1.2-1.5,1.9c0,0,0,0,0,0c0,0,0,0,0,0
			c-0.2,0.2-0.4,0.5-0.6,0.7c-1.4,1.8-0.4,3.7,1.2,4.6c0,0.1,0,0.1,0,0.2c-0.6,1.2-0.6,2.8,0.5,4.1c0.7,0.8,1.4,1.6,2.2,2.4
			c1.2,1.3,2.9,1.3,4.1,0.5c0.1,0.1,0.3,0.1,0.4,0.2c8.7,3.3,17,7.7,24.7,13c0.7,0.5,1.4,0.6,2.1,0.5c0.9,1.1,1.7,2.2,2.4,3.4
			c-0.8,0.5-1.4,1.5-1.4,2.8l-0.2,22c-0.1,7,0.5,14.3-0.5,21.3c-0.4,3.2-1.5,5.9-3,8.7c-1.3,2.5-2.7,5.1-2.9,8
			c-0.3,3.3,0.9,6.4,3,8.4c-0.3,0.4-0.5,0.8-0.7,1.2c-0.9,1.1-1.3,2.6-0.5,4c0,0.8,0.1,1.6,0,2.4c-0.1,3,3.7,4.3,5.8,2.8
			c0.6,0.4,1.2,0.7,1.9,1c0.9,14,0.9,27.9,0,41.9c-0.1,1.4,0.6,2.4,1.7,2.9c-0.1,6.4-0.2,12.8-0.3,19.2c0,3.3,5,5,6.6,1.8
			c1-2.2,1.4-4.4,1.5-6.7c0.6,0,1.2-0.1,1.7-0.3c1.1,0.9,2.6,1.2,3.8,0.5c3.4-0.6,4.6-4.1,4.9-7.3c0.9-9.4,1.1-18.9,1-28.3
			c-0.1-8.6,0-17.6-1.4-26.1c-1-6.2-3.7-11.9-9.6-14.5c-0.1-0.6-0.1-1.3-0.2-1.9c-0.1-0.9-0.4-1.6-0.9-2.1c3.2-14.2,3.5-29,4-43.5
			c0.1-3.3,0.3-6.7,0.4-10c0.2-0.3,0.5-0.6,0.6-1c1.4-3.3,2.9-6.5,4.3-9.8c0.4,8,0.8,16,1.2,24c0,3.2,0.1,6.3,0.2,9.5
			c0.1,1.4,1,2.6,2.2,3.2c0,0.7,0.1,1.4,0.2,2.1c-1.2,5.5,3.8,11.3,9.1,10.6c3.5,1.3,7.6,1.1,11.2,0.4c0.9-0.2,1.6-0.8,2.1-1.5
			c0.1,0,0.1,0,0.2,0c0.1,1.8,1.3,3.5,3.4,3.5c7.2-0.2,14.4-0.9,21.4-2.1c2.2,0.1,4.3,0,6.5-0.2c0.3,0.1,0.7,0.1,1.1,0.1
			c2.9,0,5.3-0.8,7.3-2.2c1.3-0.6,2.5-1.3,3.7-2.3c0.6-0.2,1.1-0.3,1.7-0.5c2.1-0.7,2.8-2.8,2.3-4.6c1.1-2.3,1.8-4.8,2.2-7.4
			c1.9-11.5,1.1-23.3-2.4-34.4c-1.1-3.6-7.2-3.2-6.9,0.9c0.5,8.7,0.7,17.3,0.6,26c0,3.1-0.1,7.7-1.4,11.3c-1.5,0.3-3,0.7-4.3,1.4
			c-1.5,0-3,0.1-4.5,0.1c-0.3,0-0.6,0-0.8,0c-4.4,0-8.8,0-13.1-0.1c-2.7-0.8-5.9-0.9-8.1-1.1c-5.2-0.4-10.4-0.1-15.5,0.8
			c-0.4,0-0.9,0-1.3,0c-0.1-0.1-0.2-0.2-0.3-0.4c-1-1-2.2-1.6-3.5-1.9c-0.6-0.6-1.3-1.1-2-1.5c1.5-0.2,2.8-1.3,2.8-3.4
			c0.2-13.4-0.5-26.8-2.3-40.2c0.1-0.9,0.2-1.8,0.4-2.8c0.4-3.2-4-4.4-6-2.6c-3.7-5-8.2-9.3-13.3-12.8c-0.3-14.4-4.6-28.5-12.6-40.5
			c2.2-0.3,4.2-1.2,5.8-2.7c1.5-1.5,2.7-3.1,3.5-4.9c0.3-0.4,0.6-1,0.6-1.6c1.1-3.3,1.2-6.9,0.8-10.5c0.4,0,0.7-0.1,1.1-0.3
			c0.5-0.2,1-0.4,1.4-0.5c6.9,0.3,13.7,0.6,20.6,1c1.9,5.2,5.3,9.4,10.9,10.6c-0.3,2.2,1.5,4.8,4.4,4.2c8.8-2,17.8-2.8,26.9-2.5
			c7.6,0.3,15,1.5,21.4-3.5c0.9-0.7,1.2-1.7,1-2.7c0.7-0.8,1.3-1.8,1.7-2.9c2.9-2.9,4.9-6.8,5.6-10.8
			C413.5,170.2,411.8,158.3,410.1,147.5z M185.1,325.1c0.6,1.1,1.3,2.1,2.1,3.1c-0.2,0-0.3,0-0.5-0.1c-0.1-0.2-0.1-0.3-0.2-0.5
			c-0.4-1.1-1.4-1.9-2.4-2.3c0-0.4-0.1-0.7-0.3-1C184.3,324.5,184.7,324.8,185.1,325.1z M225,115.7c-3.5,0.3-7.1,0.9-10.6,1.4
			c4.3-1.4,8.8-2.6,13.2-1.5C226.8,115.6,225.9,115.6,225,115.7z M299.7,255.4c-0.1,0.3-0.2,0.5-0.2,0.8c-0.2-0.2-0.5-0.4-0.7-0.5
			C299.1,255.6,299.4,255.5,299.7,255.4z M312.7,278.9c-0.3-0.6-0.6-1.3-0.9-1.9c0.2,0.1,0.4,0.1,0.6,0.2c0.1,0,0.2,0,0.4,0.1
			C312.7,277.8,312.7,278.3,312.7,278.9z"/>
		<path class="st2" d="M99.8,210.9c1,1.1,2.6,1.7,4.3,0.8c3.3-1.7,6.5-4.1,8.2-7.1c0.4-0.5,0.6-1,0.7-1.6c0.6-1.7,0.8-3.6,0.3-5.8
			c-1-4.4-7.8-2.5-6.8,1.9c0.1,0.3,0.1,0.5,0.1,0.8c0,0,0,0,0,0c-1.9-1-4.1-1-6.2,0.1c-1.9,1-2.1,2.8-1.4,4.3
			c-0.1,0.1-0.2,0.1-0.3,0.2C95.6,206.3,97.1,210.2,99.8,210.9z"/>
		<path class="st2" d="M39.2,213.3c0.7,1.9,2.7,3.1,4.7,1.5c0.5-0.3,0.9-0.7,1.4-1c1.5,1,3.8,1,5.1-0.9c1.8-2.5,3.6-4.9,5.3-7.4
			c1.4-2-0.2-4.6-2.2-5.3c0.6-3.1-3.2-5.4-5.9-3.1c-0.2,0.1-0.3,0.3-0.5,0.4c0.2-0.4,0.3-0.7,0.5-1.1c1.5-3.3-1.6-6.1-4.5-4.9
			c0-0.1,0-0.1,0.1-0.2c0.9-3.9-4.2-6.1-6.4-2.7c-3.4,5.1-6,10.6-8,16.4c-1.1,3.1,2.9,5.5,5.4,3.9C32.8,212.1,36.2,215,39.2,213.3z"
			/>
		<path class="st2" d="M118.7,251.2c3-1.1,6-2,9.2-2.8c2.2-0.6,2.9-2.8,2.3-4.6c0.4-0.2,0.8-0.5,1.2-0.7c3.2-2.1,1.3-7.6-2.7-6.4
			c-2.3,0.7-4.6,1.3-6.9,2c-0.9,0.3-1.8,1-2.2,1.9c-4.5,1.4-9.2,2.4-13.2,5c-0.9,0.6-1.7,1.2-2.5,1.9c-0.6-2.5-1.3-4.9-2.3-7.3
			c-0.4-1-1-2.2-1.7-3.2c0-0.2,0-0.4,0-0.5c0.2-2.4-1.8-3.6-3.7-3.4c-2.3-1.6-5-1.9-7.6,0.7c-1,1-1.5,3-0.6,4.3
			c0.8,1.2,1.6,2.4,2.3,3.6c-0.3,0.5-0.6,1.1-0.6,1.8c-1.1,9.6-1.4,19.2-0.9,28.8c0.1,1.4,0.8,2.4,1.8,2.9c0,1.3,0.1,2.5,0.1,3.8
			c0,0.7,0,1.4,0.1,2.1c-12.8,10.5-32,5.7-47.7,5.8c-0.1-0.1-0.3-0.1-0.4-0.2c-1.5-0.8-2.9-0.5-3.9,0.4c-2.8,0.4-4.4,3.8-2.2,6
			c8.9,9.2,21.8,14.1,34.6,13.5c11.4-0.5,26.1-5.5,30.7-16.9c4.5-4.8,6.7-10.9,5.9-17.8c0-0.4-0.1-0.8-0.2-1.2
			c0.7-0.4,1.3-1.1,1.5-2.1c1.5-6.3,4.5-11.8,9-16.3C118.3,251.9,118.5,251.6,118.7,251.2z"/>
		<path class="st2" d="M126.7,275.1c-4.7,0.3-7.7,4.9-7.5,9.3c0.1,2.5,1.3,4.6,2.9,6c0.9,2.3,2.6,4.3,5,5.4c2.2,1.1,4.2-0.2,5-1.9
			c0.9-0.1,1.8-0.4,2.7-0.8c2.1-1.2,3.4-3.2,3.8-5.4c0.1-0.4,0.3-0.8,0.4-1.2c1-4.4-2.2-8.6-6.4-9.4
			C130.9,275.7,128.8,274.9,126.7,275.1z"/>
		<path class="st2" d="M220.2,360.3c0.1,0.1,0.1,0.1,0.1,0.1C220.3,360.4,220.3,360.3,220.2,360.3
			C220.2,360.3,220.2,360.3,220.2,360.3z"/>
		<path class="st2" d="M319,135.9c2.9-3-1.1-7.5-4.2-5.6c-0.1-0.8-0.3-1.5-0.5-2.3c-0.6-2.1-3.2-3.4-5.2-2.1
			c-2.4,1.6-4.4,3.4-6.2,5.6c-0.4-0.2-0.8-0.3-1.3-0.3c-1.8,0-3.7,1.6-3.5,3.5c0.1,1.4,0.3,2.8,0.5,4.2c-0.3,1,0.1,2,0.7,2.8
			c0.4,1,0.8,2,1.5,2.9c1.9,2.7,4.9,4.5,8.2,4.3c3.2-0.2,4.1-3.7,2.8-5.7c0.3-0.2,0.5-0.4,0.8-0.7
			C314.7,140.3,316.9,138.1,319,135.9z M306,139.4c0.5-0.9,1-1.8,1.6-2.7c-0.1,0.5-0.3,1-0.5,1.4c-0.4,1-0.4,2-0.1,2.9
			C306.6,140.7,306.2,140.1,306,139.4z"/>
	</g>
	<g>
		<path class="st5" d="M157.7,330.3c-0.3,0-0.6-0.1-0.8-0.2c-0.9-0.4-1.2-1.5-0.7-2.4l16.8-32.2c0.5-0.9,1.5-1.2,2.4-0.7
			c0.9,0.4,1.2,1.5,0.7,2.4l-16.8,32.2C158.9,329.9,158.3,330.3,157.7,330.3z"/>
	</g>
	<g>
		<g>
			<circle class="st5" cx="191" cy="115.6" r="4.2"/>
		</g>
		<g>
			<circle class="st5" cx="265.8" cy="122.4" r="4.2"/>
		</g>
		<g>
			<circle class="st5" cx="313.9" cy="180.2" r="4.2"/>
		</g>
		<g>
			<circle class="st5" cx="307.1" cy="255" r="4.2"/>
		</g>
		<g>
			<circle class="st5" cx="133.2" cy="163.7" r="4.2"/>
		</g>
		<g>
			<circle class="st5" cx="126.4" cy="238.5" r="4.2"/>
		</g>
		<g>
			<circle class="st5" cx="174.5" cy="296.3" r="4.2"/>
		</g>
	</g>
	<g>
		<g>
			<ellipse transform="matrix(0.3889 -0.9213 0.9213 0.3889 52.8942 270.0266)" class="st5" cx="230" cy="95.1" rx="4.9" ry="4.9"/>
		</g>
		<g>
			
				<ellipse transform="matrix(0.3889 -0.9213 0.9213 0.3889 62.1973 367.4784)" class="st5" cx="308.1" cy="136.9" rx="4.9" ry="4.9"/>
		</g>
		<g>
			
				<ellipse transform="matrix(0.3889 -0.9213 0.9213 0.3889 -0.1096 442.9842)" class="st5" cx="333.8" cy="221.6" rx="4.9" ry="4.9"/>
		</g>
		<g>
			
				<ellipse transform="matrix(0.3889 -0.9213 0.9213 0.3889 -97.5611 452.2869)" class="st5" cx="292.1" cy="299.7" rx="4.9" ry="4.9"/>
		</g>
		<g>
			
				<ellipse transform="matrix(0.3889 -0.9213 0.9213 0.3889 -22.6133 207.7209)" class="st5" cx="145.3" cy="120.9" rx="4.9" ry="4.9"/>
		</g>
		<g>
			
				<ellipse transform="matrix(0.3889 -0.9213 0.9213 0.3889 -120.0652 217.0226)" class="st5" cx="103.6" cy="199" rx="4.9" ry="4.9"/>
		</g>
		<g>
			
				<ellipse transform="matrix(0.3889 -0.9213 0.9213 0.3889 -182.3708 292.5315)" class="st5" cx="129.3" cy="283.7" rx="4.9" ry="4.9"/>
		</g>
	</g>
	<g>
		<g>
			<path class="st5" d="M95.1,163.4H57.8c-5.7,0-10.3-4.6-10.3-10.3v-37.2c0-5.7,4.6-10.3,10.3-10.3h37.2c5.7,0,10.3,4.6,10.3,10.3
				v37.2C105.4,158.8,100.8,163.4,95.1,163.4z M57.8,109.1c-3.8,0-6.8,3.1-6.8,6.8v37.2c0,3.8,3.1,6.8,6.8,6.8h37.2
				c3.8,0,6.8-3.1,6.8-6.8v-37.2c0-3.8-3.1-6.8-6.8-6.8H57.8z"/>
		</g>
		<g>
			<g>
				<path class="st5" d="M85.9,127.5H67c-1,0-1.8-0.8-1.8-1.8c0-1,0.8-1.8,1.8-1.8h18.8c1,0,1.8,0.8,1.8,1.8
					C87.6,126.7,86.8,127.5,85.9,127.5z"/>
			</g>
			<g>
				<path class="st5" d="M85.9,136.2H67c-1,0-1.8-0.8-1.8-1.8c0-1,0.8-1.8,1.8-1.8h18.8c1,0,1.8,0.8,1.8,1.8
					C87.6,135.4,86.8,136.2,85.9,136.2z"/>
			</g>
			<g>
				<path class="st5" d="M85.9,145H67c-1,0-1.8-0.8-1.8-1.8s0.8-1.8,1.8-1.8h18.8c1,0,1.8,0.8,1.8,1.8S86.8,145,85.9,145z"/>
			</g>
		</g>
	</g>
	<g>
		<path class="st5" d="M315.4,92.5h-37.2c-5.7,0-10.3-4.6-10.3-10.3V45c0-5.7,4.6-10.3,10.3-10.3h37.2c5.7,0,10.3,4.6,10.3,10.3
			v37.2C325.7,87.9,321.1,92.5,315.4,92.5z M278.2,38.2c-3.8,0-6.8,3.1-6.8,6.8v37.2c0,3.8,3.1,6.8,6.8,6.8h37.2
			c3.8,0,6.8-3.1,6.8-6.8V45c0-3.8-3.1-6.8-6.8-6.8H278.2z"/>
	</g>
	<g>
		<path class="st5" d="M189.4,81.5h-37.2c-5.7,0-10.3-4.6-10.3-10.3V34c0-5.7,4.6-10.3,10.3-10.3h37.2c5.7,0,10.3,4.6,10.3,10.3
			v37.2C199.7,76.9,195,81.5,189.4,81.5z M152.1,27.2c-3.8,0-6.8,3.1-6.8,6.8v37.2c0,3.8,3.1,6.8,6.8,6.8h37.2
			c3.8,0,6.8-3.1,6.8-6.8V34c0-3.8-3.1-6.8-6.8-6.8H152.1z"/>
	</g>
	<g>
		<path class="st5" d="M395.9,189.2h-37.2c-5.7,0-10.3-4.6-10.3-10.3v-37.2c0-5.7,4.6-10.3,10.3-10.3h37.2c5.7,0,10.3,4.6,10.3,10.3
			v37.2C406.2,184.6,401.5,189.2,395.9,189.2z M358.6,134.8c-3.8,0-6.8,3.1-6.8,6.8v37.2c0,3.8,3.1,6.8,6.8,6.8h37.2
			c3.8,0,6.8-3.1,6.8-6.8v-37.2c0-3.8-3.1-6.8-6.8-6.8H358.6z"/>
	</g>
	<g>
		<path class="st5" d="M384.8,314.7h-37.2c-5.7,0-10.3-4.6-10.3-10.3v-37.2c0-5.7,4.6-10.3,10.3-10.3h37.2c5.7,0,10.3,4.6,10.3,10.3
			v37.2C395.1,310.1,390.5,314.7,384.8,314.7z M347.5,260.4c-3.8,0-6.8,3.1-6.8,6.8v37.2c0,3.8,3.1,6.8,6.8,6.8h37.2
			c3.8,0,6.8-3.1,6.8-6.8v-37.2c0-3.8-3.1-6.8-6.8-6.8H347.5z"/>
	</g>
	<g>
		<path class="st5" d="M162.7,384.6h-37.2c-5.7,0-10.3-4.6-10.3-10.3v-37.2c0-5.7,4.6-10.3,10.3-10.3h37.2c5.7,0,10.3,4.6,10.3,10.3
			v37.2C173,380,168.3,384.6,162.7,384.6z M125.4,330.3c-3.8,0-6.8,3.1-6.8,6.8v37.2c0,3.8,3.1,6.8,6.8,6.8h37.2
			c3.8,0,6.8-3.1,6.8-6.8v-37.2c0-3.8-3.1-6.8-6.8-6.8H125.4z"/>
	</g>
	<g>
		<g>
			<path class="st5" d="M81.7,288H44.5c-5.7,0-10.3-4.6-10.3-10.3v-37.2c0-5.7,4.6-10.3,10.3-10.3h37.2c5.7,0,10.3,4.6,10.3,10.3
				v37.2C92,283.4,87.4,288,81.7,288z M44.5,233.7c-3.8,0-6.8,3.1-6.8,6.8v37.2c0,3.8,3.1,6.8,6.8,6.8h37.2c3.8,0,6.8-3.1,6.8-6.8
				v-37.2c0-3.8-3.1-6.8-6.8-6.8H44.5z"/>
		</g>
		<g>
			<g>
				<polygon class="st5" points="55.5,272.1 52.2,270.9 61.4,246.3 64.7,246.3 74,270.9 70.7,272.1 63.1,251.9 				"/>
			</g>
			<g>
				<rect x="55.8" y="262" class="st5" width="14.1" height="3.5"/>
			</g>
		</g>
	</g>
	<g>
		<circle class="st5" cx="220.2" cy="209.7" r="31.6"/>
		<path class="st5" d="M220.2,243c-18.4,0-33.4-15-33.4-33.4c0-18.4,15-33.4,33.4-33.4c18.4,0,33.4,15,33.4,33.4
			C253.5,228.1,238.6,243,220.2,243z M220.2,179.8c-16.5,0-29.8,13.4-29.8,29.8s13.4,29.8,29.8,29.8c16.5,0,29.8-13.4,29.8-29.8
			S236.6,179.8,220.2,179.8z"/>
	</g>
	<g>
		<path class="st5" d="M209.1,257.9c-0.1,0-0.3,0-0.4,0c-6.1-1.4-11.8-4-16.9-7.6c-0.8-0.6-1-1.7-0.4-2.5c0.6-0.8,1.7-1,2.5-0.4
			c4.8,3.3,10,5.7,15.7,7c0.9,0.2,1.5,1.2,1.3,2.1C210.6,257.4,209.9,257.9,209.1,257.9z M234,257.2c-0.8,0-1.5-0.5-1.7-1.3
			c-0.3-0.9,0.2-1.9,1.2-2.2c5.5-1.7,10.7-4.3,15.2-8c0.8-0.6,1.9-0.5,2.5,0.3c0.6,0.8,0.5,1.9-0.3,2.5c-4.9,3.9-10.4,6.8-16.4,8.6
			C234.3,257.2,234.1,257.2,234,257.2z M176.8,231.6c-0.7,0-1.3-0.4-1.6-1c-2.6-5.7-4.2-11.7-4.5-17.9c-0.1-1,0.7-1.8,1.7-1.9
			c1,0,1.8,0.7,1.9,1.7c0.3,5.8,1.8,11.4,4.2,16.7c0.4,0.9,0,1.9-0.9,2.3C177.3,231.6,177.1,231.6,176.8,231.6z M264.6,229
			c-0.2,0-0.4,0-0.6-0.1c-0.9-0.4-1.3-1.4-1-2.3c2.1-5.4,3.2-11.1,3.2-16.9c0-1,0.8-1.8,1.8-1.8c1,0,1.8,0.8,1.8,1.8
			c0,6.3-1.2,12.4-3.4,18.2C266,228.5,265.3,229,264.6,229z M177.5,190c-0.3,0-0.5-0.1-0.8-0.2c-0.9-0.4-1.2-1.5-0.8-2.4
			c2.8-5.6,6.6-10.5,11.3-14.7c0.7-0.6,1.8-0.6,2.5,0.1c0.6,0.7,0.6,1.8-0.1,2.5c-4.3,3.9-7.9,8.5-10.5,13.6
			C178.7,189.6,178.1,190,177.5,190z M262.2,188.7c-0.6,0-1.2-0.3-1.6-0.9c-2.8-5.1-6.4-9.6-10.9-13.3c-0.7-0.6-0.8-1.7-0.2-2.5
			c0.6-0.7,1.7-0.8,2.5-0.2c4.8,4,8.7,8.9,11.7,14.3c0.5,0.9,0.1,1.9-0.7,2.4C262.8,188.6,262.5,188.7,262.2,188.7z M210.5,164.6
			c-0.8,0-1.6-0.6-1.7-1.4c-0.2-1,0.4-1.9,1.4-2.1c3.3-0.7,6.6-1,10-1c0,0,0,0,0,0c2.9,0,5.7,0.2,8.5,0.7c1,0.2,1.6,1.1,1.4,2
			c-0.2,1-1.1,1.6-2,1.4c-2.6-0.5-5.3-0.7-7.9-0.7c0,0,0,0,0,0c-3.1,0-6.2,0.3-9.3,0.9C210.8,164.6,210.6,164.6,210.5,164.6z"/>
	</g>
	<g>
		<path class="st5" d="M230.9,293h-21.6c-1,0-1.8-0.8-1.8-1.8v-17.6l-14.9-4.8L182.4,283c-0.6,0.8-1.7,1-2.5,0.4l-17.4-12.7
			c-0.4-0.3-0.6-0.7-0.7-1.2c-0.1-0.5,0-0.9,0.3-1.3l10.3-14.2l-9.2-12.7l-16.7,5.4c-0.9,0.3-1.9-0.2-2.2-1.1l-6.7-20.5
			c-0.1-0.4-0.1-0.9,0.1-1.3c0.2-0.4,0.6-0.7,1-0.9l16.6-5.4l-0.6-7.7c0-0.1,0-0.2,0-0.3l0.6-7.7l-16.6-5.4c-0.4-0.1-0.8-0.5-1-0.9
			c-0.2-0.4-0.3-0.9-0.1-1.3l6.7-20.5c0.3-0.9,1.3-1.4,2.2-1.1l16.7,5.4l9.2-12.7l-10.3-14.2c-0.3-0.4-0.4-0.9-0.3-1.3
			c0.1-0.5,0.3-0.9,0.7-1.2l17.4-12.7c0.8-0.6,1.9-0.4,2.5,0.4l10.3,14.2l14.9-4.8v-17.6c0-1,0.8-1.8,1.8-1.8h21.6
			c1,0,1.8,0.8,1.8,1.8v17.6l14.9,4.8l10.3-14.2c0.3-0.4,0.7-0.6,1.2-0.7c0.5-0.1,0.9,0,1.3,0.3l17.4,12.7c0.8,0.6,1,1.7,0.4,2.5
			l-10.3,14.2l9.2,12.7l16.7-5.4c0.9-0.3,1.9,0.2,2.2,1.1l6.7,20.5c0.1,0.4,0.1,0.9-0.1,1.3c-0.2,0.4-0.6,0.7-1,0.9l-16.6,5.4
			l0.6,7.7c0,0.1,0,0.2,0,0.3l-0.6,7.7l16.6,5.4c0.4,0.1,0.8,0.5,1,0.9c0.2,0.4,0.3,0.9,0.1,1.3l-6.7,20.5c-0.3,0.9-1.3,1.4-2.2,1.1
			l-16.7-5.4l-9.2,12.7l10.3,14.2c0.6,0.8,0.4,1.9-0.4,2.5l-17.4,12.7c-0.4,0.3-0.9,0.4-1.3,0.3c-0.5-0.1-0.9-0.3-1.2-0.7
			l-10.3-14.2l-14.9,4.8v17.6C232.7,292.2,231.9,293,230.9,293z M211.1,289.5h18v-17.1c0-0.8,0.5-1.4,1.2-1.7l17.3-5.6
			c0.7-0.2,1.5,0,2,0.6l10.1,13.8l14.6-10.6l-10.1-13.9c-0.4-0.6-0.4-1.5,0-2.1l10.7-14.7c0.4-0.6,1.2-0.9,2-0.6l16.3,5.3l5.6-17.1
			l-16.3-5.3c-0.8-0.3-1.3-1-1.2-1.8l0.6-9l-0.6-9c-0.1-0.8,0.4-1.6,1.2-1.8l16.3-5.3l-5.6-17.1l-16.3,5.3c-0.7,0.2-1.5,0-2-0.6
			l-10.7-14.7c-0.4-0.6-0.4-1.5,0-2.1l10.1-13.9l-14.6-10.6l-10.1,13.8c-0.4,0.6-1.2,0.9-2,0.6l-17.3-5.6c-0.7-0.2-1.2-0.9-1.2-1.7
			v-17.1h-18V147c0,0.8-0.5,1.4-1.2,1.7l-17.3,5.6c-0.7,0.2-1.5,0-2-0.6l-10.1-13.8L166,150.4l10.1,13.9c0.4,0.6,0.4,1.5,0,2.1
			l-10.7,14.7c-0.4,0.6-1.2,0.9-2,0.6l-16.3-5.3l-5.6,17.1l16.3,5.3c0.8,0.3,1.3,1,1.2,1.8l-0.6,9l0.6,9c0.1,0.8-0.4,1.6-1.2,1.8
			l-16.3,5.3l5.6,17.1l16.3-5.3c0.7-0.2,1.5,0,2,0.6L176,253c0.4,0.6,0.5,1.5,0,2.1L166,268.9l14.6,10.6l10.1-13.8
			c0.4-0.6,1.2-0.9,2-0.6l17.3,5.6c0.7,0.2,1.2,0.9,1.2,1.7V289.5z"/>
	</g>
	<g>
		<path class="st6" d="M297.8,271l-45.2-16.8c-5.7-2.1-11.8,2.1-11.8,8.2v-47.9c0-4.8-3.9-8.8-8.8-8.8h-3c-4.8,0-8.8,3.9-8.8,8.8
			v86.1l-27.3-11.9c-9.9-4.3-21.4,0-25.9,9.8l53.2,28.7l17.2,18.7h56l10.1-17.2v-49.5C303.5,275.6,301.2,272.3,297.8,271z"/>
		<g>
			<path class="st0" d="M235.7,293.7c0.9,0.5,1.8,1.1,2.7,1.6c1.6,0.9,3.9,0.4,4.8-1.3c0.9-1.7,0.4-3.8-1.3-4.8
				c-0.6-0.3-1.1-0.7-1.7-1c0.5-2.6,0.2-5.6,0.3-8c0.1-5.4,0.2-10.9,0.2-16.3c0.1-12.6,0.1-25.2,0-37.8c0-1.2-0.5-2.1-1.3-2.7
				c0.1-1.6,0.1-3.3,0.2-4.9c0.1-4.5-0.6-8.8-3.7-12.2c-3.1-3.3-8.1,1.7-5,5c2.8,3.1,1.6,9,1.4,12.7c-0.3,5.6-0.7,11.2-1.1,16.8
				c-0.8,11-1.7,21.9-1.9,32.9c-0.1,5-0.6,10.6,0.4,15.4C230.3,292.1,233,294.3,235.7,293.7z"/>
			<path class="st2" d="M303.1,297.6c-0.1-1.7-0.2-3.6-0.3-5.4c0.6-6.6,1.1-14.6-4.7-19.1c-2.9-2.3-6.5-2.6-10-3.6
				c-1-0.3-2-0.7-3-1.1c-0.6-0.4-1.2-0.7-1.8-1c-0.3-0.1-0.5-0.3-0.8-0.4c-1.6-1.1-3.1-2.4-4.5-3.8c-0.9-0.9-1.9-1.2-2.8-1.1
				c-1.7-1-3.4-1.9-5.3-2.5c-3.2-1.1-6.2,3.7-3.4,5.9c3,2.3,6.2,4.2,9.5,5.9c1.6,1.4,3.1,2.9,4.5,4.4c3.7,3.7,5.7,8.1,6.7,13.3
				c1.8,9.5-0.2,19.3-0.2,28.9c-2.2,7.1-5.8,13.8-10.7,19.5c-2,2.3-0.4,5.3,1.8,6c-1.2,2.8,1.7,6.6,4.9,4.5c1.1-0.8,2.2-1.6,3.2-2.4
				c1.1,0.9,2.6,1.2,3.9,0.3C305.4,335.2,304.3,314.3,303.1,297.6z M292,326.8c-0.2-0.2-0.4-0.3-0.7-0.4c0,0,0,0,0,0
				c0.3-0.1,0.6-0.2,0.9-0.3C292.2,326.3,292.1,326.5,292,326.8z"/>
			<path class="st0" d="M251.5,339.8c-2.8-0.7-5.7-1.4-8.1-2.9c-2.5-1.5-3.7-4.1-5.5-6.3c-4.3-5.3-10.2-9.6-15.3-14.1
				c-1.1-1-2.4-1.1-3.6-0.7c-0.1-0.9-0.6-1.8-1.7-2.4c-6.5-4.1-14.1-5.7-21.3-8.4c-7.5-2.8-14.7-6.4-21.5-10.7
				c-3.8-2.4-7.4,3.7-3.6,6.1c6.7,4.3,13.8,7.8,21.1,10.7c2.6,1,5.4,1.9,8.1,2.8c0.2,1,1,2,2.4,2.4c14.7,4.3,25.3,16.4,33.9,28.4
				c1.1,1.6,2.9,1.8,4.4,1.3c2.5,2.1,5.3,3.7,8.7,4.3c3.4,0.6,5.3-3.3,4-5.4C254.4,342.8,254,340.4,251.5,339.8z"/>
		</g>
		<path class="st5" d="M293.4,347.7c-0.3,0-0.6-0.1-0.9-0.2c-0.8-0.5-1.1-1.6-0.6-2.4l9.8-16.8v-49c0-2.9-1.8-5.6-4.6-6.6L252,255.9
			c-2.2-0.8-4.5-0.5-6.4,0.8c-1.9,1.3-3,3.4-3,5.8v25.1c0,1-0.8,1.8-1.8,1.8c-1,0-1.8-0.8-1.8-1.8v-73c0-3.9-3.1-7-7-7h-3
			c-3.9,0-7,3.1-7,7v86.1c0,0.6-0.3,1.1-0.8,1.5c-0.5,0.3-1.1,0.4-1.7,0.1l-27.3-11.9c-8.4-3.7-18.3-0.3-22.8,7.5l51.6,27.9
			c0.2,0.1,0.3,0.2,0.5,0.4l17.2,18.7c0.7,0.7,0.6,1.8-0.1,2.5c-0.7,0.7-1.8,0.6-2.5-0.1l-17-18.5l-52.9-28.6
			c-0.8-0.4-1.2-1.4-0.8-2.3c4.9-10.6,17.5-15.3,28.2-10.7l24.8,10.8v-83.4c0-5.8,4.7-10.5,10.5-10.5h3c5.8,0,10.5,4.7,10.5,10.5
			v40.1c0.3-0.3,0.6-0.5,1-0.8c2.8-2,6.5-2.4,9.7-1.2l45.2,16.8c4.1,1.5,6.9,5.5,6.9,9.9v49.5c0,0.3-0.1,0.6-0.2,0.9L295,346.8
			C294.6,347.4,294,347.7,293.4,347.7z"/>
		<g>
			<rect x="226.6" y="345.9" class="st5" width="72.6" height="14.8"/>
			<path class="st5" d="M299.2,362.5h-72.6c-1,0-1.8-0.8-1.8-1.8v-14.8c0-1,0.8-1.8,1.8-1.8h72.6c1,0,1.8,0.8,1.8,1.8v14.8
				C300.9,361.8,300.2,362.5,299.2,362.5z M228.4,359h69v-11.3h-69V359z"/>
		</g>
		<g>
			<rect x="234.5" y="351.9" class="st6" width="7.2" height="2.9"/>
			<path class="st6" d="M241.7,356.6h-7.2c-1,0-1.8-0.8-1.8-1.8v-2.9c0-1,0.8-1.8,1.8-1.8h7.2c1,0,1.8,0.8,1.8,1.8v2.9
				C243.5,355.8,242.7,356.6,241.7,356.6z"/>
		</g>
		<g>
			<path class="st5" d="M306.8,421c-1,0-1.8-0.8-1.8-1.8v-56.7h-81v56.7c0,1-0.8,1.8-1.8,1.8c-1,0-1.8-0.8-1.8-1.8v-58.4
				c0-1,0.8-1.8,1.8-1.8h84.5c1,0,1.8,0.8,1.8,1.8v58.4C308.6,420.2,307.8,421,306.8,421z"/>
		</g>
		<g>
			<circle class="st5" cx="235.2" cy="375.4" r="1.4"/>
			<path class="st5" d="M235.2,378.6c-1.8,0-3.2-1.4-3.2-3.2c0-1.8,1.4-3.2,3.2-3.2c1.8,0,3.2,1.4,3.2,3.2
				C238.4,377.2,237,378.6,235.2,378.6z M235.2,375.1c-0.2,0-0.3,0.1-0.3,0.3c0,0.2,0.1,0.3,0.3,0.3c0.2,0,0.3-0.1,0.3-0.3
				C235.6,375.2,235.4,375.1,235.2,375.1z"/>
		</g>
		<g>
			<circle class="st5" cx="235.2" cy="390" r="1.4"/>
			<path class="st5" d="M235.2,393.2c-1.8,0-3.2-1.4-3.2-3.2c0-1.8,1.4-3.2,3.2-3.2c1.8,0,3.2,1.4,3.2,3.2
				C238.4,391.8,237,393.2,235.2,393.2z M235.2,389.7c-0.2,0-0.3,0.1-0.3,0.3c0,0.2,0.1,0.3,0.3,0.3c0.2,0,0.3-0.1,0.3-0.3
				C235.6,389.8,235.4,389.7,235.2,389.7z"/>
		</g>
	</g>
	<g>
		<g>
			<path class="st5" d="M165.8,70.3c-0.5,0-0.9-0.2-1.2-0.5c-0.3-0.3-0.5-0.8-0.5-1.3V47.6c0-7,5.7-12.8,12.8-12.8
				c7,0,12.8,5.7,12.8,12.8C189.6,69.1,166.2,70.3,165.8,70.3C165.9,70.3,165.9,70.3,165.8,70.3z M176.8,38.4
				c-5.1,0-9.2,4.1-9.2,9.2v19c5-0.7,18.5-4,18.5-19C186.1,42.5,181.9,38.4,176.8,38.4z"/>
		</g>
		<g>
			<path class="st6" d="M169.8,44.5h-20.9c0,0,2.6,14.4,19.7,16.1c0.4,0.1,0.8,0.1,1.2,0.1c4.5,0,8.1-3.6,8.1-8.1
				S174.3,44.5,169.8,44.5z"/>
			<path class="st5" d="M169.8,62.4c-0.4,0-0.9,0-1.4-0.1c-18.2-1.8-21.2-17.3-21.2-17.5c-0.1-0.5,0-1,0.4-1.4
				c0.3-0.4,0.8-0.6,1.4-0.6h20.9c5.4,0,9.8,4.4,9.8,9.8C179.6,58,175.2,62.4,169.8,62.4z M151.2,46.3c1.4,3.8,5.7,11.4,17.5,12.5
				c0,0,0.1,0,0.1,0c0.4,0.1,0.7,0.1,1,0.1c3.5,0,6.3-2.8,6.3-6.3c0-3.5-2.8-6.3-6.3-6.3H151.2z"/>
		</g>
		<g>
			<g>
				<path class="st5" d="M188.3,52c-0.4,0-0.8-0.1-1.1-0.4c-0.5-0.4-0.8-1.1-0.6-1.7c0.2-0.8,0.2-1.5,0.2-2.3c0-0.5,0-1-0.1-1.5
					c-0.1-0.4,0-0.9,0.3-1.3c0.5-0.7,1.4-1,2.2-0.7l4.9,2.2c0.6,0.3,1,0.9,1,1.6c0,0.7-0.4,1.3-1.1,1.6l-5,2.2
					C188.8,51.9,188.6,52,188.3,52z"/>
			</g>
		</g>
		<g>
			<path class="st5" d="M182.1,48.8c-1.3,0-2.3-1-2.3-2.3c0-1.3,1-2.3,2.3-2.3c1.3,0,2.3,1,2.3,2.3
				C184.5,47.8,183.4,48.8,182.1,48.8z"/>
		</g>
	</g>
	<g>
		<path class="st5" d="M190.1,116.3c-0.8,0-1.5-0.5-1.7-1.3L178,80.3c-0.3-0.9,0.3-1.9,1.2-2.2c0.9-0.3,1.9,0.3,2.2,1.2l10.4,34.8
			c0.3,0.9-0.3,1.9-1.2,2.2C190.4,116.3,190.2,116.3,190.1,116.3z"/>
	</g>
	<g>
		<path class="st5" d="M265.8,124.2c-0.3,0-0.6-0.1-0.8-0.2c-0.9-0.5-1.2-1.5-0.7-2.4L281,89.9c0.5-0.9,1.5-1.2,2.4-0.7
			c0.9,0.5,1.2,1.5,0.7,2.4l-16.8,31.7C267.1,123.8,266.4,124.2,265.8,124.2z"/>
	</g>
	<g>
		<path class="st5" d="M315.3,181.9c-0.8,0-1.4-0.5-1.7-1.2c-0.3-0.9,0.2-1.9,1.2-2.2l34.8-10.9c0.9-0.3,1.9,0.2,2.2,1.2
			c0.3,0.9-0.2,1.9-1.2,2.2l-34.8,10.9C315.6,181.9,315.4,181.9,315.3,181.9z"/>
	</g>
	<g>
		<path class="st5" d="M338.8,273.7c-0.3,0-0.6-0.1-0.8-0.2l-31.7-16.9c-0.9-0.5-1.2-1.5-0.7-2.4c0.5-0.9,1.5-1.2,2.4-0.7l31.7,16.9
			c0.9,0.5,1.2,1.5,0.7,2.4C340,273.3,339.4,273.7,338.8,273.7z"/>
	</g>
	<g>
		<path class="st5" d="M90.3,251.8c-0.7,0-1.4-0.5-1.7-1.2c-0.3-0.9,0.2-1.9,1.1-2.2l36.1-11.5c0.9-0.3,1.9,0.2,2.2,1.1
			c0.3,0.9-0.2,1.9-1.1,2.2l-36.1,11.5C90.6,251.8,90.4,251.8,90.3,251.8z"/>
	</g>
	<g>
		<path class="st5" d="M133.2,165.4c-0.3,0-0.5-0.1-0.8-0.2l-29.7-15.3c-0.9-0.4-1.2-1.5-0.8-2.4c0.4-0.9,1.5-1.2,2.4-0.8l29.7,15.3
			c0.9,0.4,1.2,1.5,0.8,2.4C134.5,165.1,133.9,165.4,133.2,165.4z"/>
	</g>
	<g>
		<g>
			<path class="st5" d="M377.2,176.7c-9.1,0-16.4-7.4-16.4-16.4c0-9.1,7.4-16.4,16.4-16.4s16.4,7.4,16.4,16.4
				C393.7,169.3,386.3,176.7,377.2,176.7z M377.2,147.3c-7.1,0-12.9,5.8-12.9,12.9c0,7.1,5.8,12.9,12.9,12.9
				c7.1,0,12.9-5.8,12.9-12.9C390.1,153.1,384.4,147.3,377.2,147.3z"/>
		</g>
		<g>
			<path class="st5" d="M389.1,168.8l0.1-2.6l1.7-3.1l0.1-1.7l-1.1,0.9l-2.3-3.2l0.8-2.5l2,2.8l0.8,0.1l-0.3-2l-0.6,0.4l-1-1.2
				l1.5-0.7h0.5c-1.5-4.9-5.5-8.6-10.4-9.9l2,2.7l-2.4,0.2l-1,2.5l1.4,1.4l-1.3,1.4l-2.4-1l2,2.3l-1.4,0.5l4.1-0.5l0.6-0.7l1.2-0.6
				l0.6-2l3,2.2l-1.2,1.2l0.1,1.1l1.2-0.6l0.2,1.6l-2.7,1l-2.4,0l0.1-0.8l-4.2,0.9l-2.8,3.9l0.4,3.2l2.3,1.7l3.8-0.9l1.5,1l-0.6,1.1
				l1.2,1.7l-0.6,3.3C385.8,172.4,387.7,170.8,389.1,168.8z"/>
		</g>
		<g>
			<path class="st5" d="M369.9,171.7l0.1-1.1l0.8-1.1l-4.1-3.7l-4-5.4l-0.1-0.1l0,0c0,4.7,2.2,8.9,5.7,11.6l0.2-0.1L369.9,171.7z"/>
		</g>
		<g>
			<path class="st5" d="M363.9,157l2.1-2.7l3.6-0.8l0.8-3.6l-2.3,1l1.3-1.9l2.1-0.5l0.2,0.8l1.6-1.7l1.1,0.1l-1.5,1.8l0.1,1.4l3.5-2
				l0.4-1.8l-1.8-0.2l-1.3-1l-0.1,0c-4.5,1.1-8.2,4.3-10,8.6l0.1,0.1L363.9,157z"/>
		</g>
	</g>
	<g>
		<g>
			<path class="st5" d="M373.5,298.6h-26.2c-1,0-1.8-0.8-1.8-1.8v-22c0-1,0.8-1.8,1.8-1.8h26.2c1,0,1.8,0.8,1.8,1.8v22
				C375.2,297.8,374.4,298.6,373.5,298.6z M349,295h22.7v-18.5H349V295z"/>
		</g>
		<g>
			<g>
				<path class="st5" d="M376.2,292.7h-2.7c-1,0-1.8-0.8-1.8-1.8v-10.4c0-1,0.8-1.8,1.8-1.8h2.7c1,0,1.8,0.8,1.8,1.8V291
					C377.9,291.9,377.1,292.7,376.2,292.7z"/>
			</g>
			<g>
				<path class="st5" d="M383.2,297L383.2,297c-0.7,0-1.4-0.2-2-0.6l-6.1-3.9c-0.5-0.3-0.8-0.9-0.8-1.5v-10.4c0-0.6,0.3-1.2,0.8-1.5
					l6.1-3.9c0.6-0.4,1.3-0.6,2-0.6c2,0,3.7,1.6,3.7,3.7v15.1c0,1-0.4,1.9-1.1,2.6C385.1,296.6,384.2,297,383.2,297z M377.9,290
					l5.3,3.4c0,0,0.1,0,0.1,0c0,0,0.1,0,0.1,0c0,0,0,0,0-0.1v-15.1c0-0.1-0.1-0.1-0.1-0.1c0,0,0,0-0.1,0l-5.3,3.4V290z"/>
			</g>
		</g>
	</g>
	<g>
		<path class="st5" d="M314.5,77.3h-35.3c-1,0-1.8-0.8-1.8-1.8V51.7c0-1,0.8-1.8,1.8-1.8h35.3c1,0,1.8,0.8,1.8,1.8v23.8
			C316.2,76.5,315.4,77.3,314.5,77.3z M280.9,73.7h31.8V53.4h-31.8V73.7z"/>
	</g>
	<g>
		<g>
			<path class="st5" d="M296.8,68.2c-0.3,0-0.7-0.1-1-0.3L278.1,56c-0.5-0.3-0.8-0.9-0.8-1.5v-2.9c0-1,0.8-1.8,1.8-1.8h35.3
				c1,0,1.8,0.8,1.8,1.8v2.9c0,0.6-0.3,1.1-0.8,1.5l-17.7,11.9C297.5,68.1,297.1,68.2,296.8,68.2z M280.9,53.6l15.9,10.7l15.9-10.7
				v-0.2h-31.8V53.6z"/>
		</g>
	</g>
	<g>
		<g>
			<path class="st5" d="M136.9,363.6h-8.5c-1,0-1.8-0.8-1.8-1.8v-12.2c0-1,0.8-1.8,1.8-1.8h8.5c1,0,1.8,0.8,1.8,1.8v12.2
				C138.7,362.8,137.9,363.6,136.9,363.6z M130.2,360h4.9v-8.7h-4.9V360z"/>
		</g>
		<g>
			<path class="st5" d="M139.4,363.6h-2.5c-1,0-1.8-0.8-1.8-1.8v-12.2c0-1,0.8-1.8,1.8-1.8h2.5c1,0,1.8,0.8,1.8,1.8v12.2
				C141.2,362.8,140.4,363.6,139.4,363.6z"/>
		</g>
		<g>
			<g>
				<path class="st5" d="M158.6,372.2H156c-1,0-1.8-0.8-1.8-1.8v-29.5c0-1,0.8-1.8,1.8-1.8h2.6c1,0,1.8,0.8,1.8,1.8v29.5
					C160.4,371.4,159.6,372.2,158.6,372.2z"/>
			</g>
			<g>
				<path class="st5" d="M156,372.2c-0.3,0-0.6-0.1-0.8-0.2l-16.6-8.6c-0.6-0.3-1-0.9-1-1.6v-12.2c0-0.7,0.4-1.3,1-1.6l16.6-8.6
					c0.5-0.3,1.2-0.3,1.7,0.1c0.5,0.3,0.8,0.9,0.8,1.5v29.5c0,0.6-0.3,1.2-0.8,1.5C156.7,372.1,156.3,372.2,156,372.2z M141.2,360.7
					l13.1,6.8v-23.7l-13.1,6.8V360.7z"/>
			</g>
		</g>
	</g>
	<g>
		<g>
			<path class="st5" d="M100.2,85.9c-1,0-1.8-0.8-1.8-1.8V67.6c0-1,0.8-1.8,1.8-1.8c1,0,1.8,0.8,1.8,1.8v16.5
				C102,85.1,101.2,85.9,100.2,85.9z"/>
		</g>
		<g>
			<path class="st5" d="M108.5,77.7H91.9c-1,0-1.8-0.8-1.8-1.8c0-1,0.8-1.8,1.8-1.8h16.5c1,0,1.8,0.8,1.8,1.8
				C110.2,76.9,109.4,77.7,108.5,77.7z"/>
		</g>
	</g>
	<g>
		<g>
			<path class="st5" d="M49,201.7H32.5c-1,0-1.8-0.8-1.8-1.8c0-1,0.8-1.8,1.8-1.8H49c1,0,1.8,0.8,1.8,1.8
				C50.8,200.9,50,201.7,49,201.7z"/>
		</g>
		<g>
			<path class="st5" d="M40.7,209.9c-1,0-1.8-0.8-1.8-1.8v-16.5c0-1,0.8-1.8,1.8-1.8c1,0,1.8,0.8,1.8,1.8v16.5
				C42.5,209.1,41.7,209.9,40.7,209.9z"/>
		</g>
	</g>
	<g>
		<g>
			<path class="st5" d="M86.7,339.9H70.2c-1,0-1.8-0.8-1.8-1.8c0-1,0.8-1.8,1.8-1.8h16.5c1,0,1.8,0.8,1.8,1.8
				C88.5,339.1,87.7,339.9,86.7,339.9z"/>
		</g>
		<g>
			<path class="st5" d="M78.4,348.1c-1,0-1.8-0.8-1.8-1.8v-16.5c0-1,0.8-1.8,1.8-1.8c1,0,1.8,0.8,1.8,1.8v16.5
				C80.2,347.4,79.4,348.1,78.4,348.1z"/>
		</g>
	</g>
	<g>
		<g>
			<path class="st5" d="M340.1,353.5c-1,0-1.8-0.8-1.8-1.8v-16.5c0-1,0.8-1.8,1.8-1.8c1,0,1.8,0.8,1.8,1.8v16.5
				C341.9,352.7,341.1,353.5,340.1,353.5z"/>
		</g>
		<g>
			<path class="st5" d="M348.4,345.2h-16.5c-1,0-1.8-0.8-1.8-1.8s0.8-1.8,1.8-1.8h16.5c1,0,1.8,0.8,1.8,1.8S349.3,345.2,348.4,345.2
				z"/>
		</g>
	</g>
	<g>
		<g>
			<path class="st5" d="M407.8,221.2h-16.5c-1,0-1.8-0.8-1.8-1.8c0-1,0.8-1.8,1.8-1.8h16.5c1,0,1.8,0.8,1.8,1.8
				C409.6,220.4,408.8,221.2,407.8,221.2z"/>
		</g>
		<g>
			<path class="st5" d="M399.6,229.5c-1,0-1.8-0.8-1.8-1.8v-16.5c0-1,0.8-1.8,1.8-1.8s1.8,0.8,1.8,1.8v16.5
				C401.3,228.7,400.5,229.5,399.6,229.5z"/>
		</g>
	</g>
	<g>
		<g>
			<path class="st5" d="M362.2,91.5h-16.5c-1,0-1.8-0.8-1.8-1.8c0-1,0.8-1.8,1.8-1.8h16.5c1,0,1.8,0.8,1.8,1.8
				C363.9,90.7,363.2,91.5,362.2,91.5z"/>
		</g>
		<g>
			<path class="st5" d="M353.9,99.7c-1,0-1.8-0.8-1.8-1.8V81.5c0-1,0.8-1.8,1.8-1.8c1,0,1.8,0.8,1.8,1.8V98
				C355.7,99,354.9,99.7,353.9,99.7z"/>
		</g>
	</g>
	<g>
		<g>
			<path class="st5" d="M229.9,40.3c-1,0-1.8-0.8-1.8-1.8V22c0-1,0.8-1.8,1.8-1.8s1.8,0.8,1.8,1.8v16.5
				C231.7,39.5,230.9,40.3,229.9,40.3z"/>
		</g>
		<g>
			<path class="st5" d="M238.2,32h-16.5c-1,0-1.8-0.8-1.8-1.8c0-1,0.8-1.8,1.8-1.8h16.5c1,0,1.8,0.8,1.8,1.8
				C239.9,31.2,239.2,32,238.2,32z"/>
		</g>
	</g>
</g>
</svg>
