<?xml version="1.0" encoding="utf-8"?>
<!-- Generator: Adobe Illustrator 23.0.4, SVG Export Plug-In . SVG Version: 6.00 Build 0)  -->
<svg version="1.1" id="Layer_1" xmlns="http://www.w3.org/2000/svg" xmlns:xlink="http://www.w3.org/1999/xlink" x="0px" y="0px"
	 viewBox="0 0 1600 500" style="enable-background:new 0 0 1600 500;" xml:space="preserve">
<style type="text/css">
	.st0{opacity:0.16;}
</style>
<polygon class="st0" points="35,240.2 41.1,253.1 24.8,250.3 "/>
<polygon class="st0" points="96.4,361.5 87.4,342.4 111.3,346.7 "/>
<polygon class="st0" points="1569.5,140.7 1560.2,127.3 1579,127.3 "/>
<polygon class="st0" points="14.1,458.6 -6.1,457.6 8.3,439.2 "/>
<circle class="st0" cx="246" cy="473.8" r="15.2"/>
<circle class="st0" cx="127.7" cy="439.2" r="10"/>
<circle class="st0" cx="-3.2" cy="526.9" r="7.2"/>
<circle class="st0" cx="1542.9" cy="263.4" r="11"/>
<circle class="st0" cx="1462.3" cy="384.2" r="5.5"/>
<rect x="1302.9" y="449.3" transform="matrix(0.7591 -0.651 0.651 0.7591 18.3502 963.0369)" class="st0" width="14.9" height="14.9"/>
<rect x="-17.6" y="114.5" transform="matrix(0.9397 -0.342 0.342 0.9397 -42.8453 4.6217)" class="st0" width="18.5" height="18.5"/>
<rect x="1414.7" y="146.7" transform="matrix(0.9848 -0.1736 0.1736 0.9848 -5.0499 249.0795)" class="st0" width="13.3" height="13.3"/>
<polygon class="st0" points="1542.9,478.6 1557.8,467.8 1558.1,489 "/>
</svg>
