<svg xmlns="http://www.w3.org/2000/svg" width="160" height="60" viewBox="0 0 160 60"><path fill-rule="evenodd" clip-rule="evenodd" fill="#FFF" d="M35.473-115.957c1.552.308 1.905-.509 1.73-1.822l1.361-.117c-.176.874-.193 1.676-.507 2.337-.431.91-1.396.789-2.212.671-.214-.031-.36-.525-.537-.807l.165-.262zM142.14 31.057c-.341-.277-.679-.56-1.017-.844-.596-.5-1.211-1.017-1.828-1.476-1.038-.771-2.184-1.221-3.405-1.334-1.842-.168-3.535.464-5.456 2.012-.359.29-.709.597-1.06.905-.412.361-.824.723-1.249 1.058-1.19.939-2.354 1.429-3.556 1.499-1.964.112-3.568-1.01-4.735-1.983a57.314 57.314 0 0 1-.797-.682c-.56-.485-1.088-.943-1.646-1.349-2.397-1.749-4.838-1.964-7.254-.633-.585.322-1.138.781-1.725 1.267-.316.263-.632.525-.957.769-.797.6-1.6 1.187-2.409 1.759-1.182.834-2.474 1.096-3.834.774-1.564-.37-2.854-1.376-4.039-2.375-.844-.71-1.846-1.523-2.883-2.164-1.295-.801-2.739-1.062-4.27-.771-1.799.339-3.316 1.485-4.564 2.561-.848.731-1.684 1.435-2.581 2-.735.462-1.504.739-2.284.822l-.873.092v-.081c-1.84.035-3.291-.959-4.36-1.827-.342-.277-.681-.562-1.019-.846-.595-.5-1.209-1.016-1.826-1.474-1.038-.771-2.184-1.221-3.405-1.334-1.844-.171-3.536.465-5.455 2.012-.36.29-.71.597-1.06.905-.412.361-.824.723-1.249 1.058-1.191.939-2.355 1.429-3.557 1.499-1.964.115-3.567-1.009-4.735-1.983a51.509 51.509 0 0 1-.799-.684c-.559-.484-1.086-.941-1.643-1.347-2.398-1.749-4.838-1.964-7.254-.633-.585.322-1.14.782-1.726 1.269-.316.262-.632.524-.955.767-.797.6-1.6 1.187-2.409 1.759-1.181.834-2.474 1.096-3.835.774-1.564-.37-2.853-1.376-4.039-2.375-.843-.71-1.846-1.523-2.883-2.164-1.296-.801-2.739-1.063-4.27-.771-1.799.339-3.317 1.485-4.564 2.561-.849.732-1.686 1.437-2.581 2-.704.442-1.432.714-2.172.811v1.725c1.408-.149 2.815-.806 4.282-1.995.34-.275.67-.567 1-.859.404-.357.808-.713 1.225-1.042 1.286-1.011 2.514-1.523 3.756-1.565l.167-.003c1.346 0 2.651.545 4.107 1.715.397.32.785.66 1.173 1 .373.327.745.654 1.128.961 1.897 1.525 3.898 2.086 5.958 1.674 1.678-.335 3.129-1.446 4.448-2.596.768-.669 1.602-1.366 2.504-1.93 1.8-1.125 3.728-1.13 5.556-.012.601.368 1.159.813 1.697 1.244l.503.398c.289.225.574.46.858.696.481.398.936.774 1.411 1.099 1.662 1.134 3.389 1.508 5.141 1.109 1.707-.386 3.173-1.51 4.26-2.446l.203-.175c.718-.621 1.461-1.263 2.263-1.79 1.913-1.259 3.953-1.282 5.895-.07.507.316.976.692 1.43 1.055.181.145.361.289.543.429.306.235.607.478.909.721.637.513 1.238.998 1.873 1.407 1.156.746 2.396 1.087 3.685 1.007h.181c1.62 0 3.226-.663 4.908-2.026.339-.274.669-.567.999-.858.404-.357.808-.714 1.227-1.043 1.284-1.011 2.513-1.523 3.754-1.565l.167-.003c1.345 0 2.65.545 4.106 1.715.398.321.787.661 1.175 1.001.373.326.744.653 1.126.96 1.897 1.525 3.899 2.086 5.959 1.674 1.678-.335 3.129-1.446 4.448-2.596.766-.668 1.599-1.364 2.504-1.93.903-.565 1.837-.852 2.777-.852.933 0 1.868.283 2.778.839.601.367 1.157.812 1.694 1.241l.506.401c.289.225.572.459.856.694.482.399.937.776 1.413 1.101 1.662 1.134 3.389 1.508 5.141 1.109 1.708-.386 3.173-1.51 4.26-2.446l.203-.175c.719-.621 1.461-1.262 2.264-1.79 1.913-1.259 3.952-1.282 5.895-.07.506.316.976.692 1.43 1.055.18.145.36.289.543.429.305.234.606.477.907.72.638.513 1.24.998 1.875 1.408.67.433 1.371.714 2.09.872v-1.781c-1.184-.32-2.166-1.013-2.943-1.644z"/></svg>