<?xml version="1.0" encoding="utf-8"?>
<!-- Generator: Adobe Illustrator 21.0.0, SVG Export Plug-In . SVG Version: 6.00 Build 0)  -->
<svg version="1.1" id="Layer_1" xmlns="http://www.w3.org/2000/svg" xmlns:xlink="http://www.w3.org/1999/xlink" x="0px" y="0px"
	 viewBox="0 0 160 60" style="enable-background:new 0 0 160 60;" xml:space="preserve">
<style type="text/css">
	.st0{fill:#FFFFFF;}
</style>
<path class="st0" d="M142,31.3c-0.3-0.3-0.7-0.6-1-0.8c-0.6-0.5-1.2-1-1.8-1.5c-1-0.7-2.1-1.2-3.3-1.3c-1.8-0.2-3.4,0.4-5.3,2
	c-0.4,0.3-0.7,0.6-1.1,0.9c-0.4,0.4-0.8,0.7-1.3,1.1c-1.2,1-2.4,1.5-3.7,1.6c-2,0.1-3.7-1-4.9-2c-0.3-0.2-0.5-0.5-0.8-0.7
	c-0.6-0.5-1.1-0.9-1.6-1.3c-2.3-1.7-4.7-1.9-7-0.6c-0.6,0.3-1.1,0.8-1.7,1.2c-0.3,0.3-0.7,0.5-1,0.8c-0.8,0.6-1.6,1.2-2.4,1.8
	c-1.2,0.9-2.6,1.2-4,0.8c-1.6-0.4-2.9-1.4-4.1-2.4c-0.8-0.7-1.8-1.5-2.9-2.1c-1.2-0.8-2.6-1-4.1-0.7c-1.7,0.3-3.2,1.5-4.4,2.5
	c-0.4,0.4-0.9,0.8-1.3,1.1c-0.2,0.2-0.7,0.6-1.6,1.1c-0.2,0.1-0.4,0.2-0.5,0.3c0,0,0,0-0.1,0c-0.2,0.1-0.4,0.2-0.6,0.2
	c-0.7,0.2-1.5,0.4-2.3,0.3c-0.1,0-0.2,0-0.3,0c-0.7-0.1-1.5-0.5-2.1-0.8c-0.6-0.3-1.2-0.7-1.6-1.1c-0.3-0.3-0.7-0.6-1-0.8
	c-0.6-0.5-1.2-1-1.8-1.5c-1-0.7-2.1-1.2-3.3-1.3c-1.8-0.2-3.4,0.4-5.3,2c-0.4,0.3-0.7,0.6-1.1,0.9c-0.4,0.4-0.8,0.7-1.3,1.1
	c-1.2,1-2.4,1.5-3.7,1.6c-2,0.1-3.7-1-4.9-2c-0.3-0.2-0.5-0.5-0.8-0.7c-0.6-0.5-1.1-0.9-1.6-1.3c-2.3-1.7-4.7-1.9-7-0.6
	c-0.6,0.3-1.1,0.8-1.7,1.2c-0.3,0.3-0.6,0.5-1,0.8c-0.8,0.6-1.6,1.2-2.4,1.8c-1.2,0.9-2.6,1.2-4,0.8c-1.6-0.4-2.9-1.4-4.1-2.4
	c-0.8-0.7-1.8-1.5-2.9-2.1c-1.2-0.8-2.6-1-4.1-0.7c-1.7,0.3-3.2,1.5-4.4,2.5c0,0-2.7,2.6-4.7,3v1.1c1.3-0.2,2.5-0.8,3.9-1.9
	c0.3-0.3,0.7-0.6,1-0.9c0.4-0.3,0.8-0.7,1.2-1.1c1.3-1,2.6-1.6,3.9-1.6l0.2,0c1.4,0,2.8,0.6,4.3,1.8c0.4,0.3,0.8,0.7,1.2,1
	c0.4,0.3,0.8,0.7,1.1,1c1.8,1.5,3.8,2,5.8,1.6c1.6-0.3,3-1.4,4.3-2.5c0.8-0.7,1.6-1.4,2.5-2c1.9-1.2,3.9-1.2,5.8,0
	c0.6,0.4,1.2,0.8,1.7,1.3l0.5,0.4c0.3,0.2,0.6,0.5,0.9,0.7c0.5,0.4,0.9,0.8,1.4,1.1c1.6,1.1,3.3,1.5,4.9,1.1
	c1.7-0.4,3.1-1.5,4.2-2.4l0.2-0.2c0.7-0.6,1.5-1.3,2.3-1.8c2-1.3,4.1-1.3,6.2-0.1c0.5,0.3,1,0.7,1.4,1.1c0.2,0.2,0.4,0.3,0.6,0.4
	c0.3,0.2,0.6,0.5,0.9,0.7l0,0l0.1,0l0,0c0.6,0.5,1.2,1,1.8,1.4c1.1,0.7,2.3,1.1,3.5,1h0.2c1.6,0,3.1-0.6,4.8-2
	c0.3-0.3,0.6-0.5,0.9-0.8l0.1-0.1c0.4-0.3,0.8-0.7,1.2-1.1c1.3-1,2.6-1.6,3.9-1.6l0.2,0c1.4,0,2.8,0.6,4.3,1.8
	c0.4,0.3,0.8,0.7,1.2,1l0.1,0.1c0.3,0.3,0.7,0.6,1,0.9c1.8,1.5,3.8,2,5.8,1.6c1.6-0.3,3-1.4,4.3-2.5c0.8-0.7,1.6-1.4,2.5-2
	c0.9-0.6,1.9-0.9,2.9-0.9c1,0,2,0.3,2.9,0.9c0.6,0.4,1.2,0.8,1.7,1.2l0.5,0.4c0.3,0.2,0.6,0.5,0.9,0.7c0.5,0.4,0.9,0.8,1.4,1.1
	c1.6,1.1,3.3,1.5,4.9,1.1c1.7-0.4,3.1-1.5,4.2-2.4l0.2-0.2c0.7-0.6,1.5-1.3,2.3-1.8c2-1.3,4.1-1.3,6.2-0.1c0.5,0.3,1,0.7,1.4,1.1
	c0.2,0.2,0.4,0.3,0.5,0.4c0.3,0.2,0.6,0.5,0.9,0.7c0.6,0.5,1.2,1,1.9,1.4c0.5,0.3,1.1,0.6,1.7,0.8v-1.3
	C143.7,32.5,142.7,31.8,142,31.3z"/>
</svg>
