<?xml version="1.0" encoding="utf-8"?>
<!-- Generator: Adobe Illustrator 25.1.0, SVG Export Plug-In . SVG Version: 6.00 Build 0)  -->
<svg version="1.1" id="Layer_1" xmlns="http://www.w3.org/2000/svg" xmlns:xlink="http://www.w3.org/1999/xlink" x="0px" y="0px"
	 viewBox="0 0 600 600" style="enable-background:new 0 0 600 600;" xml:space="preserve">
<style type="text/css">
	.st0{fill:#C27ACB;}
	.st1{fill:#545454;}
	.st2{fill:#E7E7E7;}
	.st3{fill:#FEFEFE;}
</style>
<path class="st0" d="M429.6,170.3c0,25.7,0.1,51.4,0.1,77.2c0,16.7,0,33.4,0,50.2c0.2,0.2,0.3,0.3,0.2,0.5c-0.1,0.2-0.2,0.3-0.2,0.3
	c0,0.3,0,0.5,0,0.8c1.1,1.8,1.2,3.8,1.2,5.9c0,38.6,0,77.3,0,115.9c0,1.9,0.3,3.8-1.2,5.4c-30.5,0-61,0.1-91.6,0.1
	c-10.9,0-21.8,0-32.7,0c-1.3,0-2.8-0.7-3.8,0.8c0,0,0.1-0.1,0.1-0.1c-0.3,0-0.5,0-0.8,0c-3.4,0.6-6.8,0.5-10.2,0.5
	c-36.8,0-73.6,0-110.4,0c-2.2,0-4.6,0.5-6.6-1.2c0-30.4-0.1-60.7-0.1-91.1c0-10.8,0-21.6,0-32.4c0-1.3,0.6-2.8-0.7-3.9
	c-0.3-0.1-0.4-0.3-0.3-0.5c0.1-0.2,0.1-0.3,0.2-0.3c0-0.2,0-0.5,0.1-0.7c-0.6-3.4-0.5-6.8-0.5-10.2c0-36.8,0-73.6,0-110.4
	c0-2.2-0.5-4.6,1.2-6.6c25.5,0,50.9-0.1,76.4-0.1c17,0,34,0,50.9,0c0.5-0.2,0.9-0.4,1.4-0.3c2.2-0.7,4.4-0.9,6.8-0.9
	c38.1,0,76.2,0,114.3,0C425.5,169.1,427.7,168.7,429.6,170.3z"/>
<path class="st1" d="M301.6,170.2c-0.3,0-0.5,0.1-0.8,0.1c-0.1-1.2-1-1.7-1.7-2.4c-41.3-41.4-82.7-82.7-124-124
	c-0.3-0.3-0.6-0.5-0.9-0.7c-0.2-0.2-0.2-0.4-0.1-0.6c0.1-0.2,0.2-0.2,0.3-0.2c41.1,0,82.3,0,123.4-0.1c3.1,0,4,0.7,4,3.9
	c-0.1,41.1-0.1,82.3,0,123.4c0.3,0.2,0.3,0.3,0.2,0.5C301.8,170.1,301.7,170.2,301.6,170.2z"/>
<path class="st1" d="M301.6,170.2c0-0.2,0-0.5,0-0.7c1.7-0.1,2.5-1.7,3.5-2.7c40.2-40.2,80.5-80.4,120.7-120.6c1-1,2.1-2,3.1-3
	c0.9,0.6,0.7,1.3,0.7,1.9c0,41.1,0,82.3,0,123.4c0,0.6-0.1,1.3-0.1,1.9C386.9,170.2,344.3,170.2,301.6,170.2z"/>
<path class="st1" d="M429.7,298.4c0-0.3,0-0.5,0-0.8c1.2-0.1,1.7-1,2.4-1.7c41.4-41.3,82.7-82.7,124-124c0.3-0.3,0.5-0.6,0.7-0.9
	c0.3-0.3,0.6-0.2,0.8,0.1c0,41.1,0,82.3,0.1,123.4c0,3.1-0.7,4-3.9,4C512.5,298.3,471.1,298.4,429.7,298.4z"/>
<path class="st1" d="M173.6,170.4c0,41.4,0,82.7,0,124.1c0,1.1,0.5,2.3-0.7,3.1c-42.2-42.2-84.4-84.4-127.4-127.3c1.8,0,2.5,0,3.2,0
	c41.1,0,82.2,0,123.3,0C172.5,170.3,173,170.4,173.6,170.4z"/>
<path class="st1" d="M172.8,298.4c0,0.2,0.1,0.5,0.1,0.7c-41.6,41.6-83.1,83.1-124.7,124.7c-0.6,0.6-1.2,1.3-1.8,2
	c-0.3,0.3-0.6,0.2-0.8-0.1c0-41.1,0-82.3-0.1-123.4c0-3.1,0.7-4,3.9-4C90.5,298.4,131.7,298.4,172.8,298.4z"/>
<path class="st1" d="M429.7,426.3c0-42.4,0-84.8,0-127.2c1.3,0.1,1.9,1.2,2.7,2c40.9,40.8,81.7,81.7,122.6,122.6
	c0.7,0.7,1.6,1.2,1.8,2.3c-0.5,0.7-1.2,0.4-1.7,0.4c-41.1,0-82.3,0-123.4,0C431,426.4,430.4,426.3,429.7,426.3z"/>
<path class="st1" d="M173.7,426.4c41.4,0,82.7,0,124.1,0c1.1,0,2.3-0.5,3.1,0.7c-42.2,42.2-84.4,84.4-127.3,127.4c0-1.8,0-2.5,0-3.2
	c0-41.1,0-82.2,0-123.3C173.6,427.5,173.7,426.9,173.7,426.4z"/>
<path class="st1" d="M301.7,427.2c1.7,0.2,2.5,1.7,3.5,2.7c40.3,40.3,80.6,80.5,120.9,120.8c1,1,2,1.9,3,2.9
	c0.2,0.2,0.2,0.4,0.1,0.6c-0.1,0.2-0.2,0.2-0.3,0.2c-41.1,0-82.3,0-123.4,0.1c-3.2,0-3.9-0.8-3.9-3.9
	C301.7,509.4,301.7,468.3,301.7,427.2C301.7,427.2,301.7,427.2,301.7,427.2z"/>
<path class="st2" d="M174.4,42.3c0,0.3-0.1,0.5-0.1,0.8c-1.1,1.2-0.6,2.7-0.6,4c0,18.3,0,36.6,0,54.8c0,1.2,0,2.5,0,4.4
	C131,85,89,64,47,43c0-0.2,0.1-0.5,0.1-0.7C89.5,42.3,132,42.3,174.4,42.3z"/>
<path class="st2" d="M557.7,171.1c-0.3,0-0.6-0.1-0.8-0.1c-1.2-1.1-2.7-0.6-4-0.6c-18.3,0-36.6,0-54.8,0c-1.2,0-2.5,0-4.4,0
	C515,127.7,536,85.7,557,43.7c0.2,0,0.5,0.1,0.7,0.1C557.7,86.3,557.7,128.7,557.7,171.1z"/>
<path class="st2" d="M45.6,425.6c0.3,0,0.5,0.1,0.8,0.1c1.2,1.1,2.7,0.6,4,0.6c18.3,0,36.6,0,54.8,0c1.2,0,2.5,0,4.4,0
	C88.3,469,67.3,511,46.3,553c-0.2,0-0.5-0.1-0.7-0.1C45.6,510.5,45.6,468,45.6,425.6z"/>
<path class="st2" d="M428.9,554.4c0-0.3,0.1-0.5,0.1-0.8c1.1-1.2,0.6-2.7,0.6-4c0-18.3,0-36.6,0-54.8c0-1.2,0-2.5,0-4.4
	c42.6,21.3,84.6,42.3,126.6,63.3c0,0.2-0.1,0.5-0.1,0.7C513.7,554.4,471.3,554.4,428.9,554.4z"/>
<path class="st3" d="M256.3,285.5c-10.8-21.7-21.4-43-32.3-64.6c21.7,0,42.9,0,64.6,0C277.9,242.4,267.2,263.8,256.3,285.5z"/>
<path class="st3" d="M314.5,253c21.8-10.9,43-21.5,64.6-32.2c0,21.6,0,42.8,0,64.6C357.6,274.6,336.3,263.9,314.5,253z"/>
<path class="st3" d="M224.1,376c0-21.7,0-43,0-64.7c21.6,10.8,42.8,21.5,64.7,32.4C267,354.6,245.7,365.2,224.1,376z"/>
<path class="st3" d="M379.3,376c-21.9,0-43,0-64.8,0c10.9-21.7,21.5-43,32.4-64.8C357.8,332.9,368.4,354.2,379.3,376z"/>
</svg>
