<svg id="Layer_1" xmlns="http://www.w3.org/2000/svg" viewBox="0 0 285.9 91.8" enable-background="new 0 0 285.9 91.8"><style>.st0{fill:#FFFFFF;} .st1{filter:url(#Adobe_OpacityMaskFilter);} .st2{fill:url(#SVGID_2_);} .st3{opacity:0.54;mask:url(#SVGID_1_);fill:#FFFFFF;}</style><path class="st0" d="M242.1 71.9c-4.4-3.5-9.5-5.9-15-6.9-3.6-25.3-25.6-44.4-51.4-44.4-18 0-35 9.6-44.5 25.1-5.3-2.6-11-3.9-17-3.9-14 0-26.7 7.5-33.5 19.6-3.3-.9-6.5-1.3-9.9-1.3-10.5 0-20.5 4.4-27.7 11.9H4.4v3h40.4c6.6-7.3 16-11.6 26-11.6 3.3 0 6.4.5 9.7 1.4l2 .6.9-1.8c6.1-11.4 17.9-18.5 30.9-18.5 5.7 0 11.2 1.3 16.2 3.9l2.1 1 1.3-2c8.8-14.9 24.9-24.1 41.9-24.1 24.2 0 44.9 18.1 48.1 42l.3 2 2 .2c5.3.9 10.2 3.2 14.3 6.6v.3H281v-3.1h-38.9z"/><defs><filter id="Adobe_OpacityMaskFilter" filterUnits="userSpaceOnUse" x="45.5" y="24.2" width="194.2" height="50.3"><feColorMatrix values="1 0 0 0 0 0 1 0 0 0 0 0 1 0 0 0 0 0 1 0"/></filter></defs><mask maskUnits="userSpaceOnUse" x="45.5" y="24.2" width="194.2" height="50.3" id="SVGID_1_"><g class="st1"><linearGradient id="SVGID_2_" gradientUnits="userSpaceOnUse" x1="142.568" y1="5.082" x2="142.568" y2="63.5"><stop offset="0" stop-color="#FFF"/><stop offset="1"/></linearGradient><path class="st2" d="M224 68.2l-.3-2c-3.2-23.9-23.8-42-48.1-42-17.1 0-33.1 9.2-41.9 24.1l-1.3 2-2.1-1c-5-2.6-10.4-3.9-16.2-3.9-13 0-24.8 7.1-30.9 18.5l-.9 1.8-2-.6c-3.2-.9-6.4-1.4-9.7-1.4-9.6 0-18.8 4-25.3 10.9h194.2c-4-3.1-8.7-5.3-13.7-6.1l-1.8-.3z"/></g></mask><path class="st3" d="M224 68.2l-.3-2c-3.2-23.9-23.8-42-48.1-42-17.1 0-33.1 9.2-41.9 24.1l-1.3 2-2.1-1c-5-2.6-10.4-3.9-16.2-3.9-13 0-24.8 7.1-30.9 18.5l-.9 1.8-2-.6c-3.2-.9-6.4-1.4-9.7-1.4-9.6 0-18.8 4-25.3 10.9h194.2c-4-3.1-8.7-5.3-13.7-6.1l-1.8-.3z"/></svg>