<?xml version="1.0" encoding="utf-8"?>
<!-- Generator: Adobe Illustrator 21.0.0, SVG Export Plug-In . SVG Version: 6.00 Build 0)  -->
<svg version="1.1" id="Capa_1" xmlns="http://www.w3.org/2000/svg" xmlns:xlink="http://www.w3.org/1999/xlink" x="0px" y="0px"
	 viewBox="0 0 50 50" style="enable-background:new 0 0 50 50;" xml:space="preserve">
<g>
	<path d="M41.7,1.8H8.8C5.1,1.8,2,4.8,2,8.6v32.9c0,3.7,3,6.8,6.8,6.8h32.9c3.7,0,6.8-3,6.8-6.8V8.6C48.5,4.8,45.5,1.8,41.7,1.8z
		 M45.9,41.5c0,2.3-1.9,4.2-4.2,4.2H8.8c-2.3,0-4.2-1.9-4.2-4.2V15.9h35.3c0.7,0,1.3-0.6,1.3-1.3s-0.6-1.3-1.3-1.3H4.6V8.6
		c0-2.3,1.9-4.2,4.2-4.2h32.9c2.3,0,4.2,1.9,4.2,4.2V41.5z"/>
	<path d="M9,7.5C8.6,7.5,8.3,7.7,8,7.9C7.8,8.2,7.6,8.5,7.6,8.8c0,0.3,0.1,0.7,0.4,0.9C8.3,10,8.6,10.2,9,10.2
		c0.3,0,0.7-0.1,0.9-0.4c0.2-0.2,0.4-0.6,0.4-0.9c0-0.3-0.1-0.7-0.4-0.9C9.6,7.7,9.3,7.5,9,7.5z"/>
	<path d="M14.3,7.5c-0.3,0-0.7,0.1-0.9,0.4c-0.2,0.2-0.4,0.6-0.4,0.9s0.1,0.7,0.4,0.9c0.2,0.2,0.6,0.4,0.9,0.4
		c0.3,0,0.7-0.1,0.9-0.4c0.2-0.2,0.4-0.6,0.4-0.9s-0.1-0.7-0.4-0.9C14.9,7.7,14.6,7.5,14.3,7.5z"/>
	<path d="M19.6,7.5c-0.3,0-0.7,0.1-0.9,0.4c-0.2,0.2-0.4,0.6-0.4,0.9s0.1,0.7,0.4,0.9c0.2,0.2,0.6,0.4,0.9,0.4
		c0.3,0,0.7-0.1,0.9-0.4c0.2-0.2,0.4-0.6,0.4-0.9s-0.1-0.7-0.4-0.9C20.2,7.7,19.9,7.5,19.6,7.5z"/>
	<path d="M17.3,24.6c-0.5-0.5-1.3-0.5-1.9,0l-5.7,5.7c-0.5,0.5-0.5,1.3,0,1.9l5.7,5.7c0.3,0.3,0.6,0.4,0.9,0.4
		c0.3,0,0.7-0.1,0.9-0.4c0.5-0.5,0.5-1.3,0-1.9l-4.8-4.8l4.8-4.8C17.8,26,17.8,25.1,17.3,24.6z"/>
	<path d="M35.1,24.6c-0.5-0.5-1.3-0.5-1.9,0c-0.5,0.5-0.5,1.3,0,1.9l4.8,4.8L33.3,36c-0.5,0.5-0.5,1.3,0,1.9
		c0.3,0.3,0.6,0.4,0.9,0.4s0.7-0.1,0.9-0.4l5.7-5.7c0.5-0.5,0.5-1.3,0-1.9L35.1,24.6z"/>
	<path d="M28.7,23.4c-0.6-0.3-1.4-0.1-1.8,0.6l-6.2,12.3c-0.3,0.6-0.1,1.4,0.6,1.8c0.2,0.1,0.4,0.1,0.6,0.1c0.5,0,0.9-0.3,1.2-0.7
		l6.2-12.3C29.6,24.6,29.3,23.8,28.7,23.4z"/>
</g>
</svg>
