<?xml version="1.0" encoding="utf-8"?>
<!-- Generator: Adobe Illustrator 21.0.0, SVG Export Plug-In . SVG Version: 6.00 Build 0)  -->
<svg version="1.1" id="Layer_1" xmlns="http://www.w3.org/2000/svg" xmlns:xlink="http://www.w3.org/1999/xlink" x="0px" y="0px"
	 viewBox="0 0 673.2 81.8" style="enable-background:new 0 0 673.2 81.8;" xml:space="preserve">
<style type="text/css">
	.st0{fill:#3957A7;}
	.st1{fill:#FFFFFF;}
	.st2{fill:#F9A533;}
	.st3{fill:#1C3663;}
	.st4{fill:#13457C;}
	.st5{fill-rule:evenodd;clip-rule:evenodd;fill:#FBB231;}
	.st6{fill-rule:evenodd;clip-rule:evenodd;fill:#EC1C2E;}
	.st7{fill-rule:evenodd;clip-rule:evenodd;fill:#FFFFFF;}
	.st8{fill:none;stroke:#FFFFFF;stroke-width:0.216;stroke-miterlimit:2.6131;}
	.st9{fill:#0078A9;}
	.st10{fill:#F1F2F2;}
	.st11{fill:#F58220;}
	.st12{fill:url(#SVGID_1_);}
	.st13{fill:#001722;}
	.st14{fill:#231F20;}
</style>
<g>
	<path class="st0" d="M126.5,76c0,2.3-1.9,4.2-4.2,4.2H5.2C2.9,80.2,1,78.3,1,76V6c0-2.3,1.9-4.2,4.2-4.2h117.1
		c2.3,0,4.2,1.9,4.2,4.2V76z"/>
	<g>
		<polygon class="st1" points="58.8,52.8 52.6,52.8 56.5,29.2 62.6,29.2 		"/>
		<path class="st1" d="M47.5,29.2l-5.8,16.2l-0.7-3.5v0l-2.1-10.6c0,0-0.2-2.1-2.9-2.1h-9.7l-0.1,0.4c0,0,3,0.6,6.4,2.7l5.3,20.4
			h6.4l9.8-23.5H47.5z"/>
		<path class="st1" d="M95.7,52.8h5.6l-4.9-23.5h-4.9c-2.3,0-2.8,1.8-2.8,1.8l-9.1,21.8h6.4l1.3-3.5H95L95.7,52.8z M88.9,44.5
			l3.2-8.8l1.8,8.8H88.9z"/>
		<path class="st1" d="M80,34.9l0.9-5.1c0,0-2.7-1-5.5-1c-3,0-10.3,1.3-10.3,7.8c0,6.1,8.5,6.2,8.5,9.3c0,3.2-7.6,2.6-10.1,0.6
			l-0.9,5.3c0,0,2.7,1.3,6.9,1.3c4.2,0,10.5-2.2,10.5-8.1c0-6.1-8.6-6.7-8.6-9.3C71.4,33.1,77.4,33.5,80,34.9z"/>
	</g>
	<path class="st2" d="M40.9,41.9l-2.1-10.6c0,0-0.2-2.1-2.9-2.1h-9.7l-0.1,0.4c0,0,4.6,1,9.1,4.6C39.6,37.7,40.9,41.9,40.9,41.9z"/>
</g>
<g>
	<path class="st3" d="M672.2,76.6c0,2.3-1.9,4.2-4.2,4.2H551c-2.3,0-4.2-1.9-4.2-4.2v-70c0-2.3,1.9-4.2,4.2-4.2h117.1
		c2.3,0,4.2,1.9,4.2,4.2V76.6z"/>
	<g>
		<path class="st1" d="M607.4,36.8c-0.4,0-1,0.4-1.3,0.8c0,0-3,5.1-3.3,5.6c-0.2,0.3-0.3,0.1-0.3,0c0-0.1-0.9-5.6-0.9-5.6
			c-0.1-0.4-0.6-0.8-1.1-0.8l-1.9,0c-0.5,0-0.7,0.4-0.6,0.8c0,0,1.4,8.1,1.7,10c0.1,1.1,0,1.2,0,1.2l-1.8,3.2
			c-0.3,0.4-0.1,0.8,0.3,0.8l2.2,0c0.4,0,1-0.4,1.3-0.8l8.3-14.1c0,0,0.8-1.2,0.1-1.2C609.5,36.8,607.4,36.8,607.4,36.8"/>
		<path class="st1" d="M581.2,39.7c-0.6,0.5-1.5,0.7-2.6,0.7H578c-0.5,0-0.7-0.4-0.6-0.8l0.6-2.7c0.1-0.4,0.5-0.8,1-0.8l0.7,0
			c0.8,0,1.4,0.1,1.8,0.4c0.4,0.3,0.6,0.7,0.6,1.2C582.1,38.6,581.8,39.2,581.2,39.7 M585.7,35.5c-0.3-0.5-0.6-0.9-1.1-1.2
			c-0.5-0.3-1.1-0.5-1.8-0.7c-0.7-0.1-1.5-0.2-2.5-0.2l-4.4,0c-0.5,0-0.9,0.4-1,0.8L572,47c-0.1,0.4,0.2,0.8,0.6,0.8h2.1
			c0.5,0,0.9-0.4,1-0.8l0.7-3.1c0.1-0.4,0.5-0.8,1-0.8h0.6c2.6,0,4.5-0.5,6-1.6c1.4-1,2.1-2.4,2.1-4.1C586.1,36.6,586,36,585.7,35.5
			"/>
		<path class="st1" d="M595.8,37.3c-0.8-0.4-2-0.7-3.7-0.7c-0.8,0-1.7,0.1-2.5,0.2c-0.6,0.1-0.7,0.1-1.1,0.2c-0.8,0.2-0.9,1-0.9,1
			l-0.3,1c-0.1,0.7,0.2,0.6,0.4,0.6c0.3-0.1,0.5-0.2,1.2-0.4c0.7-0.2,1.4-0.3,2-0.3c0.8,0,1.5,0.1,1.9,0.3c0.4,0.2,0.6,0.5,0.6,0.9
			c0,0.1,0,0.2,0,0.3c0,0.1-0.1,0.2-0.3,0.2c-1.2,0.1-2,0.2-3.1,0.3c-1,0.1-1.9,0.4-2.7,0.7c-0.8,0.4-1.4,0.8-1.8,1.4
			c-0.4,0.6-0.6,1.3-0.6,2.2c0,0.8,0.3,1.5,0.9,2c0.6,0.5,1.3,0.8,2.2,0.8c0.6,0,1,0,1.3-0.1c0.3-0.1,0.7-0.2,1-0.3
			c0.3-0.1,0.6-0.3,0.9-0.5c0.3-0.2,0.5-0.3,0.8-0.5l0,0l-0.1,0.3c0,0,0,0,0,0l0,0c-0.1,0.4,0.2,0.7,0.6,0.8l0,0h0l0,0
			c0.3,0,1.2,0,1.6,0h0.3c0,0,0,0,0,0c0.4-0.1,0.8-0.4,0.9-0.8l1.5-6.6c0-0.2,0.1-0.3,0.1-0.5c0-0.2,0-0.4,0-0.5
			C597,38.5,596.6,37.8,595.8,37.3z M592.1,45.2c-0.3,0.2-0.5,0.3-0.8,0.4c-0.4,0.2-0.8,0.2-1.1,0.2c-0.5,0-0.9-0.1-1.2-0.2
			c-0.3-0.1-0.4-0.4-0.4-0.8c0-0.4,0.1-0.8,0.3-1c0.2-0.3,0.5-0.5,0.9-0.6c0.4-0.1,0.8-0.2,1.4-0.3c0.5-0.1,1.4-0.2,1.5-0.2
			c0.1,0,0.2-0.1,0.1,0.3c0,0.1-0.3,1.3-0.4,1.8C592.4,44.9,592.2,45.1,592.1,45.2z"/>
		<path class="st1" d="M633.7,37.3c-0.8-0.4-2-0.7-3.7-0.7c-0.8,0-1.7,0.1-2.5,0.2c-0.6,0.1-0.7,0.1-1.1,0.2c-0.8,0.2-0.9,1-0.9,1
			l-0.3,1c-0.1,0.7,0.2,0.6,0.4,0.6c0.3-0.1,0.5-0.2,1.2-0.4c0.7-0.2,1.4-0.3,2-0.3c0.8,0,1.5,0.1,1.9,0.3c0.4,0.2,0.6,0.5,0.6,0.9
			c0,0.1,0,0.2,0,0.3c0,0.1-0.1,0.2-0.3,0.2c-1.2,0.1-2.1,0.2-3.1,0.3c-1,0.1-1.9,0.4-2.7,0.7c-0.8,0.4-1.4,0.8-1.8,1.4
			c-0.4,0.6-0.6,1.3-0.6,2.2c0,0.8,0.3,1.5,0.9,2c0.6,0.5,1.3,0.8,2.2,0.8c0.6,0,1,0,1.3-0.1c0.3-0.1,0.6-0.2,1-0.3
			c0.3-0.1,0.6-0.3,0.9-0.5c0.3-0.2,0.5-0.3,0.8-0.5l0,0l-0.1,0.3c0,0,0,0,0,0l0,0c-0.1,0.4,0.2,0.7,0.6,0.8l0,0h0l0,0
			c0.3,0,1.2,0,1.6,0h0.3c0,0,0,0,0,0c0.4,0,0.8-0.4,0.9-0.8l1.5-6.6c0-0.2,0.1-0.3,0.1-0.5c0-0.2,0-0.4,0-0.5
			C634.9,38.5,634.5,37.8,633.7,37.3z M630,45.2c-0.3,0.2-0.5,0.3-0.8,0.4c-0.4,0.2-0.8,0.2-1.1,0.2c-0.5,0-0.9-0.1-1.2-0.2
			c-0.3-0.1-0.4-0.4-0.4-0.8c0-0.4,0.1-0.8,0.3-1c0.2-0.3,0.5-0.5,0.9-0.6c0.4-0.1,0.8-0.2,1.4-0.3c0.5-0.1,1.4-0.2,1.5-0.2
			c0.1,0,0.2-0.1,0.1,0.3c0,0.1-0.3,1.3-0.4,1.8C630.3,44.9,630.1,45.1,630,45.2z"/>
		<path class="st1" d="M619.1,39.7c-0.6,0.5-1.5,0.7-2.6,0.7h-0.5c-0.4,0-0.7-0.4-0.6-0.8l0.6-2.7c0.1-0.4,0.6-0.8,1-0.8l0.7,0
			c0.8,0,1.4,0.1,1.8,0.4c0.4,0.3,0.6,0.7,0.6,1.2C620,38.6,619.7,39.3,619.1,39.7 M623.6,35.5c-0.3-0.5-0.7-0.9-1.2-1.2
			c-0.5-0.3-1.1-0.5-1.8-0.7c-0.7-0.1-1.5-0.2-2.5-0.2l-4.4,0c-0.5,0-0.9,0.4-1,0.8L609.9,47c-0.1,0.4,0.2,0.8,0.6,0.8l2.1,0
			c0.4,0,0.9-0.4,1-0.8l0.7-3.1c0.1-0.4,0.6-0.8,1-0.8h0.6c2.6,0,4.5-0.5,6-1.6c1.4-1.1,2.1-2.4,2.1-4.1
			C624,36.7,623.9,36,623.6,35.5"/>
		<g>
			<g>
				<path class="st1" d="M640.9,33.6H639c0,0,0,0,0,0l0,0c-0.4,0-0.8,0.3-1,0.7c0,0,0,0,0,0.1c0,0,0,0.2-0.1,0.5l-2.6,11.7
					c-0.1,0.3-0.1,0.5-0.1,0.5l0,0c-0.1,0.4,0.2,0.7,0.6,0.8l0,0h0.1h1.9h0c0.4,0,0.8-0.3,1-0.7c0,0,0,0,0-0.1l2.8-12.7l0,0
					C641.6,33.9,641.3,33.6,640.9,33.6z"/>
			</g>
		</g>
		<g>
			<path class="st1" d="M643.7,36.1c-0.1,0-0.1,0-0.2,0c-0.1,0-0.1,0-0.2,0c-0.2,0-0.4-0.1-0.5-0.2c-0.1-0.1-0.2-0.3-0.2-0.5v-1.1
				h-0.2v-0.3h0.2v-0.6h0.3v0.6h0.7v0.3H643v0.9c0,0.1,0,0.2,0,0.2c0,0.1,0,0.1,0.1,0.2c0,0,0.1,0.1,0.1,0.1c0,0,0.1,0,0.2,0
				c0.1,0,0.1,0,0.2,0c0.1,0,0.1,0,0.1,0h0V36.1z"/>
			<path class="st1" d="M647.1,36.2h-0.3V35c0-0.1,0-0.2,0-0.3c0-0.1,0-0.1-0.1-0.2c0-0.1-0.1-0.1-0.1-0.1c-0.1,0-0.1,0-0.2,0
				c-0.1,0-0.2,0-0.3,0.1c-0.1,0-0.2,0.1-0.3,0.2c0,0,0,0.1,0,0.1c0,0,0,0.1,0,0.1v1.3h-0.3V35c0-0.1,0-0.2,0-0.3c0-0.1,0-0.1,0-0.2
				c0-0.1-0.1-0.1-0.1-0.1c-0.1,0-0.1,0-0.2,0c-0.1,0-0.2,0-0.3,0.1c-0.1,0-0.2,0.1-0.3,0.2v1.5h-0.3v-2h0.3v0.2
				c0.1-0.1,0.2-0.2,0.3-0.2c0.1,0,0.2-0.1,0.3-0.1c0.1,0,0.3,0,0.4,0.1c0.1,0.1,0.2,0.1,0.2,0.2c0.1-0.1,0.3-0.2,0.4-0.3
				c0.1-0.1,0.2-0.1,0.4-0.1c0.2,0,0.4,0.1,0.5,0.2c0.1,0.1,0.2,0.3,0.2,0.6V36.2z"/>
		</g>
	</g>
</g>
<g>
	<path class="st4" d="M262.8,76c0,2.3-1.9,4.2-4.2,4.2H141.6c-2.3,0-4.2-1.9-4.2-4.2V6c0-2.3,1.9-4.2,4.2-4.2h117.1
		c2.3,0,4.2,1.9,4.2,4.2V76z"/>
	<g>
		<polygon class="st5" points="215.2,63.5 216.3,63.5 217.5,63.4 218.6,63.2 219.7,63 220.8,62.8 221.9,62.5 222.9,62.1 223.9,61.7 
			224.9,61.3 225.9,60.8 226.8,60.2 227.8,59.7 228.6,59 229.5,58.4 230.3,57.7 231.1,56.9 231.9,56.1 232.6,55.3 233.2,54.4 
			233.9,53.6 234.4,52.6 235,51.7 235.5,50.7 235.9,49.7 236.3,48.7 236.7,47.7 237,46.6 237.2,45.5 237.4,44.4 237.6,43.3 
			237.7,42.1 237.7,41 237.7,39.8 237.6,38.7 237.4,37.5 237.2,36.4 237,35.4 236.7,34.3 236.3,33.2 235.9,32.2 235.5,31.2 
			235,30.3 234.4,29.3 233.9,28.4 233.2,27.5 232.6,26.7 231.9,25.9 231.1,25.1 230.3,24.3 229.5,23.6 228.6,23 227.8,22.3 
			226.8,21.8 225.9,21.2 224.9,20.7 223.9,20.3 222.9,19.9 221.9,19.5 220.8,19.2 219.7,19 218.6,18.8 217.5,18.6 216.3,18.5 
			215.2,18.5 214,18.5 212.9,18.6 211.7,18.8 210.6,19 209.5,19.2 208.5,19.5 207.4,19.9 206.4,20.3 205.4,20.7 204.4,21.2 
			203.5,21.8 202.6,22.3 201.7,23 200.9,23.6 200.1,24.3 199.3,25.1 198.5,25.9 197.8,26.7 197.2,27.5 196.5,28.4 195.9,29.3 
			195.4,30.3 194.9,31.2 194.5,32.2 194.1,33.2 193.7,34.3 193.4,35.4 193.2,36.4 193,37.5 192.8,38.7 192.7,39.8 192.7,41 
			192.7,42.1 192.8,43.3 193,44.4 193.2,45.5 193.4,46.6 193.7,47.7 194.1,48.7 194.5,49.7 194.9,50.7 195.4,51.7 195.9,52.6 
			196.5,53.6 197.2,54.4 197.8,55.3 198.5,56.1 199.3,56.9 200.1,57.7 200.9,58.4 201.7,59 202.6,59.7 203.5,60.2 204.4,60.8 
			205.4,61.3 206.4,61.7 207.4,62.1 208.5,62.5 209.5,62.8 210.6,63 211.7,63.2 212.9,63.4 214,63.5 215.2,63.5 215.2,63.5 		"/>
		<polygon class="st6" points="185.1,63.5 186.2,63.5 187.4,63.4 188.5,63.2 189.6,63 190.7,62.8 191.7,62.5 192.8,62.1 193.8,61.7 
			194.8,61.3 195.8,60.8 196.7,60.2 197.6,59.7 198.5,59 199.3,58.4 200.2,57.7 200.9,56.9 201.7,56.1 202.4,55.3 203.1,54.4 
			203.7,53.6 204.3,52.6 204.8,51.7 205.3,50.7 205.8,49.7 206.2,48.7 206.5,47.7 206.8,46.6 207.1,45.5 207.3,44.4 207.4,43.3 
			207.5,42.1 207.5,41 207.5,39.8 207.4,38.7 207.3,37.5 207.1,36.4 206.8,35.4 206.5,34.3 206.2,33.2 205.8,32.2 205.3,31.2 
			204.8,30.3 204.3,29.3 203.7,28.4 203.1,27.5 202.4,26.7 201.7,25.9 200.9,25.1 200.2,24.3 199.3,23.6 198.5,23 197.6,22.3 
			196.7,21.8 195.8,21.2 194.8,20.7 193.8,20.3 192.8,19.9 191.7,19.5 190.7,19.2 189.6,19 188.5,18.8 187.4,18.6 186.2,18.5 
			185.1,18.5 183.9,18.5 182.7,18.6 181.6,18.8 180.5,19 179.4,19.2 178.4,19.5 177.3,19.9 176.3,20.3 175.3,20.7 174.3,21.2 
			173.4,21.8 172.4,22.3 171.6,23 170.7,23.6 169.9,24.3 169.1,25.1 168.4,25.9 167.7,26.7 167,27.5 166.4,28.4 165.8,29.3 
			165.2,30.3 164.7,31.2 164.3,32.2 163.9,33.2 163.5,34.3 163.2,35.4 163,36.4 162.8,37.5 162.6,38.7 162.5,39.8 162.5,41 
			162.5,42.1 162.6,43.3 162.8,44.4 163,45.5 163.2,46.6 163.5,47.7 163.9,48.7 164.3,49.7 164.7,50.7 165.2,51.7 165.8,52.6 
			166.4,53.6 167,54.4 167.7,55.3 168.4,56.1 169.1,56.9 169.9,57.7 170.7,58.4 171.6,59 172.4,59.7 173.4,60.2 174.3,60.8 
			175.3,61.3 176.3,61.7 177.3,62.1 178.4,62.5 179.4,62.8 180.5,63 181.6,63.2 182.7,63.4 183.9,63.5 185.1,63.5 185.1,63.5 		"/>
		<polygon class="st5" points="197.5,27.1 209.4,27.1 209.4,25.9 198.5,25.9 197.5,27.1 197.5,27.1 		"/>
		<polygon class="st5" points="195.7,29.8 209.4,29.8 209.4,28.6 196.4,28.6 195.7,29.8 195.7,29.8 		"/>
		<polygon class="st5" points="194.3,32.6 209.4,32.6 209.4,31.3 194.9,31.3 194.3,32.6 194.3,32.6 		"/>
		<polygon class="st5" points="193.4,35.3 209.4,35.3 209.4,34.1 193.8,34.1 193.4,35.3 193.4,35.3 		"/>
		<polygon class="st5" points="194,48.4 209.5,48.4 209.5,47.2 193.6,47.2 194,48.4 194,48.4 		"/>
		<polygon class="st5" points="195.1,51.1 209.5,51.1 209.5,49.9 194.5,49.9 195.1,51.1 195.1,51.1 		"/>
		<polygon class="st5" points="196.7,53.8 209.5,53.8 209.5,52.6 195.9,52.6 196.7,53.8 196.7,53.8 		"/>
		<polygon class="st5" points="198.9,56.6 209.5,56.6 209.5,55.3 197.9,55.3 198.9,56.6 198.9,56.6 		"/>
		<polygon class="st5" points="192.9,38 209.4,38 209.4,36.8 193.1,36.8 192.9,38 192.9,38 		"/>
		<polygon class="st5" points="203,45.7 209.3,45.7 209.3,44.5 203.2,44.5 203,45.7 203,45.7 		"/>
		<polygon class="st5" points="203.5,43 209.3,43 209.3,41.8 203.7,41.8 203.5,43 203.5,43 		"/>
		<polygon class="st5" points="192.5,41.8 194.1,41.8 194.1,43 192.5,43 192.5,41.8 192.5,41.8 		"/>
		<polygon class="st7" points="189.4,40.3 189.3,40.3 189.2,40.3 189.1,40.2 189,40.2 188.9,40.2 188.8,40.2 188.7,40.2 188.6,40.2 
			188.5,40.1 188.4,40.1 188.2,40.1 188.1,40.1 187.9,40.1 187.8,40.1 187.6,40.1 187.3,40.2 187.2,40.2 187,40.2 186.9,40.3 
			186.8,40.3 186.7,40.4 186.6,40.4 186.5,40.5 186.5,40.6 186.4,40.6 186.4,40.7 186.4,40.8 186.4,40.9 186.4,41 186.4,41.1 
			186.5,41.2 186.5,41.3 186.7,41.4 186.9,41.6 187.1,41.7 187.3,41.7 187.6,41.8 187.8,41.9 188.1,42 188.3,42.1 188.5,42.2 
			188.7,42.4 188.9,42.6 189.1,42.8 189.2,43.1 189.3,43.4 189.3,43.8 189.3,44.3 189.2,44.7 189.2,45 189,45.3 188.9,45.5 
			188.7,45.7 188.5,45.9 188.3,46.1 188.1,46.3 187.8,46.4 187.6,46.5 187.3,46.5 187,46.6 186.8,46.6 186.5,46.7 186.3,46.7 
			186,46.7 185.7,46.7 185.4,46.7 185.2,46.7 184.9,46.7 184.7,46.7 184.5,46.7 184.3,46.6 184.1,46.6 184,46.6 183.8,46.6 
			183.7,46.5 183.5,46.5 183.4,46.5 183.3,46.4 183.2,46.4 183,46.3 183.4,44.7 183.4,44.7 183.5,44.7 183.6,44.7 183.8,44.8 
			183.9,44.8 184,44.8 184.2,44.9 184.4,44.9 184.6,44.9 184.8,45 185,45 185.2,45 185.4,45 185.6,45 185.9,45 186.1,45 186.3,45 
			186.5,44.9 186.6,44.8 186.7,44.7 186.8,44.6 186.9,44.5 186.9,44.4 186.9,44.2 186.9,44 186.9,43.8 186.7,43.7 186.6,43.6 
			186.3,43.4 186.1,43.3 185.8,43.2 185.5,43.1 185.2,43 184.9,42.8 184.6,42.6 184.4,42.4 184.2,42.1 184,41.7 184,41.3 184,40.8 
			184,40.5 184.1,40.3 184.1,40 184.2,39.8 184.4,39.5 184.5,39.3 184.7,39.2 184.8,39 185.1,38.8 185.3,38.7 185.6,38.6 
			185.9,38.5 186.2,38.5 186.6,38.4 187,38.4 187.5,38.4 187.7,38.4 188,38.4 188.2,38.4 188.4,38.4 188.6,38.4 188.8,38.4 
			189,38.4 189.1,38.4 189.2,38.5 189.3,38.5 189.4,38.5 189.5,38.5 189.6,38.5 189.7,38.5 189.7,38.6 189.8,38.6 189.4,40.3 
			189.4,40.3 		"/>
		<polyline class="st8" points="189.4,40.3 189.4,40.3 189.3,40.3 189.2,40.3 189.1,40.2 189,40.2 188.9,40.2 188.8,40.2 
			188.7,40.2 188.6,40.2 188.5,40.1 188.4,40.1 188.2,40.1 188.1,40.1 187.9,40.1 187.8,40.1 187.6,40.1 187.3,40.2 187.3,40.2 
			187.2,40.2 187,40.2 186.9,40.3 186.8,40.3 186.7,40.4 186.6,40.4 186.5,40.5 186.5,40.6 186.4,40.6 186.4,40.7 186.4,40.8 
			186.4,40.9 186.4,41 186.4,41.1 186.5,41.2 186.5,41.3 186.5,41.3 186.7,41.4 186.9,41.6 187.1,41.7 187.3,41.7 187.6,41.8 
			187.8,41.9 188.1,42 188.3,42.1 188.5,42.2 188.7,42.4 188.9,42.6 189.1,42.8 189.2,43.1 189.3,43.4 189.3,43.8 189.3,44.3 
			189.3,44.3 189.2,44.7 189.2,45 189,45.3 188.9,45.5 188.7,45.7 188.5,45.9 188.3,46.1 188.1,46.3 187.8,46.4 187.6,46.5 
			187.3,46.5 187,46.6 186.8,46.6 186.5,46.7 186.3,46.7 186,46.7 186,46.7 185.7,46.7 185.4,46.7 185.2,46.7 184.9,46.7 
			184.7,46.7 184.5,46.7 184.3,46.6 184.1,46.6 184,46.6 183.8,46.6 183.7,46.5 183.5,46.5 183.4,46.5 183.3,46.4 183.2,46.4 
			183,46.3 183.4,44.7 183.4,44.7 183.4,44.7 183.5,44.7 183.6,44.7 183.8,44.8 183.9,44.8 184,44.8 184.2,44.9 184.4,44.9 
			184.6,44.9 184.8,45 185,45 185.2,45 185.4,45 185.6,45 185.9,45 186.1,45 186.1,45 186.3,45 186.5,44.9 186.6,44.8 186.7,44.7 
			186.8,44.6 186.9,44.5 186.9,44.4 186.9,44.2 186.9,44.2 186.9,44 186.9,43.8 186.7,43.7 186.6,43.6 186.3,43.4 186.1,43.3 
			185.8,43.2 185.5,43.1 185.2,43 184.9,42.8 184.6,42.6 184.4,42.4 184.2,42.1 184,41.7 184,41.3 184,40.8 184,40.8 184,40.5 
			184.1,40.3 184.1,40 184.2,39.8 184.4,39.5 184.5,39.3 184.7,39.2 184.8,39 185.1,38.8 185.3,38.7 185.6,38.6 185.9,38.5 
			186.2,38.5 186.6,38.4 187,38.4 187.5,38.4 187.5,38.4 187.7,38.4 188,38.4 188.2,38.4 188.4,38.4 188.6,38.4 188.8,38.4 
			189,38.4 189.1,38.4 189.2,38.5 189.3,38.5 189.4,38.5 189.5,38.5 189.6,38.5 189.7,38.5 189.7,38.6 189.8,38.6 189.4,40.3 		"/>
		<polygon class="st7" points="191.2,36.7 193.3,36.7 193,38.5 194.3,38.5 194,40.2 192.7,40.2 191.9,44.4 191.9,44.6 192,44.7 
			192,44.8 192.1,44.9 192.3,45 192.4,45 192.6,45 192.8,45 192.9,45 193.1,45 193.2,45 193.4,45 193.4,44.9 193.5,44.9 193.6,44.9 
			193.6,44.9 193.3,46.3 193.3,46.3 193.2,46.4 193.2,46.4 193.1,46.4 193,46.5 193,46.5 192.9,46.5 192.8,46.5 192.8,46.5 
			192.7,46.6 192.6,46.6 192.5,46.6 192.4,46.6 192.3,46.6 192.2,46.6 192.1,46.7 191.5,46.7 191.2,46.6 190.9,46.6 190.7,46.6 
			190.5,46.5 190.3,46.4 190.1,46.4 190,46.3 189.9,46.2 189.8,46.1 189.8,45.9 189.7,45.8 189.7,45.7 189.7,45.5 189.7,45.3 
			189.7,45.2 189.8,45 191.2,36.7 191.2,36.7 		"/>
		<polyline class="st8" points="191.2,36.7 193.3,36.7 193,38.5 194.3,38.5 194,40.2 192.7,40.2 191.9,44.4 191.9,44.4 191.9,44.6 
			192,44.7 192,44.8 192.1,44.9 192.3,45 192.4,45 192.6,45 192.8,45 192.8,45 192.9,45 193.1,45 193.2,45 193.4,45 193.4,44.9 
			193.5,44.9 193.6,44.9 193.6,44.9 193.3,46.3 193.3,46.3 193.3,46.3 193.2,46.4 193.2,46.4 193.1,46.4 193,46.5 193,46.5 
			192.9,46.5 192.8,46.5 192.8,46.5 192.7,46.6 192.6,46.6 192.5,46.6 192.4,46.6 192.3,46.6 192.2,46.6 192.1,46.7 191.5,46.7 
			191.5,46.7 191.2,46.6 190.9,46.6 190.7,46.6 190.5,46.5 190.3,46.4 190.1,46.4 190,46.3 189.9,46.2 189.8,46.1 189.8,45.9 
			189.7,45.8 189.7,45.7 189.7,45.5 189.7,45.3 189.7,45.2 189.8,45 191.2,36.7 		"/>
		<polyline class="st8" points="195.9,43.1 195.9,43.1 195.9,43.2 195.9,43.4 195.9,43.5 196,43.7 196,43.8 196.1,43.9 196.2,44.1 
			196.2,44.2 196.4,44.3 196.5,44.5 196.6,44.6 196.7,44.7 196.9,44.7 197,44.8 197.2,44.9 197.3,44.9 197.3,44.9 197.5,44.9 
			197.7,44.9 197.9,45 198.1,45 198.3,45 198.5,45 198.7,45 198.9,45 199.1,44.9 199.3,44.9 199.5,44.9 199.7,44.8 199.9,44.7 
			200.2,44.6 200.4,44.5 200.6,44.4 200.3,46.2 200.3,46.2 200.2,46.3 200.1,46.3 199.9,46.4 199.8,46.4 199.7,46.5 199.6,46.5 
			199.5,46.5 199.3,46.6 199.2,46.6 199,46.6 198.9,46.6 198.7,46.6 198.5,46.6 198.3,46.6 198.1,46.7 197.8,46.7 197.8,46.7 
			197.4,46.6 197.1,46.6 196.7,46.6 196.3,46.5 195.9,46.3 195.6,46.2 195.2,46 194.9,45.8 194.6,45.5 194.4,45.2 194.1,44.9 
			194,44.5 193.8,44 193.8,43.5 193.7,43 193.8,42.3 193.8,42.3 193.8,42.1 193.8,41.8 193.9,41.5 194,41.2 194.1,40.9 194.2,40.5 
			194.4,40.2 194.6,39.9 194.9,39.6 195.2,39.3 195.5,39 195.9,38.8 196.3,38.6 196.8,38.5 197.4,38.4 198,38.4 198,38.4 
			198.3,38.4 198.6,38.4 198.9,38.5 199.2,38.5 199.5,38.6 199.8,38.8 200.1,39 200.3,39.2 200.6,39.4 200.7,39.7 200.9,40.1 
			201,40.5 201.1,40.9 201.1,41.5 201,42 200.9,42.7 200.9,43.1 195.3,43.1 195.7,41.6 199,41.6 199,41.6 199,41.5 199,41.3 
			199,41.1 199,41 198.9,40.8 198.9,40.7 198.8,40.6 198.7,40.5 198.6,40.4 198.5,40.3 198.4,40.2 198.3,40.2 198.2,40.1 198,40.1 
			197.9,40.1 197.8,40 197.8,40 197.6,40.1 197.5,40.1 197.4,40.1 197.2,40.2 197.1,40.2 197,40.3 196.9,40.4 196.8,40.5 
			196.7,40.6 196.6,40.7 196.5,40.8 196.4,40.9 196.4,41.1 196.3,41.2 196.3,41.4 196.2,41.5 195.9,43.1 		"/>
		<polygon class="st7" points="214,39 213.9,38.9 213.9,38.9 213.7,38.8 213.6,38.8 213.5,38.7 213.4,38.7 213.3,38.6 213.1,38.6 
			213,38.6 212.8,38.5 212.7,38.5 212.5,38.5 212.3,38.5 212.2,38.4 212,38.4 211.8,38.4 211.6,38.4 211.4,38.5 211.2,38.5 
			211,38.5 210.8,38.6 210.6,38.7 210.4,38.8 210.1,38.9 209.9,39.1 209.7,39.3 209.5,39.5 209.4,39.8 209.2,40.1 209,40.5 
			208.9,40.9 208.8,41.4 208.7,41.7 208.7,42 208.7,42.2 208.7,42.5 208.7,42.7 208.8,43 208.8,43.2 208.9,43.4 209,43.6 
			209.2,43.8 209.3,44 209.5,44.2 209.7,44.3 209.9,44.4 210.2,44.5 210.5,44.6 210.6,44.6 210.7,44.6 210.8,44.6 211,44.7 
			211.2,44.7 211.3,44.7 211.5,44.7 211.7,44.7 211.9,44.6 212.1,44.6 212.3,44.5 212.5,44.5 212.7,44.4 212.9,44.3 213,44.2 
			213.2,44 212.8,46.1 212.8,46.1 212.7,46.2 212.7,46.2 212.6,46.3 212.5,46.3 212.4,46.4 212.3,46.4 212.2,46.5 212,46.5 
			211.8,46.6 211.6,46.6 211.3,46.6 211,46.6 210.7,46.6 210.3,46.6 209.8,46.6 209.5,46.6 209.1,46.5 208.8,46.4 208.4,46.2 
			208.1,46.1 207.8,45.8 207.5,45.6 207.2,45.3 207,44.9 206.7,44.5 206.6,44.1 206.4,43.6 206.3,43.1 206.3,42.6 206.3,42 
			206.4,41.4 206.5,41.1 206.5,40.8 206.6,40.5 206.7,40.2 206.8,39.9 206.9,39.7 207,39.4 207.1,39.2 207.2,38.9 207.3,38.7 
			207.4,38.5 207.6,38.3 207.7,38.1 207.9,37.9 208,37.8 208.2,37.6 208.3,37.5 208.5,37.3 208.7,37.2 208.9,37.1 209.1,36.9 
			209.3,36.8 209.5,36.8 209.7,36.7 210,36.6 210.2,36.5 210.4,36.5 210.7,36.4 211,36.4 211.2,36.4 211.5,36.4 211.8,36.3 
			212,36.4 212.3,36.4 212.5,36.4 212.7,36.4 212.9,36.4 213.1,36.5 213.3,36.5 213.5,36.6 213.7,36.6 213.9,36.7 214,36.7 
			214.1,36.8 214.2,36.8 214.3,36.8 214.4,36.9 214.4,36.9 214,39 214,39 		"/>
		<polyline class="st8" points="214,39 214,39 213.9,38.9 213.9,38.9 213.7,38.8 213.6,38.8 213.5,38.7 213.4,38.7 213.3,38.6 
			213.1,38.6 213,38.6 212.8,38.5 212.7,38.5 212.5,38.5 212.3,38.5 212.2,38.4 212,38.4 211.8,38.4 211.8,38.4 211.6,38.4 
			211.4,38.5 211.2,38.5 211,38.5 210.8,38.6 210.6,38.7 210.4,38.8 210.1,38.9 209.9,39.1 209.7,39.3 209.5,39.5 209.4,39.8 
			209.2,40.1 209,40.5 208.9,40.9 208.8,41.4 208.8,41.4 208.7,41.7 208.7,42 208.7,42.2 208.7,42.5 208.7,42.7 208.8,43 
			208.8,43.2 208.9,43.4 209,43.6 209.2,43.8 209.3,44 209.5,44.2 209.7,44.3 209.9,44.4 210.2,44.5 210.5,44.6 210.5,44.6 
			210.6,44.6 210.7,44.6 210.8,44.6 211,44.7 211.2,44.7 211.3,44.7 211.5,44.7 211.7,44.7 211.9,44.6 212.1,44.6 212.3,44.5 
			212.5,44.5 212.7,44.4 212.9,44.3 213,44.2 213.2,44 212.8,46.1 212.8,46.1 212.8,46.1 212.7,46.2 212.7,46.2 212.6,46.3 
			212.5,46.3 212.4,46.4 212.3,46.4 212.2,46.5 212,46.5 211.8,46.6 211.6,46.6 211.3,46.6 211,46.6 210.7,46.6 210.3,46.6 
			209.8,46.6 209.8,46.6 209.5,46.6 209.1,46.5 208.8,46.4 208.4,46.2 208.1,46.1 207.8,45.8 207.5,45.6 207.2,45.3 207,44.9 
			206.7,44.5 206.6,44.1 206.4,43.6 206.3,43.1 206.3,42.6 206.3,42 206.4,41.4 206.4,41.4 206.5,41.1 206.5,40.8 206.6,40.5 
			206.7,40.2 206.8,39.9 206.9,39.7 207,39.4 207.1,39.2 207.2,38.9 207.3,38.7 207.4,38.5 207.6,38.3 207.7,38.1 207.9,37.9 
			208,37.8 208.2,37.6 208.3,37.5 208.5,37.3 208.7,37.2 208.9,37.1 209.1,36.9 209.3,36.8 209.5,36.8 209.7,36.7 210,36.6 
			210.2,36.5 210.4,36.5 210.7,36.4 211,36.4 211.2,36.4 211.5,36.4 211.8,36.3 211.8,36.3 212,36.4 212.3,36.4 212.5,36.4 
			212.7,36.4 212.9,36.4 213.1,36.5 213.3,36.5 213.5,36.6 213.7,36.6 213.9,36.7 214,36.7 214.1,36.8 214.2,36.8 214.3,36.8 
			214.4,36.9 214.4,36.9 214,39 		"/>
		<polygon class="st7" points="232.7,46.7 230.6,46.7 230.8,45.8 230.8,45.7 230.7,45.9 230.5,46 230.4,46.1 230.3,46.3 230.1,46.3 
			230,46.4 229.9,46.5 229.7,46.6 229.6,46.6 229.4,46.7 229.3,46.7 229.1,46.7 229,46.7 228.8,46.8 228.7,46.8 228.5,46.8 
			228.1,46.7 227.8,46.7 227.4,46.5 227.1,46.3 226.9,46.1 226.6,45.9 226.4,45.6 226.2,45.3 226.1,44.9 226,44.6 225.9,44.2 
			225.8,43.8 225.8,43.4 225.8,43 225.8,42.6 225.9,42.3 226,41.8 226.2,41.4 226.3,41 226.5,40.6 226.7,40.3 226.9,40 227.2,39.7 
			227.4,39.5 227.7,39.2 228,39.1 228.2,38.9 228.5,38.8 228.8,38.7 229.1,38.6 229.4,38.5 229.8,38.5 230,38.5 230.2,38.6 
			230.4,38.6 230.6,38.6 230.7,38.7 230.9,38.8 231,38.9 231.2,38.9 231.3,39 231.4,39.1 231.5,39.2 231.6,39.3 231.7,39.4 
			231.8,39.5 231.8,39.6 231.9,39.7 231.9,39.7 232.4,36.7 234.5,36.7 232.7,46.7 232.7,46.7 		"/>
		<polyline class="st8" points="232.7,46.7 230.6,46.7 230.8,45.8 230.8,45.7 230.8,45.7 230.7,45.9 230.5,46 230.4,46.1 
			230.3,46.3 230.1,46.3 230,46.4 229.9,46.5 229.7,46.6 229.6,46.6 229.4,46.7 229.3,46.7 229.1,46.7 229,46.7 228.8,46.8 
			228.7,46.8 228.5,46.8 228.5,46.8 228.1,46.7 227.8,46.7 227.4,46.5 227.1,46.3 226.9,46.1 226.6,45.9 226.4,45.6 226.2,45.3 
			226.1,44.9 226,44.6 225.9,44.2 225.8,43.8 225.8,43.4 225.8,43 225.8,42.6 225.9,42.3 225.9,42.3 226,41.8 226.2,41.4 226.3,41 
			226.5,40.6 226.7,40.3 226.9,40 227.2,39.7 227.4,39.5 227.7,39.2 228,39.1 228.2,38.9 228.5,38.8 228.8,38.7 229.1,38.6 
			229.4,38.5 229.8,38.5 229.8,38.5 230,38.5 230.2,38.6 230.4,38.6 230.6,38.6 230.7,38.7 230.9,38.8 231,38.9 231.2,38.9 
			231.3,39 231.4,39.1 231.5,39.2 231.6,39.3 231.7,39.4 231.8,39.5 231.8,39.6 231.9,39.7 231.9,39.7 232.4,36.7 234.5,36.7 
			232.7,46.7 		"/>
		<polygon class="st5" points="229.3,44.8 229.5,44.8 229.7,44.8 229.9,44.7 230.1,44.6 230.2,44.5 230.4,44.4 230.5,44.3 
			230.7,44.1 230.8,44 230.9,43.8 231,43.7 231.1,43.5 231.1,43.3 231.2,43.1 231.2,42.9 231.3,42.7 231.3,42.5 231.3,42.2 
			231.3,42 231.3,41.8 231.3,41.6 231.3,41.4 231.2,41.3 231.2,41.1 231.1,40.9 231,40.8 230.9,40.7 230.8,40.6 230.7,40.5 
			230.5,40.4 230.4,40.4 230.2,40.4 230,40.4 229.8,40.4 229.6,40.5 229.5,40.5 229.3,40.6 229.2,40.8 229,40.9 228.9,41 
			228.8,41.2 228.7,41.4 228.6,41.6 228.5,41.7 228.4,42 228.4,42.2 228.3,42.4 228.3,42.6 228.2,42.9 228.2,43.3 228.3,43.7 
			228.4,44 228.5,44.3 228.7,44.6 229,44.8 229.3,44.8 229.3,44.8 		"/>
		<polygon class="st7" points="182.7,45 182.4,46.7 180.5,46.7 180.5,46.3 180.6,46.1 180.6,45.8 180.6,45.7 180.5,45.9 180.4,46 
			180.2,46.1 180.1,46.2 179.9,46.3 179.7,46.4 179.5,46.5 179.3,46.6 179.1,46.6 178.9,46.7 178.7,46.7 178.4,46.8 178.2,46.8 
			178,46.8 177.8,46.8 177.6,46.7 177.3,46.7 177.1,46.6 176.8,46.5 176.7,46.4 176.5,46.3 176.3,46.1 176.2,46 176.1,45.8 
			176,45.7 175.9,45.5 175.9,45.3 175.8,45.2 175.8,45 175.8,44.8 175.8,44.6 175.8,44.5 175.8,44.2 175.8,43.9 175.9,43.6 
			176,43.4 176.1,43.1 176.3,42.9 176.4,42.7 176.6,42.5 176.8,42.3 177,42.2 177.2,42 177.5,41.9 177.7,41.8 178,41.7 178.2,41.7 
			178.5,41.6 178.5,41.6 178.5,41.6 178.6,41.6 178.7,41.6 178.8,41.6 178.9,41.6 179,41.5 179.1,41.5 179.2,41.5 179.4,41.5 
			179.5,41.5 179.6,41.5 179.7,41.5 179.9,41.5 180,41.5 180,41.5 180.2,41.5 180.4,41.5 180.6,41.5 180.7,41.5 180.9,41.5 
			181,41.5 181.1,41.5 181.1,41.5 181.1,41.4 181.1,41.3 181.2,41.1 181.2,41 181.2,40.8 181.1,40.7 181,40.5 180.9,40.4 
			180.7,40.3 180.6,40.3 180.4,40.2 180.2,40.2 180,40.2 179.8,40.2 179.5,40.2 179.3,40.2 179,40.2 178.8,40.2 178.5,40.3 
			178.3,40.3 178.1,40.3 177.9,40.4 177.7,40.4 177.5,40.4 177.3,40.5 177.2,40.5 177.1,40.6 177,40.6 177.5,38.8 177.7,38.7 
			177.9,38.7 178,38.6 178.2,38.6 178.4,38.5 178.6,38.5 178.8,38.5 179,38.5 179.2,38.4 179.4,38.4 179.7,38.4 179.9,38.4 
			180.1,38.4 180.4,38.4 180.7,38.4 180.9,38.4 181.1,38.5 181.4,38.5 181.6,38.5 181.8,38.6 182.1,38.7 182.3,38.8 182.5,38.9 
			182.8,39.1 182.9,39.3 183.1,39.4 183.3,39.6 183.4,39.9 183.5,40.1 183.5,40.4 183.5,40.7 183.5,41 182.7,45 182.7,45 		"/>
		<polyline class="st8" points="182.7,45 182.4,46.7 180.5,46.7 180.5,46.7 180.5,46.3 180.6,46.1 180.6,45.8 180.6,45.7 
			180.6,45.7 180.5,45.9 180.4,46 180.2,46.1 180.1,46.2 179.9,46.3 179.7,46.4 179.5,46.5 179.3,46.6 179.1,46.6 178.9,46.7 
			178.7,46.7 178.4,46.8 178.2,46.8 178,46.8 177.8,46.8 177.6,46.7 177.6,46.7 177.3,46.7 177.1,46.6 176.8,46.5 176.7,46.4 
			176.5,46.3 176.3,46.1 176.2,46 176.1,45.8 176,45.7 175.9,45.5 175.9,45.3 175.8,45.2 175.8,45 175.8,44.8 175.8,44.6 
			175.8,44.5 175.8,44.5 175.8,44.2 175.8,43.9 175.9,43.6 176,43.4 176.1,43.1 176.3,42.9 176.4,42.7 176.6,42.5 176.8,42.3 
			177,42.2 177.2,42 177.5,41.9 177.7,41.8 178,41.7 178.2,41.7 178.5,41.6 178.5,41.6 178.5,41.6 178.5,41.6 178.6,41.6 
			178.7,41.6 178.8,41.6 178.9,41.6 179,41.5 179.1,41.5 179.2,41.5 179.4,41.5 179.5,41.5 179.6,41.5 179.7,41.5 179.9,41.5 
			180,41.5 180,41.5 180,41.5 180.2,41.5 180.4,41.5 180.6,41.5 180.7,41.5 180.9,41.5 181,41.5 181.1,41.5 181.1,41.5 181.1,41.5 
			181.1,41.4 181.1,41.3 181.2,41.1 181.2,41 181.2,41 181.2,40.8 181.1,40.7 181,40.5 180.9,40.4 180.7,40.3 180.6,40.3 
			180.4,40.2 180.2,40.2 180.2,40.2 180,40.2 179.8,40.2 179.5,40.2 179.3,40.2 179,40.2 178.8,40.2 178.5,40.3 178.3,40.3 
			178.1,40.3 177.9,40.4 177.7,40.4 177.5,40.4 177.3,40.5 177.2,40.5 177.1,40.6 177,40.6 177.5,38.8 177.5,38.8 177.7,38.7 
			177.9,38.7 178,38.6 178.2,38.6 178.4,38.5 178.6,38.5 178.8,38.5 179,38.5 179.2,38.4 179.4,38.4 179.7,38.4 179.9,38.4 
			180.1,38.4 180.4,38.4 180.7,38.4 180.9,38.4 180.9,38.4 181.1,38.5 181.4,38.5 181.6,38.5 181.8,38.6 182.1,38.7 182.3,38.8 
			182.5,38.9 182.8,39.1 182.9,39.3 183.1,39.4 183.3,39.6 183.4,39.9 183.5,40.1 183.5,40.4 183.5,40.7 183.5,41 182.7,45 		"/>
		<polygon class="st6" points="180.9,43 180.8,42.9 180.8,42.9 180.8,42.9 180.7,42.9 180.6,42.9 180.5,42.8 180.4,42.8 180.3,42.8 
			180.2,42.9 180,42.9 179.9,42.9 179.8,42.9 179.7,42.9 179.6,42.9 179.5,43 179.4,43 179.3,43 179.3,43 179.2,43.1 179.1,43.1 
			179,43.1 178.9,43.2 178.8,43.2 178.7,43.3 178.6,43.4 178.5,43.5 178.4,43.5 178.3,43.6 178.3,43.7 178.2,43.8 178.2,44 
			178.1,44.1 178.1,44.3 178.2,44.5 178.2,44.7 178.3,44.8 178.5,44.9 178.6,44.9 178.7,45 178.8,45 179.1,45 179.3,44.9 
			179.5,44.9 179.6,44.9 179.8,44.8 179.9,44.7 180.1,44.7 180.2,44.6 180.3,44.5 180.4,44.4 180.4,44.3 180.5,44.2 180.6,44.2 
			180.6,44.1 180.6,44 180.7,43.9 180.7,43.7 180.8,43.4 180.8,43.2 180.9,43 180.9,43 		"/>
		<polygon class="st7" points="166.7,46.7 164.6,46.7 166.4,36.7 170,36.7 170.3,42.6 172.8,36.7 176.5,36.7 174.8,46.7 172.7,46.7 
			174,39.2 173.9,39.2 170.8,46.7 168.5,46.7 168.5,46.3 168.4,45.5 168.4,44.3 168.3,43 168.2,41.6 168.2,40.4 168.1,39.6 
			168.1,39.2 168.1,39.2 168,39.2 168,39.2 168,39.2 166.7,46.7 166.7,46.7 		"/>
		<polyline class="st8" points="166.7,46.7 164.6,46.7 166.4,36.7 170,36.7 170.3,42.6 172.8,36.7 176.5,36.7 174.8,46.7 
			172.7,46.7 174,39.2 173.9,39.2 170.8,46.7 168.5,46.7 168.5,46.7 168.5,46.3 168.4,45.5 168.4,44.3 168.3,43 168.2,41.6 
			168.2,40.4 168.1,39.6 168.1,39.2 168.1,39.2 168.1,39.2 168,39.2 168,39.2 168,39.2 166.7,46.7 		"/>
		<polygon class="st7" points="220.4,45 220,46.7 218.1,46.7 218.2,46.3 218.2,46.1 218.2,45.9 218.2,45.8 218.1,45.9 218,46 
			217.8,46.1 217.7,46.2 217.5,46.3 217.3,46.4 217.1,46.5 217,46.6 216.8,46.6 216.5,46.7 216.3,46.7 216.1,46.8 215.9,46.8 
			215.7,46.8 215.5,46.8 215.3,46.7 215,46.7 214.8,46.6 214.5,46.5 214.3,46.4 214.2,46.3 214,46.1 213.9,46 213.8,45.8 
			213.7,45.7 213.6,45.5 213.6,45.3 213.5,45.2 213.5,45 213.5,44.8 213.5,44.6 213.5,44.5 213.5,44.2 213.5,43.9 213.6,43.6 
			213.7,43.4 213.8,43.1 214,42.9 214.1,42.7 214.3,42.5 214.5,42.3 214.7,42.2 214.9,42 215.2,41.9 215.4,41.8 215.6,41.7 
			215.9,41.7 216.2,41.6 216.2,41.6 216.2,41.6 216.3,41.6 216.3,41.6 216.4,41.6 216.5,41.6 216.7,41.5 216.8,41.5 216.9,41.5 
			217,41.5 217.2,41.5 217.3,41.5 217.4,41.5 217.5,41.5 217.6,41.5 217.7,41.5 217.9,41.5 218.1,41.5 218.3,41.5 218.4,41.5 
			218.6,41.5 218.7,41.5 218.8,41.5 218.8,41.5 218.8,41.4 218.8,41.3 218.8,41.1 218.9,41 218.8,40.8 218.8,40.7 218.7,40.5 
			218.6,40.4 218.4,40.3 218.3,40.3 218.1,40.2 217.9,40.2 217.7,40.2 217.5,40.2 217.2,40.2 217,40.2 216.7,40.2 216.5,40.2 
			216.3,40.3 216,40.3 215.8,40.3 215.6,40.4 215.4,40.4 215.2,40.4 215,40.5 214.9,40.5 214.8,40.6 214.7,40.6 215.2,38.8 
			215.4,38.7 215.6,38.7 215.7,38.6 215.9,38.6 216.1,38.5 216.3,38.5 216.5,38.5 216.7,38.5 216.9,38.4 217.1,38.4 217.4,38.4 
			217.6,38.4 217.8,38.4 218.1,38.4 218.3,38.4 218.6,38.4 218.8,38.5 219,38.5 219.3,38.5 219.5,38.6 219.8,38.7 220,38.8 
			220.2,38.9 220.4,39.1 220.6,39.3 220.8,39.4 220.9,39.6 221.1,39.9 221.1,40.1 221.2,40.4 221.2,40.7 221.2,41 220.4,45 
			220.4,45 		"/>
		<polygon class="st7" points="220,46.7 220.1,46.7 220.4,45 220.3,45 220,46.6 220,46.6 220,46.7 220.1,46.7 220.1,46.7 220,46.7 
			220,46.7 		"/>
		<polygon class="st7" points="218.1,46.7 218.1,46.7 220,46.7 220,46.6 218.1,46.6 218.2,46.7 218.1,46.7 218.1,46.7 218.1,46.7 
			218.1,46.7 218.1,46.7 		"/>
		<polygon class="st7" points="218.2,45.8 218.1,45.7 218.1,45.9 218.1,46.1 218.1,46.3 218.1,46.7 218.2,46.7 218.2,46.3 
			218.2,46.1 218.2,45.9 218.2,45.8 218.1,45.7 218.2,45.8 218.2,45.8 		"/>
		<polygon class="st7" points="215.3,46.8 215.3,46.8 215.5,46.8 215.7,46.8 215.9,46.8 216.1,46.8 216.3,46.8 216.5,46.7 
			216.8,46.7 217,46.6 217.2,46.5 217.4,46.4 217.5,46.4 217.7,46.3 217.9,46.1 218,46 218.1,45.9 218.2,45.8 218.1,45.7 218,45.9 
			217.9,46 217.8,46.1 217.7,46.2 217.5,46.3 217.3,46.4 217.1,46.4 216.9,46.5 216.7,46.6 216.5,46.6 216.3,46.7 216.1,46.7 
			215.9,46.7 215.7,46.7 215.5,46.7 215.3,46.7 215.3,46.7 215.3,46.8 215.3,46.8 		"/>
		<polygon class="st7" points="213.4,44.5 213.4,44.5 213.4,44.6 213.4,44.8 213.5,45 213.5,45.2 213.5,45.3 213.6,45.5 213.7,45.7 
			213.8,45.8 213.9,46 214,46.1 214.1,46.3 214.3,46.4 214.5,46.5 214.7,46.6 215,46.7 215.3,46.8 215.3,46.7 215,46.6 214.8,46.5 
			214.6,46.4 214.4,46.3 214.2,46.2 214.1,46.1 213.9,45.9 213.8,45.8 213.8,45.6 213.7,45.5 213.6,45.3 213.6,45.1 213.6,45 
			213.5,44.8 213.5,44.6 213.5,44.5 213.5,44.5 213.4,44.5 213.4,44.5 		"/>
		<polygon class="st7" points="216.2,41.6 216.2,41.6 215.9,41.6 215.6,41.7 215.4,41.8 215.1,41.9 214.9,42 214.7,42.1 214.5,42.3 
			214.3,42.5 214.1,42.7 213.9,42.9 213.8,43.1 213.7,43.4 213.6,43.6 213.5,43.9 213.4,44.2 213.4,44.5 213.5,44.5 213.5,44.2 
			213.6,43.9 213.7,43.6 213.8,43.4 213.9,43.2 214,42.9 214.2,42.7 214.3,42.5 214.5,42.4 214.7,42.2 214.9,42.1 215.2,42 
			215.4,41.8 215.7,41.8 215.9,41.7 216.2,41.7 216.2,41.7 216.2,41.6 216.2,41.6 		"/>
		<polygon class="st7" points="217.7,41.4 217.7,41.4 217.6,41.4 217.5,41.4 217.4,41.4 217.3,41.4 217.2,41.4 217,41.5 216.9,41.5 
			216.8,41.5 216.7,41.5 216.5,41.5 216.4,41.5 216.3,41.5 216.3,41.5 216.2,41.6 216.2,41.6 216.2,41.6 216.2,41.7 216.2,41.7 
			216.2,41.6 216.3,41.6 216.3,41.6 216.4,41.6 216.5,41.6 216.7,41.6 216.8,41.6 216.9,41.6 217,41.5 217.2,41.5 217.3,41.5 
			217.4,41.5 217.5,41.5 217.6,41.5 217.7,41.5 217.7,41.5 217.7,41.4 217.7,41.4 		"/>
		<polygon class="st7" points="218.7,41.5 218.8,41.4 218.8,41.4 218.7,41.4 218.6,41.4 218.4,41.4 218.3,41.4 218.1,41.4 
			217.9,41.4 217.7,41.4 217.7,41.5 217.9,41.5 218.1,41.5 218.3,41.5 218.4,41.5 218.6,41.5 218.7,41.5 218.8,41.5 218.8,41.5 
			218.8,41.5 218.8,41.5 218.8,41.5 218.8,41.5 218.7,41.5 218.7,41.5 		"/>
		<polygon class="st7" points="218.8,41 218.8,41 218.8,41.1 218.8,41.3 218.8,41.4 218.7,41.5 218.8,41.5 218.8,41.4 218.9,41.3 
			218.9,41.1 218.9,41 218.9,41 218.8,41 218.8,41 		"/>
		<polygon class="st7" points="217.9,40.2 217.9,40.3 218.1,40.3 218.2,40.3 218.4,40.4 218.5,40.5 218.6,40.6 218.7,40.7 
			218.8,40.8 218.8,41 218.9,41 218.9,40.8 218.8,40.7 218.7,40.5 218.6,40.4 218.4,40.3 218.3,40.2 218.1,40.2 217.9,40.1 
			217.9,40.2 217.9,40.2 217.9,40.2 		"/>
		<polygon class="st7" points="214.7,40.6 214.7,40.7 214.8,40.6 214.9,40.6 215,40.5 215.2,40.5 215.4,40.4 215.6,40.4 215.8,40.4 
			216,40.3 216.3,40.3 216.5,40.3 216.7,40.3 217,40.2 217.2,40.2 217.5,40.2 217.7,40.2 217.9,40.2 217.9,40.2 217.7,40.1 
			217.5,40.1 217.2,40.1 217,40.1 216.7,40.2 216.5,40.2 216.3,40.2 216,40.2 215.8,40.3 215.6,40.3 215.4,40.3 215.2,40.4 
			215,40.4 214.9,40.5 214.8,40.5 214.7,40.6 214.7,40.6 214.7,40.6 214.7,40.6 		"/>
		<polygon class="st7" points="215.2,38.7 215.2,38.8 214.7,40.6 214.7,40.6 215.3,38.8 215.2,38.8 215.2,38.7 215.2,38.8 
			215.2,38.8 215.2,38.7 215.2,38.7 		"/>
		<polygon class="st7" points="218.6,38.4 218.6,38.4 218.3,38.4 218.1,38.4 217.8,38.4 217.6,38.4 217.4,38.4 217.1,38.4 
			216.9,38.4 216.7,38.4 216.5,38.4 216.3,38.5 216.1,38.5 215.9,38.5 215.7,38.6 215.6,38.6 215.4,38.7 215.2,38.7 215.2,38.8 
			215.4,38.8 215.6,38.7 215.8,38.7 215.9,38.6 216.1,38.6 216.3,38.5 216.5,38.5 216.7,38.5 216.9,38.5 217.1,38.5 217.4,38.5 
			217.6,38.5 217.8,38.5 218.1,38.5 218.3,38.5 218.6,38.5 218.6,38.5 218.6,38.4 218.6,38.4 		"/>
		<polygon class="st7" points="221.2,41 221.2,41 221.2,40.7 221.2,40.4 221.2,40.1 221.1,39.9 221,39.6 220.8,39.4 220.6,39.2 
			220.5,39 220.2,38.9 220,38.8 219.8,38.7 219.5,38.6 219.3,38.5 219,38.4 218.8,38.4 218.6,38.4 218.6,38.5 218.8,38.5 219,38.5 
			219.3,38.6 219.5,38.7 219.7,38.8 220,38.9 220.2,39 220.4,39.1 220.6,39.3 220.8,39.5 220.9,39.7 221,39.9 221.1,40.1 
			221.1,40.4 221.1,40.7 221.1,41 221.1,41 221.2,41 221.2,41 		"/>
		<polygon class="st7" points="220.4,45 220.4,45 221.2,41 221.1,41 220.3,45 220.3,45 220.4,45 220.4,45 		"/>
		<polygon class="st5" points="218.5,43 218.5,42.9 218.5,42.9 218.4,42.9 218.3,42.9 218.3,42.8 218.2,42.8 218,42.8 217.9,42.8 
			217.8,42.9 217.7,42.9 217.6,42.9 217.5,42.9 217.3,42.9 217.2,42.9 217.1,43 217.1,43 217,43 217,43 216.9,43 216.8,43.1 
			216.7,43.1 216.6,43.2 216.5,43.2 216.4,43.3 216.3,43.4 216.2,43.4 216.1,43.5 216,43.6 216,43.7 215.9,43.8 215.9,44 
			215.8,44.1 215.8,44.3 215.9,44.5 215.9,44.7 216,44.8 216.1,44.9 216.3,44.9 216.4,45 216.5,45 216.8,45 217,44.9 217.2,44.9 
			217.3,44.8 217.5,44.8 217.7,44.7 217.8,44.6 217.9,44.5 218,44.5 218.1,44.4 218.2,44.3 218.3,44.2 218.3,44.1 218.4,44 
			218.4,43.9 218.4,43.8 218.4,43.6 218.5,43.4 218.5,43.2 218.5,43 218.5,43 		"/>
		<polygon class="st7" points="234.2,45.6 234.2,45.4 234.2,45.2 234.3,45.1 234.5,44.9 234.6,44.8 234.8,44.7 235,44.6 235.2,44.6 
			235.4,44.6 235.6,44.7 235.8,44.8 236,44.9 236.1,45.1 236.2,45.2 236.3,45.4 236.3,45.6 236.1,45.6 236,45.5 236,45.3 
			235.9,45.2 235.8,45 235.7,44.9 235.6,44.8 235.4,44.8 235.2,44.8 235,44.8 234.9,44.8 234.7,44.9 234.6,45 234.5,45.2 
			234.4,45.3 234.4,45.5 234.4,45.6 234.2,45.6 234.2,45.6 		"/>
		<polygon class="st7" points="234.8,45.6 234.8,45.2 235.3,45.2 235.4,45.2 235.4,45.2 235.5,45.2 235.5,45.2 235.6,45.3 
			235.6,45.3 235.6,45.4 235.6,45.4 235.6,45.5 235.6,45.6 235.6,45.6 235.6,45.6 235.3,45.6 235.3,45.6 235.3,45.6 235.4,45.6 
			235.4,45.6 235.5,45.5 235.5,45.5 235.5,45.5 235.5,45.4 235.5,45.4 235.5,45.4 235.4,45.3 235.4,45.3 235.4,45.3 235.3,45.3 
			235.3,45.3 235.3,45.3 235,45.3 235,45.6 234.8,45.6 234.8,45.6 		"/>
		<polygon class="st7" points="234.2,45.6 234.2,45.7 234.2,45.9 234.2,46.1 234.3,46.3 234.5,46.4 234.6,46.5 234.8,46.6 235,46.7 
			235.2,46.7 235.4,46.7 235.6,46.6 235.8,46.5 236,46.4 236.1,46.3 236.2,46.1 236.3,45.9 236.3,45.7 236.3,45.6 236.1,45.6 
			236.1,45.7 236,45.8 236,46 235.9,46.2 235.8,46.3 235.7,46.4 235.6,46.5 235.4,46.5 235.2,46.5 235,46.5 234.9,46.5 234.7,46.4 
			234.6,46.3 234.5,46.2 234.4,46 234.4,45.8 234.4,45.7 234.4,45.6 234.2,45.6 234.2,45.6 		"/>
		<polygon class="st7" points="234.8,45.6 234.8,46.1 235,46.1 235,45.7 235.2,45.7 235.4,46.1 235.6,46.1 235.4,45.7 235.4,45.7 
			235.5,45.7 235.5,45.7 235.6,45.6 235.6,45.6 235.3,45.6 235.2,45.6 235,45.6 235,45.6 234.8,45.6 234.8,45.6 		"/>
		<path class="st8" d="M234.2,45.7L234.2,45.7l0-0.2l0.1-0.2l0.1-0.2l0.1-0.2l0.2-0.1l0.2-0.1l0.2-0.1l0.2,0l0,0l0.2,0l0.2,0.1
			l0.2,0.1l0.2,0.1l0.1,0.2l0.1,0.2l0.1,0.2l0,0.2l0,0l0,0.2l-0.1,0.2l-0.1,0.2l-0.1,0.2l-0.2,0.1l-0.2,0.1l-0.2,0.1l-0.2,0l0,0
			l-0.2,0l-0.2-0.1l-0.2-0.1l-0.2-0.1l-0.1-0.2l-0.1-0.2l-0.1-0.2L234.2,45.7 M235,46.1h-0.2v-0.9h0.4l0,0l0.1,0l0.1,0l0.1,0l0.1,0
			l0,0l0,0l0,0.1l0,0.1l0,0l0,0.1l0,0.1l0,0l0,0l0,0l0,0l-0.1,0h-0.1l0.2,0.4h-0.2l-0.2-0.4H235V46.1 M235.2,45.6L235.2,45.6
			L235.2,45.6l0.1,0l0,0l0,0l0,0l0,0l0,0v-0.1l0,0l0,0l0,0l0,0l0,0l0,0l0,0h0h0H235v0.3H235.2 M235.2,46.5L235.2,46.5l0.2,0l0.2-0.1
			l0.1-0.1l0.1-0.1l0.1-0.1L236,46l0-0.2l0-0.2l0,0l0-0.2l0-0.2l-0.1-0.2l-0.1-0.1l-0.1-0.1l-0.1-0.1l-0.2-0.1l-0.2,0l0,0l-0.2,0
			l-0.2,0.1l-0.1,0.1l-0.1,0.1l-0.1,0.1l-0.1,0.2l0,0.2l0,0.2l0,0l0,0.2l0,0.2l0.1,0.1l0.1,0.1l0.1,0.1l0.1,0.1l0.2,0.1L235.2,46.5"
			/>
		<polygon class="st7" points="220.9,46.7 223.1,46.7 223.1,46.7 223.8,42.3 223.9,42.2 223.9,42 224,41.8 224,41.7 224.1,41.5 
			224.2,41.3 224.3,41.2 224.4,41 224.5,40.9 224.7,40.8 224.9,40.7 225.1,40.6 225.3,40.5 225.5,40.5 225.8,40.4 226.1,40.4 
			226.2,40.4 226.3,40.4 226.3,40.4 226.3,40.4 226.6,38.4 226.4,38.5 226.2,38.5 226,38.5 225.8,38.6 225.7,38.6 225.5,38.7 
			225.4,38.8 225.2,38.9 225.1,39 224.9,39.1 224.8,39.2 224.7,39.3 224.6,39.5 224.5,39.6 224.4,39.7 224.3,39.9 224.5,38.5 
			222.3,38.5 220.9,46.7 220.9,46.7 220.9,46.7 		"/>
		<polyline class="st8" points="220.9,46.7 223.1,46.7 223.1,46.7 223.8,42.3 223.8,42.3 223.9,42.2 223.9,42 224,41.8 224,41.7 
			224.1,41.5 224.2,41.3 224.3,41.2 224.4,41 224.5,40.9 224.7,40.8 224.9,40.7 225.1,40.6 225.3,40.5 225.5,40.5 225.8,40.4 
			226.1,40.4 226.1,40.4 226.2,40.4 226.3,40.4 226.3,40.4 226.3,40.4 226.6,38.4 226.6,38.4 226.4,38.5 226.2,38.5 226,38.5 
			225.8,38.6 225.7,38.6 225.5,38.7 225.4,38.8 225.2,38.9 225.1,39 224.9,39.1 224.8,39.2 224.7,39.3 224.6,39.5 224.5,39.6 
			224.4,39.7 224.3,39.9 224.5,38.5 222.3,38.5 220.9,46.7 220.9,46.7 		"/>
		<polygon class="st7" points="200.8,46.7 203,46.7 203,46.7 203.7,42.3 203.8,42.2 203.8,42 203.8,41.8 203.9,41.7 204,41.5 
			204,41.4 204.1,41.3 204.2,41.1 204.3,41 204.5,40.9 204.7,40.8 204.8,40.7 205,40.7 205.3,40.6 205.5,40.6 205.8,40.5 
			205.9,40.5 205.9,40.5 205.9,40.6 206,40.6 206,40.6 206,40.6 206.1,40.6 206.1,40.6 206.1,40.5 206.1,40.5 206.1,40.3 
			206.2,40.2 206.2,40 206.3,39.7 206.3,39.5 206.4,39.3 206.5,39.2 206.5,39 206.6,38.9 206.7,38.8 206.8,38.6 206.8,38.6 
			206.9,38.5 206.9,38.5 206.9,38.5 206.8,38.5 206.8,38.5 206.7,38.5 206.7,38.5 206.6,38.4 206.6,38.4 206.5,38.4 206.3,38.5 
			206.1,38.5 205.9,38.5 205.7,38.6 205.5,38.6 205.4,38.7 205.2,38.8 205.1,38.9 204.9,39 204.8,39.1 204.7,39.2 204.6,39.3 
			204.5,39.4 204.4,39.6 204.3,39.7 204.2,39.9 204.4,38.5 202.2,38.5 200.8,46.7 200.8,46.7 200.8,46.7 		"/>
		<polyline class="st8" points="200.8,46.7 203,46.7 203,46.7 203.7,42.3 203.7,42.3 203.8,42.2 203.8,42 203.8,41.8 203.9,41.7 
			204,41.5 204,41.4 204.1,41.3 204.2,41.1 204.3,41 204.5,40.9 204.7,40.8 204.8,40.7 205,40.7 205.3,40.6 205.5,40.6 205.8,40.5 
			205.8,40.5 205.9,40.5 205.9,40.5 205.9,40.6 206,40.6 206,40.6 206,40.6 206.1,40.6 206.1,40.6 206.1,40.6 206.1,40.5 
			206.1,40.5 206.1,40.3 206.2,40.2 206.2,40 206.3,39.7 206.3,39.5 206.4,39.3 206.4,39.3 206.5,39.2 206.5,39 206.6,38.9 
			206.7,38.8 206.8,38.6 206.8,38.6 206.9,38.5 206.9,38.5 206.9,38.5 206.9,38.5 206.8,38.5 206.8,38.5 206.7,38.5 206.7,38.5 
			206.6,38.4 206.6,38.4 206.5,38.4 206.5,38.4 206.3,38.5 206.1,38.5 205.9,38.5 205.7,38.6 205.5,38.6 205.4,38.7 205.2,38.8 
			205.1,38.9 204.9,39 204.8,39.1 204.7,39.2 204.6,39.3 204.5,39.4 204.4,39.6 204.3,39.7 204.2,39.9 204.4,38.5 202.2,38.5 
			200.8,46.7 200.8,46.7 		"/>
		<polygon class="st5" points="234.2,54.6 234.2,54.6 234.2,54.4 234.3,54.2 234.5,54.1 234.6,54 234.8,53.9 235,53.8 235.2,53.8 
			235.4,53.8 235.6,53.9 235.8,54 236,54.1 236.1,54.2 236.2,54.4 236.3,54.6 236.3,54.6 236,54.6 236,54.5 235.9,54.3 235.8,54.2 
			235.7,54.1 235.6,54 235.4,54 235.2,53.9 235,54 234.9,54 234.7,54.1 234.6,54.2 234.5,54.3 234.4,54.5 234.4,54.6 234.2,54.6 
			234.2,54.6 		"/>
		<polygon class="st5" points="234.8,54.6 234.8,54.4 235.3,54.4 235.4,54.4 235.4,54.4 235.5,54.4 235.5,54.4 235.6,54.5 
			235.6,54.5 235.6,54.6 235.6,54.6 235.5,54.6 235.5,54.6 235.5,54.6 235.5,54.5 235.4,54.5 235.4,54.5 235.4,54.5 235.3,54.5 
			235.3,54.5 235.3,54.5 235,54.5 235,54.6 234.8,54.6 234.8,54.6 		"/>
		<polygon class="st5" points="234.2,54.8 234.2,54.6 234.4,54.6 234.4,54.6 234.4,54.8 234.2,54.8 234.2,54.8 		"/>
		<polygon class="st5" points="234.8,54.8 234.8,54.6 235,54.6 235,54.8 235.2,54.8 235.3,54.8 235.3,54.8 235.4,54.8 235.4,54.7 
			235.5,54.7 235.5,54.7 235.5,54.7 235.5,54.6 235.6,54.6 235.6,54.6 235.6,54.7 235.6,54.7 235.6,54.8 235.6,54.8 234.8,54.8 
			234.8,54.8 		"/>
		<polygon class="st5" points="236.1,54.8 236,54.6 236,54.6 236.3,54.6 236.3,54.8 236.1,54.8 236.1,54.8 		"/>
		<polygon class="st5" points="234.2,54.8 234.2,54.8 234.2,55 234.2,55.3 234.3,55.4 234.5,55.6 234.6,55.7 234.8,55.8 235,55.9 
			235.2,55.9 235.4,55.9 235.6,55.8 235.8,55.7 236,55.6 236.1,55.4 236.2,55.3 236.3,55 236.3,54.8 236.3,54.8 236.1,54.8 
			236.1,54.8 236,55 236,55.2 235.9,55.3 235.8,55.4 235.7,55.6 235.6,55.6 235.4,55.7 235.2,55.7 235,55.7 234.9,55.6 234.7,55.6 
			234.6,55.4 234.5,55.3 234.4,55.2 234.4,55 234.4,54.8 234.4,54.8 234.2,54.8 234.2,54.8 		"/>
		<polygon class="st5" points="234.8,54.8 234.8,55.2 235,55.2 235,54.9 235.2,54.9 235.4,55.2 235.6,55.2 235.4,54.9 235.4,54.9 
			235.5,54.9 235.5,54.8 235.6,54.8 235.6,54.8 234.8,54.8 234.8,54.8 		"/>
		<path class="st7" d="M201.1,40.9l-0.1-0.5l-0.1-0.4l-0.2-0.3l-0.2-0.3l-0.2-0.3l-0.2-0.2l-0.3-0.2l-0.3-0.1l-0.3-0.1l-0.3-0.1
			l-0.3-0.1l-0.3,0l-0.3,0l-0.6,0l-0.5,0.1l-0.5,0.1l-0.4,0.2l-0.4,0.2l-0.3,0.3l-0.3,0.3l-0.2,0.3l-0.2,0.3l-0.2,0.3l-0.1,0.3
			l-0.1,0.3l-0.1,0.3l-0.1,0.3l0,0.3l0,0.2l0,0.6l0,0.6l0.1,0.5l0.1,0.4l0.2,0.4l0.2,0.3l0.3,0.3l0.3,0.3l0.3,0.2l0.3,0.2l0.4,0.1
			l0.4,0.1l0.4,0.1l0.4,0.1l0.4,0l0.4,0h0.2l0.2,0h0.2l0.2,0l0.2,0l0.2,0l0.2,0l0.1,0l0.1,0l0.1,0l0.1,0l0.1,0l0.1,0l0.1,0l0.1-0.1
			l0.1-0.1l0.3-1.9l-0.2,0.1l-0.2,0.1l-0.2,0.1l-0.2,0.1l-0.2,0.1l-0.2,0l-0.2,0l-0.2,0l-0.2,0l-0.2,0h-0.2l-0.2,0l-0.2,0l-0.2,0
			l-0.2,0l-0.2,0l-0.2,0l-0.2-0.1l-0.2-0.1l-0.1-0.1l-0.1-0.1l-0.1-0.1l-0.1-0.1l-0.1-0.1l-0.1-0.1l-0.1-0.1l-0.1-0.1l-0.1-0.1
			l0-0.1l0-0.1l0-0.1l0-0.1h4.9l0-0.5L201,42l0.1-0.6L201.1,40.9z M199,41.6h-2.8l0,0l0,0l0-0.1l0-0.2l0-0.2l0.1-0.2l0.1-0.1
			l0.1-0.1l0.1-0.1l0.1-0.1l0.1-0.1l0.1-0.1l0.1-0.1l0.1-0.1l0.1-0.1l0.1,0l0.1,0l0.1,0l0.1,0l0.1,0l0.1,0l0.1,0l0.1,0l0.1,0.1
			l0.1,0.1l0.1,0.1l0.1,0.1l0.1,0.1l0.1,0.1l0.1,0.1L199,41l0,0.2l0,0.2l0,0.2L199,41.6z"/>
	</g>
</g>
<g>
	<path class="st9" d="M535.8,76.4c0,2.3-1.9,4.2-4.2,4.2H414.5c-2.3,0-4.2-1.9-4.2-4.2v-70c0-2.3,1.9-4.2,4.2-4.2h117.1
		c2.3,0,4.2,1.9,4.2,4.2V76.4z"/>
	<g>
		<path class="st1" d="M449.3,39.6v-1.3l-0.6,1.3h-5.2l-0.7-1.3v1.3h-9.7l-1.1-2.7H430l-1.2,2.7h-5v-8.2l3.7-8.3h7.1l1,2.4v-2.3h8.6
			l1.9,4l1.9-4h27.3c0,0,1.4,0,2.4,0.6l0-0.6h6.9V24c0,0,1.2-0.9,3.1-0.9s12.1,0,12.1,0l1.1,2.4V23h7.8l1.4,2.4V23h7.4v16.6h-7.6
			l-1.8-2.9v2.9h-9.5l-1.3-3h-1.9l-1.2,3h-5.7c0,0-2.1,0-3.7-1.2c0,0.6,0,1.2,0,1.2H473c0,0,0-3.3,0-3.9c0-0.6-0.4-0.5-0.4-0.5h-0.4
			v4.4H449.3z"/>
		<path class="st1" d="M443.6,43.2h15l2.2,2.5l2.2-2.5h11.5c0,0,1.1,0,2.1,0.6v-0.6c0,0,9,0,10.3,0c1.3,0,2.4,0.7,2.4,0.7v-0.7h13.2
			v0.6c0,0,0.9-0.6,2.2-0.6c1.3,0,8.6,0,8.6,0v0.6c0,0,1.1-0.6,2.2-0.6c1.1,0,6.8,0,6.8,0v15.6c0,0-0.9,1-2.7,1h-8.9v-0.5
			c0,0-0.8,0.5-2.1,0.5c-1.3,0-23.7,0-23.7,0s0-3.6,0-4c0-0.4-0.2-0.5-0.5-0.5H484v4.5h-7.4v-4.5c0,0-0.8,0.4-2.2,0.4
			c-1.4,0-2.7,0-2.7,0v4h-9.1l-2.1-2.5l-2.2,2.5h-14.8V43.2z"/>
		<polygon class="st9" points="490.9,45.7 500.3,45.7 500.3,48.2 493.8,48.2 493.8,50.4 500.1,50.4 500.1,52.6 493.8,52.6 
			493.8,54.9 500.3,54.9 500.3,57.4 490.9,57.4 		"/>
		<path class="st9" d="M518.5,50.2c3.5,0.2,3.8,2,3.8,3.8c0,2.2-1.8,3.4-3.7,3.4h-6.1v-2.5h4.7c0.8,0,2,0,2-1.1c0-0.5-0.2-0.9-1.1-1
			c-0.4-0.1-1.8-0.1-2-0.1c-3.2-0.1-3.9-1.7-3.9-3.6c0-2.2,1.5-3.4,3.4-3.4h6.1v2.5h-4.4c-1,0-2.1-0.1-2.1,1c0,0.7,0.5,0.9,1.2,0.9
			C516.7,50.2,518.3,50.2,518.5,50.2z"/>
		<path class="st9" d="M507.7,50.2c3.5,0.2,3.8,2,3.8,3.8c0,2.2-1.8,3.4-3.7,3.4h-6.1v-2.5h4.7c0.8,0,2,0,2-1.1c0-0.5-0.2-0.9-1.1-1
			c-0.4-0.1-1.8-0.1-2-0.1c-3.2-0.1-3.9-1.7-3.9-3.6c0-2.2,1.5-3.4,3.4-3.4h6.1v2.5h-4.4c-1,0-2.1-0.1-2.1,1c0,0.7,0.5,0.9,1.2,0.9
			C505.9,50.2,507.4,50.2,507.7,50.2z"/>
		<path class="st9" d="M473.5,45.7h-10.1l-3.3,3.6l-3.2-3.7h-11.4v11.7h11l3.5-3.9l3.4,3.9h5.5v-4h3.9c1.5,0,4.2-0.1,4.2-4.2
			C477,46.3,474.9,45.7,473.5,45.7z M455,54.9h-6.6v-2.3h6.4v-2.2h-6.4v-2.2l7,0l2.8,3.2L455,54.9z M466,56.3l-4.1-4.9l4.1-4.6V56.3
			z M472.5,51h-3.6v-2.8h3.6c1.2,0,1.6,0.8,1.6,1.3C474.1,50.3,473.7,51,472.5,51z"/>
		<path class="st9" d="M487.4,52.1c1.6-0.8,2-1.8,2-3.2c0-2.5-2-3.1-3.5-3.1h-7.5v11.7h2.9v-4.1h3.8c1,0,1.4,1,1.4,2l0.1,2.2h2.8
			l-0.1-2.4C489.3,53.1,488.8,52.2,487.4,52.1z M484.9,50.9h-3.6v-2.7h3.6c1.2,0,1.6,0.8,1.6,1.3C486.5,50.3,486.1,50.9,484.9,50.9z
			"/>
		<rect x="479.6" y="25.4" class="st9" width="2.9" height="11.8"/>
		<polygon class="st9" points="456,25.4 465.4,25.4 465.4,27.9 458.9,27.9 458.9,30.1 465.2,30.1 465.2,32.4 458.9,32.4 458.9,34.7 
			465.4,34.7 465.4,37.2 456,37.2 		"/>
		<path class="st9" d="M476.1,31.8c1.6-0.8,2-1.8,2-3.2c0-2.5-2-3.1-3.5-3.1h-7.5v11.7h2.9V33h3.8c1,0,1.4,1,1.4,2l0.1,2.2h2.8
			l-0.1-2.4C478,32.9,477.5,32,476.1,31.8z M473.6,30.6H470v-2.7h3.6c1.2,0,1.6,0.8,1.6,1.3C475.2,30.1,474.8,30.6,473.6,30.6z"/>
		<path class="st9" d="M449.3,25.4l-3.5,7.9l-3.5-7.9h-4.5v11.3l-5-11.3h-3.8l-5.1,11.7h3l1.1-2.6h5.8l1.1,2.6h5.8v-8.7l3.9,8.7h2.6
			l3.9-8.6v8.6h2.9V25.4H449.3z M429,32l1.7-4.1l1.8,4.1H429z"/>
		<path class="st9" d="M512.2,25.4v8.1l-4.9-8.1h-4.3v11l-4.9-11h-3.8l-4,9.1c0,0-1.7,0-1.8,0c-0.7-0.1-1.8-0.6-1.8-2.7v-0.9
			c0-2.8,1.5-3,3.4-3h1.8v-2.6h-3.8c-1.3,0-4.2,1-4.3,5.8c-0.1,3.2,1.3,5.9,4.5,5.9h3.8l1.1-2.6h5.8l1.1,2.6h5.7v-8.6l5.2,8.6h3.9
			V25.4H512.2z M494.5,32l1.7-4.1L498,32H494.5z"/>
	</g>
</g>
<g>
	<path class="st10" d="M399.3,76.4c0,2.3-1.9,4.2-4.2,4.2H278c-2.3,0-4.2-1.9-4.2-4.2v-70c0-2.3,1.9-4.2,4.2-4.2h117.1
		c2.3,0,4.2,1.9,4.2,4.2V76.4z"/>
	<path class="st11" d="M308.3,80.6h86.8c2.3,0,4.2-1.9,4.2-4.2V47.1C391,52.4,359.6,70.6,308.3,80.6z"/>
	<g>
		
			<radialGradient id="SVGID_1_" cx="331.6856" cy="-444.6446" r="6.1806" gradientTransform="matrix(1 0 0 1 6.416 486.083)" gradientUnits="userSpaceOnUse">
			<stop  offset="5.618000e-03" style="stop-color:#FFEEE0"/>
			<stop  offset="0.1096" style="stop-color:#FEE9D7"/>
			<stop  offset="0.2793" style="stop-color:#FDDBBF"/>
			<stop  offset="0.4935" style="stop-color:#FBC597"/>
			<stop  offset="0.744" style="stop-color:#F8A560"/>
			<stop  offset="1" style="stop-color:#F48120"/>
		</radialGradient>
		<path class="st12" d="M338.1,35.3c-3.5,0-6.3,2.7-6.3,6c0,3.5,2.7,6.2,6.3,6.2c3.5,0,6.2-2.7,6.2-6.1
			C344.4,38,341.6,35.3,338.1,35.3z"/>
		<path class="st13" d="M302.6,35.5h-3.4v11.7h3.3c1.8,0,3.1-0.4,4.2-1.4c1.3-1.1,2.1-2.8,2.1-4.5C308.9,38,306.3,35.5,302.6,35.5z
			 M305.3,44.4c-0.7,0.7-1.7,0.9-3.1,0.9h-0.6v-7.8h0.6c1.5,0,2.4,0.3,3.1,0.9c0.8,0.7,1.3,1.8,1.3,2.9
			C306.5,42.5,306,43.7,305.3,44.4z"/>
		<rect x="309.9" y="35.5" class="st13" width="2.3" height="11.7"/>
		<path class="st13" d="M317.8,40c-1.4-0.5-1.8-0.8-1.8-1.5c0-0.7,0.7-1.3,1.7-1.3c0.7,0,1.2,0.3,1.8,0.9l1.2-1.6
			c-1-0.9-2.2-1.3-3.5-1.3c-2.1,0-3.7,1.4-3.7,3.4c0,1.6,0.7,2.4,2.9,3.2c0.9,0.3,1.4,0.5,1.6,0.7c0.5,0.3,0.7,0.7,0.7,1.2
			c0,1-0.8,1.7-1.8,1.7c-1.1,0-2-0.5-2.5-1.6l-1.5,1.4c1.1,1.5,2.3,2.2,4.1,2.2c2.4,0,4-1.6,4-3.9C321.2,41.8,320.4,41,317.8,40z"/>
		<path class="st13" d="M321.9,41.4c0,3.5,2.7,6.1,6.2,6.1c1,0,1.8-0.2,2.9-0.7v-2.7c-0.9,0.9-1.7,1.3-2.8,1.3c-2.3,0-3.9-1.7-3.9-4
			c0-2.2,1.7-4,3.8-4c1.1,0,1.9,0.4,2.9,1.3V36c-1-0.5-1.8-0.7-2.8-0.7C324.7,35.3,321.9,38,321.9,41.4z"/>
		<polygon class="st13" points="349.5,43.4 346.4,35.5 343.9,35.5 348.9,47.6 350.1,47.6 355.2,35.5 352.7,35.5 		"/>
		<polygon class="st13" points="356.2,47.3 362.7,47.3 362.7,45.3 358.5,45.3 358.5,42.1 362.6,42.1 362.6,40.1 358.5,40.1 
			358.5,37.5 362.7,37.5 362.7,35.5 356.2,35.5 		"/>
		<path class="st13" d="M371.8,39c0-2.2-1.5-3.5-4.2-3.5h-3.4v11.7h2.3v-4.7h0.3l3.2,4.7h2.8l-3.7-4.9C370.8,42,371.8,40.8,371.8,39
			z M367.2,40.9h-0.7v-3.6h0.7c1.4,0,2.2,0.6,2.2,1.7C369.4,40.3,368.7,40.9,367.2,40.9z"/>
		<path class="st14" d="M373.4,36.4c0-0.2-0.1-0.3-0.4-0.3h-0.3v1h0.2v-0.4l0.3,0.4h0.3l-0.3-0.4C373.3,36.7,373.4,36.6,373.4,36.4z
			 M373,36.6L373,36.6l0-0.3h0c0.1,0,0.2,0,0.2,0.1C373.1,36.5,373.1,36.6,373,36.6z"/>
		<path class="st14" d="M373.1,35.7c-0.5,0-0.9,0.4-0.9,0.9c0,0.5,0.4,0.9,0.9,0.9c0.5,0,0.9-0.4,0.9-0.9
			C373.9,36.1,373.5,35.7,373.1,35.7z M373.1,37.4c-0.4,0-0.7-0.3-0.7-0.7c0-0.4,0.3-0.7,0.7-0.7c0.4,0,0.7,0.3,0.7,0.7
			C373.8,37,373.4,37.4,373.1,37.4z"/>
	</g>
</g>
</svg>
