<svg id="Layer_1" xmlns="http://www.w3.org/2000/svg" viewBox="0 0 80 79.7"><style>.st0{fill:#94be46}</style><path class="st0" d="M31.3 26.7h-.2c-.8-.1-1.4-.8-1.4-1.5s-.5-17.9 9.6-21.7c2.5-1 4.8-.8 6.8.7 2.4 1.7 4.2 5.1 5.2 10 .7 3.5.9 6.5.9 6.6 0 .7-.6 1.3-1.3 1.2-.8-.1-1.4-.8-1.4-1.5-.1-3.1-1.2-11.7-4.7-14.2-1.1-.8-2.5-.9-4.1-.2-8.6 3.3-8.2 19.4-8.2 19.6 0 .5-.5 1-1.2 1z"/><path class="st0" d="M52.8 9.8L14 21.8s-1.7.5-2.1.9c-.4.5-.5 1.9-.5 1.9L5.3 71l45.1 8.4 3.5-69.7c-.5 0-1 .1-1.1.1z"/><path d="M66.2 15.8s-.1-.4-.3-.5l-.4-.2-6.4-.5-4.7-4.7-.6-.3-3.5 69.7L74.7 74l-8.5-58.2z" fill="#608d3e"/><path d="M36.7 48.5c-.7-.9-1.5-1.7-2.3-2.5-.8-.7-1.7-1.3-2.6-1.9-.6-.4-1.1-.8-1.6-1.1-.4-.4-.8-.7-1.1-1.1-.3-.4-.5-.7-.6-1.1-.1-.4-.2-.7-.2-1.1 0-.5.1-1 .3-1.4.2-.4.5-.8.8-1.1.4-.3.8-.6 1.3-.7.5-.2 1.1-.3 1.7-.3h2c.6.1 1.3.2 1.8.3.6.1 1.1.3 1.6.5s.9.4 1.3.5l3-9c-.4-.2-1-.4-1.6-.6-.6-.2-1.3-.3-2.1-.4-.8-.1-1.6-.1-2.5-.1-.9 0-1.8.1-2.7.2-2.1.3-3.9.8-5.5 1.6s-2.9 1.8-4.1 3c-1.1 1.2-2 2.6-2.6 4.1-.6 1.5-1 3.2-1.1 5 0 1.1.1 2.1.3 3 .2.9.6 1.8 1.1 2.6.5.8 1.1 1.5 1.7 2.2.7.7 1.4 1.3 2.2 1.9.6.5 1.2.9 1.6 1.3.5.4.8.8 1.1 1.3.3.4.5.8.6 1.3.1.4.2.9.1 1.3 0 .5-.1.9-.3 1.3-.2.4-.4.7-.8 1-.3.3-.7.5-1.2.6-.5.1-1 .1-1.6 0-.7-.1-1.4-.3-2-.5-.7-.3-1.3-.6-1.9-.9-.6-.3-1.1-.7-1.6-1-.5-.3-.9-.7-1.3-1L16 62.8c.3.4.8.9 1.3 1.3s1.1.8 1.8 1.2c.7.4 1.4.7 2.2 1.1.8.3 1.6.6 2.5.8 1.9.4 3.7.5 5.4.3 1.7-.2 3.3-.8 4.7-1.7 1.4-1 2.6-2.3 3.4-3.9.9-1.7 1.4-3.7 1.5-6.1.1-1.4-.1-2.8-.5-4-.3-1.3-.9-2.3-1.6-3.3z" fill="#fff"/><path class="st0" d="M21.8 24.3h-.2c-.7-.1-1.3-.8-1.2-1.5.2-.7 2.8-17.9 13.5-21.8 2.7-1 5-.8 6.7.7 2.1 1.7 3.3 5.1 3.5 10 .1 3.5-.3 6.5-.3 6.6-.1.7-.8 1.3-1.5 1.2-.7-.1-1.3-.8-1.2-1.5.4-3.1.9-11.7-2.2-14.2-1-.8-2.3-.9-4.1-.2C25.6 6.9 23.2 23 23.2 23.2c-.1.6-.7 1.1-1.4 1.1z"/></svg>