<?xml version="1.0" encoding="utf-8"?>
<!-- Generator: Adobe Illustrator 21.0.0, SVG Export Plug-In . SVG Version: 6.00 Build 0)  -->
<svg version="1.1" id="Capa_1" xmlns="http://www.w3.org/2000/svg" xmlns:xlink="http://www.w3.org/1999/xlink" x="0px" y="0px"
	 viewBox="0 0 49.4 36" style="enable-background:new 0 0 49.4 36;" xml:space="preserve">
<style type="text/css">
	.st0{fill:#394752;}
</style>
<path class="st0" d="M9.9,14.2H47c0.7,0,1.2-0.7,1.2-1.5c0-0.8-0.6-1.5-1.2-1.5H9.9c-0.7,0-1.2,0.7-1.2,1.5
	C8.7,13.6,9.2,14.2,9.9,14.2z"/>
<path class="st0" d="M2.7,3.8h44.1c0.8,0,1.5-0.7,1.5-1.5c0-0.8-0.7-1.5-1.5-1.5H2.7c-0.8,0-1.5,0.7-1.5,1.5S1.9,3.8,2.7,3.8z"/>
<path class="st0" d="M46.9,21.6H5.5c-0.8,0-1.4,0.7-1.4,1.5c0,0.8,0.6,1.5,1.4,1.5h41.4c0.8,0,1.4-0.7,1.4-1.5
	C48.2,22.2,47.6,21.6,46.9,21.6z"/>
<path class="st0" d="M46.8,31.9H17.4c-0.8,0-1.5,0.7-1.5,1.5c0,0.8,0.7,1.5,1.5,1.5h29.4c0.8,0,1.5-0.7,1.5-1.5
	C48.3,32.5,47.6,31.9,46.8,31.9z"/>
</svg>
