<?xml version="1.0" encoding="utf-8"?>
<!-- Generator: Adobe Illustrator 21.0.0, SVG Export Plug-In . SVG Version: 6.00 Build 0)  -->
<svg version="1.1" id="Capa_1" xmlns="http://www.w3.org/2000/svg" xmlns:xlink="http://www.w3.org/1999/xlink" x="0px" y="0px"
	 viewBox="0 0 50 50" style="enable-background:new 0 0 50 50;" xml:space="preserve">
<g>
	<g>
		<path d="M47.8,8.2h-1.4V3.9c0-1.7-1.4-3.1-3.1-3.1h-5.9c-1.7,0-3.1,1.4-3.1,3.1v4.3h-3.4V3.9c0-1.7-1.4-3.1-3.1-3.1h-5.9
			c-1.7,0-3.1,1.4-3.1,3.1v4.3h-3.2V3.9c0-1.7-1.4-3.1-3.1-3.1H6.6c-1.7,0-3.1,1.4-3.1,3.1v4.3H1.9c-0.7,0-1.2,0.6-1.2,1.2v12.8V35
			c0,0,0,0,0,0s0,0,0,0v12.8c0,0.7,0.6,1.2,1.2,1.2h45.9c0.7,0,1.2-0.6,1.2-1.2v-12V22.2V9.4C49.1,8.7,48.5,8.2,47.8,8.2z M36.8,3.9
			c0-0.3,0.3-0.6,0.6-0.6h5.9c0.3,0,0.6,0.3,0.6,0.6v4.3h-7.1L36.8,3.9L36.8,3.9z M21.3,3.9c0-0.3,0.3-0.6,0.6-0.6h5.9
			c0.3,0,0.6,0.3,0.6,0.6v4.3h-7.1L21.3,3.9L21.3,3.9z M6,3.9c0-0.3,0.3-0.6,0.6-0.6h5.9c0.3,0,0.6,0.3,0.6,0.6v4.3H6V3.9z
			 M46.6,46.5H3.2V36.2h43.4V46.5z M46.6,33.7H33.8V23.4h12.8V33.7z M46.6,20.9H20.1c-0.7,0-1.2,0.6-1.2,1.2s0.6,1.2,1.2,1.2h11.2
			v10.3H3.2V23.4h5.9c0.7,0,1.2-0.6,1.2-1.2s-0.6-1.2-1.2-1.2H3.2V10.6h1.6h9.6h5.7h9.6h5.9h9.6h1.4L46.6,20.9L46.6,20.9z"/>
	</g>
</g>
<g>
	<g>
		<path d="M15.7,20.9h-1h-0.7h-0.4c-0.7,0-1.2,0.6-1.2,1.2s0.6,1.2,1.2,1.2h0.4h0.7h1c0.7,0,1.2-0.6,1.2-1.2S16.4,20.9,15.7,20.9z"
			/>
	</g>
</g>
</svg>
