<?xml version="1.0" encoding="utf-8"?>
<!-- Generator: Adobe Illustrator 16.0.0, SVG Export Plug-In . SVG Version: 6.00 Build 0)  -->
<!DOCTYPE svg PUBLIC "-//W3C//DTD SVG 1.1//EN" "http://www.w3.org/Graphics/SVG/1.1/DTD/svg11.dtd">
<svg version="1.1" id="Layer_1" xmlns="http://www.w3.org/2000/svg" xmlns:xlink="http://www.w3.org/1999/xlink" x="0px" y="0px"
	 width="285.333px" height="81.333px" viewBox="0 0 285.333 81.333" enable-background="new 0 0 285.333 81.333"
	 xml:space="preserve">
<path id="synchronization-3" fill="#FFFFFF" d="M176.552,41.13c0,3.197-0.474,6.281-1.305,9.215h-6.451
	c1.025-2.885,1.613-5.981,1.613-9.215c0-15.242-12.4-27.645-27.644-27.645c-5.241,0-10.124,1.488-14.297,4.038l5.707,8.249h-21.483
	l6.611-21.501l5.68,8.212c5.17-3.225,11.238-5.14,17.783-5.14C161.422,7.343,176.552,22.471,176.552,41.13z M157.034,64.758
	c-4.167,2.538-9.041,4.017-14.269,4.017c-15.242,0-27.645-12.404-27.645-27.645c0-3.235,0.588-6.328,1.614-9.215h-6.452
	c-0.831,2.934-1.305,6.016-1.305,9.215c0,18.657,15.127,33.787,33.787,33.787c6.533,0,12.589-1.907,17.755-5.123l5.69,8.195
	l6.61-21.468h-21.483L157.034,64.758z"/>
<path id="shipping-box-11" fill="#010101" d="M-23.924-122.992l-0.375,0.213v-1.875l0.375-0.213V-122.992z M-20.842-126.622
	l-0.373,0.213v1.876l0.373-0.214V-126.622z M-17.02-134.923v12.566l-10.646,6.049l-11.192-5.448v-12.564l10.665-6.01L-17.02-134.923
	z M-29.955-136.84l7.667,3.495l1.857-1.001l-7.767-3.486L-29.955-136.84z M-29.031-128.429l-7.644-3.54v8.943l7.644,3.438V-128.429z
	 M-25.733-131.496l-7.445-3.538l-2.231,1.275l7.49,3.45L-25.733-131.496z M-19.204-132.526l-2.184,1.177v3.042l-3.275,1.842v-3.118
	l-2.185,1.177v9.13l7.644-4.351V-132.526z M-24.562-124.503l-0.381,0.217v1.872l0.381-0.213V-124.503z M-23.028-125.377
	l-0.375,0.214v1.875l0.375-0.214V-125.377z M-22.401-125.733l-0.374,0.213v1.875l0.374-0.213V-125.733z M-21.763-126.097
	l-0.381,0.217v1.875l0.381-0.218V-126.097z"/>
<g>
	<polyline fill="#010101" points="-42.353,-131.049 -49.985,-131.049 -49.985,-129.958 -42.353,-129.958 	"/>
	<polyline fill="#010101" points="-42.353,-128.866 -55.519,-128.866 -55.519,-127.773 -42.353,-127.773 	"/>
	<polyline fill="#010101" points="-42.353,-126.682 -49.985,-126.682 -49.985,-125.59 -42.353,-125.59 	"/>
</g>
<path id="shipping-box-11_1_" fill="#010101" d="M-4.676-98.112l-0.374,0.214v-1.875l0.374-0.212V-98.112z M-1.593-101.741
	l-0.373,0.213v1.876l0.373-0.214V-101.741z M2.229-110.042v12.566l-10.646,6.049l-11.193-5.448v-12.564l10.665-6.01L2.229-110.042z
	 M-10.706-111.96l7.668,3.495l1.856-1l-7.767-3.486L-10.706-111.96z M-9.782-103.549l-7.643-3.539v8.943l7.643,3.438V-103.549z
	 M-6.484-106.616l-7.445-3.537l-2.232,1.274l7.49,3.451L-6.484-106.616z M0.045-107.646l-2.184,1.178v3.042l-3.276,1.842v-3.118
	l-2.183,1.177v9.13l7.643-4.351V-107.646z M-5.313-99.623l-0.38,0.216v1.872l0.38-0.213V-99.623z M-3.778-100.497l-0.375,0.214
	v1.874l0.375-0.214V-100.497z M-3.151-100.854l-0.375,0.214v1.874l0.375-0.212V-100.854z M-2.514-101.217l-0.381,0.218v1.874
	l0.381-0.217V-101.217z"/>
<g>
	<polyline fill="#010101" points="-23.104,-106.169 -30.736,-106.169 -30.736,-105.077 -23.104,-105.077 	"/>
	<polyline fill="#010101" points="-23.104,-103.985 -36.27,-103.985 -36.27,-102.893 -23.104,-102.893 	"/>
	<polyline fill="#010101" points="-23.104,-101.801 -30.736,-101.801 -30.736,-100.709 -23.104,-100.709 	"/>
</g>
<g>
	<g>
		<path fill="#FFFFFF" d="M218.465,34.011c-0.358-0.715-0.626-1.43-0.535-2.235c0.177-1.519,1.116-2.367,2.636-2.636
			c-7.15-6.747-19.081-4.557-23.414,3.038h0.669c1.386-0.043,2.726-0.088,4.111-0.178c0.492-0.045,0.894,0.089,0.894,0.624
			c0.044,0.538-0.402,0.671-0.849,0.715c-0.268,0-0.581,0.045-0.849,0.045c-0.492,0-0.67,0.09-0.492,0.67
			c1.833,5.407,3.62,10.813,5.452,16.22c0.312-0.223,0.312-0.492,0.357-0.715c0.982-2.905,1.922-5.809,2.949-8.713
			c0.179-0.491,0.134-0.893-0.044-1.384c-0.626-1.609-1.251-3.172-1.743-4.781c-0.267-0.939-0.715-1.43-1.743-1.341
			c-0.447,0.045-0.983-0.089-0.938-0.67c0.045-0.669,0.536-0.669,1.072-0.625c2.01,0.179,4.021,0.179,6.032,0.133
			c0.625-0.043,1.208-0.088,1.832-0.133c0.447-0.044,0.715,0.179,0.715,0.625c0.045,0.403-0.224,0.626-0.625,0.67
			c-0.312,0.045-0.671,0.09-0.982,0.09c-0.626,0-0.761,0.179-0.537,0.804c1.162,3.396,2.279,6.747,3.441,10.143
			c0.668,1.922,1.295,3.888,1.965,5.809c0.983-2.814,1.876-5.674,2.637-8.489c0.491-1.877,0.134-3.665-0.761-5.361
			C219.313,35.53,218.866,34.771,218.465,34.011z"/>
		<path fill="#FFFFFF" d="M228.428,39.774c-0.357-9.606-9.025-17.604-18.767-17.291c-10.455,0.357-18.23,8.757-17.872,19.347
			c0.312,9.651,9.025,17.694,18.767,17.337C221.057,58.81,228.786,50.364,228.428,39.774z M210.064,58.362
			c-9.65-0.044-17.47-7.908-17.426-17.56c0-9.651,7.864-17.47,17.471-17.47c9.651,0,17.516,7.864,17.516,17.515
			C227.58,50.498,219.714,58.362,210.064,58.362z"/>
	</g>
	<path fill="#FFFFFF" d="M210.377,42.232c1.207,3.217,2.278,6.256,3.395,9.294c0.448,1.251,0.895,2.457,1.342,3.708
		c0.134,0.358,0.089,0.536-0.312,0.626c-2.86,0.848-5.721,0.938-8.624,0.223c-0.491-0.133-0.581-0.268-0.403-0.714
		C207.383,51.034,208.858,46.7,210.377,42.232z M203.183,54.877c-7.507-3.396-10.902-12.958-7.417-20.375
		C198.269,41.293,200.726,48.042,203.183,54.877z M224.229,33.876c4.021,8.222,0.044,17.069-5.942,20.286
		c-0.226-0.179-0.046-0.357,0.043-0.536c1.61-4.602,3.172-9.25,4.782-13.852c0.581-1.698,0.938-3.439,0.938-5.272
		C224.004,34.278,223.782,34.011,224.229,33.876z"/>
	<path fill="#FFFFFF" d="M224.229,33.876c-0.268,0.179-0.045,0.492-0.18,0.671c-0.134-0.313-0.18-0.671-0.088-1.028
		C224.139,33.564,224.184,33.698,224.229,33.876z"/>
</g>
<g>
	<path fill="#FFFFFF" d="M78.403,48.33c0-0.357,0-0.713,0.035-1.069c0.213-0.464,0.071-0.927,0.106-1.391
		c0.036-0.535-0.106-1.069,0.107-1.604c0-0.427,0-0.854,0.036-1.282c0.214-0.393,0.071-0.821,0.107-1.212
		c0.036-0.606-0.107-1.212,0.106-1.782v-1.497c0.286-0.927-0.071-1.889,0.214-2.78c0-0.427,0-0.855,0.036-1.283
		c0.214-0.428,0.071-0.927,0.107-1.354c0.036-0.464-0.107-0.963,0.107-1.426v-1.709c0.285-0.856-0.071-1.747,0.215-2.566
		c0.07-0.749-0.107-1.498,0.249-2.209c0.143,0.106,0.32,0.176,0.428,0.32c1.069,1.354,2.387,2.209,4.205,2.032
		c0.713-0.072,0.927,0.321,1.035,1.033c1.105,7.591,2.246,15.183,3.35,22.774c0.142,0.963,0.285,1.924,0.427,2.852
		c0.072,0.462-0.035,0.677-0.57,0.784c-3.386,0.677-6.771,1.425-10.158,2.138c-0.784-0.214-0.32-0.892-0.463-1.32
		c0.286-0.925-0.071-1.888,0.214-2.779c0-0.5,0-0.998,0.036-1.497c0.213-0.641,0.036-1.283,0.107-1.924
		C78.367,49.042,78.224,48.65,78.403,48.33z"/>
	<path fill="#FFFFFF" d="M79.721,25.019c-0.428-0.319-0.82-0.035-1.211,0.072c-0.357,0.107-0.57,0.107-0.749-0.321
		c-0.677-1.675-1.64-3.03-3.671-3.136c-0.107,0-0.214-0.071-0.285-0.142c-1.568-1.497-3.171-0.962-4.705,0
		c-1.853,1.141-3.136,2.886-3.634,4.917c-0.643,2.532-1.997,3.814-4.492,4.134c-0.713,0.071-0.998,0.606-1.104,1.355
		c-0.82,6.665-1.64,13.33-2.603,19.996c-0.178,1.282,0.286,1.425,1.283,1.638c5.596,0.998,11.155,2.104,16.752,3.136
		c1.033,0.178,2.032,0.642,3.136,0.357c-0.107-0.5-0.178-0.963-0.178-1.461c0.035-0.892-0.108-1.783,0.143-2.673
		c0.106-0.5,0.106-0.998,0.071-1.497c-0.036-0.606,0-1.212,0-1.818c0-0.428,0-0.82,0.141-1.212c0.072-0.356,0.108-0.712,0.108-1.069
		v-1.247c0-0.607-0.072-1.177,0.142-1.748c0.072-0.427,0.108-0.854,0.108-1.247c-0.036-0.356,0-0.712,0-1.069
		c0-0.641-0.072-1.318,0.142-1.96c0.107-0.5,0.107-0.998,0.072-1.497c0.035-0.927-0.143-1.853,0.106-2.743
		c0.071-0.429,0.107-0.856,0.107-1.283c-0.036-0.428,0-0.856,0-1.284c0-0.534-0.036-1.069,0.143-1.604
		c0.105-0.535,0.105-1.105,0.071-1.674c0-0.856-0.107-1.711,0.106-2.566C79.792,26.481,79.935,25.769,79.721,25.019L79.721,25.019z
		 M73.591,23.986c0.534,2.138,0.356,2.566-1.712,3.172c-0.498,0.143-0.998,0.285-1.603,0.463c0.462-1.64,1.033-2.994,2.316-3.992
		C73.056,23.237,73.376,23.201,73.591,23.986z M72.343,21.99c-0.605,0.606-1.318,1.034-1.817,1.676
		c-0.713,0.961-1.284,2.03-1.497,3.172c-0.179,1.033-0.713,1.532-1.71,1.71c-0.428,0.071-0.855,0.249-1.32,0.393
		C66.463,25.127,69.669,21.562,72.343,21.99z M73.875,34.394c-0.143,0.285-0.214,0.605-0.32,0.891c-0.25,0.749-0.32,1.71-0.82,2.174
		c-0.5,0.462-1.318-0.32-2.066-0.32c-0.393,0-0.785-0.036-1.177,0c-0.785,0.071-1.462,0.427-1.712,1.246
		c-0.25,0.82,0.179,1.391,0.784,1.854c0.892,0.713,1.925,1.249,2.673,2.139c1.676,1.924,1.71,4.099,0.785,6.308
		c-0.892,2.068-2.603,2.958-4.812,2.887c-1.675,0-3.136-0.535-4.49-1.532c-0.535-0.392-0.784-0.749-0.5-1.425
		c0.286-0.678,0.25-1.748,0.748-2.068c0.571-0.393,1.177,0.641,1.854,0.82c0.178,0.036,0.32,0.143,0.499,0.179
		c0.856,0.25,1.71,0.499,2.317-0.427c0.463-0.713,0.214-1.712-0.607-2.497c-0.32-0.284-0.641-0.569-0.998-0.819
		c-3.527-2.566-2.245-7.235,0.108-9.088c2.138-1.64,4.527-1.997,7.093-1.462C73.947,33.432,74.232,33.752,73.875,34.394z
		 M75.444,26.018c-0.464,0.214-0.428-0.179-0.428-0.463c0-0.855-0.179-1.676-0.392-2.602c1.283,0.392,1.781,1.354,1.996,2.316
		C76.798,26.018,75.872,25.804,75.444,26.018z"/>
	<path fill="#FFFFFF" d="M78.188,52.82c-0.07,0.927,0.25,1.889-0.213,2.78C78.117,54.708,77.76,53.747,78.188,52.82z"/>
	<path fill="#FFFFFF" d="M79.044,35.642c-0.071,0.926,0.249,1.889-0.214,2.779C78.973,37.495,78.615,36.532,79.044,35.642z"/>
	<path fill="#FFFFFF" d="M79.472,27.265c-0.071,0.855,0.213,1.746-0.214,2.566C79.4,28.976,79.079,28.085,79.472,27.265z"/>
	<path fill="#FFFFFF" d="M78.83,39.917v1.925c-0.072,0.108-0.143,0.108-0.215,0C78.723,41.237,78.438,40.559,78.83,39.917
		L78.83,39.917z"/>
	<path fill="#FFFFFF" d="M78.403,49.398c-0.072,0.642,0.212,1.319-0.215,1.96v-1.925C78.26,49.291,78.331,49.291,78.403,49.398z"/>
	<path fill="#FFFFFF" d="M78.615,44.229v1.712c-0.071,0.107-0.141,0.107-0.177,0C78.509,45.37,78.224,44.765,78.615,44.229z"/>
	<path fill="#FFFFFF" d="M79.257,31.542v1.499c-0.071,0.105-0.143,0.105-0.179,0C79.15,32.541,78.865,32.006,79.257,31.542z"/>
	<path fill="#FFFFFF" d="M79.079,33.04h0.179c-0.036,0.427,0.179,0.89-0.179,1.282V33.04z"/>
	<path fill="#FFFFFF" d="M78.438,45.941h0.177c-0.035,0.428,0.179,0.89-0.177,1.282V45.941z"/>
	<path fill="#FFFFFF" d="M78.651,41.842h0.213c-0.035,0.356,0.144,0.784-0.178,1.069C78.651,42.591,78.651,42.234,78.651,41.842z"/>
	<path fill="#FFFFFF" d="M78.403,49.398h-0.215c0.036-0.357-0.142-0.748,0.179-1.069C78.403,48.685,78.403,49.042,78.403,49.398z"/>
	<path fill="#FFFFFF" d="M79.792,25.127l-0.428-0.072l-1.782,32.006c1.818-0.143,1.282-0.428,1.212-0.393l1.247-30.294
		L79.792,25.127z"/>
</g>
<path id="shipping-box-11_7_" fill="#FFFFFF" d="M138.939,44.983l0.44,0.252v2.207l-0.44-0.252V44.983z M135.309,45.123l0.44,0.253
	v-2.21l-0.44-0.25V45.123z M143.966,26.775l12.557,7.077v14.792l-13.178,6.415l-12.536-7.121V33.145L143.966,26.775z M143.97,29.717
	l-9.146,4.105L137.011,35l9.028-4.113L143.97,29.717z M144.951,51.201l9-4.049V36.623l-9,4.165V51.201z M143.644,38.576l8.819-4.063
	l-2.629-1.501l-8.765,4.167L143.644,38.576z M133.381,46.444l9,5.122v-10.75l-2.573-1.386v3.67l-3.856-2.17v-3.578l-2.571-1.388
	V46.444z M139.689,47.619l0.448,0.25v-2.202l-0.448-0.255V47.619z M137.882,46.589l0.443,0.253v-2.207l-0.443-0.253V46.589z
	 M137.145,46.17l0.44,0.251v-2.207l-0.44-0.251V46.17z M136.396,45.741l0.447,0.257v-2.206l-0.447-0.258V45.741z"/>
</svg>
