<svg id="Layer_1" xmlns="http://www.w3.org/2000/svg" viewBox="0 0 450 450"><style>.st0{fill:#C2DEFF;} .st1{fill:#FFFFFF;} .st2{fill:#004A6E;} .st3{fill:#27477C;} .st4{fill:#004A6E;stroke:#FFFFFF;stroke-width:8;stroke-miterlimit:10;}</style><path class="st0" d="M131.8 135.4l7.3 8.4 7.7 8.5 3 17.4-29.6-17.4-2.7-13.1zM330.3 125.5l-12.2 1-28.6 22.2 20.8 4.6 20.9-14.2zM381.6 99.5l12.3 1.7-1.2 12.1-2.4 1.2-10.8-14.4zM91 81.7l-11.2 1.1s0 14.4 1.3 13.3c1.3-1.1 13.3-13.3 13.3-13.3L91 81.7z"/><path class="st1" d="M158 136.6c-.5-2.4-2.7-3.9-4.8-4.8-1.2-.5-2.5-.8-3.7-1.1l-1.5-.3c.1-1.5-.6-2.8-2.7-3.5-3.5-1.2-5.8 2-5.4 5-.4.4-.7.9-1 1.2-.4.5-.5 1-.5 1.5-2.9.5-4.5 4.8-1.3 6.6 1.8 1 3.5 2 5.3 2.9.4.2 1.2.6 2 .9-.4 1.8.5 4 2.5 4.3s4 .3 5.5-1.3c.8-.9 1.1-2 1.1-3.2 2.3-2.3 5.3-4.6 4.5-8.2zM176.8 130c-4.6-4.8-9.4-9.4-14.5-13.7-3.9-3.2-10-9.5-15.4-6.1-.1 0-.1.1-.2.1-2.1-1-5.2 0-5.2 3.1 0 3.5.3 7 2.2 10 2 3.1 5.3 5 8.4 6.9 3.2 2 6.5 4.8 10.1 5.9 3.7 1.2 8.3.1 12.1-.1 3-.2 4.7-3.8 2.5-6.1zM348.6 153.8c-2.3 0-4.6.1-6.8.8-.1 0-.3.1-.4.2-.2 0-.4.1-.6.1-2.1.7-4.1 1.6-5.9 2.9-1.1.7-1.6 1.9-1.6 3-.7.4-1.4.8-2.2 1.3-2.9 1.6-5.8 3.2-8.8 4.8-2.9 1.5-1.9 5.1.4 6.2-1.2 1.9-2 4.1-2.6 6.5-1 3.9 4.4 6.2 6.5 2.7.9-1.5 2.1-2.7 3.4-3.6.5 0 1.1-.1 1.6-.4 1.6-.8 3.2-1.7 4.6-2.7 1.6-.6 3.3-1.2 4.8-1.9 6.7-2.8 8.4-9 11-15.3.9-2.3-1.3-4.7-3.4-4.6z"/><path class="st2" d="M42.8 210.8c.1 0 .3-.1.6-.1-.3 0-.5.1-.6.1zM228.2 405.3c-1 0-1.8-.8-1.8-1.8v-55.1c0-.8.5-1.4 1.2-1.7l130.3-42.3c.5-.2 1.1-.1 1.6.3.5.3.7.9.7 1.4V365c0 1-.8 1.8-1.8 1.8s-1.8-.8-1.8-1.8v-56.5L230 349.7v53.8c0 1-.8 1.8-1.8 1.8z"/><path class="st2" d="M228.2 405.3c-1 0-1.8-.8-1.8-1.8v-53.8L99.7 308.5v62.1c0 1-.8 1.8-1.8 1.8s-1.8-.8-1.8-1.8v-64.5c0-.6.3-1.1.7-1.4.5-.3 1.1-.4 1.6-.3l130.3 42.3c.7.2 1.2.9 1.2 1.7v55.1c.1 1-.7 1.8-1.7 1.8z"/><path class="st1" d="M172.2 241.7c-.6.7-1.2 1.3-1.8 1.8-1-.8-2.3-1.1-4-.5-8.7 3-17.5 6-26.2 8.9-3.5 1.2-3.9 5-2.5 7.4-2.6 2.4-5.1 4.9-7.6 7.4-.9.9-1.3 1.9-1.4 2.9-2.5 2.4-4.5 5.2-6.1 8.3-1 .6-1.7 1.5-2 2.7-.7 3.2-1.2 6.5-2.1 9.6-.6 2 .1 3.6 1.3 4.7.6 2 2.2 3.5 4.5 3.5 2.4 0 5-2.2 4.7-4.7-.6-6.8 1.6-13.3 6.7-17.9 2.2-2 4.9-3.4 7.7-4.3 3.2-.9 6.9-.3 9.9-1.6 3.2-1.4 3.8-4.3 5.6-6.9 1.4-2 3.5-3.4 5.6-4.7 5-3 10.4-5.4 14.2-10 4.1-4.5-2.6-11.2-6.5-6.6zM311.6 158.4c-25 6.6-45.8 22.6-62.2 42.1-8.6 8-15.1 17.8-19.3 28.9-1 2.6 1.2 4.3 3.4 4.3.6 4.5 1.9 8.9 4 13 2 4.1 8.2.5 6.1-3.6-1.1-2.1-1.9-4.3-2.4-6.6 1.1-.2 2-1 2.3-2.5 1.8-8.8 6.5-16.5 11.9-23.5 5.1-6.6 10.8-12.8 17-18.5 12.3-11.4 26.6-20.5 42-27.2 3.7-1.6 1-7.4-2.8-6.4z"/><path class="st2" d="M279.8 163.4H174.5c-.6 0-1.2-.3-1.5-.9-.3-.6-.3-1.2 0-1.8 3.8-6.6 10.9-10.6 18.5-10.6 1.5 0 2.9.1 4.3.4 1-7.3 8.9-12.9 18.4-12.9 1.1 0 2.1.1 3.2.2 2.3-10.3 11.6-17.9 22.3-17.9 12.6 0 22.8 10.2 22.8 22.8 0 .7 0 1.5-.1 2.2 9.2.7 16.9 7.2 19.1 16.2.1.5 0 1.1-.3 1.5-.4.6-.9.8-1.4.8zM178 159.9h99.4c-2.6-6.8-9.2-11.4-16.6-11.4h-.3c-.5 0-1-.2-1.4-.6-.3-.4-.5-1-.4-1.5.2-1.2.3-2.4.3-3.6 0-10.6-8.7-19.3-19.3-19.3-9.6 0-17.8 7.1-19.1 16.6-.1.5-.3.9-.7 1.2s-.9.4-1.4.3c-1.4-.3-2.8-.5-4.3-.5-8.3 0-15 4.9-15 11v.5c0 .6-.2 1.2-.7 1.5-.5.4-1.1.5-1.6.3-1.8-.6-3.6-.9-5.5-.9-5.2.1-10.1 2.5-13.4 6.4z"/><path class="st2" d="M227.2 148.7c-.7 0-1.4-.4-1.7-1.2-.1-.2-1.9-4.9-7-6-1-.2-1.6-1.1-1.4-2.1.2-1 1.1-1.6 2.1-1.4 7.1 1.5 9.5 8 9.6 8.2.3.9-.1 1.9-1.1 2.3-.1.2-.3.2-.5.2zM97.9 307.9c-.6 0-1.2-.3-1.5-.9l-20.5-34c-.3-.5-.3-1-.1-1.5.2-.5.6-.9 1.1-1.1l130.3-42.3c.8-.3 1.6.1 2.1.8l20.5 34c.3.5.3 1 .1 1.5s-.6.9-1.1 1.1L98.4 307.8c-.1 0-.3.1-.5.1zm-17.8-34.8L98.7 304l126.8-41.2-18.6-30.9-126.8 41.2z"/><path class="st1" d="M188.3 271.1c-3.2 1.8-7 2.1-10.4 3.1-3.5 1-6.8 2.5-10.1 4-4.5 2.1-9.1 4.5-13.9 5.8-.7-.3-1.5-.4-2.4-.1-1.3.4-2.7.8-4 1.3-.5.1-.9.2-1.3.4-4 1.3-8 2.8-12 4.4-4.2 1.7-2.3 8.6 1.9 6.8 4.1-1.7 8.3-3.3 12.6-4.7.3 2.1 2.7 4.2 5.4 3 11.7-5.4 23.9-9.8 36.4-13.3 2.6-.7 3-3.3 2-5.1 3-2.3-.4-7.8-4.2-5.6zM238.7 252.7c-3-7.2-6.1-14.3-9.3-21.4-.1-.2-.1-.3-.2-.5 0-.1-.1-.1-.1-.2 0 0 0-.1-.1-.1-8.2-16.1-16.7-32.1-27.6-46.6-4.1-5.4-8.5-10.4-13.1-15.2.2-1 0-2.2-.9-3.1-3.4-3.6-7.3-6.5-11.6-8.9-4.8-4.4-9.7-8.6-14.5-12.9-3.4-3-8.4 2-5 5 3.7 3.3 7.4 6.5 11 9.8-.3.8-.2 1.8.4 2.8 4.4 6.7 8.5 13.6 12.3 20.7 3.8 7.1 5.8 14.1 6.6 22.1.8 7.9.5 15.6-1.6 23.3-2.1 7.5-5.4 14.5-9.3 21.2-1.3 2.3.3 5.4 3.1 5.3 5.2-.2 9.7 1.7 13.1 5.6 1.2 1.3 2.6 1.4 3.8.8 1.2 1.5 2.4 3.1 3.3 4.8 2.1 3.8 2.3 9.5 6.6 11.5 3.8 1.8 8.1-.1 12.1 1 4.2 1.2 7.5 4.5 8.8 8.6 1.3 4.4 8.2 2.5 6.8-1.9-3.1-9.9-12.2-14.8-22.1-14.1-.8.1-2.1.3-2.7-.2-.5-.5-.7-2.5-1-3.2-.9-2.4-2-4.7-3.3-6.9-2.1-3.4-4.8-6.4-7.9-8.9-.2-.3-.3-.7-.5-1-2.6-20.9 3.1-43.1-1.4-63.5.5.6 1 1.2 1.4 1.9 8.7 11.7 15.8 24.3 22.5 37.1 0 .5.1 1 .4 1.5 4.4 9 7.5 18.4 9.6 28.2.6 3 3.9 3.1 5.7 1.6 2.6.7 5.9-1.1 4.7-4.2zm-51.2-11.8l.6-1.5v2c-.1-.2-.3-.4-.6-.5z"/><path class="st2" d="M358.5 307.9c-.2 0-.4 0-.5-.1l-130.3-42.3c-.5-.2-.9-.6-1.1-1.1-.2-.5-.1-1.1.1-1.5l20.5-34c.4-.7 1.3-1 2.1-.8l130.3 42.3c.5.2.9.6 1.1 1.1s.1 1.1-.1 1.5L360 307c-.3.5-.9.9-1.5.9zm-127.6-45.1L357.7 304l18.6-30.9-126.8-41.2-18.6 30.9z"/><path class="st1" d="M350.4 292.8c-.9-.9-2.2-1.2-3.4-.9-1.8-1.7-3.8-3-6.3-3.8-2.6-.8-5 1.8-4.4 4.4.7 2.5 1.3 4.8-.9 6.7-1.5 1.3-3.6 2.2-5.4 3.1-4.8 2.6-9.7 5.1-14.7 7.3-10.1 4.6-20.7 8-31.3 11.2-5.3 1.6-10.6 3.1-15.9 4.7-2.5.7-4.9 1.4-7.4 2.2-1.6.5-2 .7-3.4-.2-1-.7-1.9-1.4-3-1.9-9.1-4.3-18.8 0-26.2 5.6-3.1 2.3-1.1 7.1 2 6.7-.1.5-.3 1.1-.3 1.6v.6c-.1.1-.2.2-.3.2-8.6-2.6-17.3-5.2-25.9-7.9-5.2-1.6-10-3.8-15-5.9.1-.1.1-.3.2-.4 1.7-4.1 6.5-9.4 11.3-9.7 2.2-.1 2.9 2.9 3.6 4.6 1.4 3.3 2.8 6.7 4.2 10 1.2 2.9 5.9 3.8 6.8 0 2-8.2 12.9-6.3 18.8-5.1 4.5.9 6.4-5.9 1.9-6.8-5.9-1.2-12.3-2.4-18.1-.1-2 .8-3.8 1.9-5.3 3.3-1-2.4-2-4.8-3.1-7.1-1.8-3.5-4.8-6.2-8.9-5.9-5.3.3-10 3.4-13.5 7.5-1.7-8.3-6.6-15.9-15.4-17.9-10.1-2.3-20.7 6.2-18.1 16.9-4.3-1.1-8.5-2.1-12.8-3.2-4-1-8.4-1.6-11.9-3.9-3.8-2.6-7.3 3.5-3.6 6.1 3.4 2.3 7.4 3.1 11.3 4.1 4.5 1.1 9 2.2 13.4 3.3 8.9 2.2 17.8 4.2 26.5 7 8.4 2.7 16.1 7 24.5 9.7 9.3 3 18.6 5.7 27.9 8.5 1.4.4 2.5 0 3.3-.7.2 0 .5-.1.8-.2 21.8-7.4 43.7-14.7 65.5-22.1 10.5-3.5 21-7.1 31.7-10.3 4.7-1.4 9.4-2.6 13.3-5.8 1.6-1.3 2.9-2.9 4.1-4.5 1.6 2.2 5.7 1.8 6.3-1.1.5-3.8-.3-7.1-2.9-9.9zm-191.5 24.4c.3-.4.6-.8.8-1.3 1.6-5.3 11.5-6.2 14.9-2.4 2.4 2.7 3.6 6.2 5.2 9.5l-.9-.3c-6.7-2.2-13.3-3.8-20-5.5zm87.8 16.9c.5-.4.9-.8 1.4-1.2.5-.5.8-1.1.9-1.7 1 .2 2 .6 3 1.2-1.8.6-3.6 1.1-5.3 1.7zM267.1 208.5c-4.8 4.2-9.6 8.3-14.5 12.5-4.1 3.6-9.1 6.9-12 11.7-.1.2-.3.5-.3.7-2.8 2.9-5.2 6.3-7.5 9.5-1.8 2.4-4.1 5-5.5 7.8-4.2-5.8-9.3-11-13.6-16.7-3.2-4.3-6.2-8.8-9.2-13.3-2.9-4.5-6.1-9-7.7-14.1-.1-.3-.2-.6-.4-.8v-.4c.2-4.6-6.9-4.6-7.1 0-.2 3.3.2 6.5 1.1 9.5-.6.6-1 1.4-1.1 2.4-.4 4.2-.9 8.5-1.4 12.7h-.1c-1.4-.3-2.8.2-3.7 1.6-1.4 2.4-2.4 4.9-3.2 7.6-.1.4-.2.8-.1 1.2-.7 1.3-1.5 2.3-2.4 3.7-1.2 1.8-1.8 3.8-.8 5.9 1.8 3.9 6.7 3.2 10.1 4.5 2.2.8 4.5 1.9 6.6 3.1 2.1 1.9 4.2 3.5 5.8 4.5.2.1.5.3.7.4-.3.6-.4 1.4-.1 2.2.2 1 .5 2 .7 3v.4c-.1 2 .1 3.9.5 5.8.6 3.3 6 3.4 6.8.1.4-.1.8-.3 1.2-.5 1.1.3 2.3.1 3.2-.6.9.4 1.9.4 2.7-.1 2.4.5 4.7 1.1 6.8 2.2 2.9 1.5 4.8 3.9 7 6.1l.3 2.1c.2 1.5 2 2.7 3.4 2.6.6 0 1.2-.2 1.7-.4.9 0 1.7-.3 2.4-1 .1 0 .1 0 .2-.1 1.8-.6 3-2.5 2.5-4.4-.3-.9-.5-1.8-.7-2.7-.1-.5-.3-.9-.6-1.3 1.4-4.6 4-8.5 7.1-12.4l.1-.1c.2-.2.4-.4.5-.7.3-.4.6-.9.8-1.3 2.3-1.5 4.9-2.5 7.6-3.2 2.6-.6 5-1.6 5.8-4.4.8-2.9.4-6.5.4-9.5 0-.7-.2-1.4-.6-1.9.4-.4.7-.9.9-1.6 1-4 1.8-8 2.5-12 .1-.4.1-.8 0-1.2l.9-2.1c2.1-2.4 3.9-5.1 5.5-7.8.6-.9.7-1.8.5-2.6.6-.8 1.1-1.6 1.7-2.3 2.8-3.4-2.5-6.8-5.4-4.3zm-46.3 54.9c-3.9-.5-7.9-2.7-11.4-4.5-3.2-1.6-6.3-3.4-9.1-5.7-1.2-1-7.5-6.7-5.7-8.3.3-.3.6-.7.8-1 2.7.6 5.4.2 8.1.5 3.1.4 5.8 1.5 8.3 3.2 1.8 1.2 3.5 2.5 5.1 4 1.6 4 3.3 8 5.1 11.9-.4 0-.8 0-1.2-.1z"/><path class="st1" d="M348.2 291.9c-.9-.1-1.6.1-2.1.5-.7.1-1.3.2-1.9.5-.3-.2-.7-.3-1.1-.4-.7-.9-1.9-1.4-3.1-1.3-.8-.4-1.6-.5-2.5-.2-2.6 1-4.9 2.4-6.9 4-1.1-.2-2.2-.5-2.8-.7-3.2-1.1-6.3-2.5-9.6-3.4-3.1-.9-6.1-1.8-8.8-3.5-1.6-1-3-1.9-4.5-2.6.3-1 .3-2.1 0-3.2-.5-1.9-1.7-3.4-3-4.8-.9-1-2.3-1.2-3.6-.9-1.3-1.1-3.1-1.3-4.6.2-1.3 1.4-2.4 2.8-3.3 4.3-2.6-.7-5-2.3-7.3-3.6-3.2-1.8-6.4-3.1-10.1-3.6-2.1-.3-4.2-.6-6.2-1-.5-1.9-1.6-3.6-3.8-4h-.2c0-.6-.1-1.3-.2-2-.5-2.5-4.1-3.4-5.8-1.7-1.3.1-2.4.9-3.3 2-.5-.2-.9-.3-1.4-.4-4.4-1.2-6.3 5.7-1.9 6.8h.1c0 .1-.1.2-.1.3-.8 3.1 2.5 5.5 5.2 4l.1-.1c.1.1.1.1.1.2 1.2 1.4 3.5 1.2 4.8.2h.2c.8 1 2.2 1.4 3.5 1.2 2.6.7 5.2.9 7.9 1.4 5.7.9 10.2 4.8 15.5 6.7-.2 2 1.6 3.6 3.5 3.7l.3.3c1 2.4 4.7 3.5 6.4.7.3-.6.7-1.1 1-1.7.5.3 1 .5 1.7.6 1.9.2 3.7 1.9 5.3 2.9 1.7 1 3.4 1.8 5.3 2.5 3.9 1.5 8 2.4 11.9 3.9.9.4 1.9.7 2.9 1 0 2.2 2.3 4.5 4.5 3.6 1.5-.6 3-1.3 4.4-2.1 1.1 1.4 3 2.2 4.6 1 1.1-.8 2.2-1.7 3.2-2.7 1 .3 2.2 0 3.2-.9.7-.7 1.2-.6 2.1-.3 2.2.7 4.6-1.2 4.5-3.4.1-2.3-1.6-3.7-4.1-4z"/><path class="st1" d="M278.2 272.2c-.2-.2-.4-.5-.5-.7.2-2.2-1.6-4.7-4.4-4-8.1 2.1-13.9 9.7-13.8 18.1 0 3.3 3.7 4.2 5.7 2.8 1.1-.5 1.9-1.5 2-3.1.1-3.4 1.7-6.8 4.5-8.8l.1.1c.6.6 1.6 1.1 2.5 1 .3 0 .6-.1.9-.1.6 0 1.2-.2 1.8-.5.5-.3 1-.7 1.3-1.3.5-1 .6-2.5-.1-3.5zM308.4 286.5c.1-.6.2-1.2.2-1.7-2.5.4-4.9 1.7-7.2 3.2-.8.5-1.7 1.3-2.6 2.1.4 1.3.3 2.8-.5 3.9s-.8 2.7-1.5 3.9c-1 1.7-2.6 2.5-4.4 3-3.5.9-6.6 1.7-8.7 5-1.4 2.2-1.5 4.5-1.1 6.9.2 1.2.4 2.5.7 3.7 1.8.4 3.8-.3 4.2-2.4.2-.9.4-1.8.7-2.7 1.1-2.1 3.6-4.2 5.5-4.7 3.1-.9 6.5 1.6 9.2 2.7 1.8.8 3.8.5 4.9-1.3.9-1.5.5-4.1-1.3-4.9-1.3-.5-2.5-1.1-3.7-1.7-.1-.6-.4-1.1-.8-1.6.2-.4.3-.9.3-1.4 0-.9.1-1.7.2-2.5.5 0 .9-.2 1.3-.4 1.5.5 3.2.1 4.1-1.5.2-.6.5-1 1.1-1.2 2.9-1.6 1.8-5.4-.6-6.4zM355.1 302c.3-1.7-.6-2.9-2-3.4-.7-2.3-3.6-3.8-5.8-1.6l-.4.4c-1-.3-2.2-.1-3.1 1.1l-.1.1c-1.3-1-3.2-1.2-4.6.3-1.5 1.6-2.9 3.2-4.4 4.7-.9 0-1.8.2-2.6.8-4.1 3.2-8.9 5.2-13.7 6.9-5.3 2-10.7 3.9-16 5.8-4.3 1.5-2.4 8.4 1.9 6.8 8.3-3 17.2-5.5 25.1-9.7 1.3 1.3 3.4 1.7 4.9 0l1.6-1.8c.8.2 1.6.2 2.4-.2 1.1.4 2.4.3 3.7-.6 1.1.4 2.5.3 3.7-.7.8-.6 1.5-1.3 2.3-1.9 1 .8 2.5 1 3.9.3l3.3-1.5c2.9-1.1 2.1-4.5-.1-5.8zM194.1 302.9c-3.9-2.8-7-6.6-11.1-9-4-2.3-8.4-1.8-12.7-1.2-4.5 2.2-8.6 5-11.7 9 1 .2 2.1-.1 3-1l.9-.3c.8-.4 1.7-.8 2.7-1.3h.2c4.3-1.2 9-.7 11.9 3 3.1 3.9 4.5 9.4 5 14.3.4 4.5 7.5 4.5 7.1 0 0-.2 0-.4-.1-.7.3-.5.5-1 .5-1.7.1-1.5.1-3-.1-4.5.2-.3.4-.5.6-.8.4-.4.7-.8.9-1.4.5-1.2 1.1-2.4 2-3.4.4-.3.9-.5 1.4-.7-.3-.1-.4-.2-.5-.3zM215.4 289.7c-1.8 1.2-3.8 2.3-5.8 3.2-3.4 2.7-6.2 6.3-9.4 9.2-.3.3-.6.5-1 .7 1.7.2 3.3.3 5.1-.2s3.3-1.5 4.7-2.6c1.5-1.1 2.8-2 4.7-2.2 2.3-.3 4.5 0 6.7-.8 3.3-1.1 5.7-3.6 7.1-6.8-4-.6-8.2-1.5-12.1-.5zM288.5 323.7c-.5-1.6-2-2.7-4-1.9-.5-.5-1.3-.8-2.2-.8-.9-.4-1.8-.6-2.8-.8-.2-.1-.5-.3-.7-.4-.9-.4-1.8-.6-2.7-.6-1.1-.2-2.2-.2-3.3-.1-1.1.1-2.2.3-3.2.7-.6.2-1.5.8-2.1 1.1l-.1-.1c-.4-.3-.7-.6-1.1-.9-.8-.6-1.5-1.1-2.4-1.5-1.8-1-3.7-1.7-5.7-2.1-4.4-.9-8.9-.4-12.9 1.2-3.7 1.2-7.1 3.4-10.4 5.7-1.3.9-2.5 1.8-3.6 2.8-3.5 3.1 1.5 7.8 5 5 .8-.6 1.6-1.2 2.4-1.9 1.1.5 2.5.4 3.6-.9.5-.6 1.1-1.2 1.8-1.7 1.3-.4 2.7-.7 4-.8 2.9-.3 4.5.4 6.6 2.3 1.6 1.5 3.3 2.9 5.1 4.2 3.5 2.6 6.9 3.4 10.7.8.1-.1.2-.1.3-.2.2 0 .5 0 .7-.1 4.4-.7 8.7-1.9 12.9-3.5.5.3 1.1.5 1.8.5 3.4.2 4.2-4 2.3-6z"/><path class="st1" d="M350.4 300.1c-7.7 2.5-15.4 5-23.2 7.5-1.4.4-2.7 1-4.1 1.5-2.3-3.3-6.6-5.1-10.6-4-1.9.5-3.6 1.7-4.8 3.2-.6-.3-1.2-.6-1.7-.8-6-2.4-12.7-2.3-18 1.8-4.7 3.7-7.1 9.4-9.2 14.9-.5-.1-1-.2-1.5-.1-.2 0-.4.1-.6.1-.2-.3-.6-.6-.9-.9-3.9-2.5-8.9-3.4-13.4-2.1-3.4 1-5.7 3-7.8 5.5-.5-.5-1.3-1-1.7-1.2-1.1-.7-2.3-1.3-3.6-1.8-1.7-.6-3.4-.8-5.1-.7h-.1c-3.9-1-7.9-.2-11.1 1.9-2.4-4.5-6.2-8.2-10.8-10.2-.7-.4-1.5-.6-2.2-.8-1.3-.4-2.7-.7-4.1-.8-4.4-.4-9.1.8-12.7 3.2-2.2 1.5-4.6 3.6-5.8 6.2-.8.1-1.7.2-2.5.1-9.2-.6-18.8-3-26.8-7.6-7.8-4.6-15-10.4-23.9-12.7-8.4-2.2-18.3-.7-23.9 6.4-2.8 3.5 2.2 8.6 5 5 .4-.5.8-.9 1.2-1.3.2.1.3.2.5.4.5 1.4 1.9 2.2 3.4 2.4 8.6 1.1 16.6 5.2 24.7 8.2 8.5 3.2 17.2 5.7 26 7.8 8.4 2 16 4.9 23.8 8.5 7.3 3.5 14.6 6.6 22.7 7.5 1.5.2 2.5-.5 3-1.5.6-.2 1.1-.4 1.7-.6.8.6 1.8.9 3.1.6 12.6-3.4 25-7.5 37.1-12.3.7.4 1.6.6 2.7.2 14.4-5.3 28.7-11.2 43.6-15 1-.2 1.6-.7 2-1.4 3.5-1.1 6.9-2.2 10.3-3.4 7.2-2.3 14.3-4.7 21.5-7 4-1.3 2.1-8.2-2.2-6.7z"/><path class="st2" d="M405.5 229.7H299.8c-.5 0-1-.2-1.3-.6-.3-.4-.5-.9-.4-1.4.7-5.9 7-10 16.1-10.6.6-4.3 3.5-7.9 7.6-9.4.9-10.8 10.1-19.4 21.1-19.4 10.3 0 19.1 7.5 20.8 17.4 1.5-.2 3.1-.3 4.7-.3 8.8 0 15.4 2.8 17.8 7.7 1.6.1 3.2.3 4.9.7 10.4 2.1 16.8 7.7 16.2 14.3-.1.9-.9 1.6-1.8 1.6zm-103.3-3.5h101.4c-.8-3.9-5.9-7.4-13.3-8.9-1.9-.4-3.7-.6-5.4-.6-.7 0-1.4-.5-1.6-1.2-1.4-4-7.1-6.4-14.9-6.4-2.1 0-4.1.2-5.9.5-.5.1-1 0-1.4-.3s-.7-.8-.7-1.3c-.8-9-8.5-16.1-17.6-16.1-9.5 0-17.4 7.7-17.6 17.2 0 .8-.6 1.5-1.4 1.7-3.7.9-6.3 4.2-6.3 8 0 1-.8 1.8-1.7 1.8-6.8.1-11.9 2.3-13.6 5.6z"/><path class="st2" d="M352.6 215.7c-.4 0-.9-.2-1.2-.5-.7-.7-.7-1.8-.1-2.5.2-.2 4.4-4.6 10.2-6.6.9-.3 1.9.2 2.3 1.1.3.9-.2 1.9-1.1 2.3-5.1 1.8-8.8 5.7-8.8 5.7-.3.3-.8.5-1.3.5zM332.6 212.7c-.5 0-1-.2-1.4-.7-.9-1.2-3.7-2.6-7.1-1.3-.9.4-1.9-.1-2.3-1s.1-1.9 1-2.3c4.7-1.8 9.2-.2 11.2 2.4.6.8.5 1.9-.3 2.5-.3.2-.7.4-1.1.4zM413.5 251.2c-1 0-1.8-.8-1.8-1.8V243c0-1 .8-1.8 1.8-1.8s1.8.8 1.8 1.8v6.4c-.1 1-.8 1.8-1.8 1.8zM404 255.1c-.5 0-.9-.2-1.3-.5l-4.6-4.6c-.7-.7-.7-1.8 0-2.5s1.8-.7 2.5 0l4.6 4.6c.7.7.7 1.8 0 2.5-.3.4-.7.5-1.2.5zM400.1 264.6h-6.4c-1 0-1.8-.8-1.8-1.8s.8-1.8 1.8-1.8h6.4c1 0 1.8.8 1.8 1.8s-.8 1.8-1.8 1.8zM399.5 278.6c-.5 0-.9-.2-1.3-.5-.7-.7-.7-1.8 0-2.5l4.6-4.6c.7-.7 1.8-.7 2.5 0s.7 1.8 0 2.5l-4.6 4.6c-.3.3-.8.5-1.2.5zM413.5 284.4c-1 0-1.8-.8-1.8-1.8v-6.4c0-1 .8-1.8 1.8-1.8s1.8.8 1.8 1.8v6.4c-.1 1-.8 1.8-1.8 1.8zM427.5 278.6c-.5 0-.9-.2-1.3-.5l-4.6-4.6c-.7-.7-.7-1.8 0-2.5s1.8-.7 2.5 0l4.6 4.6c.7.7.7 1.8 0 2.5-.3.3-.8.5-1.2.5zM433.3 264.6h-6.4c-1 0-1.8-.8-1.8-1.8s.8-1.8 1.8-1.8h6.4c1 0 1.8.8 1.8 1.8s-.8 1.8-1.8 1.8zM422.9 255.1c-.5 0-.9-.2-1.3-.5-.7-.7-.7-1.8 0-2.5l4.6-4.6c.7-.7 1.8-.7 2.5 0s.7 1.8 0 2.5l-4.6 4.6c-.3.4-.7.5-1.2.5zM285.5 91.4c-1 0-1.8-.8-1.8-1.8v-6.4c0-1 .8-1.8 1.8-1.8s1.8.8 1.8 1.8v6.4c0 1-.8 1.8-1.8 1.8zM276.1 95.3c-.5 0-.9-.2-1.3-.5l-4.6-4.6c-.7-.7-.7-1.8 0-2.5s1.8-.7 2.5 0l4.6 4.6c.7.7.7 1.8 0 2.5-.3.3-.8.5-1.2.5zM272.1 104.8h-6.4c-1 0-1.8-.8-1.8-1.8s.8-1.8 1.8-1.8h6.4c1 0 1.8.8 1.8 1.8s-.8 1.8-1.8 1.8zM271.5 118.8c-.5 0-.9-.2-1.3-.5-.7-.7-.7-1.8 0-2.5l4.6-4.6c.7-.7 1.8-.7 2.5 0s.7 1.8 0 2.5l-4.6 4.6c-.3.3-.7.5-1.2.5zM285.5 124.6c-1 0-1.8-.8-1.8-1.8v-6.4c0-1 .8-1.8 1.8-1.8s1.8.8 1.8 1.8v6.4c0 1-.8 1.8-1.8 1.8zM299.6 118.8c-.5 0-.9-.2-1.3-.5l-4.6-4.6c-.7-.7-.7-1.8 0-2.5s1.8-.7 2.5 0l4.6 4.6c.7.7.7 1.8 0 2.5-.3.3-.8.5-1.2.5zM305.4 104.8H299c-1 0-1.8-.8-1.8-1.8s.8-1.8 1.8-1.8h6.4c1 0 1.8.8 1.8 1.8-.1 1-.9 1.8-1.8 1.8zM295 95.3c-.5 0-.9-.2-1.3-.5-.7-.7-.7-1.8 0-2.5l4.6-4.6c.7-.7 1.8-.7 2.5 0s.7 1.8 0 2.5l-4.6 4.6c-.3.3-.7.5-1.2.5zM63 160.2c-1 0-1.8-.8-1.8-1.8V152c0-1 .8-1.8 1.8-1.8s1.8.8 1.8 1.8v6.4c0 1-.8 1.8-1.8 1.8zM53.6 164.1c-.5 0-.9-.2-1.3-.5l-4.6-4.6c-.7-.7-.7-1.8 0-2.5s1.8-.7 2.5 0l4.6 4.6c.7.7.7 1.8 0 2.5-.3.3-.8.5-1.2.5zM49.7 173.6h-6.4c-1 0-1.8-.8-1.8-1.8s.8-1.8 1.8-1.8h6.4c1 0 1.8.8 1.8 1.8s-.9 1.8-1.8 1.8zM49 187.6c-.5 0-.9-.2-1.3-.5-.7-.7-.7-1.8 0-2.5l4.6-4.6c.7-.7 1.8-.7 2.5 0s.7 1.8 0 2.5l-4.6 4.6c-.3.3-.7.5-1.2.5zM63 193.4c-1 0-1.8-.8-1.8-1.8v-6.4c0-1 .8-1.8 1.8-1.8s1.8.8 1.8 1.8v6.4c0 1-.8 1.8-1.8 1.8zM77.1 187.6c-.5 0-.9-.2-1.3-.5l-4.6-4.6c-.7-.7-.7-1.8 0-2.5s1.8-.7 2.5 0l4.6 4.6c.7.7.7 1.8 0 2.5-.3.3-.8.5-1.2.5zM82.9 173.6h-6.4c-1 0-1.8-.8-1.8-1.8s.8-1.8 1.8-1.8h6.4c1 0 1.8.8 1.8 1.8s-.8 1.8-1.8 1.8zM72.5 164.1c-.5 0-.9-.2-1.3-.5-.7-.7-.7-1.8 0-2.5l4.6-4.6c.7-.7 1.8-.7 2.5 0s.7 1.8 0 2.5l-4.6 4.6c-.3.3-.7.5-1.2.5zM202.7 48.1c-1 0-1.8-.8-1.8-1.8v-6.4c0-1 .8-1.8 1.8-1.8s1.8.8 1.8 1.8v6.4c-.1 1-.9 1.8-1.8 1.8zM193.2 52c-.5 0-.9-.2-1.3-.5l-4.6-4.6c-.7-.7-.7-1.8 0-2.5s1.8-.7 2.5 0l4.6 4.6c.7.7.7 1.8 0 2.5-.3.4-.8.5-1.2.5zM189.3 61.5h-6.4c-1 0-1.8-.8-1.8-1.8s.8-1.8 1.8-1.8h6.4c1 0 1.8.8 1.8 1.8-.1 1-.9 1.8-1.8 1.8zM188.6 75.5c-.5 0-.9-.2-1.3-.5-.7-.7-.7-1.8 0-2.5l4.6-4.6c.7-.7 1.8-.7 2.5 0s.7 1.8 0 2.5l-4.6 4.6c-.3.4-.7.5-1.2.5zM202.7 81.3c-1 0-1.8-.8-1.8-1.8v-6.4c0-1 .8-1.8 1.8-1.8s1.8.8 1.8 1.8v6.4c-.1 1-.9 1.8-1.8 1.8zM216.7 75.5c-.5 0-.9-.2-1.3-.5l-4.6-4.6c-.7-.7-.7-1.8 0-2.5s1.8-.7 2.5 0l4.6 4.6c.7.7.7 1.8 0 2.5-.3.4-.8.5-1.2.5zM222.5 61.5H216c-1 0-1.8-.8-1.8-1.8s.8-1.8 1.8-1.8h6.4c1 0 1.8.8 1.8 1.8.1 1-.7 1.8-1.7 1.8zM212.1 52c-.5 0-.9-.2-1.3-.5-.7-.7-.7-1.8 0-2.5l4.6-4.6c.7-.7 1.8-.7 2.5 0s.7 1.8 0 2.5l-4.6 4.6c-.3.4-.7.5-1.2.5zM29.8 323.1c-1 0-1.8-.8-1.8-1.8v-6.4c0-1 .8-1.8 1.8-1.8s1.8.8 1.8 1.8v6.4c0 1-.8 1.8-1.8 1.8zM20.4 327.1c-.5 0-.9-.2-1.3-.5l-4.6-4.6c-.7-.7-.7-1.8 0-2.5s1.8-.7 2.5 0l4.6 4.6c.7.7.7 1.8 0 2.5-.3.3-.8.5-1.2.5zM16.5 336.5H10c-1 0-1.8-.8-1.8-1.8S9 333 10 333h6.4c1 0 1.8.8 1.8 1.8s-.8 1.7-1.7 1.7zM15.8 350.5c-.5 0-.9-.2-1.3-.5-.7-.7-.7-1.8 0-2.5l4.6-4.6c.7-.7 1.8-.7 2.5 0s.7 1.8 0 2.5L17 350c-.3.4-.7.5-1.2.5zM29.8 356.4c-1 0-1.8-.8-1.8-1.8v-6.4c0-1 .8-1.8 1.8-1.8s1.8.8 1.8 1.8v6.4c0 1-.8 1.8-1.8 1.8zM43.9 350.5c-.5 0-.9-.2-1.3-.5l-4.6-4.6c-.7-.7-.7-1.8 0-2.5s1.8-.7 2.5 0l4.6 4.6c.7.7.7 1.8 0 2.5-.3.4-.8.5-1.2.5zM49.7 336.5h-6.4c-1 0-1.8-.8-1.8-1.8s.8-1.8 1.8-1.8h6.4c1 0 1.8.8 1.8 1.8s-.8 1.8-1.8 1.8zM39.3 327.1c-.5 0-.9-.2-1.3-.5-.7-.7-.7-1.8 0-2.5l4.6-4.6c.7-.7 1.8-.7 2.5 0s.7 1.8 0 2.5l-4.6 4.6c-.3.3-.7.5-1.2.5zM336.1 78.3c-1 0-1.8-.8-1.8-1.8V62.4c0-1 .8-1.8 1.8-1.8s1.8.8 1.8 1.8v14.1c0 1-.8 1.8-1.8 1.8z"/><path class="st2" d="M343.1 71.2H329c-1 0-1.8-.8-1.8-1.8s.8-1.8 1.8-1.8h14.1c1 0 1.8.8 1.8 1.8s-.8 1.8-1.8 1.8z"/><path class="st1" d="M280.4 267.5c-2.9-4.1-6.4-7.8-11.2-9.5-4.7-1.7-10.6-1.4-15.3.3-8.2 2.9-13 10.6-12.7 18.9-.1 0-.2.1-.2.1-.1.1-.2.1-.3.2-1.1.6-1.8 1.8-1.8 3.1 0 .9.2 1.7.7 2.5.9 1.7 3.2 2.2 4.8 1.3h.2c.6.1 1.3 0 1.9-.2.1 0 .2-.1.3-.1.4.4.9.7 1.5.9-.7-2.4-.9-4.9-.5-7.6.7-4.7 2.7-10.6 6.2-14 4-3.9 10.5-4.6 15.5-2.3 4.7 2.2 7.6 6.6 9.3 11.3 1.6-.6 3.1-2.7 1.6-4.9z"/><path class="st2" d="M231.4 197.9c-1 0-1.8-.8-1.8-1.8V182c0-1 .8-1.8 1.8-1.8s1.8.8 1.8 1.8v14.1c0 1-.8 1.8-1.8 1.8z"/><path class="st2" d="M238.5 190.9h-14.1c-1 0-1.8-.8-1.8-1.8s.8-1.8 1.8-1.8h14.1c1 0 1.8.8 1.8 1.8-.1 1-.9 1.8-1.8 1.8zM406.1 182.2c-1 0-1.8-.8-1.8-1.8v-14.1c0-1 .8-1.8 1.8-1.8s1.8.8 1.8 1.8v14.1c-.1 1-.9 1.8-1.8 1.8z"/><path class="st2" d="M413.1 175.1H399c-1 0-1.8-.8-1.8-1.8s.8-1.8 1.8-1.8h14.1c1 0 1.8.8 1.8 1.8s-.8 1.8-1.8 1.8zM367 251.8c-1 0-1.8-.8-1.8-1.8v-14.1c0-1 .8-1.8 1.8-1.8s1.8.8 1.8 1.8V250c-.1 1-.9 1.8-1.8 1.8z"/><path class="st2" d="M374 244.8h-14.1c-1 0-1.8-.8-1.8-1.8s.8-1.8 1.8-1.8H374c1 0 1.8.8 1.8 1.8s-.8 1.8-1.8 1.8zM45.7 119.9c-1 0-1.8-.8-1.8-1.8V104c0-1 .8-1.8 1.8-1.8s1.8.8 1.8 1.8v14.1c-.1 1-.9 1.8-1.8 1.8z"/><path class="st2" d="M52.7 112.8H38.6c-1 0-1.8-.8-1.8-1.8s.8-1.8 1.8-1.8h14.1c1 0 1.8.8 1.8 1.8s-.8 1.8-1.8 1.8zM196 117.1c-1 0-1.8-.8-1.8-1.8v-14.1c0-1 .8-1.8 1.8-1.8s1.8.8 1.8 1.8v14.1c0 1-.8 1.8-1.8 1.8z"/><path class="st2" d="M203 110h-14.1c-1 0-1.8-.8-1.8-1.8s.8-1.8 1.8-1.8H203c1 0 1.8.8 1.8 1.8s-.8 1.8-1.8 1.8zM45.7 287.2c-1 0-1.8-.8-1.8-1.8v-14.1c0-1 .8-1.8 1.8-1.8s1.8.8 1.8 1.8v14.1c-.1 1-.9 1.8-1.8 1.8z"/><path class="st2" d="M52.7 280.1H38.6c-1 0-1.8-.8-1.8-1.8s.8-1.8 1.8-1.8h14.1c1 0 1.8.8 1.8 1.8s-.8 1.8-1.8 1.8zM248.6 384.2c-.6 0-1.2-.3-1.5-.9l-20.5-34c-.3-.5-.3-1-.1-1.5s.6-.9 1.1-1.1l130.3-42.3c.8-.3 1.6.1 2.1.8l20.5 34c.3.5.3 1 .1 1.5-.2.5-.6.9-1.1 1.1l-130.3 42.3c-.2 0-.4.1-.6.1zm-17.7-34.8l18.6 30.9 126.8-41.2-18.6-30.9-126.8 41.2z"/><path class="st0" d="M352.1 154.9l-10.3-2.9-19.5 14.9-3.5 20.4 29.9-19.4z"/><path class="st2" d="M207.7 384.2c-.2 0-.4 0-.5-.1L76.9 341.8c-.5-.2-.9-.6-1.1-1.1s-.1-1.1.1-1.5l20.5-34c.4-.7 1.3-1 2.1-.8l130.3 42.3c.5.2.9.6 1.1 1.1.2.5.1 1.1-.1 1.5l-20.5 34c-.4.5-1 .9-1.6.9zM80.1 339.1l126.8 41.2 18.6-30.9-126.8-41.2-18.6 30.9zM150.2 231.6H31.6c-.7 0-1.3-.4-1.6-1-.3-.6-.2-1.4.3-1.9 3.4-4 9.1-7.6 15.7-9.9 4.5-1.5 9.1-2.4 13.2-2.4 2.7 0 5.2.4 7.3 1.1 3.1-2.3 7-4.3 11.2-5.7 3-1 6.1-1.8 9.1-2.1v-.2c0-12.7 10.3-23 23-23s23 10.3 23 23c0 1.5-.2 3-.5 4.5 1.4.5 2.8 1.1 4.2 1.8 7 3.4 12.6 8.3 15.2 13.1.3.5.3 1.2 0 1.7-.3.6-.9 1-1.5 1zM36 228h110.9c-2.6-3.3-6.9-6.6-11.9-9-1.7-.8-3.5-1.6-5.3-2.2-.9-.3-1.4-1.2-1.2-2.2.5-1.7.7-3.5.7-5.2 0-10.7-8.7-19.5-19.5-19.5-10.7 0-19.5 8.7-19.5 19.5 0 .5 0 1 .1 1.6 0 .5-.1.9-.4 1.3-.3.4-.7.6-1.2.6-3.2.2-6.6 1-9.9 2.1-4.2 1.4-8 3.4-10.9 5.8-.5.4-1.2.5-1.8.2-1.8-.8-4.2-1.2-6.9-1.2-3.8 0-7.9.8-12.1 2.2-4.3 1.6-8.1 3.7-11.1 6z"/><path class="st2" d="M106.2 218.9c-.5 0-1-.2-1.3-.6-2.7-2.9-8.6-6.1-16.1-5.3-1 .1-1.8-.6-1.9-1.6s.6-1.8 1.6-1.9c8.8-.9 15.8 2.9 19 6.5.7.7.6 1.8-.1 2.5-.4.3-.8.4-1.2.4zM311.7 153.9h-.2l-21-2.1c-.7-.1-1.3-.5-1.5-1.2s0-1.4.5-1.9l26.4-23.4c.3-.3.7-.4 1.1-.4l14.9-1c.5 0 1.1.2 1.4.6.4.4.5 1 .4 1.5l-2.5 13.1c-.1.4-.3.8-.7 1.1l-17.8 13.4c-.2.2-.6.3-1 .3zm-16.8-5.2l16.3 1.6 16.7-12.5 1.9-10.2-12 .8-22.9 20.3zM375.9 139.3h-.3c-.5-.1-.9-.3-1.2-.7L352.9 110c-.3-.4-.4-.8-.3-1.3s.3-.9.7-1.2l14.2-10.7c.4-.3.8-.4 1.3-.3l25.3 3.4c.5.1.9.3 1.2.7.3.4.4.9.3 1.3l-3.8 25.3c-.1.5-.3.9-.7 1.2L377 139c-.3.2-.7.3-1.1.3zm-19-30l19.4 25.8 12.2-9.2 3.4-22.8-22.8-3-12.2 9.2z"/><path class="st2" d="M322.5 168.3c-.5 0-1.1-.2-1.4-.7l-10.8-14.3c-.3-.4-.4-.8-.3-1.3s.3-.9.7-1.2l17.2-12.9 2.4-12.4c.1-.4.3-.8.7-1.1l11.8-8.8c.4-.3.8-.4 1.3-.3s.9.3 1.2.7l21.5 28.7c.3.4.4.8.3 1.3s-.3.9-.7 1.2l-11.8 8.8c-.4.3-.8.4-1.2.3l-12.6-1.2-17.2 12.9c-.4.1-.8.3-1.1.3zm-8.3-15.8l8.6 11.5 16.4-12.3c.4-.3.8-.4 1.2-.3l12.6 1.2 9.8-7.4-19.4-25.8-9.8 7.4-2.4 12.4c-.1.4-.3.8-.7 1.1l-16.3 12.2z"/><path class="st2" d="M318.6 189c-.3 0-.7-.1-1-.3-.6-.4-.9-1.1-.8-1.8l3.8-20.7c.1-.4.3-.8.7-1.1l17.8-13.4c.4-.3.8-.4 1.2-.3l13.3 1.2c.5.1 1 .4 1.3.8.3.5.4 1 .2 1.6l-5.1 14c-.1.4-.4.7-.7.9l-29.8 18.9c-.2.1-.5.2-.9.2zm5.5-21.5l-3 16.1 25.9-16.4 4.1-11.3-10.3-1-16.7 12.6z"/><path class="st2" d="M337.1 157.2h-.3c-.5-.1-.9-.3-1.2-.7L325 142.2c-.6-.8-.4-1.9.4-2.5l3.1-2.4c.4-.3.8-.4 1.3-.3.5.1.9.3 1.2.7l10.8 14.3c.6.8.4 1.9-.4 2.5l-3.1 2.4c-.4.2-.8.3-1.2.3zM363.7 145.2c-.5 0-1.1-.2-1.4-.7L343.9 120c-.3-.4-.4-.8-.3-1.3s.3-.9.7-1.2l10.6-8c.8-.6 1.9-.4 2.5.4l18.3 24.4c.6.8.4 1.9-.4 2.5l-10.6 8c-.2.3-.6.4-1 .4zm-15.9-25.9l16.2 21.6 7.8-5.8-16.2-21.6-7.8 5.8z"/><path class="st2" d="M360 140.3c-.5 0-1.1-.2-1.4-.7-.6-.8-.4-1.9.4-2.5l10.6-8c.8-.6 1.9-.4 2.5.4.6.8.4 1.9-.4 2.5l-10.6 8c-.3.2-.7.3-1.1.3zM356.4 135.4c-.5 0-1.1-.2-1.4-.7-.6-.8-.4-1.9.4-2.5l10.6-8c.8-.6 1.9-.4 2.5.4s.4 1.9-.4 2.5l-10.6 8c-.4.2-.8.3-1.1.3z"/><path class="st0" d="M141.9 109.5l13.8 2.1 23.5 22.6-7 2.3-14.2.1-15.7-13.5z"/><path class="st2" d="M352.7 130.5c-.5 0-1.1-.2-1.4-.7-.6-.8-.4-1.9.4-2.5l10.6-8c.8-.6 1.9-.4 2.5.4s.4 1.9-.4 2.5l-10.6 8c-.4.2-.7.3-1.1.3zM349 125.6c-.5 0-1.1-.2-1.4-.7-.6-.8-.4-1.9.4-2.5l10.6-8c.8-.6 1.9-.4 2.5.4s.4 1.9-.4 2.5l-10.6 8c-.3.2-.7.3-1.1.3zM391.6 118.6c-.5 0-1.1-.2-1.4-.7l-13-17.3c-.6-.8-.4-1.9.4-2.5s1.9-.4 2.5.4l13 17.3c.6.8.4 1.9-.4 2.5-.3.2-.7.3-1.1.3zM374.4 119.5c-1 0-2-.5-2.6-1.3-.5-.7-.7-1.5-.6-2.4s.6-1.6 1.3-2.1c.6-.4 1.2-.6 1.9-.6 1 0 2 .5 2.6 1.3.5.7.7 1.5.6 2.4-.1.8-.6 1.6-1.3 2.1-.5.4-1.2.6-1.9.6zM345.4 141.3c-1 0-2-.5-2.6-1.3-.5-.7-.7-1.5-.6-2.4.1-.8.6-1.6 1.3-2.1.6-.4 1.2-.6 1.9-.6 1 0 2 .5 2.6 1.3 1.1 1.4.8 3.4-.6 4.5-.7.4-1.3.6-2 .6zM150.8 173.6c-.4 0-.7-.1-1-.3l-28.9-20.1c-.3-.2-.6-.5-.7-.9l-4.5-14.2c-.2-.5-.1-1.1.2-1.5.3-.5.8-.7 1.4-.8l13.3-.7c.4 0 .9.1 1.2.4l17.2 14.1c.3.3.6.7.6 1.1l2.9 20.7c0 .1.1.3.1.5 0 .9-.8 1.7-1.8 1.7zm-27.5-23l25.1 17.5-2.3-16.2-16.1-13.2-10.3.5 3.6 11.4zM95.7 121.5c-.4 0-.8-.1-1.1-.4l-13.7-11.3c-.4-.3-.6-.7-.6-1.2l-2.7-25.4c-.1-.5.1-.9.4-1.3s.7-.6 1.2-.6l25.5-2.3c.5 0 .9.1 1.3.4l13.7 11.3c.4.3.6.7.6 1.2s-.1.9-.4 1.3l-22.7 27.7c-.3.4-.7.6-1.2.6h-.3zm-12-14l11.8 9.7 20.5-25-11.8-9.7-22.9 2.1 2.4 22.9z"/><path class="st2" d="M147.9 152.7c-.4 0-.8-.1-1.1-.4l-16.7-13.7-12.6.6c-.4 0-.9-.1-1.2-.4l-11.4-9.3c-.8-.6-.9-1.7-.2-2.5l22.7-27.7c.6-.8 1.7-.9 2.5-.2l11.4 9.3c.3.3.6.7.6 1.1l1.8 12.5 16.7 13.7c.4.3.6.7.6 1.2s-.1.9-.4 1.3l-11.4 13.9c-.3.4-.8.6-1.3.6zM130.7 135c.4 0 .8.1 1.1.4l15.8 13 9.1-11.1-15.8-13c-.3-.3-.6-.7-.6-1.1l-1.8-12.5-9.5-7.8-20.5 25 9.5 7.8 12.7-.7c-.1 0-.1 0 0 0z"/><path class="st2" d="M159.2 138.9c-.4 0-.8-.1-1.1-.4l-17.2-14.1c-.3-.3-.6-.7-.6-1.1l-1.9-13.2c-.1-.5.1-1.1.5-1.5s.9-.6 1.5-.5l14.8 1.6c.4 0 .8.2 1 .5l25.4 24.5c.5.5.7 1.2.4 1.9-.2.7-.9 1.1-1.6 1.2l-21.1 1.2c0-.1 0-.1-.1-.1zM143.7 122l16.1 13.2 16.3-.9-22-21.2-11.9-1.3 1.5 10.2z"/><path class="st2" d="M133.7 141.1c-.4 0-.8-.1-1.1-.4l-3-2.5c-.4-.3-.6-.7-.6-1.2s.1-.9.4-1.3l11.4-13.9c.6-.8 1.7-.9 2.5-.2l3 2.5c.4.3.6.7.6 1.2s-.1.9-.4 1.3l-11.4 13.9c-.4.4-.9.6-1.4.6zM107.7 127.9c-.4 0-.8-.1-1.1-.4l-10.2-8.4c-.4-.3-.6-.7-.6-1.2s.1-.9.4-1.3L115.4 93c.6-.8 1.7-.9 2.5-.2l10.2 8.4c.4.3.6.7.6 1.2s-.1.9-.4 1.3L109 127.2c-.3.5-.8.7-1.3.7zm-7.8-10.5l7.5 6.2 17.1-20.9-7.5-6.2-17.1 20.9z"/><path class="st2" d="M123.2 109c-.4 0-.8-.1-1.1-.4l-10.2-8.4c-.8-.6-.9-1.7-.2-2.5.6-.8 1.7-.9 2.5-.2l10.2 8.4c.8.6.9 1.7.2 2.5-.4.4-.9.6-1.4.6zM119.3 113.7c-.4 0-.8-.1-1.1-.4l-10.2-8.4c-.8-.6-.9-1.7-.2-2.5.6-.8 1.7-.9 2.5-.2l10.2 8.4c.8.6.9 1.7.2 2.5-.4.4-.9.6-1.4.6zM115.4 118.4c-.4 0-.8-.1-1.1-.4l-10.2-8.4c-.8-.6-.9-1.7-.2-2.5.6-.8 1.7-.9 2.5-.2l10.2 8.4c.8.6.9 1.7.2 2.5-.4.4-.9.6-1.4.6zM111.5 123.2c-.4 0-.8-.1-1.1-.4l-10.2-8.4c-.8-.6-.9-1.7-.2-2.5.6-.8 1.7-.9 2.5-.2l10.2 8.4c.8.6.9 1.7.2 2.5-.3.3-.9.6-1.4.6zM80.9 100.1c-.4 0-.8-.1-1.1-.4-.8-.6-.9-1.7-.2-2.5l13.7-16.7c.6-.8 1.7-.9 2.5-.2.8.6.9 1.7.2 2.5L82.3 99.5c-.4.4-.9.6-1.4.6zM98.1 101.7c-.7 0-1.5-.3-2-.7-1.4-1.1-1.6-3.2-.4-4.5.6-.7 1.5-1.2 2.5-1.2.7 0 1.5.3 2 .7 1.4 1.1 1.6 3.2.4 4.5-.6.8-1.5 1.2-2.5 1.2zM126.2 124.8c-.7 0-1.5-.3-2-.7-.7-.5-1.1-1.3-1.2-2.2-.1-.9.2-1.7.7-2.4.6-.7 1.5-1.2 2.5-1.2.7 0 1.5.3 2 .7 1.4 1.1 1.6 3.2.4 4.5-.5.9-1.4 1.3-2.4 1.3zM261.1 259.4c-.9 0-1.7-.7-1.8-1.6-.1-.5-1.3-13.4 5.4-31.8 6-16.6 20-41.1 52.1-63.5l-2.4-3.5c-3.7 1.2-15.6 5.3-29.9 14-15.8 9.6-37.9 27-53.1 55.1-.5.9-1.5 1.2-2.4.7s-1.2-1.5-.7-2.4c15.6-28.9 38.2-46.7 54.5-56.6 17.6-10.7 31.3-14.5 31.9-14.6.7-.2 1.5.1 1.9.7l4.1 6.1c.5.8.3 1.9-.5 2.4-32.3 22.2-46.2 46.3-52.2 62.6-6.5 17.7-5.3 30.3-5.3 30.4.1 1-.6 1.8-1.6 1.9.1 0 0 .1 0 .1zM174.3 254.8c-.3 0-.6-.1-.9-.3-.8-.5-1.1-1.6-.6-2.4 15.3-25.4 16.4-50.9 3.3-75.8-9.8-18.6-24.2-29.9-24.4-30-.8-.6-.9-1.7-.3-2.5.6-.8 1.7-.9 2.5-.3.6.5 15.2 11.8 25.3 31.2 9.4 17.9 16.4 46.2-3.4 79.3-.3.5-.9.8-1.5.8z"/><path class="st2" d="M241.1 256.7c-.7 0-1.4-.4-1.6-1.1l-6.6-16.4c-3.5-7.9-8.4-18-14.6-28.6-12.8-22-34.1-51.2-63-65.5-.9-.4-1.2-1.5-.8-2.4s1.5-1.2 2.4-.8c29.7 14.6 51.5 44.5 64.6 66.9 3.4 5.8 6.4 11.4 8.9 16.6.6.1 1 .5 1.3 1.1l4.6 11.3c4.4 9.9 6.6 16.4 6.7 16.6.3.9-.2 1.9-1.1 2.2-.4 0-.6.1-.8.1z"/><path class="st1" d="M149 271.6c-.9-.1-1.9 0-2.6.4-2.1-.1-4.3.9-6.3 2.1-3.1 1.7-5.4 4-6.7 7.3-.2.6-.2 1.3 0 1.9 4-3.6 9.6-5.6 15-4.7 7.2 1.1 10.9 7.3 11.1 14.1v.4c1.7-.1 3.5-1.2 3.7-3.4.8-8.8-5.4-16.9-14.2-18.1zM215.2 277.4c-3.9-.7-8.3-1.3-12.2-.3-.1 0-.2 0-.2.1-.6-6-2-11.9-5.9-16.7-4.7-5.8-11.7-7-18.8-6.6-.7 0-1.3.3-1.8.6-3.2-.7-6.5-.6-9.7.9-.6.3-1.1.7-1.4 1.1 7.5-1.4 15.9 2.4 21 7.7 6.3 6.5 8.4 17 6.6 25.7.9.5 2 .5 3.2-.3 2.5-1.7 5.1-4.1 7.9-5.4 2.7-1.2 6.6-.5 9.4 0 4.5.8 6.4-6.1 1.9-6.8zM264.5 306.3c-2.2-8.6-8.7-15.6-17.3-18.1-8.1-2.4-18.2-.7-23 6.9-.2.4-.4.8-.5 1.1-.7.5-1.1 1.2-1.3 2s-.2 1.7.3 2.5c.2.5.6.9 1 1.3 2.3 2.5 4.1 5.4 5.2 8.7 1.4 4.3 8.3 2.5 6.8-1.9-1.1-3.2-2.6-6.1-4.5-8.7 1.3-3.2 6.4-4.3 9.1-5.8 2.1 0 4.1.4 5.9 1 5.8 2 9.9 7 11.4 12.8 1.2 4.5 8.1 2.7 6.9-1.8zM308.5 303c-.3-4.7 3.5-8.8 8.1-9.9 4-1 7.5.8 10.5 3.2 2.8-2.6 5.7-4.7 10.2-4.9 4.1-.2 7.3 1.7 9.6 4.5 3.2.1 5.3-4.7 1.9-6.6-7.6-4.4-16.7-3.4-23 2-.2-.3-.4-.5-.6-.7-3.3-3-8-3.3-12.1-1.7-.2-.5-.5-1-1-1.3v-.3c-.4-6.4-3.4-12.5-9.1-15.8-5.5-3.2-12.9-3-18 .9-.5.4-.8.8-1.1 1.3-3.6-.8-7.6-.4-10.9.8-2.7 1-4.3 2.9-5.5 5.2-1 .2-1.9.7-2.4 1.7-.7 1.5-1.4 3-2.1 4.4-.8 1.7-.5 3.9 1.3 4.9.4.2.9.4 1.4.4.3.6.8 1.1 1.4 1.5.6-4.2 4-8.1 8.1-10.1 3.3-1.6 6.9-2.1 10.2-.2.9.5 1.6 1.1 2.2 1.8 1.7-4.7 4.6-9.4 9.2-10.2 8.8-1.5 13.4 11.4 13.3 18.2 0 2.1-1.1 3.5-2.6 4.2 0 1.5.1 3 0 4.5.1.7.4 1.5 1 2.2zM160 309.8c-1.9-3.3-4.3-6.5-7.1-9.2-2.7-2.6-6-5.6-9.7-6.7s-8.9-.4-12.5.7c-3.6 1.1-6.6 3.2-8.5 6.4-.6 1.1-.6 2.1-.2 3-1.9 2.5-3 5.8-1.3 8.3 3.8-6.1 11.3-9.3 18.6-8.5 8.5.9 13.8 6.7 17.3 14 1.2-.6 2.1-1.8 2-3.3 1.6-.9 2.6-2.8 1.4-4.7z"/><path class="st1" d="M240.4 316.3c-.7-2.6-2.5-4.9-4.5-6.7-2.1-4.7-6.1-9.5-11.1-11.7-.4-.5-1-.8-1.9-1-5.5-1.1-10.4.7-13.8 4.1-1 .8-1.9 1.6-2.7 2.4s-1.4 1.6-1.9 2.5c-.8-.4-1.5-.7-2.4-1-2.1-1.4-4.6-2.1-7.5-1.6-5.4 1-7.9 5.9-9 10.8-.1.5-.3 1-.3 1.5-.6 4.4 6 6.4 6.8 1.9 0-.2.1-.4.1-.6.8-3.8 4.2-5.9 7.3-5.4 1.6 1.5 2.9 3.9 3.7 5.3.4.6.8 1.1 1.3 1.3 0 1.6.3 3.3 1 5 .1.3.3.5.4.7 0 .4.1.8.1 1.2.6 4.5 7.5 2.6 6.8-1.9 0-.2 0-.4-.1-.5.1-.1.1-.2.2-.4 1.4-3.8 6.6-4.2 10.2-4.2 4.1 0 7.4 1.4 11 3 3.7 1.8 7.3-.9 6.3-4.7z"/><path class="st2" d="M120.6 315.2c-1 0-1.8-.8-1.8-1.8v-5.2c0-6.3 3.9-11.9 9.7-14.2-.3-1.5-.5-2.9-.5-4.4 0-11.2 9.1-20.4 20.4-20.4 1.4 0 2.8.1 4.2.4 3.4-11 13.5-18.5 25.1-18.5 14.2 0 25.8 11.3 26.3 25.3 2.5-1.3 5.2-1.9 8-1.9 10 0 17.6 7.1 17.6 16.5 0 1-.8 1.8-1.8 1.8s-1.8-.8-1.8-1.8c0-7.5-5.9-12.9-14-12.9-3.2 0-6.3 1.1-8.8 3.1-.6.4-1.3.5-2 .2-.6-.3-1-1-.9-1.7s.1-1.4.1-2.1c0-12.6-10.2-22.8-22.8-22.8-10.6 0-19.7 7.2-22.2 17.5-.1.5-.4.9-.8 1.1-.4.2-.9.3-1.4.2-1.6-.5-3.2-.7-4.9-.7-9.3 0-16.8 7.6-16.8 16.8 0 1.7.3 3.4.8 5.1.1.5.1 1-.1 1.4-.2.4-.6.7-1.1.9-5.2 1.3-8.8 6-8.8 11.3v5.2c.1.8-.7 1.6-1.7 1.6z"/><path class="st2" d="M189.2 311.3c-1 0-1.8-.8-1.8-1.8 0-5.5 4.5-9.9 9.9-9.9 2.3 0 4.5.8 6.3 2.2 2.6-3.9 6.9-6.3 11.7-6.3 2.1 0 4.1.5 6 1.3 4.1-8.1 12.3-13.2 21.5-13.2 13.3 0 24.1 10.8 24.1 24.1 0 1-.8 1.8-1.8 1.8s-1.8-.8-1.8-1.8c0-11.4-9.2-20.6-20.6-20.6-8.4 0-15.9 5-19.1 12.8-.2.5-.6.9-1.1 1-.5.2-1.1.1-1.5-.2-1.7-1.1-3.7-1.7-5.8-1.7-4.2 0-8 2.5-9.7 6.5-.2.6-.8 1-1.4 1.1-.6.1-1.3-.2-1.6-.7-1.2-1.7-3.1-2.7-5.2-2.7-3.5 0-6.4 2.9-6.4 6.4.1.9-.7 1.7-1.7 1.7z"/><path class="st3" d="M161.4 282.9c-.8 0-1.6-.6-1.7-1.4 0-.1-1.4-6.3-6.3-8-.9-.3-1.4-1.3-1.1-2.2.3-.9 1.3-1.4 2.2-1.1 6.9 2.3 8.6 10.3 8.7 10.6.2 1-.4 1.9-1.4 2.1h-.4z"/><path class="st2" d="M226.5 307.9c-.7 0-1.4-.5-1.7-1.2 0 0-1.3-3.5-4-6.1-.7-.7-.7-1.8-.1-2.5.7-.7 1.8-.7 2.5-.1 3.3 3.2 4.8 7.3 4.9 7.5.3.9-.2 1.9-1.1 2.3-.1 0-.3.1-.5.1zM356.2 308.6c-1 0-1.8-.8-1.8-1.8v-2.1c0-9.2-7.5-16.7-16.7-16.7-4.3 0-8.4 1.6-11.5 4.6-.7.7-1.8.7-2.5 0-1.9-1.9-4.4-2.9-7.1-2.9-1 0-1.9.1-2.9.4-.5.2-1.1.1-1.5-.3-.4-.3-.7-.8-.7-1.4-.5-9.7-8.5-17.3-18.2-17.3-4.2 0-8.2 1.4-11.5 4.1-.5.4-1.1.5-1.7.3s-1-.7-1.1-1.3c-1.6-8.6-9.1-14.9-17.9-14.9-10 0-18.2 8.2-18.2 18.2 0 1-.8 1.8-1.8 1.8s-1.8-.8-1.8-1.8c0-12 9.8-21.8 21.8-21.8 9.6 0 17.9 6.2 20.8 15.2 3.4-2.1 7.4-3.3 11.5-3.3 10.9 0 20 8 21.5 18.6.6-.1 1.2-.1 1.8-.1 3.1 0 6 1 8.3 2.9 3.6-2.9 8.1-4.5 12.8-4.5 11.2 0 20.2 9.1 20.2 20.2v2.1c0 1-.8 1.8-1.8 1.8z"/><path class="st3" d="M308.7 297.1c-1 0-1.8-.8-1.8-1.8 0-.3.1-6.7 5.7-8.6.9-.3 1.9.2 2.3 1.1.3.9-.2 1.9-1.1 2.3-3.2 1.1-3.4 5.1-3.4 5.3.1.9-.7 1.7-1.7 1.7z"/><path class="st2" d="M266.1 282.7c-.2 0-.4 0-.7-.1-.9-.4-1.4-1.4-1-2.3 2.1-5.3 7.1-8.7 12.8-8.7 4.5 0 8.8 2.2 11.4 6 .6.8.4 1.9-.5 2.5-.8.6-1.9.4-2.5-.5-1.9-2.8-5.1-4.4-8.4-4.4-4.2 0-8 2.5-9.5 6.5-.2.6-.9 1-1.6 1z"/><path class="st1" d="M93.1 317.8l5.6-9.6 4.6 1.6v36.6l-3.3-.7-8.1-2.6zM366.5 323.7l-8.5-15.9-6.5 2.5 2.7 35.5 2.1-.1 6.9-2.5 3.1-11.4z"/><circle class="st4" cx="29.6" cy="334.6" r="7.5"/><circle class="st4" cx="63.3" cy="172" r="7.9"/><circle class="st4" cx="413.7" cy="263.3" r="7.9"/><circle class="st4" cx="286.1" cy="102.8" r="8"/><circle class="st4" cx="203.4" cy="59.4" r="7.4"/></svg>