<?xml version="1.0" encoding="utf-8"?>
<!-- Generator: Adobe Illustrator 21.0.0, SVG Export Plug-In . SVG Version: 6.00 Build 0)  -->
<svg version="1.1" id="Layer_1" xmlns="http://www.w3.org/2000/svg" xmlns:xlink="http://www.w3.org/1999/xlink" x="0px" y="0px"
	 viewBox="0 0 450 450" style="enable-background:new 0 0 450 450;" xml:space="preserve">
<style type="text/css">
	.st0{fill:#C2DEFF;}
	.st1{fill:#FFFFFF;}
	.st2{fill:#004A6E;}
	.st3{fill:#27477C;}
	.st4{fill:#004A6E;stroke:#FFFFFF;stroke-width:8;stroke-miterlimit:10;}
</style>
<polygon class="st0" points="131.8,135.4 139.1,143.8 146.8,152.3 149.8,169.7 120.2,152.3 117.5,139.2 "/>
<polygon class="st0" points="330.3,125.5 318.1,126.5 289.5,148.7 310.3,153.3 331.2,139.1 "/>
<polygon class="st0" points="381.6,99.5 393.9,101.2 392.7,113.3 390.3,114.5 379.5,100.1 "/>
<path class="st0" d="M91,81.7l-11.2,1.1c0,0,0,14.4,1.3,13.3c1.3-1.1,13.3-13.3,13.3-13.3L91,81.7z"/>
<path class="st1" d="M158,136.6c-0.5-2.4-2.7-3.9-4.8-4.8c-1.2-0.5-2.5-0.8-3.7-1.1c-0.5-0.1-1-0.2-1.5-0.3c0.1-1.5-0.6-2.8-2.7-3.5
	c-3.5-1.2-5.8,2-5.4,5c-0.4,0.4-0.7,0.9-1,1.2c-0.4,0.5-0.5,1-0.5,1.5c-2.9,0.5-4.5,4.8-1.3,6.6c1.8,1,3.5,2,5.3,2.9
	c0.4,0.2,1.2,0.6,2,0.9c-0.4,1.8,0.5,4,2.5,4.3s4,0.3,5.5-1.3c0.8-0.9,1.1-2,1.1-3.2C155.8,142.5,158.8,140.2,158,136.6z"/>
<path class="st1" d="M176.8,130c-4.6-4.8-9.4-9.4-14.5-13.7c-3.9-3.2-10-9.5-15.4-6.1c-0.1,0-0.1,0.1-0.2,0.1c-2.1-1-5.2,0-5.2,3.1
	c0,3.5,0.3,7,2.2,10c2,3.1,5.3,5,8.4,6.9c3.2,2,6.5,4.8,10.1,5.9c3.7,1.2,8.3,0.1,12.1-0.1C177.3,135.9,179,132.3,176.8,130z"/>
<path class="st1" d="M348.6,153.8c-2.3,0-4.6,0.1-6.8,0.8c-0.1,0-0.3,0.1-0.4,0.2c-0.2,0-0.4,0.1-0.6,0.1c-2.1,0.7-4.1,1.6-5.9,2.9
	c-1.1,0.7-1.6,1.9-1.6,3c-0.7,0.4-1.4,0.8-2.2,1.3c-2.9,1.6-5.8,3.2-8.8,4.8c-2.9,1.5-1.9,5.1,0.4,6.2c-1.2,1.9-2,4.1-2.6,6.5
	c-1,3.9,4.4,6.2,6.5,2.7c0.9-1.5,2.1-2.7,3.4-3.6c0.5,0,1.1-0.1,1.6-0.4c1.6-0.8,3.2-1.7,4.6-2.7c1.6-0.6,3.3-1.2,4.8-1.9
	c6.7-2.8,8.4-9,11-15.3C352.9,156.1,350.7,153.7,348.6,153.8z"/>
<path class="st2" d="M42.8,210.8c0.1,0,0.3-0.1,0.6-0.1l0,0C43.1,210.7,42.9,210.8,42.8,210.8z"/>
<path class="st2" d="M228.2,405.3c-1,0-1.8-0.8-1.8-1.8v-55.1c0-0.8,0.5-1.4,1.2-1.7l130.3-42.3c0.5-0.2,1.1-0.1,1.6,0.3
	c0.5,0.3,0.7,0.9,0.7,1.4V365c0,1-0.8,1.8-1.8,1.8s-1.8-0.8-1.8-1.8v-56.5L230,349.7v53.8C230,404.5,229.2,405.3,228.2,405.3z"/>
<path class="st2" d="M228.2,405.3c-1,0-1.8-0.8-1.8-1.8v-53.8L99.7,308.5v62.1c0,1-0.8,1.8-1.8,1.8s-1.8-0.8-1.8-1.8v-64.5
	c0-0.6,0.3-1.1,0.7-1.4c0.5-0.3,1.1-0.4,1.6-0.3l130.3,42.3c0.7,0.2,1.2,0.9,1.2,1.7v55.1C230,404.5,229.2,405.3,228.2,405.3z"/>
<path class="st1" d="M172.2,241.7c-0.6,0.7-1.2,1.3-1.8,1.8c-1-0.8-2.3-1.1-4-0.5c-8.7,3-17.5,6-26.2,8.9c-3.5,1.2-3.9,5-2.5,7.4
	c-2.6,2.4-5.1,4.9-7.6,7.4c-0.9,0.9-1.3,1.9-1.4,2.9c-2.5,2.4-4.5,5.2-6.1,8.3c-1,0.6-1.7,1.5-2,2.7c-0.7,3.2-1.2,6.5-2.1,9.6
	c-0.6,2,0.1,3.6,1.3,4.7c0.6,2,2.2,3.5,4.5,3.5c2.4,0,5-2.2,4.7-4.7c-0.6-6.8,1.6-13.3,6.7-17.9c2.2-2,4.9-3.4,7.7-4.3
	c3.2-0.9,6.9-0.3,9.9-1.6c3.2-1.4,3.8-4.3,5.6-6.9c1.4-2,3.5-3.4,5.6-4.7c5-3,10.4-5.4,14.2-10C182.8,243.8,176.1,237.1,172.2,241.7
	z"/>
<path class="st1" d="M311.6,158.4c-25,6.6-45.8,22.6-62.2,42.1c-8.6,8-15.1,17.8-19.3,28.9c-1,2.6,1.2,4.3,3.4,4.3
	c0.6,4.5,1.9,8.9,4,13c2,4.1,8.2,0.5,6.1-3.6c-1.1-2.1-1.9-4.3-2.4-6.6c1.1-0.2,2-1,2.3-2.5c1.8-8.8,6.5-16.5,11.9-23.5
	c5.1-6.6,10.8-12.8,17-18.5c12.3-11.4,26.6-20.5,42-27.2C318.1,163.2,315.4,157.4,311.6,158.4z"/>
<g>
	<path class="st2" d="M279.8,163.4H174.5c-0.6,0-1.2-0.3-1.5-0.9c-0.3-0.6-0.3-1.2,0-1.8c3.8-6.6,10.9-10.6,18.5-10.6
		c1.5,0,2.9,0.1,4.3,0.4c1-7.3,8.9-12.9,18.4-12.9c1.1,0,2.1,0.1,3.2,0.2c2.3-10.3,11.6-17.9,22.3-17.9c12.6,0,22.8,10.2,22.8,22.8
		c0,0.7,0,1.5-0.1,2.2c9.2,0.7,16.9,7.2,19.1,16.2c0.1,0.5,0,1.1-0.3,1.5C280.8,163.2,280.3,163.4,279.8,163.4z M178,159.9h99.4
		c-2.6-6.8-9.2-11.4-16.6-11.4h-0.3c-0.5,0-1-0.2-1.4-0.6c-0.3-0.4-0.5-1-0.4-1.5c0.2-1.2,0.3-2.4,0.3-3.6
		c0-10.6-8.7-19.3-19.3-19.3c-9.6,0-17.8,7.1-19.1,16.6c-0.1,0.5-0.3,0.9-0.7,1.2s-0.9,0.4-1.4,0.3c-1.4-0.3-2.8-0.5-4.3-0.5
		c-8.3,0-15,4.9-15,11c0,0.2,0,0.4,0,0.5c0,0.6-0.2,1.2-0.7,1.5c-0.5,0.4-1.1,0.5-1.6,0.3c-1.8-0.6-3.6-0.9-5.5-0.9
		C186.2,153.6,181.3,156,178,159.9z"/>
</g>
<path class="st2" d="M227.2,148.7c-0.7,0-1.4-0.4-1.7-1.2c-0.1-0.2-1.9-4.9-7-6c-1-0.2-1.6-1.1-1.4-2.1c0.2-1,1.1-1.6,2.1-1.4
	c7.1,1.5,9.5,8,9.6,8.2c0.3,0.9-0.1,1.9-1.1,2.3C227.6,148.7,227.4,148.7,227.2,148.7z"/>
<path class="st2" d="M97.9,307.9c-0.6,0-1.2-0.3-1.5-0.9l-20.5-34c-0.3-0.5-0.3-1-0.1-1.5c0.2-0.5,0.6-0.9,1.1-1.1l130.3-42.3
	c0.8-0.3,1.6,0.1,2.1,0.8l20.5,34c0.3,0.5,0.3,1,0.1,1.5s-0.6,0.9-1.1,1.1L98.4,307.8C98.3,307.8,98.1,307.9,97.9,307.9z
	 M80.1,273.1L98.7,304l126.8-41.2l-18.6-30.9L80.1,273.1z"/>
<path class="st1" d="M188.3,271.1c-3.2,1.8-7,2.1-10.4,3.1c-3.5,1-6.8,2.5-10.1,4c-4.5,2.1-9.1,4.5-13.9,5.8
	c-0.7-0.3-1.5-0.4-2.4-0.1c-1.3,0.4-2.7,0.8-4,1.3c-0.5,0.1-0.9,0.2-1.3,0.4c-4,1.3-8,2.8-12,4.4c-4.2,1.7-2.3,8.6,1.9,6.8
	c4.1-1.7,8.3-3.3,12.6-4.7c0.3,2.1,2.7,4.2,5.4,3c11.7-5.4,23.9-9.8,36.4-13.3c2.6-0.7,3-3.3,2-5.1
	C195.5,274.4,192.1,268.9,188.3,271.1z"/>
<path class="st1" d="M238.7,252.7c-3-7.2-6.1-14.3-9.3-21.4c-0.1-0.2-0.1-0.3-0.2-0.5c0-0.1-0.1-0.1-0.1-0.2l0,0c0,0,0-0.1-0.1-0.1
	c-8.2-16.1-16.7-32.1-27.6-46.6c-4.1-5.4-8.5-10.4-13.1-15.2c0.2-1,0-2.2-0.9-3.1c-3.4-3.6-7.3-6.5-11.6-8.9
	c-4.8-4.4-9.7-8.6-14.5-12.9c-3.4-3-8.4,2-5,5c3.7,3.3,7.4,6.5,11,9.8c-0.3,0.8-0.2,1.8,0.4,2.8c4.4,6.7,8.5,13.6,12.3,20.7
	c3.8,7.1,5.8,14.1,6.6,22.1c0.8,7.9,0.5,15.6-1.6,23.3c-2.1,7.5-5.4,14.5-9.3,21.2c-1.3,2.3,0.3,5.4,3.1,5.3
	c5.2-0.2,9.7,1.7,13.1,5.6c1.2,1.3,2.6,1.4,3.8,0.8c1.2,1.5,2.4,3.1,3.3,4.8c2.1,3.8,2.3,9.5,6.6,11.5c3.8,1.8,8.1-0.1,12.1,1
	c4.2,1.2,7.5,4.5,8.8,8.6c1.3,4.4,8.2,2.5,6.8-1.9c-3.1-9.9-12.2-14.8-22.1-14.1c-0.8,0.1-2.1,0.3-2.7-0.2c-0.5-0.5-0.7-2.5-1-3.2
	c-0.9-2.4-2-4.7-3.3-6.9c-2.1-3.4-4.8-6.4-7.9-8.9c-0.2-0.3-0.3-0.7-0.5-1c-2.6-20.9,3.1-43.1-1.4-63.5c0.5,0.6,1,1.2,1.4,1.9
	c8.7,11.7,15.8,24.3,22.5,37.1c0,0.5,0.1,1,0.4,1.5c4.4,9,7.5,18.4,9.6,28.2c0.6,3,3.9,3.1,5.7,1.6
	C236.6,257.6,239.9,255.8,238.7,252.7z M187.5,240.9c0.2-0.5,0.4-1,0.6-1.5c0,0.7,0,1.3,0,2C188,241.2,187.8,241,187.5,240.9z"/>
<path class="st2" d="M358.5,307.9c-0.2,0-0.4,0-0.5-0.1l-130.3-42.3c-0.5-0.2-0.9-0.6-1.1-1.1c-0.2-0.5-0.1-1.1,0.1-1.5l20.5-34
	c0.4-0.7,1.3-1,2.1-0.8l130.3,42.3c0.5,0.2,0.9,0.6,1.1,1.1s0.1,1.1-0.1,1.5L360,307C359.7,307.5,359.1,307.9,358.5,307.9z
	 M230.9,262.8L357.7,304l18.6-30.9l-126.8-41.2L230.9,262.8z"/>
<path class="st1" d="M350.4,292.8c-0.9-0.9-2.2-1.2-3.4-0.9c-1.8-1.7-3.8-3-6.3-3.8c-2.6-0.8-5,1.8-4.4,4.4c0.7,2.5,1.3,4.8-0.9,6.7
	c-1.5,1.3-3.6,2.2-5.4,3.1c-4.8,2.6-9.7,5.1-14.7,7.3c-10.1,4.6-20.7,8-31.3,11.2c-5.3,1.6-10.6,3.1-15.9,4.7
	c-2.5,0.7-4.9,1.4-7.4,2.2c-1.6,0.5-2,0.7-3.4-0.2c-1-0.7-1.9-1.4-3-1.9c-9.1-4.3-18.8,0-26.2,5.6c-3.1,2.3-1.1,7.1,2,6.7
	c-0.1,0.5-0.3,1.1-0.3,1.6c0,0.2,0,0.4,0,0.6c-0.1,0.1-0.2,0.2-0.3,0.2c-8.6-2.6-17.3-5.2-25.9-7.9c-5.2-1.6-10-3.8-15-5.9
	c0.1-0.1,0.1-0.3,0.2-0.4c1.7-4.1,6.5-9.4,11.3-9.7c2.2-0.1,2.9,2.9,3.6,4.6c1.4,3.3,2.8,6.7,4.2,10c1.2,2.9,5.9,3.8,6.8,0
	c2-8.2,12.9-6.3,18.8-5.1c4.5,0.9,6.4-5.9,1.9-6.8c-5.9-1.2-12.3-2.4-18.1-0.1c-2,0.8-3.8,1.9-5.3,3.3c-1-2.4-2-4.8-3.1-7.1
	c-1.8-3.5-4.8-6.2-8.9-5.9c-5.3,0.3-10,3.4-13.5,7.5c-1.7-8.3-6.6-15.9-15.4-17.9c-10.1-2.3-20.7,6.2-18.1,16.9
	c-4.3-1.1-8.5-2.1-12.8-3.2c-4-1-8.4-1.6-11.9-3.9c-3.8-2.6-7.3,3.5-3.6,6.1c3.4,2.3,7.4,3.1,11.3,4.1c4.5,1.1,9,2.2,13.4,3.3
	c8.9,2.2,17.8,4.2,26.5,7c8.4,2.7,16.1,7,24.5,9.7c9.3,3,18.6,5.7,27.9,8.5c1.4,0.4,2.5,0,3.3-0.7c0.2,0,0.5-0.1,0.8-0.2
	c21.8-7.4,43.7-14.7,65.5-22.1c10.5-3.5,21-7.1,31.7-10.3c4.7-1.4,9.4-2.6,13.3-5.8c1.6-1.3,2.9-2.9,4.1-4.5
	c1.6,2.2,5.7,1.8,6.3-1.1C353.8,298.9,353,295.6,350.4,292.8z M158.9,317.2c0.3-0.4,0.6-0.8,0.8-1.3c1.6-5.3,11.5-6.2,14.9-2.4
	c2.4,2.7,3.6,6.2,5.2,9.5c-0.3-0.1-0.6-0.2-0.9-0.3C172.2,320.5,165.6,318.9,158.9,317.2z M246.7,334.1c0.5-0.4,0.9-0.8,1.4-1.2
	c0.5-0.5,0.8-1.1,0.9-1.7c1,0.2,2,0.6,3,1.2C250.2,333,248.4,333.5,246.7,334.1z"/>
<path class="st1" d="M267.1,208.5c-4.8,4.2-9.6,8.3-14.5,12.5c-4.1,3.6-9.1,6.9-12,11.7c-0.1,0.2-0.3,0.5-0.3,0.7
	c-2.8,2.9-5.2,6.3-7.5,9.5c-1.8,2.4-4.1,5-5.5,7.8c-4.2-5.8-9.3-11-13.6-16.7c-3.2-4.3-6.2-8.8-9.2-13.3c-2.9-4.5-6.1-9-7.7-14.1
	c-0.1-0.3-0.2-0.6-0.4-0.8c0-0.1,0-0.2,0-0.4c0.2-4.6-6.9-4.6-7.1,0c-0.2,3.3,0.2,6.5,1.1,9.5c-0.6,0.6-1,1.4-1.1,2.4
	c-0.4,4.2-0.9,8.5-1.4,12.7c0,0,0,0-0.1,0c-1.4-0.3-2.8,0.2-3.7,1.6c-1.4,2.4-2.4,4.9-3.2,7.6c-0.1,0.4-0.2,0.8-0.1,1.2
	c-0.7,1.3-1.5,2.3-2.4,3.7c-1.2,1.8-1.8,3.8-0.8,5.9c1.8,3.9,6.7,3.2,10.1,4.5c2.2,0.8,4.5,1.9,6.6,3.1c2.1,1.9,4.2,3.5,5.8,4.5
	c0.2,0.1,0.5,0.3,0.7,0.4c-0.3,0.6-0.4,1.4-0.1,2.2c0.2,1,0.5,2,0.7,3c0,0.1,0,0.3,0,0.4c-0.1,2,0.1,3.9,0.5,5.8
	c0.6,3.3,6,3.4,6.8,0.1c0.4-0.1,0.8-0.3,1.2-0.5c1.1,0.3,2.3,0.1,3.2-0.6c0.9,0.4,1.9,0.4,2.7-0.1c2.4,0.5,4.7,1.1,6.8,2.2
	c2.9,1.5,4.8,3.9,7,6.1c0.1,0.7,0.2,1.4,0.3,2.1c0.2,1.5,2,2.7,3.4,2.6c0.6,0,1.2-0.2,1.7-0.4c0.9,0,1.7-0.3,2.4-1
	c0.1,0,0.1,0,0.2-0.1c1.8-0.6,3-2.5,2.5-4.4c-0.3-0.9-0.5-1.8-0.7-2.7c-0.1-0.5-0.3-0.9-0.6-1.3c1.4-4.6,4-8.5,7.1-12.4l0.1-0.1
	c0.2-0.2,0.4-0.4,0.5-0.7c0.3-0.4,0.6-0.9,0.8-1.3c2.3-1.5,4.9-2.5,7.6-3.2c2.6-0.6,5-1.6,5.8-4.4c0.8-2.9,0.4-6.5,0.4-9.5
	c0-0.7-0.2-1.4-0.6-1.9c0.4-0.4,0.7-0.9,0.9-1.6c1-4,1.8-8,2.5-12c0.1-0.4,0.1-0.8,0-1.2c0.3-0.7,0.6-1.4,0.9-2.1
	c2.1-2.4,3.9-5.1,5.5-7.8c0.6-0.9,0.7-1.8,0.5-2.6c0.6-0.8,1.1-1.6,1.7-2.3C275.3,209.4,270,206,267.1,208.5z M220.8,263.4
	c-3.9-0.5-7.9-2.7-11.4-4.5c-3.2-1.6-6.3-3.4-9.1-5.7c-1.2-1-7.5-6.7-5.7-8.3c0.3-0.3,0.6-0.7,0.8-1c2.7,0.6,5.4,0.2,8.1,0.5
	c3.1,0.4,5.8,1.5,8.3,3.2c1.8,1.2,3.5,2.5,5.1,4c1.6,4,3.3,8,5.1,11.9C221.6,263.5,221.2,263.5,220.8,263.4z"/>
<path class="st1" d="M348.2,291.9c-0.9-0.1-1.6,0.1-2.1,0.5c-0.7,0.1-1.3,0.2-1.9,0.5c-0.3-0.2-0.7-0.3-1.1-0.4
	c-0.7-0.9-1.9-1.4-3.1-1.3c-0.8-0.4-1.6-0.5-2.5-0.2c-2.6,1-4.9,2.4-6.9,4c-1.1-0.2-2.2-0.5-2.8-0.7c-3.2-1.1-6.3-2.5-9.6-3.4
	c-3.1-0.9-6.1-1.8-8.8-3.5c-1.6-1-3-1.9-4.5-2.6c0.3-1,0.3-2.1,0-3.2c-0.5-1.9-1.7-3.4-3-4.8c-0.9-1-2.3-1.2-3.6-0.9
	c-1.3-1.1-3.1-1.3-4.6,0.2c-1.3,1.4-2.4,2.8-3.3,4.3c-2.6-0.7-5-2.3-7.3-3.6c-3.2-1.8-6.4-3.1-10.1-3.6c-2.1-0.3-4.2-0.6-6.2-1
	c-0.5-1.9-1.6-3.6-3.8-4c-0.1,0-0.1,0-0.2,0c0-0.6-0.1-1.3-0.2-2c-0.5-2.5-4.1-3.4-5.8-1.7c-1.3,0.1-2.4,0.9-3.3,2
	c-0.5-0.2-0.9-0.3-1.4-0.4c-4.4-1.2-6.3,5.7-1.9,6.8h0.1c0,0.1-0.1,0.2-0.1,0.3c-0.8,3.1,2.5,5.5,5.2,4l0.1-0.1
	c0.1,0.1,0.1,0.1,0.1,0.2c1.2,1.4,3.5,1.2,4.8,0.2h0.1h0.1c0.8,1,2.2,1.4,3.5,1.2c2.6,0.7,5.2,0.9,7.9,1.4
	c5.7,0.9,10.2,4.8,15.5,6.7c-0.2,2,1.6,3.6,3.5,3.7c0.1,0.1,0.2,0.2,0.3,0.3c1,2.4,4.7,3.5,6.4,0.7c0.3-0.6,0.7-1.1,1-1.7
	c0.5,0.3,1,0.5,1.7,0.6c1.9,0.2,3.7,1.9,5.3,2.9c1.7,1,3.4,1.8,5.3,2.5c3.9,1.5,8,2.4,11.9,3.9c0.9,0.4,1.9,0.7,2.9,1
	c0,2.2,2.3,4.5,4.5,3.6c1.5-0.6,3-1.3,4.4-2.1c1.1,1.4,3,2.2,4.6,1c1.1-0.8,2.2-1.7,3.2-2.7c1,0.3,2.2,0,3.2-0.9
	c0.7-0.7,1.2-0.6,2.1-0.3c2.2,0.7,4.6-1.2,4.5-3.4C352.4,293.6,350.7,292.2,348.2,291.9z"/>
<path class="st1" d="M278.2,272.2c-0.2-0.2-0.4-0.5-0.5-0.7c0.2-2.2-1.6-4.7-4.4-4c-8.1,2.1-13.9,9.7-13.8,18.1
	c0,3.3,3.7,4.2,5.7,2.8c1.1-0.5,1.9-1.5,2-3.1c0.1-3.4,1.7-6.8,4.5-8.8l0.1,0.1c0.6,0.6,1.6,1.1,2.5,1c0.3,0,0.6-0.1,0.9-0.1
	c0.6,0,1.2-0.2,1.8-0.5c0.5-0.3,1-0.7,1.3-1.3C278.8,274.7,278.9,273.2,278.2,272.2z"/>
<path class="st1" d="M308.4,286.5L308.4,286.5c0.1-0.6,0.2-1.2,0.2-1.7c-2.5,0.4-4.9,1.7-7.2,3.2c-0.8,0.5-1.7,1.3-2.6,2.1
	c0.4,1.3,0.3,2.8-0.5,3.9s-0.8,2.7-1.5,3.9c-1,1.7-2.6,2.5-4.4,3c-3.5,0.9-6.6,1.7-8.7,5c-1.4,2.2-1.5,4.5-1.1,6.9
	c0.2,1.2,0.4,2.5,0.7,3.7c1.8,0.4,3.8-0.3,4.2-2.4c0.2-0.9,0.4-1.8,0.7-2.7c1.1-2.1,3.6-4.2,5.5-4.7c3.1-0.9,6.5,1.6,9.2,2.7
	c1.8,0.8,3.8,0.5,4.9-1.3c0.9-1.5,0.5-4.1-1.3-4.9c-1.3-0.5-2.5-1.1-3.7-1.7c-0.1-0.6-0.4-1.1-0.8-1.6c0.2-0.4,0.3-0.9,0.3-1.4
	c0-0.9,0.1-1.7,0.2-2.5c0.5,0,0.9-0.2,1.3-0.4c1.5,0.5,3.2,0.1,4.1-1.5c0.2-0.6,0.5-1,1.1-1.2C311.9,291.3,310.8,287.5,308.4,286.5z
	"/>
<path class="st1" d="M355.1,302c0.3-1.7-0.6-2.9-2-3.4c-0.7-2.3-3.6-3.8-5.8-1.6c-0.1,0.1-0.3,0.3-0.4,0.4c-1-0.3-2.2-0.1-3.1,1.1
	l-0.1,0.1c-1.3-1-3.2-1.2-4.6,0.3c-1.5,1.6-2.9,3.2-4.4,4.7c-0.9,0-1.8,0.2-2.6,0.8c-4.1,3.2-8.9,5.2-13.7,6.9
	c-5.3,2-10.7,3.9-16,5.8c-4.3,1.5-2.4,8.4,1.9,6.8c8.3-3,17.2-5.5,25.1-9.7c1.3,1.3,3.4,1.7,4.9,0l1.6-1.8c0.8,0.2,1.6,0.2,2.4-0.2
	c1.1,0.4,2.4,0.3,3.7-0.6c1.1,0.4,2.5,0.3,3.7-0.7c0.8-0.6,1.5-1.3,2.3-1.9c1,0.8,2.5,1,3.9,0.3c1.1-0.5,2.2-1,3.3-1.5
	C358.1,306.7,357.3,303.3,355.1,302z"/>
<path class="st1" d="M194.1,302.9c-3.9-2.8-7-6.6-11.1-9c-4-2.3-8.4-1.8-12.7-1.2c-4.5,2.2-8.6,5-11.7,9c1,0.2,2.1-0.1,3-1
	c0.3-0.1,0.6-0.2,0.9-0.3c0.8-0.4,1.7-0.8,2.7-1.3c0.1,0,0.1,0,0.2,0c4.3-1.2,9-0.7,11.9,3c3.1,3.9,4.5,9.4,5,14.3
	c0.4,4.5,7.5,4.5,7.1,0c0-0.2,0-0.4-0.1-0.7c0.3-0.5,0.5-1,0.5-1.7c0.1-1.5,0.1-3-0.1-4.5c0.2-0.3,0.4-0.5,0.6-0.8
	c0.4-0.4,0.7-0.8,0.9-1.4c0.5-1.2,1.1-2.4,2-3.4c0.4-0.3,0.9-0.5,1.4-0.7C194.3,303.1,194.2,303,194.1,302.9z"/>
<path class="st1" d="M215.4,289.7c-1.8,1.2-3.8,2.3-5.8,3.2c-3.4,2.7-6.2,6.3-9.4,9.2c-0.3,0.3-0.6,0.5-1,0.7
	c1.7,0.2,3.3,0.3,5.1-0.2s3.3-1.5,4.7-2.6c1.5-1.1,2.8-2,4.7-2.2c2.3-0.3,4.5,0,6.7-0.8c3.3-1.1,5.7-3.6,7.1-6.8
	C223.5,289.6,219.3,288.7,215.4,289.7z"/>
<path class="st1" d="M288.5,323.7c-0.5-1.6-2-2.7-4-1.9l0,0c-0.5-0.5-1.3-0.8-2.2-0.8l0,0c-0.9-0.4-1.8-0.6-2.8-0.8
	c-0.2-0.1-0.5-0.3-0.7-0.4c-0.9-0.4-1.8-0.6-2.7-0.6c-1.1-0.2-2.2-0.2-3.3-0.1c-1.1,0.1-2.2,0.3-3.2,0.7c-0.6,0.2-1.5,0.8-2.1,1.1
	l-0.1-0.1c-0.4-0.3-0.7-0.6-1.1-0.9c-0.8-0.6-1.5-1.1-2.4-1.5c-1.8-1-3.7-1.7-5.7-2.1c-4.4-0.9-8.9-0.4-12.9,1.2
	c-3.7,1.2-7.1,3.4-10.4,5.7c-1.3,0.9-2.5,1.8-3.6,2.8c-3.5,3.1,1.5,7.8,5,5c0.8-0.6,1.6-1.2,2.4-1.9c1.1,0.5,2.5,0.4,3.6-0.9
	c0.5-0.6,1.1-1.2,1.8-1.7c1.3-0.4,2.7-0.7,4-0.8c2.9-0.3,4.5,0.4,6.6,2.3c1.6,1.5,3.3,2.9,5.1,4.2c3.5,2.6,6.9,3.4,10.7,0.8
	c0.1-0.1,0.2-0.1,0.3-0.2c0.2,0,0.5,0,0.7-0.1c4.4-0.7,8.7-1.9,12.9-3.5c0.5,0.3,1.1,0.5,1.8,0.5
	C289.6,329.9,290.4,325.7,288.5,323.7z"/>
<path class="st1" d="M350.4,300.1c-7.7,2.5-15.4,5-23.2,7.5c-1.4,0.4-2.7,1-4.1,1.5c-2.3-3.3-6.6-5.1-10.6-4
	c-1.9,0.5-3.6,1.7-4.8,3.2c-0.6-0.3-1.2-0.6-1.7-0.8c-6-2.4-12.7-2.3-18,1.8c-4.7,3.7-7.1,9.4-9.2,14.9c-0.5-0.1-1-0.2-1.5-0.1
	c-0.2,0-0.4,0.1-0.6,0.1c-0.2-0.3-0.6-0.6-0.9-0.9c-3.9-2.5-8.9-3.4-13.4-2.1c-3.4,1-5.7,3-7.8,5.5c-0.5-0.5-1.3-1-1.7-1.2
	c-1.1-0.7-2.3-1.3-3.6-1.8c-1.7-0.6-3.4-0.8-5.1-0.7h-0.1c-3.9-1-7.9-0.2-11.1,1.9c-2.4-4.5-6.2-8.2-10.8-10.2
	c-0.7-0.4-1.5-0.6-2.2-0.8c-1.3-0.4-2.7-0.7-4.1-0.8c-4.4-0.4-9.1,0.8-12.7,3.2c-2.2,1.5-4.6,3.6-5.8,6.2c-0.8,0.1-1.7,0.2-2.5,0.1
	c-9.2-0.6-18.8-3-26.8-7.6c-7.8-4.6-15-10.4-23.9-12.7c-8.4-2.2-18.3-0.7-23.9,6.4c-2.8,3.5,2.2,8.6,5,5c0.4-0.5,0.8-0.9,1.2-1.3
	c0.2,0.1,0.3,0.2,0.5,0.4c0.5,1.4,1.9,2.2,3.4,2.4c8.6,1.1,16.6,5.2,24.7,8.2c8.5,3.2,17.2,5.7,26,7.8c8.4,2,16,4.9,23.8,8.5
	c7.3,3.5,14.6,6.6,22.7,7.5c1.5,0.2,2.5-0.5,3-1.5c0.6-0.2,1.1-0.4,1.7-0.6c0.8,0.6,1.8,0.9,3.1,0.6c12.6-3.4,25-7.5,37.1-12.3
	c0.7,0.4,1.6,0.6,2.7,0.2c14.4-5.3,28.7-11.2,43.6-15c1-0.2,1.6-0.7,2-1.4c3.5-1.1,6.9-2.2,10.3-3.4c7.2-2.3,14.3-4.7,21.5-7
	C356.6,305.5,354.7,298.6,350.4,300.1z"/>
<g>
	<path class="st2" d="M405.5,229.7H299.8c-0.5,0-1-0.2-1.3-0.6c-0.3-0.4-0.5-0.9-0.4-1.4c0.7-5.9,7-10,16.1-10.6
		c0.6-4.3,3.5-7.9,7.6-9.4c0.9-10.8,10.1-19.4,21.1-19.4c10.3,0,19.1,7.5,20.8,17.4c1.5-0.2,3.1-0.3,4.7-0.3
		c8.8,0,15.4,2.8,17.8,7.7c1.6,0.1,3.2,0.3,4.9,0.7c10.4,2.1,16.8,7.7,16.2,14.3C407.2,229,406.4,229.7,405.5,229.7z M302.2,226.2
		h101.4c-0.8-3.9-5.9-7.4-13.3-8.9c-1.9-0.4-3.7-0.6-5.4-0.6c-0.7,0-1.4-0.5-1.6-1.2c-1.4-4-7.1-6.4-14.9-6.4
		c-2.1,0-4.1,0.2-5.9,0.5c-0.5,0.1-1,0-1.4-0.3s-0.7-0.8-0.7-1.3c-0.8-9-8.5-16.1-17.6-16.1c-9.5,0-17.4,7.7-17.6,17.2
		c0,0.8-0.6,1.5-1.4,1.7c-3.7,0.9-6.3,4.2-6.3,8l0,0c0,1-0.8,1.8-1.7,1.8C309,220.7,303.9,222.9,302.2,226.2z"/>
</g>
<path class="st2" d="M352.6,215.7c-0.4,0-0.9-0.2-1.2-0.5c-0.7-0.7-0.7-1.8-0.1-2.5c0.2-0.2,4.4-4.6,10.2-6.6
	c0.9-0.3,1.9,0.2,2.3,1.1c0.3,0.9-0.2,1.9-1.1,2.3c-5.1,1.8-8.8,5.7-8.8,5.7C353.6,215.5,353.1,215.7,352.6,215.7z"/>
<path class="st2" d="M332.6,212.7c-0.5,0-1-0.2-1.4-0.7c-0.9-1.2-3.7-2.6-7.1-1.3c-0.9,0.4-1.9-0.1-2.3-1s0.1-1.9,1-2.3
	c4.7-1.8,9.2-0.2,11.2,2.4c0.6,0.8,0.5,1.9-0.3,2.5C333.4,212.5,333,212.7,332.6,212.7z"/>
<path class="st2" d="M413.5,251.2c-1,0-1.8-0.8-1.8-1.8V243c0-1,0.8-1.8,1.8-1.8s1.8,0.8,1.8,1.8v6.4
	C415.2,250.4,414.5,251.2,413.5,251.2z"/>
<path class="st2" d="M404,255.1c-0.5,0-0.9-0.2-1.3-0.5l-4.6-4.6c-0.7-0.7-0.7-1.8,0-2.5s1.8-0.7,2.5,0l4.6,4.6
	c0.7,0.7,0.7,1.8,0,2.5C404.9,255,404.5,255.1,404,255.1z"/>
<path class="st2" d="M400.1,264.6h-6.4c-1,0-1.8-0.8-1.8-1.8s0.8-1.8,1.8-1.8h6.4c1,0,1.8,0.8,1.8,1.8
	C401.9,263.8,401.1,264.6,400.1,264.6z"/>
<path class="st2" d="M399.5,278.6c-0.5,0-0.9-0.2-1.3-0.5c-0.7-0.7-0.7-1.8,0-2.5l4.6-4.6c0.7-0.7,1.8-0.7,2.5,0s0.7,1.8,0,2.5
	l-4.6,4.6C400.4,278.4,399.9,278.6,399.5,278.6z"/>
<path class="st2" d="M413.5,284.4c-1,0-1.8-0.8-1.8-1.8v-6.4c0-1,0.8-1.8,1.8-1.8s1.8,0.8,1.8,1.8v6.4
	C415.2,283.6,414.5,284.4,413.5,284.4z"/>
<path class="st2" d="M427.5,278.6c-0.5,0-0.9-0.2-1.3-0.5l-4.6-4.6c-0.7-0.7-0.7-1.8,0-2.5s1.8-0.7,2.5,0l4.6,4.6
	c0.7,0.7,0.7,1.8,0,2.5C428.4,278.4,427.9,278.6,427.5,278.6z"/>
<path class="st2" d="M433.3,264.6h-6.4c-1,0-1.8-0.8-1.8-1.8s0.8-1.8,1.8-1.8h6.4c1,0,1.8,0.8,1.8,1.8
	C435.1,263.8,434.3,264.6,433.3,264.6z"/>
<path class="st2" d="M422.9,255.1c-0.5,0-0.9-0.2-1.3-0.5c-0.7-0.7-0.7-1.8,0-2.5l4.6-4.6c0.7-0.7,1.8-0.7,2.5,0s0.7,1.8,0,2.5
	l-4.6,4.6C423.8,255,423.4,255.1,422.9,255.1z"/>
<path class="st2" d="M285.5,91.4c-1,0-1.8-0.8-1.8-1.8v-6.4c0-1,0.8-1.8,1.8-1.8s1.8,0.8,1.8,1.8v6.4
	C287.3,90.6,286.5,91.4,285.5,91.4z"/>
<path class="st2" d="M276.1,95.3c-0.5,0-0.9-0.2-1.3-0.5l-4.6-4.6c-0.7-0.7-0.7-1.8,0-2.5s1.8-0.7,2.5,0l4.6,4.6
	c0.7,0.7,0.7,1.8,0,2.5C277,95.1,276.5,95.3,276.1,95.3z"/>
<path class="st2" d="M272.1,104.8h-6.4c-1,0-1.8-0.8-1.8-1.8s0.8-1.8,1.8-1.8h6.4c1,0,1.8,0.8,1.8,1.8S273.1,104.8,272.1,104.8z"/>
<path class="st2" d="M271.5,118.8c-0.5,0-0.9-0.2-1.3-0.5c-0.7-0.7-0.7-1.8,0-2.5l4.6-4.6c0.7-0.7,1.8-0.7,2.5,0s0.7,1.8,0,2.5
	l-4.6,4.6C272.4,118.6,272,118.8,271.5,118.8z"/>
<path class="st2" d="M285.5,124.6c-1,0-1.8-0.8-1.8-1.8v-6.4c0-1,0.8-1.8,1.8-1.8s1.8,0.8,1.8,1.8v6.4
	C287.3,123.8,286.5,124.6,285.5,124.6z"/>
<path class="st2" d="M299.6,118.8c-0.5,0-0.9-0.2-1.3-0.5l-4.6-4.6c-0.7-0.7-0.7-1.8,0-2.5s1.8-0.7,2.5,0l4.6,4.6
	c0.7,0.7,0.7,1.8,0,2.5C300.5,118.6,300,118.8,299.6,118.8z"/>
<path class="st2" d="M305.4,104.8H299c-1,0-1.8-0.8-1.8-1.8s0.8-1.8,1.8-1.8h6.4c1,0,1.8,0.8,1.8,1.8
	C307.1,104,306.3,104.8,305.4,104.8z"/>
<path class="st2" d="M295,95.3c-0.5,0-0.9-0.2-1.3-0.5c-0.7-0.7-0.7-1.8,0-2.5l4.6-4.6c0.7-0.7,1.8-0.7,2.5,0s0.7,1.8,0,2.5
	l-4.6,4.6C295.9,95.1,295.5,95.3,295,95.3z"/>
<path class="st2" d="M63,160.2c-1,0-1.8-0.8-1.8-1.8V152c0-1,0.8-1.8,1.8-1.8s1.8,0.8,1.8,1.8v6.4C64.8,159.4,64,160.2,63,160.2z"/>
<path class="st2" d="M53.6,164.1c-0.5,0-0.9-0.2-1.3-0.5l-4.6-4.6c-0.7-0.7-0.7-1.8,0-2.5s1.8-0.7,2.5,0l4.6,4.6
	c0.7,0.7,0.7,1.8,0,2.5C54.5,163.9,54,164.1,53.6,164.1z"/>
<path class="st2" d="M49.7,173.6h-6.4c-1,0-1.8-0.8-1.8-1.8s0.8-1.8,1.8-1.8h6.4c1,0,1.8,0.8,1.8,1.8S50.6,173.6,49.7,173.6z"/>
<path class="st2" d="M49,187.6c-0.5,0-0.9-0.2-1.3-0.5c-0.7-0.7-0.7-1.8,0-2.5l4.6-4.6c0.7-0.7,1.8-0.7,2.5,0s0.7,1.8,0,2.5
	l-4.6,4.6C49.9,187.4,49.5,187.6,49,187.6z"/>
<path class="st2" d="M63,193.4c-1,0-1.8-0.8-1.8-1.8v-6.4c0-1,0.8-1.8,1.8-1.8s1.8,0.8,1.8,1.8v6.4C64.8,192.6,64,193.4,63,193.4z"
	/>
<path class="st2" d="M77.1,187.6c-0.5,0-0.9-0.2-1.3-0.5l-4.6-4.6c-0.7-0.7-0.7-1.8,0-2.5s1.8-0.7,2.5,0l4.6,4.6
	c0.7,0.7,0.7,1.8,0,2.5C78,187.4,77.5,187.6,77.1,187.6z"/>
<path class="st2" d="M82.9,173.6h-6.4c-1,0-1.8-0.8-1.8-1.8s0.8-1.8,1.8-1.8h6.4c1,0,1.8,0.8,1.8,1.8S83.9,173.6,82.9,173.6z"/>
<path class="st2" d="M72.5,164.1c-0.5,0-0.9-0.2-1.3-0.5c-0.7-0.7-0.7-1.8,0-2.5l4.6-4.6c0.7-0.7,1.8-0.7,2.5,0s0.7,1.8,0,2.5
	l-4.6,4.6C73.4,163.9,73,164.1,72.5,164.1z"/>
<path class="st2" d="M202.7,48.1c-1,0-1.8-0.8-1.8-1.8v-6.4c0-1,0.8-1.8,1.8-1.8s1.8,0.8,1.8,1.8v6.4
	C204.4,47.3,203.6,48.1,202.7,48.1z"/>
<path class="st2" d="M193.2,52c-0.5,0-0.9-0.2-1.3-0.5l-4.6-4.6c-0.7-0.7-0.7-1.8,0-2.5s1.8-0.7,2.5,0l4.6,4.6
	c0.7,0.7,0.7,1.8,0,2.5C194.1,51.9,193.6,52,193.2,52z"/>
<path class="st2" d="M189.3,61.5h-6.4c-1,0-1.8-0.8-1.8-1.8s0.8-1.8,1.8-1.8h6.4c1,0,1.8,0.8,1.8,1.8
	C191,60.7,190.2,61.5,189.3,61.5z"/>
<path class="st2" d="M188.6,75.5c-0.5,0-0.9-0.2-1.3-0.5c-0.7-0.7-0.7-1.8,0-2.5l4.6-4.6c0.7-0.7,1.8-0.7,2.5,0s0.7,1.8,0,2.5
	l-4.6,4.6C189.5,75.4,189.1,75.5,188.6,75.5z"/>
<path class="st2" d="M202.7,81.3c-1,0-1.8-0.8-1.8-1.8v-6.4c0-1,0.8-1.8,1.8-1.8s1.8,0.8,1.8,1.8v6.4
	C204.4,80.5,203.6,81.3,202.7,81.3z"/>
<path class="st2" d="M216.7,75.5c-0.5,0-0.9-0.2-1.3-0.5l-4.6-4.6c-0.7-0.7-0.7-1.8,0-2.5s1.8-0.7,2.5,0l4.6,4.6
	c0.7,0.7,0.7,1.8,0,2.5C217.6,75.4,217.1,75.5,216.7,75.5z"/>
<path class="st2" d="M222.5,61.5H216c-1,0-1.8-0.8-1.8-1.8s0.8-1.8,1.8-1.8h6.4c1,0,1.8,0.8,1.8,1.8
	C224.3,60.7,223.5,61.5,222.5,61.5z"/>
<path class="st2" d="M212.1,52c-0.5,0-0.9-0.2-1.3-0.5c-0.7-0.7-0.7-1.8,0-2.5l4.6-4.6c0.7-0.7,1.8-0.7,2.5,0s0.7,1.8,0,2.5
	l-4.6,4.6C213,51.9,212.6,52,212.1,52z"/>
<path class="st2" d="M29.8,323.1c-1,0-1.8-0.8-1.8-1.8v-6.4c0-1,0.8-1.8,1.8-1.8s1.8,0.8,1.8,1.8v6.4
	C31.6,322.3,30.8,323.1,29.8,323.1z"/>
<path class="st2" d="M20.4,327.1c-0.5,0-0.9-0.2-1.3-0.5l-4.6-4.6c-0.7-0.7-0.7-1.8,0-2.5s1.8-0.7,2.5,0l4.6,4.6
	c0.7,0.7,0.7,1.8,0,2.5C21.3,326.9,20.8,327.1,20.4,327.1z"/>
<path class="st2" d="M16.5,336.5H10c-1,0-1.8-0.8-1.8-1.8S9,333,10,333h6.4c1,0,1.8,0.8,1.8,1.8S17.4,336.5,16.5,336.5z"/>
<path class="st2" d="M15.8,350.5c-0.5,0-0.9-0.2-1.3-0.5c-0.7-0.7-0.7-1.8,0-2.5l4.6-4.6c0.7-0.7,1.8-0.7,2.5,0s0.7,1.8,0,2.5
	L17,350C16.7,350.4,16.3,350.5,15.8,350.5z"/>
<path class="st2" d="M29.8,356.4c-1,0-1.8-0.8-1.8-1.8v-6.4c0-1,0.8-1.8,1.8-1.8s1.8,0.8,1.8,1.8v6.4
	C31.6,355.6,30.8,356.4,29.8,356.4z"/>
<path class="st2" d="M43.9,350.5c-0.5,0-0.9-0.2-1.3-0.5l-4.6-4.6c-0.7-0.7-0.7-1.8,0-2.5s1.8-0.7,2.5,0l4.6,4.6
	c0.7,0.7,0.7,1.8,0,2.5C44.8,350.4,44.3,350.5,43.9,350.5z"/>
<path class="st2" d="M49.7,336.5h-6.4c-1,0-1.8-0.8-1.8-1.8s0.8-1.8,1.8-1.8h6.4c1,0,1.8,0.8,1.8,1.8S50.7,336.5,49.7,336.5z"/>
<path class="st2" d="M39.3,327.1c-0.5,0-0.9-0.2-1.3-0.5c-0.7-0.7-0.7-1.8,0-2.5l4.6-4.6c0.7-0.7,1.8-0.7,2.5,0s0.7,1.8,0,2.5
	l-4.6,4.6C40.2,326.9,39.8,327.1,39.3,327.1z"/>
<path class="st2" d="M336.1,78.3c-1,0-1.8-0.8-1.8-1.8V62.4c0-1,0.8-1.8,1.8-1.8s1.8,0.8,1.8,1.8v14.1
	C337.9,77.5,337.1,78.3,336.1,78.3z"/>
<path class="st2" d="M343.1,71.2H329c-1,0-1.8-0.8-1.8-1.8s0.8-1.8,1.8-1.8h14.1c1,0,1.8,0.8,1.8,1.8
	C344.9,70.4,344.1,71.2,343.1,71.2z"/>
<path class="st1" d="M280.4,267.5c-2.9-4.1-6.4-7.8-11.2-9.5c-4.7-1.7-10.6-1.4-15.3,0.3c-8.2,2.9-13,10.6-12.7,18.9
	c-0.1,0-0.2,0.1-0.2,0.1c-0.1,0.1-0.2,0.1-0.3,0.2c-1.1,0.6-1.8,1.8-1.8,3.1c0,0.9,0.2,1.7,0.7,2.5c0.9,1.7,3.2,2.2,4.8,1.3
	c0.1,0,0.1,0,0.2,0c0.6,0.1,1.3,0,1.9-0.2c0.1,0,0.2-0.1,0.3-0.1c0.4,0.4,0.9,0.7,1.5,0.9c-0.7-2.4-0.9-4.9-0.5-7.6
	c0.7-4.7,2.7-10.6,6.2-14c4-3.9,10.5-4.6,15.5-2.3c4.7,2.2,7.6,6.6,9.3,11.3C280.4,271.8,281.9,269.7,280.4,267.5z"/>
<path class="st2" d="M231.4,197.9c-1,0-1.8-0.8-1.8-1.8V182c0-1,0.8-1.8,1.8-1.8s1.8,0.8,1.8,1.8v14.1
	C233.2,197.1,232.4,197.9,231.4,197.9z"/>
<path class="st2" d="M238.5,190.9h-14.1c-1,0-1.8-0.8-1.8-1.8s0.8-1.8,1.8-1.8h14.1c1,0,1.8,0.8,1.8,1.8
	C240.2,190.1,239.4,190.9,238.5,190.9z"/>
<path class="st2" d="M406.1,182.2c-1,0-1.8-0.8-1.8-1.8v-14.1c0-1,0.8-1.8,1.8-1.8s1.8,0.8,1.8,1.8v14.1
	C407.8,181.4,407,182.2,406.1,182.2z"/>
<path class="st2" d="M413.1,175.1H399c-1,0-1.8-0.8-1.8-1.8s0.8-1.8,1.8-1.8h14.1c1,0,1.8,0.8,1.8,1.8S414.1,175.1,413.1,175.1z"/>
<path class="st2" d="M367,251.8c-1,0-1.8-0.8-1.8-1.8v-14.1c0-1,0.8-1.8,1.8-1.8s1.8,0.8,1.8,1.8V250
	C368.7,251,367.9,251.8,367,251.8z"/>
<path class="st2" d="M374,244.8h-14.1c-1,0-1.8-0.8-1.8-1.8s0.8-1.8,1.8-1.8H374c1,0,1.8,0.8,1.8,1.8S375,244.8,374,244.8z"/>
<path class="st2" d="M45.7,119.9c-1,0-1.8-0.8-1.8-1.8V104c0-1,0.8-1.8,1.8-1.8s1.8,0.8,1.8,1.8v14.1
	C47.4,119.1,46.6,119.9,45.7,119.9z"/>
<path class="st2" d="M52.7,112.8H38.6c-1,0-1.8-0.8-1.8-1.8s0.8-1.8,1.8-1.8h14.1c1,0,1.8,0.8,1.8,1.8
	C54.5,112,53.7,112.8,52.7,112.8z"/>
<path class="st2" d="M196,117.1c-1,0-1.8-0.8-1.8-1.8v-14.1c0-1,0.8-1.8,1.8-1.8s1.8,0.8,1.8,1.8v14.1
	C197.8,116.3,197,117.1,196,117.1z"/>
<path class="st2" d="M203,110h-14.1c-1,0-1.8-0.8-1.8-1.8s0.8-1.8,1.8-1.8H203c1,0,1.8,0.8,1.8,1.8S204,110,203,110z"/>
<path class="st2" d="M45.7,287.2c-1,0-1.8-0.8-1.8-1.8v-14.1c0-1,0.8-1.8,1.8-1.8s1.8,0.8,1.8,1.8v14.1
	C47.4,286.4,46.6,287.2,45.7,287.2z"/>
<path class="st2" d="M52.7,280.1H38.6c-1,0-1.8-0.8-1.8-1.8s0.8-1.8,1.8-1.8h14.1c1,0,1.8,0.8,1.8,1.8S53.7,280.1,52.7,280.1z"/>
<path class="st2" d="M248.6,384.2c-0.6,0-1.2-0.3-1.5-0.9l-20.5-34c-0.3-0.5-0.3-1-0.1-1.5s0.6-0.9,1.1-1.1l130.3-42.3
	c0.8-0.3,1.6,0.1,2.1,0.8l20.5,34c0.3,0.5,0.3,1,0.1,1.5c-0.2,0.5-0.6,0.9-1.1,1.1l-130.3,42.3C249,384.1,248.8,384.2,248.6,384.2z
	 M230.9,349.4l18.6,30.9l126.8-41.2l-18.6-30.9L230.9,349.4z"/>
<polygon class="st0" points="352.1,154.9 341.8,152 322.3,166.9 318.8,187.3 348.7,167.9 "/>
<path class="st2" d="M207.7,384.2c-0.2,0-0.4,0-0.5-0.1L76.9,341.8c-0.5-0.2-0.9-0.6-1.1-1.1s-0.1-1.1,0.1-1.5l20.5-34
	c0.4-0.7,1.3-1,2.1-0.8l130.3,42.3c0.5,0.2,0.9,0.6,1.1,1.1c0.2,0.5,0.1,1.1-0.1,1.5l-20.5,34C208.9,383.8,208.3,384.2,207.7,384.2z
	 M80.1,339.1l126.8,41.2l18.6-30.9L98.7,308.2L80.1,339.1z"/>
<path class="st2" d="M150.2,231.6H31.6c-0.7,0-1.3-0.4-1.6-1c-0.3-0.6-0.2-1.4,0.3-1.9c3.4-4,9.1-7.6,15.7-9.9
	c4.5-1.5,9.1-2.4,13.2-2.4c2.7,0,5.2,0.4,7.3,1.1c3.1-2.3,7-4.3,11.2-5.7c3-1,6.1-1.8,9.1-2.1c0-0.1,0-0.1,0-0.2
	c0-12.7,10.3-23,23-23s23,10.3,23,23c0,1.5-0.2,3-0.5,4.5c1.4,0.5,2.8,1.1,4.2,1.8c7,3.4,12.6,8.3,15.2,13.1c0.3,0.5,0.3,1.2,0,1.7
	C151.4,231.2,150.8,231.6,150.2,231.6z M36,228h110.9c-2.6-3.3-6.9-6.6-11.9-9c-1.7-0.8-3.5-1.6-5.3-2.2c-0.9-0.3-1.4-1.2-1.2-2.2
	c0.5-1.7,0.7-3.5,0.7-5.2c0-10.7-8.7-19.5-19.5-19.5c-10.7,0-19.5,8.7-19.5,19.5c0,0.5,0,1,0.1,1.6c0,0.5-0.1,0.9-0.4,1.3
	c-0.3,0.4-0.7,0.6-1.2,0.6c-3.2,0.2-6.6,1-9.9,2.1c-4.2,1.4-8,3.4-10.9,5.8c-0.5,0.4-1.2,0.5-1.8,0.2c-1.8-0.8-4.2-1.2-6.9-1.2
	c-3.8,0-7.9,0.8-12.1,2.2C42.8,223.6,39,225.7,36,228z"/>
<path class="st2" d="M106.2,218.9c-0.5,0-1-0.2-1.3-0.6c-2.7-2.9-8.6-6.1-16.1-5.3c-1,0.1-1.8-0.6-1.9-1.6s0.6-1.8,1.6-1.9
	c8.8-0.9,15.8,2.9,19,6.5c0.7,0.7,0.6,1.8-0.1,2.5C107,218.8,106.6,218.9,106.2,218.9z"/>
<g>
	<path class="st2" d="M311.7,153.9c-0.1,0-0.1,0-0.2,0l-21-2.1c-0.7-0.1-1.3-0.5-1.5-1.2s0-1.4,0.5-1.9l26.4-23.4
		c0.3-0.3,0.7-0.4,1.1-0.4l14.9-1c0.5,0,1.1,0.2,1.4,0.6c0.4,0.4,0.5,1,0.4,1.5l-2.5,13.1c-0.1,0.4-0.3,0.8-0.7,1.1l-17.8,13.4
		C312.5,153.8,312.1,153.9,311.7,153.9z M294.9,148.7l16.3,1.6l16.7-12.5l1.9-10.2l-12,0.8L294.9,148.7z"/>
</g>
<g>
	<path class="st2" d="M375.9,139.3c-0.1,0-0.2,0-0.3,0c-0.5-0.1-0.9-0.3-1.2-0.7L352.9,110c-0.3-0.4-0.4-0.8-0.3-1.3
		s0.3-0.9,0.7-1.2l14.2-10.7c0.4-0.3,0.8-0.4,1.3-0.3l25.3,3.4c0.5,0.1,0.9,0.3,1.2,0.7c0.3,0.4,0.4,0.9,0.3,1.3l-3.8,25.3
		c-0.1,0.5-0.3,0.9-0.7,1.2L377,139C376.7,139.2,376.3,139.3,375.9,139.3z M356.9,109.3l19.4,25.8l12.2-9.2l3.4-22.8l-22.8-3
		L356.9,109.3z"/>
</g>
<g>
	<path class="st2" d="M322.5,168.3c-0.5,0-1.1-0.2-1.4-0.7l-10.8-14.3c-0.3-0.4-0.4-0.8-0.3-1.3s0.3-0.9,0.7-1.2l17.2-12.9l2.4-12.4
		c0.1-0.4,0.3-0.8,0.7-1.1l11.8-8.8c0.4-0.3,0.8-0.4,1.3-0.3s0.9,0.3,1.2,0.7l21.5,28.7c0.3,0.4,0.4,0.8,0.3,1.3s-0.3,0.9-0.7,1.2
		l-11.8,8.8c-0.4,0.3-0.8,0.4-1.2,0.3l-12.6-1.2L323.6,168C323.2,168.1,322.8,168.3,322.5,168.3z M314.2,152.5l8.6,11.5l16.4-12.3
		c0.4-0.3,0.8-0.4,1.2-0.3l12.6,1.2l9.8-7.4l-19.4-25.8l-9.8,7.4l-2.4,12.4c-0.1,0.4-0.3,0.8-0.7,1.1L314.2,152.5z"/>
</g>
<g>
	<path class="st2" d="M318.6,189c-0.3,0-0.7-0.1-1-0.3c-0.6-0.4-0.9-1.1-0.8-1.8l3.8-20.7c0.1-0.4,0.3-0.8,0.7-1.1l17.8-13.4
		c0.4-0.3,0.8-0.4,1.2-0.3l13.3,1.2c0.5,0.1,1,0.4,1.3,0.8c0.3,0.5,0.4,1,0.2,1.6l-5.1,14c-0.1,0.4-0.4,0.7-0.7,0.9l-29.8,18.9
		C319.3,188.9,319,189,318.6,189z M324.1,167.5l-3,16.1l25.9-16.4l4.1-11.3l-10.3-1L324.1,167.5z"/>
</g>
<g>
	<path class="st2" d="M337.1,157.2c-0.1,0-0.2,0-0.3,0c-0.5-0.1-0.9-0.3-1.2-0.7L325,142.2c-0.6-0.8-0.4-1.9,0.4-2.5l3.1-2.4
		c0.4-0.3,0.8-0.4,1.3-0.3c0.5,0.1,0.9,0.3,1.2,0.7l10.8,14.3c0.6,0.8,0.4,1.9-0.4,2.5l-3.1,2.4
		C337.9,157.1,337.5,157.2,337.1,157.2z"/>
</g>
<g>
	<path class="st2" d="M363.7,145.2c-0.5,0-1.1-0.2-1.4-0.7L343.9,120c-0.3-0.4-0.4-0.8-0.3-1.3s0.3-0.9,0.7-1.2l10.6-8
		c0.8-0.6,1.9-0.4,2.5,0.4l18.3,24.4c0.6,0.8,0.4,1.9-0.4,2.5l-10.6,8C364.5,145.1,364.1,145.2,363.7,145.2z M347.8,119.3l16.2,21.6
		l7.8-5.8l-16.2-21.6L347.8,119.3z"/>
</g>
<g>
	<path class="st2" d="M360,140.3c-0.5,0-1.1-0.2-1.4-0.7c-0.6-0.8-0.4-1.9,0.4-2.5l10.6-8c0.8-0.6,1.9-0.4,2.5,0.4
		c0.6,0.8,0.4,1.9-0.4,2.5l-10.6,8C360.8,140.2,360.4,140.3,360,140.3z"/>
</g>
<g>
	<path class="st2" d="M356.4,135.4c-0.5,0-1.1-0.2-1.4-0.7c-0.6-0.8-0.4-1.9,0.4-2.5l10.6-8c0.8-0.6,1.9-0.4,2.5,0.4
		s0.4,1.9-0.4,2.5l-10.6,8C357.1,135.3,356.7,135.4,356.4,135.4z"/>
</g>
<polygon class="st0" points="141.9,109.5 155.7,111.6 179.2,134.2 172.2,136.5 158,136.6 142.3,123.1 "/>
<g>
	<path class="st2" d="M352.7,130.5c-0.5,0-1.1-0.2-1.4-0.7c-0.6-0.8-0.4-1.9,0.4-2.5l10.6-8c0.8-0.6,1.9-0.4,2.5,0.4
		s0.4,1.9-0.4,2.5l-10.6,8C353.4,130.4,353.1,130.5,352.7,130.5z"/>
</g>
<g>
	<path class="st2" d="M349,125.6c-0.5,0-1.1-0.2-1.4-0.7c-0.6-0.8-0.4-1.9,0.4-2.5l10.6-8c0.8-0.6,1.9-0.4,2.5,0.4s0.4,1.9-0.4,2.5
		l-10.6,8C349.8,125.5,349.4,125.6,349,125.6z"/>
</g>
<g>
	<path class="st2" d="M391.6,118.6c-0.5,0-1.1-0.2-1.4-0.7l-13-17.3c-0.6-0.8-0.4-1.9,0.4-2.5s1.9-0.4,2.5,0.4l13,17.3
		c0.6,0.8,0.4,1.9-0.4,2.5C392.4,118.5,392,118.6,391.6,118.6z"/>
</g>
<g>
	<path class="st2" d="M374.4,119.5L374.4,119.5c-1,0-2-0.5-2.6-1.3c-0.5-0.7-0.7-1.5-0.6-2.4s0.6-1.6,1.3-2.1
		c0.6-0.4,1.2-0.6,1.9-0.6c1,0,2,0.5,2.6,1.3c0.5,0.7,0.7,1.5,0.6,2.4c-0.1,0.8-0.6,1.6-1.3,2.1
		C375.8,119.3,375.1,119.5,374.4,119.5z"/>
</g>
<g>
	<path class="st2" d="M345.4,141.3L345.4,141.3c-1,0-2-0.5-2.6-1.3c-0.5-0.7-0.7-1.5-0.6-2.4c0.1-0.8,0.6-1.6,1.3-2.1
		c0.6-0.4,1.2-0.6,1.9-0.6c1,0,2,0.5,2.6,1.3c1.1,1.4,0.8,3.4-0.6,4.5C346.7,141.1,346.1,141.3,345.4,141.3z"/>
</g>
<g>
	<path class="st2" d="M150.8,173.6c-0.4,0-0.7-0.1-1-0.3l-28.9-20.1c-0.3-0.2-0.6-0.5-0.7-0.9l-4.5-14.2c-0.2-0.5-0.1-1.1,0.2-1.5
		c0.3-0.5,0.8-0.7,1.4-0.8l13.3-0.7c0.4,0,0.9,0.1,1.2,0.4l17.2,14.1c0.3,0.3,0.6,0.7,0.6,1.1l2.9,20.7c0,0.1,0.1,0.3,0.1,0.5
		C152.6,172.8,151.8,173.6,150.8,173.6L150.8,173.6z M123.3,150.6l25.1,17.5l-2.3-16.2L130,138.7l-10.3,0.5L123.3,150.6z"/>
</g>
<g>
	<path class="st2" d="M95.7,121.5c-0.4,0-0.8-0.1-1.1-0.4l-13.7-11.3c-0.4-0.3-0.6-0.7-0.6-1.2l-2.7-25.4c-0.1-0.5,0.1-0.9,0.4-1.3
		s0.7-0.6,1.2-0.6l25.5-2.3c0.5,0,0.9,0.1,1.3,0.4l13.7,11.3c0.4,0.3,0.6,0.7,0.6,1.2s-0.1,0.9-0.4,1.3l-22.7,27.7
		c-0.3,0.4-0.7,0.6-1.2,0.6C95.9,121.5,95.8,121.5,95.7,121.5z M83.7,107.5l11.8,9.7l20.5-25l-11.8-9.7l-22.9,2.1L83.7,107.5z"/>
</g>
<g>
	<path class="st2" d="M147.9,152.7c-0.4,0-0.8-0.1-1.1-0.4l-16.7-13.7l-12.6,0.6c-0.4,0-0.9-0.1-1.2-0.4l-11.4-9.3
		c-0.8-0.6-0.9-1.7-0.2-2.5l22.7-27.7c0.6-0.8,1.7-0.9,2.5-0.2l11.4,9.3c0.3,0.3,0.6,0.7,0.6,1.1l1.8,12.5l16.7,13.7
		c0.4,0.3,0.6,0.7,0.6,1.2s-0.1,0.9-0.4,1.3l-11.4,13.9C148.9,152.5,148.4,152.7,147.9,152.7z M130.7,135c0.4,0,0.8,0.1,1.1,0.4
		l15.8,13l9.1-11.1l-15.8-13c-0.3-0.3-0.6-0.7-0.6-1.1l-1.8-12.5l-9.5-7.8l-20.5,25l9.5,7.8L130.7,135
		C130.6,135,130.6,135,130.7,135z"/>
</g>
<g>
	<path class="st2" d="M159.2,138.9c-0.4,0-0.8-0.1-1.1-0.4l-17.2-14.1c-0.3-0.3-0.6-0.7-0.6-1.1l-1.9-13.2c-0.1-0.5,0.1-1.1,0.5-1.5
		s0.9-0.6,1.5-0.5l14.8,1.6c0.4,0,0.8,0.2,1,0.5l25.4,24.5c0.5,0.5,0.7,1.2,0.4,1.9c-0.2,0.7-0.9,1.1-1.6,1.2l-21.1,1.2
		C159.3,138.9,159.3,138.9,159.2,138.9z M143.7,122l16.1,13.2l16.3-0.9l-22-21.2l-11.9-1.3L143.7,122z"/>
</g>
<g>
	<path class="st2" d="M133.7,141.1c-0.4,0-0.8-0.1-1.1-0.4l-3-2.5c-0.4-0.3-0.6-0.7-0.6-1.2s0.1-0.9,0.4-1.3l11.4-13.9
		c0.6-0.8,1.7-0.9,2.5-0.2l3,2.5c0.4,0.3,0.6,0.7,0.6,1.2s-0.1,0.9-0.4,1.3l-11.4,13.9C134.7,140.9,134.2,141.1,133.7,141.1z"/>
</g>
<g>
	<path class="st2" d="M107.7,127.9c-0.4,0-0.8-0.1-1.1-0.4l-10.2-8.4c-0.4-0.3-0.6-0.7-0.6-1.2s0.1-0.9,0.4-1.3L115.4,93
		c0.6-0.8,1.7-0.9,2.5-0.2l10.2,8.4c0.4,0.3,0.6,0.7,0.6,1.2s-0.1,0.9-0.4,1.3L109,127.2C108.7,127.7,108.2,127.9,107.7,127.9z
		 M99.9,117.4l7.5,6.2l17.1-20.9l-7.5-6.2L99.9,117.4z"/>
</g>
<g>
	<path class="st2" d="M123.2,109c-0.4,0-0.8-0.1-1.1-0.4l-10.2-8.4c-0.8-0.6-0.9-1.7-0.2-2.5c0.6-0.8,1.7-0.9,2.5-0.2l10.2,8.4
		c0.8,0.6,0.9,1.7,0.2,2.5C124.2,108.8,123.7,109,123.2,109z"/>
</g>
<g>
	<path class="st2" d="M119.3,113.7c-0.4,0-0.8-0.1-1.1-0.4l-10.2-8.4c-0.8-0.6-0.9-1.7-0.2-2.5c0.6-0.8,1.7-0.9,2.5-0.2l10.2,8.4
		c0.8,0.6,0.9,1.7,0.2,2.5C120.3,113.5,119.8,113.7,119.3,113.7z"/>
</g>
<g>
	<path class="st2" d="M115.4,118.4c-0.4,0-0.8-0.1-1.1-0.4l-10.2-8.4c-0.8-0.6-0.9-1.7-0.2-2.5c0.6-0.8,1.7-0.9,2.5-0.2l10.2,8.4
		c0.8,0.6,0.9,1.7,0.2,2.5C116.4,118.2,115.9,118.4,115.4,118.4z"/>
</g>
<g>
	<path class="st2" d="M111.5,123.2c-0.4,0-0.8-0.1-1.1-0.4l-10.2-8.4c-0.8-0.6-0.9-1.7-0.2-2.5c0.6-0.8,1.7-0.9,2.5-0.2l10.2,8.4
		c0.8,0.6,0.9,1.7,0.2,2.5C112.6,122.9,112,123.2,111.5,123.2z"/>
</g>
<g>
	<path class="st2" d="M80.9,100.1c-0.4,0-0.8-0.1-1.1-0.4c-0.8-0.6-0.9-1.7-0.2-2.5l13.7-16.7c0.6-0.8,1.7-0.9,2.5-0.2
		c0.8,0.6,0.9,1.7,0.2,2.5L82.3,99.5C81.9,99.9,81.4,100.1,80.9,100.1z"/>
</g>
<g>
	<path class="st2" d="M98.1,101.7L98.1,101.7c-0.7,0-1.5-0.3-2-0.7c-1.4-1.1-1.6-3.2-0.4-4.5c0.6-0.7,1.5-1.2,2.5-1.2
		c0.7,0,1.5,0.3,2,0.7c1.4,1.1,1.6,3.2,0.4,4.5C100,101.3,99.1,101.7,98.1,101.7z"/>
</g>
<g>
	<path class="st2" d="M126.2,124.8L126.2,124.8c-0.7,0-1.5-0.3-2-0.7c-0.7-0.5-1.1-1.3-1.2-2.2c-0.1-0.9,0.2-1.7,0.7-2.4
		c0.6-0.7,1.5-1.2,2.5-1.2c0.7,0,1.5,0.3,2,0.7c1.4,1.1,1.6,3.2,0.4,4.5C128.1,124.4,127.2,124.8,126.2,124.8z"/>
</g>
<path class="st2" d="M261.1,259.4c-0.9,0-1.7-0.7-1.8-1.6c-0.1-0.5-1.3-13.4,5.4-31.8c6-16.6,20-41.1,52.1-63.5l-2.4-3.5
	c-3.7,1.2-15.6,5.3-29.9,14c-15.8,9.6-37.9,27-53.1,55.1c-0.5,0.9-1.5,1.2-2.4,0.7s-1.2-1.5-0.7-2.4c15.6-28.9,38.2-46.7,54.5-56.6
	c17.6-10.7,31.3-14.5,31.9-14.6c0.7-0.2,1.5,0.1,1.9,0.7l4.1,6.1c0.5,0.8,0.3,1.9-0.5,2.4C287.9,186.6,274,210.7,268,227
	c-6.5,17.7-5.3,30.3-5.3,30.4c0.1,1-0.6,1.8-1.6,1.9C261.2,259.3,261.1,259.4,261.1,259.4z"/>
<path class="st2" d="M174.3,254.8c-0.3,0-0.6-0.1-0.9-0.3c-0.8-0.5-1.1-1.6-0.6-2.4c15.3-25.4,16.4-50.9,3.3-75.8
	c-9.8-18.6-24.2-29.9-24.4-30c-0.8-0.6-0.9-1.7-0.3-2.5c0.6-0.8,1.7-0.9,2.5-0.3c0.6,0.5,15.2,11.8,25.3,31.2
	c9.4,17.9,16.4,46.2-3.4,79.3C175.5,254.5,174.9,254.8,174.3,254.8z"/>
<path class="st2" d="M241.1,256.7c-0.7,0-1.4-0.4-1.6-1.1l-6.6-16.4c-3.5-7.9-8.4-18-14.6-28.6c-12.8-22-34.1-51.2-63-65.5
	c-0.9-0.4-1.2-1.5-0.8-2.4s1.5-1.2,2.4-0.8c29.7,14.6,51.5,44.5,64.6,66.9c3.4,5.8,6.4,11.4,8.9,16.6c0.6,0.1,1,0.5,1.3,1.1
	l4.6,11.3c4.4,9.9,6.6,16.4,6.7,16.6c0.3,0.9-0.2,1.9-1.1,2.2C241.5,256.6,241.3,256.7,241.1,256.7z"/>
<path class="st1" d="M149,271.6c-0.9-0.1-1.9,0-2.6,0.4c-2.1-0.1-4.3,0.9-6.3,2.1c-3.1,1.7-5.4,4-6.7,7.3c-0.2,0.6-0.2,1.3,0,1.9
	c4-3.6,9.6-5.6,15-4.7c7.2,1.1,10.9,7.3,11.1,14.1c0,0.1,0,0.3,0,0.4c1.7-0.1,3.5-1.2,3.7-3.4C164,280.9,157.8,272.8,149,271.6z"/>
<path class="st1" d="M215.2,277.4c-3.9-0.7-8.3-1.3-12.2-0.3c-0.1,0-0.2,0-0.2,0.1c-0.6-6-2-11.9-5.9-16.7c-4.7-5.8-11.7-7-18.8-6.6
	c-0.7,0-1.3,0.3-1.8,0.6c-3.2-0.7-6.5-0.6-9.7,0.9c-0.6,0.3-1.1,0.7-1.4,1.1c7.5-1.4,15.9,2.4,21,7.7c6.3,6.5,8.4,17,6.6,25.7
	c0.9,0.5,2,0.5,3.2-0.3c2.5-1.7,5.1-4.1,7.9-5.4c2.7-1.2,6.6-0.5,9.4,0C217.8,285,219.7,278.1,215.2,277.4z"/>
<path class="st1" d="M264.5,306.3c-2.2-8.6-8.7-15.6-17.3-18.1c-8.1-2.4-18.2-0.7-23,6.9c-0.2,0.4-0.4,0.8-0.5,1.1
	c-0.7,0.5-1.1,1.2-1.3,2s-0.2,1.7,0.3,2.5c0.2,0.5,0.6,0.9,1,1.3c2.3,2.5,4.1,5.4,5.2,8.7c1.4,4.3,8.3,2.5,6.8-1.9
	c-1.1-3.2-2.6-6.1-4.5-8.7c1.3-3.2,6.4-4.3,9.1-5.8l0,0c2.1,0,4.1,0.4,5.9,1c5.8,2,9.9,7,11.4,12.8
	C258.8,312.6,265.7,310.8,264.5,306.3z"/>
<path class="st1" d="M308.5,303c-0.3-4.7,3.5-8.8,8.1-9.9c4-1,7.5,0.8,10.5,3.2c2.8-2.6,5.7-4.7,10.2-4.9c4.1-0.2,7.3,1.7,9.6,4.5
	c3.2,0.1,5.3-4.7,1.9-6.6c-7.6-4.4-16.7-3.4-23,2c-0.2-0.3-0.4-0.5-0.6-0.7c-3.3-3-8-3.3-12.1-1.7c-0.2-0.5-0.5-1-1-1.3
	c0-0.1,0-0.2,0-0.3c-0.4-6.4-3.4-12.5-9.1-15.8c-5.5-3.2-12.9-3-18,0.9c-0.5,0.4-0.8,0.8-1.1,1.3c-3.6-0.8-7.6-0.4-10.9,0.8
	c-2.7,1-4.3,2.9-5.5,5.2c-1,0.2-1.9,0.7-2.4,1.7c-0.7,1.5-1.4,3-2.1,4.4c-0.8,1.7-0.5,3.9,1.3,4.9c0.4,0.2,0.9,0.4,1.4,0.4
	c0.3,0.6,0.8,1.1,1.4,1.5c0.6-4.2,4-8.1,8.1-10.1c3.3-1.6,6.9-2.1,10.2-0.2c0.9,0.5,1.6,1.1,2.2,1.8c1.7-4.7,4.6-9.4,9.2-10.2
	c8.8-1.5,13.4,11.4,13.3,18.2c0,2.1-1.1,3.5-2.6,4.2c0,1.5,0.1,3,0,4.5C307.6,301.5,307.9,302.3,308.5,303z"/>
<path class="st1" d="M160,309.8c-1.9-3.3-4.3-6.5-7.1-9.2c-2.7-2.6-6-5.6-9.7-6.7s-8.9-0.4-12.5,0.7c-3.6,1.1-6.6,3.2-8.5,6.4
	c-0.6,1.1-0.6,2.1-0.2,3c-1.9,2.5-3,5.8-1.3,8.3c3.8-6.1,11.3-9.3,18.6-8.5c8.5,0.9,13.8,6.7,17.3,14c1.2-0.6,2.1-1.8,2-3.3
	C160.2,313.6,161.2,311.7,160,309.8z"/>
<path class="st1" d="M240.4,316.3c-0.7-2.6-2.5-4.9-4.5-6.7c-2.1-4.7-6.1-9.5-11.1-11.7c-0.4-0.5-1-0.8-1.9-1
	c-5.5-1.1-10.4,0.7-13.8,4.1c-1,0.8-1.9,1.6-2.7,2.4s-1.4,1.6-1.9,2.5c-0.8-0.4-1.5-0.7-2.4-1c-2.1-1.4-4.6-2.1-7.5-1.6
	c-5.4,1-7.9,5.9-9,10.8c-0.1,0.5-0.3,1-0.3,1.5c-0.6,4.4,6,6.4,6.8,1.9c0-0.2,0.1-0.4,0.1-0.6c0.8-3.8,4.2-5.9,7.3-5.4
	c1.6,1.5,2.9,3.9,3.7,5.3c0.4,0.6,0.8,1.1,1.3,1.3c0,1.6,0.3,3.3,1,5c0.1,0.3,0.3,0.5,0.4,0.7c0,0.4,0.1,0.8,0.1,1.2
	c0.6,4.5,7.5,2.6,6.8-1.9c0-0.2,0-0.4-0.1-0.5c0.1-0.1,0.1-0.2,0.2-0.4c1.4-3.8,6.6-4.2,10.2-4.2c4.1,0,7.4,1.4,11,3
	C237.8,322.8,241.4,320.1,240.4,316.3z"/>
<path class="st2" d="M120.6,315.2c-1,0-1.8-0.8-1.8-1.8v-5.2c0-6.3,3.9-11.9,9.7-14.2c-0.3-1.5-0.5-2.9-0.5-4.4
	c0-11.2,9.1-20.4,20.4-20.4c1.4,0,2.8,0.1,4.2,0.4c3.4-11,13.5-18.5,25.1-18.5c14.2,0,25.8,11.3,26.3,25.3c2.5-1.3,5.2-1.9,8-1.9
	c10,0,17.6,7.1,17.6,16.5c0,1-0.8,1.8-1.8,1.8S226,292,226,291c0-7.5-5.9-12.9-14-12.9c-3.2,0-6.3,1.1-8.8,3.1
	c-0.6,0.4-1.3,0.5-2,0.2c-0.6-0.3-1-1-0.9-1.7s0.1-1.4,0.1-2.1c0-12.6-10.2-22.8-22.8-22.8c-10.6,0-19.7,7.2-22.2,17.5
	c-0.1,0.5-0.4,0.9-0.8,1.1c-0.4,0.2-0.9,0.3-1.4,0.2c-1.6-0.5-3.2-0.7-4.9-0.7c-9.3,0-16.8,7.6-16.8,16.8c0,1.7,0.3,3.4,0.8,5.1
	c0.1,0.5,0.1,1-0.1,1.4c-0.2,0.4-0.6,0.7-1.1,0.9c-5.2,1.3-8.8,6-8.8,11.3v5.2C122.4,314.4,121.6,315.2,120.6,315.2z"/>
<path class="st2" d="M189.2,311.3c-1,0-1.8-0.8-1.8-1.8c0-5.5,4.5-9.9,9.9-9.9c2.3,0,4.5,0.8,6.3,2.2c2.6-3.9,6.9-6.3,11.7-6.3
	c2.1,0,4.1,0.5,6,1.3c4.1-8.1,12.3-13.2,21.5-13.2c13.3,0,24.1,10.8,24.1,24.1c0,1-0.8,1.8-1.8,1.8s-1.8-0.8-1.8-1.8
	c0-11.4-9.2-20.6-20.6-20.6c-8.4,0-15.9,5-19.1,12.8c-0.2,0.5-0.6,0.9-1.1,1c-0.5,0.2-1.1,0.1-1.5-0.2c-1.7-1.1-3.7-1.7-5.8-1.7
	c-4.2,0-8,2.5-9.7,6.5c-0.2,0.6-0.8,1-1.4,1.1c-0.6,0.1-1.3-0.2-1.6-0.7c-1.2-1.7-3.1-2.7-5.2-2.7c-3.5,0-6.4,2.9-6.4,6.4
	C191,310.5,190.2,311.3,189.2,311.3z"/>
<path class="st3" d="M161.4,282.9c-0.8,0-1.6-0.6-1.7-1.4c0-0.1-1.4-6.3-6.3-8c-0.9-0.3-1.4-1.3-1.1-2.2c0.3-0.9,1.3-1.4,2.2-1.1
	c6.9,2.3,8.6,10.3,8.7,10.6c0.2,1-0.4,1.9-1.4,2.1C161.6,282.9,161.5,282.9,161.4,282.9z"/>
<path class="st2" d="M226.5,307.9c-0.7,0-1.4-0.5-1.7-1.2c0,0-1.3-3.5-4-6.1c-0.7-0.7-0.7-1.8-0.1-2.5c0.7-0.7,1.8-0.7,2.5-0.1
	c3.3,3.2,4.8,7.3,4.9,7.5c0.3,0.9-0.2,1.9-1.1,2.3C226.9,307.8,226.7,307.9,226.5,307.9z"/>
<path class="st2" d="M356.2,308.6c-1,0-1.8-0.8-1.8-1.8v-2.1c0-9.2-7.5-16.7-16.7-16.7c-4.3,0-8.4,1.6-11.5,4.6
	c-0.7,0.7-1.8,0.7-2.5,0c-1.9-1.9-4.4-2.9-7.1-2.9c-1,0-1.9,0.1-2.9,0.4c-0.5,0.2-1.1,0.1-1.5-0.3c-0.4-0.3-0.7-0.8-0.7-1.4
	c-0.5-9.7-8.5-17.3-18.2-17.3c-4.2,0-8.2,1.4-11.5,4.1c-0.5,0.4-1.1,0.5-1.7,0.3s-1-0.7-1.1-1.3c-1.6-8.6-9.1-14.9-17.9-14.9
	c-10,0-18.2,8.2-18.2,18.2c0,1-0.8,1.8-1.8,1.8s-1.8-0.8-1.8-1.8c0-12,9.8-21.8,21.8-21.8c9.6,0,17.9,6.2,20.8,15.2
	c3.4-2.1,7.4-3.3,11.5-3.3c10.9,0,20,8,21.5,18.6c0.6-0.1,1.2-0.1,1.8-0.1c3.1,0,6,1,8.3,2.9c3.6-2.9,8.1-4.5,12.8-4.5
	c11.2,0,20.2,9.1,20.2,20.2v2.1C358,307.8,357.2,308.6,356.2,308.6z"/>
<path class="st3" d="M308.7,297.1L308.7,297.1c-1,0-1.8-0.8-1.8-1.8c0-0.3,0.1-6.7,5.7-8.6c0.9-0.3,1.9,0.2,2.3,1.1
	c0.3,0.9-0.2,1.9-1.1,2.3c-3.2,1.1-3.4,5.1-3.4,5.3C310.5,296.3,309.7,297.1,308.7,297.1z"/>
<path class="st2" d="M266.1,282.7c-0.2,0-0.4,0-0.7-0.1c-0.9-0.4-1.4-1.4-1-2.3c2.1-5.3,7.1-8.7,12.8-8.7c4.5,0,8.8,2.2,11.4,6
	c0.6,0.8,0.4,1.9-0.5,2.5c-0.8,0.6-1.9,0.4-2.5-0.5c-1.9-2.8-5.1-4.4-8.4-4.4c-4.2,0-8,2.5-9.5,6.5
	C267.5,282.3,266.8,282.7,266.1,282.7z"/>
<polygon class="st1" points="93.1,317.8 98.7,308.2 103.3,309.8 103.3,346.4 100,345.7 91.9,343.1 "/>
<polygon class="st1" points="366.5,323.7 358,307.8 351.5,310.3 354.2,345.8 356.3,345.7 363.2,343.2 366.3,331.8 "/>
<circle class="st4" cx="29.6" cy="334.6" r="7.5"/>
<circle class="st4" cx="63.3" cy="172" r="7.9"/>
<circle class="st4" cx="413.7" cy="263.3" r="7.9"/>
<circle class="st4" cx="286.1" cy="102.8" r="8"/>
<circle class="st4" cx="203.4" cy="59.4" r="7.4"/>
</svg>
