<?xml version="1.0" encoding="utf-8"?>
<!-- Generator: Adobe Illustrator 21.0.0, SVG Export Plug-In . SVG Version: 6.00 Build 0)  -->
<svg version="1.1" id="Layer_1" xmlns="http://www.w3.org/2000/svg" xmlns:xlink="http://www.w3.org/1999/xlink" x="0px" y="0px"
	 viewBox="0 0 450 450" style="enable-background:new 0 0 450 450;" xml:space="preserve">
<style type="text/css">
	.Drop_x0020_Shadow{fill:none;}
	.Round_x0020_Corners_x0020_2_x0020_pt{fill:#FFFFFF;stroke:#231F20;stroke-miterlimit:10;}
	.Live_x0020_Reflect_x0020_X{fill:none;}
	.Bevel_x0020_Soft{fill:url(#SVGID_1_);}
	.Dusk{fill:#FFFFFF;}
	.Foliage_GS{fill:#FFDD00;}
	.Pompadour_GS{fill-rule:evenodd;clip-rule:evenodd;fill:#44ADE2;}
	.st0{fill:#F0F8FF;}
	.st1{fill:#27477C;}
	.st2{fill:#FFFFFF;}
	.st3{fill:#C2DEFF;}
	.st4{fill:#DCEAF9;}
</style>
<linearGradient id="SVGID_1_" gradientUnits="userSpaceOnUse" x1="0" y1="0" x2="0.7071" y2="0.7071">
	<stop  offset="0" style="stop-color:#DEDFE3"/>
	<stop  offset="0.1783" style="stop-color:#DADBDF"/>
	<stop  offset="0.3611" style="stop-color:#CECFD3"/>
	<stop  offset="0.546" style="stop-color:#B9BCBF"/>
	<stop  offset="0.7324" style="stop-color:#9CA0A2"/>
	<stop  offset="0.9181" style="stop-color:#787D7E"/>
	<stop  offset="1" style="stop-color:#656B6C"/>
</linearGradient>
<g>
	<path class="st0" d="M433.2,311.5c-0.8-5-2.8-9.7-7.2-12.5c-8-5.2-18.7-2-24.8,4.6c-0.9,1-1.7,2-2.4,3.1c-0.3,0-0.6,0-0.9,0
		c-0.3-1.7-0.6-3.4-0.8-5.1c-1.3-8.1-2.1-16-2.4-24.5c-0.3-7.9-0.5-16.4-4.2-23.6c-4.4-8.6-13.6-11.1-22.5-9.1
		c-3.7,0.8-7.2,2.3-10.9,3.1c-1.3,0.3-0.9,0.2-1.9,0.3c-0.9,0.1-1.8,0.1-2.7,0.2c-2.1,0.1-4.2,0-6.2-0.2c-4.6-0.4-9.7-1.4-14.8-2.2
		c1.1-0.2,2.2-0.4,3.2-0.8c9-3.2,13.3-12.4,9.6-21.3c-3.5-8.2-11.4-12-19.9-13.3c-3.9-0.6-7.9-1.1-11.8-2c-1.9-0.4-3.9-1-5.8-1.5
		c-0.9-0.3-1.9-0.6-2.8-0.9c-0.1-0.2-0.1-0.5-0.2-0.7c-0.2-0.8-0.4-1.6-0.6-2.3c-0.6-2.4-1.4-4.6-2.4-6.8c-1.7-3.9-4.5-7.2-8.1-9.5
		c-8.1-5.2-18.7-2.5-23.3,5.9c-4.3,7.9-2.2,16.9-1.2,25.4c0,0.2,0.1,0.4,0.1,0.6c-0.2-0.1-0.4-0.1-0.5-0.1c-0.4-0.2-0.9-0.5-0.8-0.4
		c-0.4-0.3-0.7-0.7-1-1c0,0,0,0,0,0c-0.2-0.3-0.3-0.5-0.5-0.8c-0.1-0.2-0.4-1-0.5-1.1c-0.2-0.6-0.4-1.3-0.5-1.9
		c0.1,0.2-0.1-1.6-0.1-1.6c0-0.9,0-1.7,0.1-2.6c0.1-1.9-0.8-3.8-2.1-5.3c-0.2-10.9-0.8-21.7-0.9-32.6c2.5-0.7,4.6-2.5,5.2-5.2
		c3.1-12.7,2.4-26.3-2.5-38.5c0.1-0.3,0.1-0.7,0.1-1c0.3-3.9-0.4-7.6-1.9-11c2.9,0.4,5.9,0.2,8.7-0.6c7.9-2.3,12.2-10.2,10.5-18.1
		c-0.7-3.3-2.6-6.3-5.3-8.4c-3.1-2.4-7.1-3.5-10.7-4.9c-1.6-0.6-3.4-0.4-5,0.3c-1.4-1.2-3.3-2-5-1.9c-4.6,0.2-7.1,3.4-7.7,7.7
		c0.2-1.3-0.3,0.9-0.3,1.1c-0.2,0.8-0.5,1.6-0.7,2.3c-0.5,1.9-1,3.9-1,5.8c0,0-0.1,0-0.1-0.1c-12.3-5.6-25.3-2.7-37.5,1.3
		c-14-0.3-27.9-0.7-41.9-1c-7.9-0.2-15.8-0.5-23.6,0c-1.1-0.7-2.4-1.1-3.9-1.1c-12.7,0.1-25.4,0.2-38.1,0.3
		c-10.5-2.8-21.6-1.2-32.3,0.5c-3.7,0.6-5.9,4.9-5.5,8.3c-0.7,1.4-1.2,3.1-1.3,5c-0.1,2.3,0.4,4.6,0.8,6.8c0.1,0.5,0.2,1.1,0.3,1.6
		c0,0.1,0,0.4,0.1,0.6c0.1,1.1,0.2,2.3,0.2,3.4c0,2,0,4-0.2,6c0,0.4-0.1,0.9-0.1,1.3c0,0.2-0.1,0.6-0.1,0.7c-0.2,1.3-0.5,2.7-0.7,4
		c-0.9,4.5-2.2,8.9-3.4,13.3c-1.2,4.3-2.4,8.5-3.4,12.9c-1.4,1.4-2.3,3.3-2.3,5.4c0,4.5,0.1,9,0.1,13.4c0.1,2.6,1.5,5.1,3.7,6.5
		c0.1,2.3,0.1,4.7,0,7c-0.2,3.4-0.4,5.1-1,8.2c-0.6,3.1,0.4,6.5,2.9,8.3c0,0.1,0,0.3,0,0.4c-1.4,10.6-3.4,21-6.1,31.6
		c-3.6,13.7-10.6,29.3-2.5,42.7c0.4,0.7,0.9,1.2,1.4,1.7c0,0.5,0.1,1.1,0.2,1.6c0.4,1.7,0.8,3.5,1.2,5.2c0.9,6.6,0.1,13.6,0.9,20.5
		c1.1,9.3,4.5,17.6,12.3,23.2c0.8,0.5,1.7,0.9,2.7,1c0,0.2,0,0.3,0,0.5c0.1,4.6,2.7,9.1,6.9,11.2c4.2,2,8.4,1.6,12.8,0.9
		c15.7-2.5,31.9-4,48.1-4.4c5.4-0.1,10.8-0.1,16.2,0.1c-0.5,0.7-0.9,1.5-1.1,2.3c-1.5,5-2.9,10-4.4,15c-1.1,3.8,1.4,8.5,5.3,9.4
		c0.3,0.1,0.6,0.1,0.9,0.2c0.7,1.9,1.8,3.6,3.3,4.9c3.9,3.5,9.2,4.9,14.4,4.5c1.9-0.1,3.8-0.4,5.7-0.8c0.1,0,0.2,0.1,0.2,0.1
		c15.8,8.8,33.7,6.8,51,5.5c4.5-0.3,9.1-0.6,13.6-0.4c4.7,0.2,8.6,0.9,13.4,1.5c5,0.6,9.8,0.7,14.7-0.2c4.1-0.8,7.9-2.6,11.8-4
		c1.6-0.6,3.2-1.1,4.8-1.6c1.4,1.7,3.5,2.9,5.7,2.6c8.5-0.9,17-1.6,24.9,0.2c8.8,1.9,17.3,3.3,26.3,2.9c16.3-0.8,34.7-1.7,48.9-10.9
		c6.3-4,12-9.6,15.3-16.3c4.1-8.2,4.2-16.4,2.7-25.3c0-0.1,0-0.1,0-0.2c9.7,2.4,19.4-2.6,22.7-12.2
		C434.1,320.7,433.9,316,433.2,311.5z M285.1,228.8c-1-8-2.6-16.1-2.9-24.1c-0.1-2-0.1-2.3,0.3-3.8c0.1-0.3,0.1-0.4,0.1-0.5
		c0-0.1,0.1-0.2,0.2-0.3c0.2-0.3,0.3-0.6,0.5-0.9c0,0,0.1-0.1,0.1-0.1c0.1,0,0.1-0.1,0.2-0.1c0,0,0,0,0,0c0,0,0,0,0.1,0
		c0.2,0.1,0.4,0.1,0.6,0.2c0.3,0.1,0.5,0.3,0.8,0.5c-0.1-0.1,0.4,0.4,0.8,0.7c0.1,0.1,0.3,0.4,0.4,0.5c0.2,0.3,0.4,0.7,0.6,1
		c0.2,0.4,0.4,0.7,0.6,1.1c-0.1-0.2-0.3-0.8,0,0c0.3,0.9,0.6,1.8,0.9,2.7c1.1,3.9,1.7,7.9,4.8,11c3.1,3,7.5,4.2,11.6,5.3
		c3.8,1.1,7.7,1.9,11.6,2.4c3.5,0.5,6.9,0.9,10.3,2c0.2,0.1,0.4,0.1,0.4,0.1c0.3,0.1,0.5,0.3,0.8,0.4c0.4,0.2,0.7,0.4,1.1,0.6
		c0,0,0.1,0.1,0.1,0.1c0,0.1,0.9,1.1,0.8,0.8c0.1,0.1,0.2,0.3,0.3,0.4c0,0.1,0.2,0.3,0.3,0.5c0,0.1,0.1,0.3,0.1,0.5
		c0,0.1,0,0.2,0,0.3c0,0-0.1,0.1-0.1,0.1c-0.1,0-0.1,0-0.2,0c-0.4,0.1-1.4,0.3-1.1,0.3c-1.4,0.1-2.9,0-4.3-0.1
		c-4.3-0.4-8.7-1-13,0.3c-4,1.2-7.7,3.9-9.9,7.5c-1.9,3.2-2.3,6.6-1.5,9.7c-7.1,0.4-14.2,0.9-21.4,1.3
		C285.5,244.6,286.1,236.3,285.1,228.8z M261.2,98.7L261.2,98.7c0-0.1,0-0.1,0-0.2C261.2,98.6,261.2,98.7,261.2,98.7z M266.7,99.9
		C266.7,99.9,266.7,99.9,266.7,99.9C266.7,99.9,266.7,99.9,266.7,99.9C266.7,99.9,266.7,99.9,266.7,99.9z M266.6,100
		C266.7,100,266.7,100,266.6,100C266.7,100,266.7,100,266.6,100C266.4,100.6,266.5,100.3,266.6,100z M266.7,99.8L266.7,99.8
		C266.7,99.8,266.7,99.8,266.7,99.8C266.7,99.8,266.7,99.8,266.7,99.8C266.8,99.7,266.8,99.7,266.7,99.8z M264.8,99.2
		c0.5,0.2,1,0.4,1.5,0.6c0.1,0,0.2,0.1,0.3,0.1c-0.1,0-0.2,0-0.3,0.1c-0.1,0-0.2,0-0.3,0c-0.5,0-1,0-1.5,0c0.7,0.1,0.7,0.1-0.1,0
		c-0.7-0.2-1.4-0.3-2-0.5c0.1,0-0.7-0.4-1-0.6c0,0,0,0,0,0c0-0.2,0.1-0.6,0.2-0.9c0,0,0,0,0.1,0C262.6,98.3,263.7,98.7,264.8,99.2z
		 M380.9,299.3c0,4.5-0.7,9-1.1,13.4c-1.5,17.3-2,34.7-1.5,52.1c-22.6-0.1-45.3-0.1-67.9-0.1c-1.4-0.5-3-0.6-4.6-0.3
		c-0.5,0.1-1,0.2-1.6,0.3c-16.1-0.1-32.3-0.1-48.4-0.3c-11.9-0.1-23.9-0.5-35.8-1.6c-2-0.2-3.9,0.7-5.3,2.2c-1.1-0.6-2.3-1-3.8-0.9
		c-0.9,0-1.8,0.1-2.7,0c-0.5,0-1.1-0.1-1.6-0.1c-0.1,0-0.2,0-0.3-0.1c-1.4-0.2-3.8-1-4.5-1.3c-3.4-1.5-7.7-1.2-9.9,1.9
		c-6-2.2-12.6-2.1-17.5,1.4c-1-5.2-3-10.2-6.1-14.5c1-2.4,2-4.7,3-7c2.4-5.4-0.4-11.1-6.6-11.5c-19.6-1.2-39.4-0.8-59,1.3
		c-3.6,0.4-7.2,0.8-10.7,1.3c0.8-7-1.4-14.3-6.3-19.8c-3.5-3.9-9.1-2.4-11.7,1.2c-1.3-1-2.9-1.5-4.5-1.5c3.4-15.7,3.9-31.6,1.8-47.5
		c0,0,0,0,0,0c0,0,0,0,0,0c-0.1-0.7-0.2-1.4-0.3-2c-0.2-1.5-1.1-2.8-2.3-3.7c1.1-4.6,2-9.2,2.5-13.9c1-0.9,1.7-2.1,2-3.4
		c3.9-16.3,7.2-34.8-2.3-49.9c-0.1-0.2-0.2-0.3-0.4-0.5c1.8-10.4,1.5-21.1-1-31.4c-0.3-1.2-0.8-2.1-1.4-2.9c0.3-1,0.6-2,0.8-3.1
		c2.4-8.5,4.8-16.9,5.8-25.8c0.5-4.6,0.4-9.1-0.2-13.7c-0.1-0.8-0.2-1.7-0.4-2.5c8.1-0.4,16.2-0.6,24.2-0.9c0,0,0,0,0,0
		c0.5,0.2,1,0.5,1.5,0.7c1.5,0.7,3,1.3,4.5,1.9c2.7,1.1,5.4,1.7,8.3,2c5.7,0.5,10.8-1.9,16.2-3.3c9.6-2.5,20.4-2,30.8-1.7
		c11.3,0.3,22.6,0.5,33.8,0.8c2.7,0.1,5.4,0.1,8.1,0.2c0.9,0.4,1.9,0.6,3,0.6c7.6,0,15.1,0,22.7,0.1c0.1,0.6,0.2,1.2,0.3,1.8
		l0.3,1.9c0,0.3,0.1,0.6,0.1,0.7c-0.2,4.6,2.7,7.6,7.5,8.2c2.2,0.3,4-0.6,5.7-1.8c0.1,0.1,0.2,0.2,0.4,0.2l4,2.4
		c0.1,0.5,0.2,1,0.4,1.6c0.2,0.4,0.3,0.8,0.5,1.2c-0.3,0.6-0.6,1.2-0.7,1.9c-3.3,17.3-3,34.8-2.3,52.3c0.6,17.3,0.8,34.6-0.7,51.9
		c-0.4,4.7-1.2,9.4-1.4,14.1c-0.1,1.5,0,2.9,0.3,4.3c-0.6,1.5-0.8,3.2-0.3,4.8c1.3,4,5.3,6.4,9.4,5.3l0.6-0.2c2.3,1.3,5.2,1.3,7.7,0
		c0.8-0.4,1-0.5,0.4-0.2c0.5-0.2,1-0.3,1.5-0.4c0.2,0,0.3-0.1,0.4-0.1c0.1,0,0.3,0,0.6,0c1.1,0,2.1,0,3.2,0.1c0.2,0,1.7,0.2,1.6,0.2
		c4.1,0.6,8.2,1.5,12.4,1.4c3.5-0.1,6.9-0.7,10.2-1.5c1.3,1.4,3.1,2.4,5.4,2.3c13.5-0.3,27-0.5,40.5-1.3c6.7-0.3,13.3-0.8,19.9-1.4
		c3.2-0.3,6.5-0.6,9.7-1c0.3,0,0.6-0.1,0.9-0.1c1.3,2.1,3.5,3.6,6.4,3.6c0.1,0,0.3,0,0.4,0c0.5,6.7,1.3,13.4,2.8,19.9
		c0.5,2.1,1.1,4.1,1.6,6.2C380.8,296.1,380.9,297,380.9,299.3z M418.4,319c0,0,0,0.2,0,0.3c-0.1,0.3-0.3,1-0.3,1.1
		c0,0,0,0.1-0.1,0.2c-0.1,0.2-0.4,0.8-0.5,1c-0.1,0.1-0.3,0.3-0.4,0.4c-0.2,0.1-0.5,0.3-0.6,0.4c0,0-0.1,0-0.1,0
		c-0.2,0-0.3,0.1-0.5,0.1c-0.1,0-0.5,0.1-0.9,0.1c-0.3,0-0.5,0-0.8,0c-0.1,0-0.2,0-0.3-0.1c-0.4-0.1-0.9-0.2-1.3-0.4
		c-0.1,0-0.1-0.1-0.2-0.1c-0.4-0.2-0.7-0.4-1.1-0.6c-0.1-0.1-0.3-0.2-0.4-0.3c-0.3-0.3-0.6-0.5-0.8-0.8c-0.1-0.1-0.4-0.4-0.5-0.6
		c0.1-0.4,0.2-0.7,0.3-1.1c0,0,0.1-0.2,0.1-0.3c0.1-0.3,0.5-1.2,0.5-1.2c0.3-0.6,0.7-1.2,1.1-1.9c0.1-0.1,0.2-0.3,0.3-0.4
		c0.2-0.2,0.3-0.4,0.5-0.5c0.2-0.2,1.3-1.2,1.2-1.1c0.6-0.4,1.2-0.7,1.7-1c0,0,0.1,0,0.1,0c0.3-0.1,0.6-0.2,0.9-0.3c0,0,0.1,0,0.2,0
		c0.3,0,0.7,0,0.7,0c0,0,0.1,0,0.1,0c0.2,0,0.4,0.1,0.4,0.1c0,0,0,0,0,0c0,0,0,0,0,0.1c0.3,0.9,0.4,1.7,0.6,2.6c0,0.1,0,0.2,0,0.2
		c0,0.4,0.1,0.9,0.1,1.3C418.5,317.1,418.5,318,418.4,319z"/>
	<path class="st0" d="M266.7,99.8C266.7,99.8,266.7,99.8,266.7,99.8L266.7,99.8C266.8,99.7,266.8,99.7,266.7,99.8
		C266.7,99.8,266.7,99.8,266.7,99.8z"/>
	<path class="st0" d="M266.7,99.9C266.7,99.9,266.7,99.9,266.7,99.9C266.7,99.9,266.7,99.9,266.7,99.9
		C266.7,99.9,266.7,99.9,266.7,99.9z"/>
	<path class="st0" d="M266.7,100C266.7,100,266.7,100,266.7,100C266.5,100.3,266.4,100.6,266.7,100C266.7,100,266.7,100,266.7,100z"
		/>
	<path class="st0" d="M261.2,98.7c0,0,0-0.1,0-0.2C261.2,98.6,261.2,98.7,261.2,98.7L261.2,98.7z"/>
	<path class="st0" d="M261.5,97.9c-0.1,0.4-0.1,0.7-0.2,0.9c0,0,0,0,0,0c0.3,0.2,1.1,0.6,1,0.6c0.7,0.2,1.3,0.4,2,0.5
		c0.8,0.1,0.9,0.2,0.1,0c0.5,0,1,0.1,1.5,0c0.1,0,0.2,0,0.3,0c0.1,0,0.2-0.1,0.3-0.1c-0.1,0-0.2-0.1-0.3-0.1c-0.5-0.2-1-0.4-1.5-0.6
		C263.7,98.7,262.6,98.3,261.5,97.9C261.5,97.9,261.5,97.9,261.5,97.9z"/>
	<path class="st0" d="M418.4,314.8c0-0.1,0-0.1,0-0.2c-0.2-0.9-0.3-1.8-0.6-2.6c0,0,0,0,0-0.1c0,0,0,0,0,0c0,0-0.2,0-0.4-0.1
		c0,0-0.1,0-0.1,0c0,0-0.4,0-0.7,0c-0.1,0-0.1,0-0.2,0c-0.3,0.1-0.6,0.2-0.9,0.3c0,0-0.1,0-0.1,0c-0.6,0.3-1.2,0.7-1.7,1
		c0.1,0-1,0.9-1.2,1.1c-0.2,0.2-0.3,0.4-0.5,0.5c-0.1,0.1-0.3,0.3-0.3,0.4c-0.4,0.6-0.8,1.2-1.1,1.9c0,0-0.4,0.9-0.5,1.2
		c-0.1,0.2-0.1,0.3-0.1,0.3c-0.1,0.4-0.2,0.7-0.3,1.1c0.2,0.2,0.4,0.5,0.5,0.6c0.3,0.3,0.5,0.5,0.8,0.8c0.1,0.1,0.3,0.2,0.4,0.3
		c0.3,0.2,0.7,0.4,1.1,0.6c0.1,0,0.2,0.1,0.2,0.1c0.4,0.1,0.8,0.3,1.3,0.4c0.1,0,0.2,0.1,0.3,0.1c0.3,0,0.5,0,0.8,0
		c0.4,0,0.8-0.1,0.9-0.1c0.2,0,0.3-0.1,0.5-0.1c0.1,0,0.1,0,0.1,0c0.1-0.1,0.4-0.3,0.6-0.4c0.1-0.1,0.3-0.3,0.4-0.4
		c0.1-0.2,0.4-0.8,0.5-1c0-0.1,0.1-0.2,0.1-0.2c0-0.1,0.2-0.8,0.3-1.1c0-0.1,0-0.2,0-0.3c0.1-1,0.1-1.9,0-2.9
		C418.4,315.7,418.4,315.2,418.4,314.8z"/>
</g>
<path class="st0" d="M379.4,199.7c-2-3.8-5.6-6.8-9.1-9.2c-3.7-2.7-8.8-4-13.3-2.4c-5.8,2.1-7.9,7-8.3,12.8c-0.2,2.7,1.6,5.4,4,6.7
	c0.2,1.5,0.7,3,1.4,4.4c4.7,9.6,18.6,10.6,24.6,1.8C381.7,209.6,381.8,204.2,379.4,199.7z"/>
<path class="st0" d="M162,48.1c-5.8-5.2-13.4-10.1-21.5-9.7c-7.8,0.4-15.6,4.7-19.2,11.8c-3.1,6.2-3.2,13-0.8,19
	c-0.3,2.3,0.6,4.6,2.1,6.6c3.7,4.6,7.8,8.6,13.4,10.8c5.2,2,12,1.7,16.5-1.7c2.6-0.8,5-2.3,7.2-3.9c3.2-2.4,6.5-5.1,8.3-8.8
	C172.1,63.6,168.8,54.2,162,48.1z M137.6,69.6c-0.2-1.6-1-3.2-2.1-4.5c0.9,1.1-0.4-0.7-0.5-0.8c-0.1-0.2-0.2-0.3-0.3-0.4
	c0-0.1-0.1-0.2-0.1-0.4c-0.2-0.6-0.3-1.1-0.4-1.7c0-0.2-0.1-0.6-0.1-0.9c0-0.2,0.1-1.1,0.1-1.5c0.1-0.4,0.2-1,0.2-1.1
	c0-0.2,0.1-0.4,0.1-0.5c0.1-0.1,0.1-0.2,0.2-0.4c0.1-0.1,0.8-1.2,0.7-1.2c0.3-0.4,0.7-0.7,1.1-1.1c0.1-0.1,0.2-0.2,0.3-0.3
	c0.1,0,0.2-0.1,0.4-0.2c0.1,0,0.6-0.3,0.9-0.5c0.3-0.1,1.2-0.4,1.4-0.5c0.4-0.1,0.8-0.2,0.9-0.2c0.5,0,1,0,1.5,0c0.1,0,0.2,0,0.3,0
	c0.1,0,0.2,0.1,0.4,0.1c0,0,1.8,0.6,1.5,0.4c1.3,0.6,2.6,1.4,3.8,2.2c0.7,0.5,1.3,0.9,2,1.4c0.1,0.1,0.2,0.1,0.2,0.2
	c0.1,0.1,0.3,0.2,0.4,0.4c0.6,0.5,1.2,1,1.8,1.6c0,0,1.2,1.4,1,1.1c0.4,0.5,0.7,1.1,1,1.6c-0.1-0.2,0.2,0.7,0.3,1.2
	c0,0.2,0.1,0.7,0,1c0,0.6,0,0.5,0-0.1c0,0.2-0.1,0.3-0.1,0.4c-0.1,0.1-0.3,0.5-0.3,0.5c-0.4,0.5-0.9,0.9-1.3,1.3
	c0,0-1.3,1.1-1.1,0.9c-0.5,0.4-1.1,0.8-1.6,1.2c-0.5,0.3-1,0.7-1.5,1c-0.1,0-0.3,0-0.5,0c-2.1-0.2-4.2,0.9-5.6,2.5
	c-0.1,0-0.3,0-0.3,0c-0.1,0-0.2-0.1-0.3-0.1c-0.3-0.1-0.6-0.2-0.9-0.3c0,0-0.2-0.1-0.3-0.2C139,71,138.9,70.9,137.6,69.6z"/>
<path class="st0" d="M56.6,208.4c-0.5-5.7-3.6-9.8-7.5-13.7c-0.8-0.8-1.8-1.4-2.8-1.7c-0.3-2.1-1.5-4.1-3.6-5
	c-9.1-4-18.1-1.5-25.4,4.9c-2.8,2.4-5.6,5.4-7.2,8.7c-2.5,5.1-1.5,10.2,0.9,15.2c3.4,7.2,10.5,12.9,18.2,14.7
	c8.8,2.1,19.7,0.4,23.8-8.6C55,218.3,57,213.5,56.6,208.4z M41.3,210.2c0,0,0,0.1,0,0.1c-0.1,0.3-0.1,0.6-0.2,0.9
	c-0.3,0.9-0.5,1.7-0.8,2.6c-0.3,0.9-0.9,1.6-1.3,2.8c-0.1,0-0.2,0.1-0.3,0.1c-0.3,0.1-0.5,0.1-0.8,0.2c-0.3,0.1-0.5,0.1-0.6,0.1
	c-0.1,0-0.3,0-0.7,0c-0.7,0-1.5,0-2.2,0c0,0-0.9-0.2-1.2-0.2c-0.7-0.2-1.3-0.4-2-0.6c-1.3-0.4-0.1,0.1-1.2-0.6
	c-0.5-0.3-1.1-0.6-1.6-1c0,0-0.6-0.5-0.8-0.7c-0.6-0.5-1.1-1.1-1.6-1.6c-0.1-0.1-0.2-0.2-0.2-0.2c0-0.1-0.1-0.2-0.2-0.4
	c-0.4-0.6-0.8-1.3-1.1-2c-0.1-0.1-0.1-0.2-0.2-0.3c0-0.1-0.1-0.3-0.2-0.6c-0.1-0.2-0.1-0.4-0.2-0.6c0,0,0.1-0.1,0.1-0.1
	c0.1-0.1,0.1-0.2,0.1-0.2c0.1-0.1,0.2-0.2,0.3-0.3c1.1-1.2,2.2-2.4,3.4-3.5c0.6-0.6,1.1-0.9,2.4-1.7c0,0,1.4-0.6,1.4-0.7
	c0.5-0.1,1.4-0.4,1.2-0.4c0.6-0.1,1.2-0.1,1.8,0c-0.4,0,1.3,0.5,0.3,0c0.4,0.2,0.8,0.3,1.2,0.4c0.3,1.4,1,2.8,2.1,3.9
	c0.6,0.6,1.1,1.2,1.7,1.7c0.3,0.3,0.4,0.4,0.5,0.4c0.1,0.1,0.1,0.2,0.3,0.5c0.1,0.1,0.3,0.6,0.5,1C41.3,209.4,41.4,209.9,41.3,210.2
	z"/>
<g>
	<path class="st0" d="M137.4,372.5c-0.3-5.4-3.5-9.7-7.3-13.2c-3.6-3.4-7.2-6.8-11.2-9.7c-8.6-6.2-23.1-6.7-28.4,4.2
		c-1,2.1-1.2,4.5-0.5,6.7c-1.6,2.3-2.8,4.9-3.2,7.8c-0.5,3.4-0.2,6.6,1.3,9.7c1.1,2.1,2.7,3.9,4.3,5.7c1,1.2,2.7,3.6,4.1,5.4
		c1.6,2,3.5,3.7,5.6,5.2c5.3,3.6,11.5,3.7,17.2,1.1c4.3-2,8.2-5.4,11.5-8.8C134.4,382.7,137.7,378.1,137.4,372.5z M116.2,379.2
		c0,0-1.3,1-1.3,1c-0.9,0.6-1.8,1.3-2.8,1.7c0.2-0.1-0.3,0-0.6,0.1c-0.8,0-0.8,0-0.1,0c-0.2-0.1-0.3-0.1-0.4-0.1
		c-1.4-0.7-1.8-1.2-3.2-2.9c-0.8-1-2.3-3.1-3.6-4.7c-0.7-0.8-1.3-1.6-2-2.5c-0.1-0.1-0.2-0.2-0.2-0.3c0.1,0.1,0.1,0-0.2-0.4
		c0,0,0,0,0,0c0,0,0,0,0,0c0,0,0,0,0,0c0,0,0,0,0,0c0-0.1-0.1-0.2-0.1-0.4c0.1,0.1,0.1,0.3,0.1,0.4c0.1-0.5,0.3-1.1,0.2-0.9
		c0.8-1.9,1.9-2.7,3.4-4.4c1.3-1.4,2-3.2,2.2-5c0.1,0,0.1,0,0.2,0.1c-0.1,0-0.1-0.1-0.2-0.1c0,0,0,0,0,0c0.1,0.1,0.3,0.2,0.6,0.3
		c0.5,0.2,0.9,0.5,1.4,0.8c0.6,0.4,1.2,0.8,1.8,1.2c-0.1,0,0.2,0.1,0.6,0.5c0.4,0.4,0.8,0.7,1.2,1.1c2.9,2.6,6,5.1,8.5,8.1
		c-0.7-0.8,0,0,0.4,0.4c0,0,0,0,0,0c0,0-0.1-0.1-0.1-0.1c0,0.1,0,0.1,0.1,0.2c-0.1,0.2-0.3,0.5-0.4,0.7c0.3-0.5-1,1.1-1.2,1.4
		C119.1,376.6,117.7,377.9,116.2,379.2z"/>
	<path class="st0" d="M101.7,371.2C101.7,371.1,101.7,371.1,101.7,371.2L101.7,371.2C101.7,371.1,101.7,371.1,101.7,371.2
		L101.7,371.2z"/>
	<path class="st0" d="M101.7,370.9C101.7,370.9,101.7,370.9,101.7,370.9c0,0.1,0,0.1,0,0.1C101.8,371,101.7,371,101.7,370.9z"/>
</g>
<path class="st0" d="M354.1,132.3c-3.7-3.2-7.4-6.3-11.1-9.5c-0.3-0.2-0.5-0.4-0.8-0.6c-0.5-1.7-1.6-3.3-3.3-4.2
	c-3.4-1.8-8.6-1.1-10.5,2.7c-3.9,8.3-8.8,16.6-14.1,23.9c-2.5-1.7-5-3.4-7.5-5.1c0.2-0.1,0.4-0.2,0.6-0.4c3.1-2.1,6.4-3.9,9.7-5.6
	c3.7-1.8,4.7-7.1,2.7-10.5c-2.2-3.8-6.8-4.6-10.5-2.7c-7.6,3.8-14.5,8.6-20.8,14.2c-3.9,3.5-2.3,9.4,1.5,12c5.8,4,11.6,8,17.4,11.9
	c0.3,1.2,0.9,2.3,1.9,3.4c2.7,2.7,8.2,3.2,10.8,0c6.2-7.7,11.8-15.7,16.6-24.3c1.5,1.3,3.1,2.6,4.6,3.9c0.7,0.6,1.4,1.2,2,1.7
	c-0.2,0.1-0.4,0.2-0.6,0.3l-9.5,5.4c-3.6,2-4.8,6.9-2.7,10.5c2.1,3.6,6.9,4.8,10.5,2.7c4.1-2.3,8.3-4.7,12.4-7
	c4.5-2.5,10.4-4.7,10.2-10.9C363.6,138.7,357.9,135.5,354.1,132.3z"/>
<g>
	<rect x="72.8" y="114.5" class="st1" width="159.4" height="207.5"/>
	<path class="st1" d="M233.6,323.5H71.3V113.1h162.3V323.5z M74.3,320.5h156.4V116H74.3V320.5z"/>
</g>
<g>
	<path class="st1" d="M365.3,191.1v3.6c0,4.1,3.3,7.4,7.4,7.4h3.6h-3.6c-4.1,0-7.4,3.3-7.4,7.4v3.6v-3.6c0-4.1-3.3-7.4-7.4-7.4h-3.6
		h3.6c4.1,0,7.4-3.3,7.4-7.4V191.1z"/>
	<path class="st1" d="M366.8,212.9h-3v-3.6c0-3.2-2.6-5.9-5.9-5.9h-3.6v-3h3.6c3.2,0,5.9-2.6,5.9-5.9v-3.6h3v3.6
		c0,3.2,2.6,5.9,5.9,5.9h3.6v3h-3.6c-3.2,0-5.9,2.6-5.9,5.9V212.9z M362.8,202c1,0.7,1.8,1.5,2.5,2.5c0.7-1,1.5-1.8,2.5-2.5
		c-1-0.7-1.8-1.5-2.5-2.5C364.7,200.5,363.8,201.3,362.8,202z"/>
</g>
<g>
	<path class="st1" d="M263.3,89.3v3.6c0,4.1,3.3,7.4,7.4,7.4h3.6h-3.6c-4.1,0-7.4,3.3-7.4,7.4v3.6v-3.6c0-4.1-3.3-7.4-7.4-7.4h-3.6
		h3.6c4.1,0,7.4-3.3,7.4-7.4V89.3z"/>
	<path class="st1" d="M264.8,111.1h-3v-3.6c0-3.2-2.6-5.9-5.9-5.9h-3.6v-3h3.6c3.2,0,5.9-2.6,5.9-5.9v-3.6h3v3.6
		c0,3.2,2.6,5.9,5.9,5.9h3.6v3h-3.6c-3.2,0-5.9,2.6-5.9,5.9V111.1z M260.9,100.2c1,0.7,1.8,1.5,2.5,2.5c0.7-1,1.5-1.8,2.5-2.5
		c-1-0.7-1.8-1.5-2.5-2.5C262.7,98.7,261.8,99.6,260.9,100.2z"/>
</g>
<g>
	<rect x="305.1" y="252.7" class="st1" width="7.1" height="15.2"/>
	<path class="st1" d="M313.7,269.4h-10.1v-18.2h10.1V269.4z M306.6,266.4h4.2v-12.3h-4.2V266.4z"/>
</g>
<g>
	<path class="st1" d="M310.1,252.7h-3v-3.1c0-7,5.7-12.7,12.7-12.7h9.3c3.9,0,7-3.2,7-7c0-3.9-3.2-7-7-7h-23.7
		c-7,0-12.7-5.7-12.7-12.7v-11.7c0-4.2-3.4-7.7-7.7-7.7c-4.2,0-7.7,3.4-7.7,7.7v42.3c0,4.7-3.8,8.5-8.5,8.5c-4.7,0-8.5-3.8-8.5-8.5
		v-6c0-3.8-3.1-6.9-6.9-6.9H248v-3h5.4c5.4,0,9.8,4.4,9.8,9.8v6c0,3.1,2.5,5.6,5.6,5.6c3.1,0,5.6-2.5,5.6-5.6v-42.3
		c0-5.9,4.8-10.6,10.6-10.6c5.9,0,10.6,4.8,10.6,10.6v11.7c0,5.4,4.4,9.8,9.8,9.8h23.7c5.5,0,10,4.5,10,10c0,5.5-4.5,10-10,10h-9.3
		c-5.4,0-9.8,4.4-9.8,9.8V252.7z"/>
</g>
<g>
	<rect x="87.3" y="129" class="st2" width="159.4" height="207.5"/>
	<path class="st3" d="M245,145.2c2-3,1.5-7.5,0.2-10.9c-0.1-0.1-0.1-0.3-0.2-0.4c0.6-2.4,0.5-4.8-2.5-5.4c-3.8-0.8-7.9,1.3-11.6,1.9
		c-7.8,1.2-15.7-1.5-23.4,0.8c-1.5,0.4-3.4,1-4.2,2.4c-0.9,1.5-0.4,3.4,0.9,4.6c1.2,1.2,3.1,1.7,4.7,2.2c1.1,0.4,2.2,0.7,3.3,1.1
		c0.1,0,0.1,0.1,0.2,0.1c0.6,0.2,1.2,0.4,1.8,0.5c0.5,0.2,1.1,0.3,1.6,0.5c4.8,1.5,9.6,3.1,14.4,4.6c2.1,0.7,4.1,1.3,6.2,1.7
		c1.8,0.3,3.7,0.4,5,1.9c1.7,2,5.1,0.3,5.1-2.1l0-1.2C246.4,146.4,245.8,145.6,245,145.2z M239,141.7c0.4,0,0.8,0,1.2-0.1
		c-0.3,0.4-0.7,0.7-1.3,0.7l0,0C239,142.2,239,141.9,239,141.7z"/>
	<path class="st0" d="M127.7,151.8c3.5-0.9,7-1.9,10.5-2.9c3.2,0.6,6.3,1,9.6,1.1c3.7,0.1,7.2-0.4,10.9-0.6c1.8-0.1,3.5,0,5.2,0.3
		c0.8,0.3,1.6,0.7,2.4,1c1,0.4,2.1,0.8,3.1,1.2h31.5c2.3-1.5,1.9-5.8-1.4-5.5c-0.8,0.1-1.7,0.1-2.5,0.2c-0.3-0.8-0.9-1.4-1.8-1.5
		c-1.8-0.3-3.5,0-5,0.5c-2.9,0.4-5.9,0.6-8.8,0.9c-0.2,0-0.5,0.1-0.7,0.1c-0.2-0.1-0.5-0.3-0.7-0.4c-8.3-2.9-16.5-5.8-24.8-8.7
		c-3.2-1.1-6.4-2.1-9.7-2.6c-4.4-2.3-9-4-13.7-5.3c-2.3-0.6-4.1,1.5-3.6,3.6c0.9,3.9,4.4,6.3,8.2,7c0.7,0.1,1.4,0.2,2.2,0.2
		c-0.4,0.8-0.4,1.6-0.1,2.4c-5.7,1.5-11.3,3.5-17.2,4.3c-2.5,0.4-2.6,3.1-1.3,4.7H127.7z"/>
	<g>
		<path class="st0" d="M240.8,242.8c-10.2-1.4-20.4-2.7-30.8-1.7c-5,0.5-10,1.3-15.1,1.4c-4.7,0.1-9.5-0.4-14.2-0.6
			c-5.3-0.2-10.6,0.2-15.6,1.8c-7.4,0-14.6,2.2-18.8,9c-2,3.2-2.9,6.7-3.1,10.3c-0.5,1.1-0.9,2.2-1.2,3.3c-2.5,8-1.5,16.4-1.7,24.5
			c-0.1,4.1-1,8.1-0.9,12.1c0.1,4.8,1.7,8.8,3.7,13.1c0.2,0.3,0.3,0.7,0.5,1c0,0,0.1,0.2,0.3,0.8c0.1,0.3,0.1,0.5,0.2,0.8
			c0,0.1,0,0.2,0,0.4c0,0,0,0,0,0.1c-2.9,5.2-3.5,12,1.2,16.4c5,4.8,12.6,3.4,16.4-2.1c2.5-3.5,0.9-7.4-1.9-9.8
			c0.1-0.2,0.2-0.4,0.3-0.7c1.7-3.7,2.4-7.5,2.6-11.6c0.3-7.1-1.2-14.1-1.7-21.1c-0.1-1.7-0.2-3.4-0.2-5.1c0-0.9,0-1.8,0.1-2.8
			c0-0.2,0.1-1.3,0.1-1.4c0.2-1.6,0.6-3.2,1.1-4.8c0.2-0.8,0.5-1.6,0.8-2.4c0.1-0.4,0.2-0.5,0.2-0.6c0-0.1,0.1-0.2,0.3-0.6
			c1.3-2.8,2.9-5.5,4.6-8.1c1.7-2.6,3.2-4.5,4.7-6.5c0.3-0.1,0.6-0.1,0.7-0.1c4-0.5,8.1-0.2,12.1,0.1c4.3,0.3,8.5,0.5,12.8,0.2
			c4.3-0.3,8.5-1,12.7-1.4c8.5-0.8,17.8,0.1,25.6,1.2c4.1,0.6,8.7-1,9.7-5.5C247.2,248.8,245.2,243.4,240.8,242.8z"/>
		<path class="st0" d="M244.1,163.2c-3-2.9-8.3-3.2-11.2,0c-0.3,0.3-0.6,0.7-0.8,1c-0.3,0-0.7,0-1,0c-2.4,0-4.8,0.1-7.1,0.1
			c-4.3,0-8.5,0.1-12.8,0.1c-4.3,0-8.5,0.1-12.8-0.4c-0.4-0.1-1-0.2-2.1-0.3c-1.3-0.2-2.7-0.4-4-0.6c-2.8-0.3-5.4-0.2-8.1,0.3
			c-1.7,0.3-3.4,0.9-5.2,1.1c0,0-0.1,0-0.5,0c-0.5,0-0.9,0.1-1.4,0.1c-1.3,0.1-2.5,0.1-3.8,0.1c-4.6,0.1-9.1,0.3-13.7,0.3
			c-9,0.2-17.9,0.2-26.9,0.1c-10.3-0.1-20.5-0.4-30.8-0.8c-1.9-0.1-3.8,0.8-5.3,2.1c-0.5-0.1-1-0.2-1.5-0.4c-2.5-0.6-5.2,0-7.2,1.6
			c0,0.1,0,0.1,0,0.2c0,3.6-0.4,7.3-1.1,10.8c0.2,0.3,0.4,0.5,0.7,0.8c-0.3,0.8-0.5,1.7-0.5,2.6c-0.4,14.6-0.6,29.2-0.5,43.7h1.1
			v34.2c0.1,0.1,0.1,0.2,0.2,0.2c2.2-7.8,5.4-15.3,8.7-22.7c2.5-5.6,4.7-11,5.9-17.1c1.2-5.8,2.3-11.3,4.8-16.7c0-0.2,0-0.3,0.1-0.5
			c0.7-4.4,1.5-9.6,3.4-12.9c0.2-0.4,0.5-0.8,0.8-1.2c0.1-0.1,0.1-0.2,0.2-0.3c0.5-0.6,1.1-1.2,1.7-1.7c-0.3,0.4,1.1-0.6,1.4-0.8
			c0.2-0.1,0.6-0.2,0.7-0.2c0.6-0.2,1.2-0.3,1.8-0.3c1.3-0.2,2.5-0.9,3.4-1.9c0.9,0,1.8,0,2.7-0.1c4-0.1,8.1-0.1,12.1-0.1
			c1.5,0.6,3.3,0.7,5.1,0.5c1.1-0.2,2.4-0.3,3.7-0.4c1.7,0,3.4,0.1,5.1,0.1c0.6,0,1.2-0.1,1.8-0.2c2.5,0.1,5,0.3,7.4,0.5
			c2.6,0.3,5.2-1.4,6.7-3.7c4.1-0.1,8.2-0.1,12.3-0.4c2.7-0.2,5.3-0.6,8-1.2c0.6-0.1,1.1-0.3,1.7-0.4c0,0,0.3-0.1,0.5-0.1
			c0.3,0,1.2-0.1,1.3-0.1c0.8,0,1.6,0,2.4,0.1c4,0.4,9.6,1.3,14.4,1.4c4.8,0.1,9.7-0.1,14.5-0.1c5.3-0.1,10.7,0.2,16-0.2
			c3.9-0.3,7.7-1.8,9.6-5.4C247.7,170.8,247.2,166.2,244.1,163.2z"/>
		<path class="st4" d="M247.6,260.9c0-2.1-1-4.2-2.5-5.7c-0.1-0.1-0.2-0.2-0.3-0.3c-0.1-0.1-0.1-0.1-0.2-0.2c-1.2-1-2.8-1.7-4.3-1.9
			c-1.8-0.2-3.9,0.2-5.6,1.3c-0.4,0-0.7,0.1-1.1,0.1c-1.6,0.1-3.2,0.1-4.8,0.2c-3,0-6.1,0-9.1-0.1c-6.3-0.2-12.5-0.3-18.8-0.3
			c-3.2,0-6.3,0-9.5,0.1c-1.6,0.2-3.3,0.4-4.8,0.7c-4.9,0.7-9.9,1.6-14.6,3.3c-1.7,0.6-3.7,1.6-5.5,2.8c-1.1,0.7-3.2,2.5-3.9,3.5
			c-0.3,0.5-0.7,0.9-1.2,1.2c-1,4.1-1,8.5-0.9,13.3c0.2,6.7-0.2,13.2-1.4,19.8c-1.3,7-3.2,14-3.9,21.1c-0.2,1.9-0.4,3.8-0.8,5.7
			c0.3,1.9,0.6,3.8,0.9,5.7c0.7,4.1,5.9,6.7,9.7,5.5c4.4-1.4,6.3-5.3,5.5-9.7c-0.8-4.6-1.2-9.8-0.6-15c0.1-1,0.3-2,0.5-3.7
			c0.2-1.4,0.4-2.8,0.4-4.1c0.1-2.7-0.3-5.3-0.5-7.9c-0.5-5.2,0.5-10.2,1-15.3c0.4-3.4,0.5-6.8,0.5-10.2c10.8-0.8,21.6-1,32.4-1
			c6.7,0,13.5,0.3,20.2,0.4c3.4,0,6.7,0,10.1-0.2c0.5,0,1-0.1,1.5-0.1c1.5,0.7,3.2,1,4.7,0.8c3.8-0.5,6.9-3.8,6.9-7.8
			C247.6,262.2,247.6,261.6,247.6,260.9z"/>
		<path class="st4" d="M246.7,153.8c-2.1-3.6-7.2-5.1-10.8-2.8c-0.5,0.3-1,0.7-1.4,1.1c-1,0-2-0.1-2.9-0.1c-2.4-0.1-4.9-0.2-7.3-0.3
			c-4.7-0.2-9.4-0.4-14.1-0.7c-9.2-0.6-18.5-1.9-27.7-2.1c-4.5-0.1-9,0.7-13.5,1.2c-4.6,0.5-9.3,0.8-13.9,0.9
			c-9.4,0.2-18.9,0.2-28.3,0.2c-10.8,0.1-21.6,0.1-32.4,0.2c-4.1,0-8.1,3.6-7.9,7.9c0.2,4.3,3.5,7.9,7.9,7.9
			c20.7-0.1,41.5,0.2,62.2-0.5c9.9-0.3,19.8-2.5,29.7-1.9c10.3,0.7,20.5,1.8,30.8,2.3c5.8,0.3,11.6,0.5,17.5,0.7
			c3.5,0.1,7,0.2,9.9-2C248.1,163,249.1,157.9,246.7,153.8z"/>
	</g>
	<path class="st1" d="M248.1,338H85.8V127.5h162.3V338z M88.7,335h156.4V130.5H88.7V335z"/>
	<g>
		<path class="st1" d="M248.1,153.2H85.8v-25.7h162.3V153.2z M88.7,150.2h156.4v-19.7H88.7V150.2z"/>
	</g>
	<g>
		<g>
			<rect x="98.6" y="138" class="st1" width="4.8" height="4.8"/>
			<path class="st1" d="M104.9,144.3h-7.8v-7.8h7.8V144.3z M100.1,141.3h1.9v-1.9h-1.9V141.3z"/>
		</g>
		<g>
			<rect x="114.1" y="138" class="st1" width="4.8" height="4.8"/>
			<path class="st1" d="M120.4,144.3h-7.8v-7.8h7.8V144.3z M115.6,141.3h1.9v-1.9h-1.9V141.3z"/>
		</g>
		<g>
			<rect x="129.5" y="138" class="st1" width="4.8" height="4.8"/>
			<path class="st1" d="M135.8,144.3H128v-7.8h7.8V144.3z M131,141.3h1.9v-1.9H131V141.3z"/>
		</g>
	</g>
	<g>
		<g>
			<g>
				
					<rect x="225.5" y="138.9" transform="matrix(0.7071 -0.7071 0.7071 0.7071 -31.4706 204.7577)" class="st1" width="11.9" height="3"/>
			</g>
			<g>
				
					<rect x="229.9" y="134.4" transform="matrix(0.7071 -0.7071 0.7071 0.7071 -31.4706 204.7577)" class="st1" width="3" height="11.9"/>
			</g>
		</g>
		<g>
			<rect x="211" y="138.9" class="st1" width="11.1" height="3"/>
		</g>
	</g>
	<g>
		<path class="st1" d="M224.1,182.8H219v-3h5.1V182.8z M213.2,182.8h-5.1v-3h5.1V182.8z M202.4,182.8h-5.1v-3h5.1V182.8z
			 M191.5,182.8h-5.1v-3h5.1V182.8z M180.6,182.8h-5.1v-3h5.1V182.8z M169.7,182.8h-5.1v-3h5.1V182.8z M158.9,182.8h-5.1v-3h5.1
			V182.8z M148,182.8h-5.1v-3h5.1V182.8z M137.1,182.8h-5.1v-3h5.1V182.8z M126.3,182.8h-5.1v-3h5.1V182.8z M115.4,182.8h-5.1v-3
			h5.1V182.8z"/>
	</g>
	<g>
		<path class="st1" d="M224.1,196.8H219v-3h5.1V196.8z M213.2,196.8h-5.1v-3h5.1V196.8z M202.4,196.8h-5.1v-3h5.1V196.8z
			 M191.5,196.8h-5.1v-3h5.1V196.8z M180.6,196.8h-5.1v-3h5.1V196.8z M169.7,196.8h-5.1v-3h5.1V196.8z M158.9,196.8h-5.1v-3h5.1
			V196.8z M148,196.8h-5.1v-3h5.1V196.8z M137.1,196.8h-5.1v-3h5.1V196.8z M126.3,196.8h-5.1v-3h5.1V196.8z M115.4,196.8h-5.1v-3
			h5.1V196.8z"/>
	</g>
	<g>
		<path class="st1" d="M224.1,210.9H219v-3h5.1V210.9z M213.2,210.9h-5.1v-3h5.1V210.9z M202.4,210.9h-5.1v-3h5.1V210.9z
			 M191.5,210.9h-5.1v-3h5.1V210.9z M180.6,210.9h-5.1v-3h5.1V210.9z M169.7,210.9h-5.1v-3h5.1V210.9z M158.9,210.9h-5.1v-3h5.1
			V210.9z M148,210.9h-5.1v-3h5.1V210.9z M137.1,210.9h-5.1v-3h5.1V210.9z M126.3,210.9h-5.1v-3h5.1V210.9z M115.4,210.9h-5.1v-3
			h5.1V210.9z"/>
	</g>
	<g>
		<path class="st1" d="M224.1,224.9H219v-3h5.1V224.9z M213.2,224.9h-5.1v-3h5.1V224.9z M202.4,224.9h-5.1v-3h5.1V224.9z
			 M191.5,224.9h-5.1v-3h5.1V224.9z M180.6,224.9h-5.1v-3h5.1V224.9z M169.7,224.9h-5.1v-3h5.1V224.9z M158.9,224.9h-5.1v-3h5.1
			V224.9z M148,224.9h-5.1v-3h5.1V224.9z M137.1,224.9h-5.1v-3h5.1V224.9z M126.3,224.9h-5.1v-3h5.1V224.9z M115.4,224.9h-5.1v-3
			h5.1V224.9z"/>
	</g>
	<g>
		<path class="st1" d="M224.1,239H219v-3h5.1V239z M213.2,239h-5.1v-3h5.1V239z M202.4,239h-5.1v-3h5.1V239z M191.5,239h-5.1v-3h5.1
			V239z M180.6,239h-5.1v-3h5.1V239z M169.7,239h-5.1v-3h5.1V239z M158.9,239h-5.1v-3h5.1V239z M148,239h-5.1v-3h5.1V239z
			 M137.1,239h-5.1v-3h5.1V239z M126.3,239h-5.1v-3h5.1V239z M115.4,239h-5.1v-3h5.1V239z"/>
	</g>
	<g>
		<path class="st1" d="M224.1,253H219v-3h5.1V253z M213.2,253h-5.1v-3h5.1V253z M202.4,253h-5.1v-3h5.1V253z M191.5,253h-5.1v-3h5.1
			V253z M180.6,253h-5.1v-3h5.1V253z M169.7,253h-5.1v-3h5.1V253z M158.9,253h-5.1v-3h5.1V253z M148,253h-5.1v-3h5.1V253z
			 M137.1,253h-5.1v-3h5.1V253z M126.3,253h-5.1v-3h5.1V253z M115.4,253h-5.1v-3h5.1V253z"/>
	</g>
	<g>
		<path class="st1" d="M224.1,267.1H219v-3h5.1V267.1z M213.2,267.1h-5.1v-3h5.1V267.1z M202.4,267.1h-5.1v-3h5.1V267.1z
			 M191.5,267.1h-5.1v-3h5.1V267.1z M180.6,267.1h-5.1v-3h5.1V267.1z M169.7,267.1h-5.1v-3h5.1V267.1z M158.9,267.1h-5.1v-3h5.1
			V267.1z M148,267.1h-5.1v-3h5.1V267.1z M137.1,267.1h-5.1v-3h5.1V267.1z M126.3,267.1h-5.1v-3h5.1V267.1z M115.4,267.1h-5.1v-3
			h5.1V267.1z"/>
	</g>
	<g>
		<path class="st1" d="M224.1,281.1H219v-3h5.1V281.1z M213.2,281.1h-5.1v-3h5.1V281.1z M202.4,281.1h-5.1v-3h5.1V281.1z
			 M191.5,281.1h-5.1v-3h5.1V281.1z M180.6,281.1h-5.1v-3h5.1V281.1z M169.7,281.1h-5.1v-3h5.1V281.1z M158.9,281.1h-5.1v-3h5.1
			V281.1z M148,281.1h-5.1v-3h5.1V281.1z M137.1,281.1h-5.1v-3h5.1V281.1z M126.3,281.1h-5.1v-3h5.1V281.1z M115.4,281.1h-5.1v-3
			h5.1V281.1z"/>
	</g>
	<g>
		<path class="st1" d="M224.1,295.2H219v-3h5.1V295.2z M213.2,295.2h-5.1v-3h5.1V295.2z M202.4,295.2h-5.1v-3h5.1V295.2z
			 M191.5,295.2h-5.1v-3h5.1V295.2z M180.6,295.2h-5.1v-3h5.1V295.2z M169.7,295.2h-5.1v-3h5.1V295.2z M158.9,295.2h-5.1v-3h5.1
			V295.2z M148,295.2h-5.1v-3h5.1V295.2z M137.1,295.2h-5.1v-3h5.1V295.2z M126.3,295.2h-5.1v-3h5.1V295.2z M115.4,295.2h-5.1v-3
			h5.1V295.2z"/>
	</g>
	<g>
		<path class="st1" d="M224.1,309.2H219v-3h5.1V309.2z M213.2,309.2h-5.1v-3h5.1V309.2z M202.4,309.2h-5.1v-3h5.1V309.2z
			 M191.5,309.2h-5.1v-3h5.1V309.2z M180.6,309.2h-5.1v-3h5.1V309.2z M169.7,309.2h-5.1v-3h5.1V309.2z M158.9,309.2h-5.1v-3h5.1
			V309.2z M148,309.2h-5.1v-3h5.1V309.2z M137.1,309.2h-5.1v-3h5.1V309.2z M126.3,309.2h-5.1v-3h5.1V309.2z M115.4,309.2h-5.1v-3
			h5.1V309.2z"/>
	</g>
</g>
<g>
	<rect x="169.3" y="267.9" class="st2" width="210.1" height="98.5"/>
	<g>
		<path class="st0" d="M373.5,289.2c-2.1-3.9-6-7-10.6-6.4c-4.5,0.6-9,0.5-13.5,0.2c-0.4-0.1-0.8-0.2-1.2-0.1c-0.1,0-0.3,0-0.4,0
			c-1.1-0.1-2.2-0.2-3.3-0.4c-0.2,0-0.6-0.1-0.9-0.1c-0.2,0-0.4-0.1-0.5-0.1c-3.3-0.5-6.6-0.9-9.9-1.4c-9.7-1.3-19.4-2-29.2-2.1
			c-17.1-0.2-34.3,1.4-51.2,4.7c-2.2-2.1-5.1-3.5-8.3-3.3c-6.1,0.4-12.3,1.3-18.3,2.3c-2.7,0.4-5.3,0.9-8,1.4
			c-1.1,0.2-2.1,0.3-3.2,0.5c-0.1-0.2-0.2-0.3-0.3-0.5c-3.2-5-8.3-6.5-13.9-5.7c-7.1,1.1-14.2,2.1-21.3,3.2c-4.6,0.7-8,5.6-8.8,9.8
			c-1,0.8-1.9,1.8-2.6,2.9v58.2h206.5c0.2-0.2,0.3-0.5,0.5-0.7c1-0.7,2-1.5,3-2.3c0.3-0.3,0.6-0.5,0.9-0.8V290
			C377.4,289.3,375.4,289,373.5,289.2z M217.6,316.4c-0.1-0.3-0.1-0.5-0.2-0.8c0.3,0,0.6,0,0.9,0.1
			C218.1,315.9,217.9,316.1,217.6,316.4z M256.5,307.9c0.3-0.1,0.7-0.1,1-0.2c0.9-0.2,1.7-0.3,2.6-0.5c0.1,0.3,0.2,0.6,0.4,0.9
			C259.1,308,257.8,308,256.5,307.9z"/>
	</g>
	<path class="st1" d="M380.9,367.9H167.8V266.4h213.1V367.9z M170.8,365h207.2v-95.6H170.8V365z"/>
	<g>
		<g>
			<rect x="241.4" y="342.3" class="st1" width="65.8" height="10.5"/>
			<path class="st1" d="M308.8,354.3H240v-13.5h68.8V354.3z M242.9,351.4h62.9v-7.6h-62.9V351.4z"/>
		</g>
		<g>
			<g>
				<rect x="339.4" y="342.3" class="st1" width="25.9" height="10.5"/>
				<path class="st1" d="M366.8,354.3h-28.9v-13.5h28.9V354.3z M340.9,351.4h23v-7.6h-23V351.4z"/>
			</g>
			<g>
				<rect x="183.4" y="342.3" class="st1" width="25.9" height="10.5"/>
				<path class="st1" d="M210.8,354.3h-28.9v-13.5h28.9V354.3z M184.9,351.4h23v-7.6h-23V351.4z"/>
			</g>
		</g>
		<g>
			<g>
				<rect x="317.6" y="342.3" class="st1" width="10.8" height="10.5"/>
				<path class="st1" d="M329.9,354.3h-13.8v-13.5h13.8V354.3z M319.1,351.4h7.8v-7.6h-7.8V351.4z"/>
			</g>
			<g>
				<rect x="220.3" y="342.3" class="st1" width="10.8" height="10.5"/>
				<path class="st1" d="M232.6,354.3h-13.8v-13.5h13.8V354.3z M221.8,351.4h7.8v-7.6h-7.8V351.4z"/>
			</g>
		</g>
	</g>
	<g>
		<g>
			<rect x="355" y="298.9" class="st1" width="10.8" height="10.5"/>
			<path class="st1" d="M367.2,310.9h-13.8v-13.5h13.8V310.9z M356.4,308h7.8v-7.6h-7.8V308z"/>
		</g>
		<g>
			<rect x="333.6" y="298.9" class="st1" width="10.8" height="10.5"/>
			<path class="st1" d="M345.9,310.9h-13.8v-13.5h13.8V310.9z M335.1,308h7.8v-7.6h-7.8V308z"/>
		</g>
		<g>
			<rect x="312.2" y="298.9" class="st1" width="10.8" height="10.5"/>
			<path class="st1" d="M324.5,310.9h-13.8v-13.5h13.8V310.9z M313.7,308h7.8v-7.6h-7.8V308z"/>
		</g>
		<g>
			<rect x="290.8" y="298.9" class="st1" width="10.8" height="10.5"/>
			<path class="st1" d="M303.1,310.9h-13.8v-13.5h13.8V310.9z M292.3,308h7.8v-7.6h-7.8V308z"/>
		</g>
		<g>
			<rect x="269.4" y="298.9" class="st1" width="10.8" height="10.5"/>
			<path class="st1" d="M281.7,310.9h-13.8v-13.5h13.8V310.9z M270.9,308h7.8v-7.6h-7.8V308z"/>
		</g>
		<g>
			<rect x="248" y="298.9" class="st1" width="10.8" height="10.5"/>
			<path class="st1" d="M260.3,310.9h-13.8v-13.5h13.8V310.9z M249.5,308h7.8v-7.6h-7.8V308z"/>
		</g>
		<g>
			<rect x="226.6" y="298.9" class="st1" width="10.8" height="10.5"/>
			<path class="st1" d="M238.9,310.9h-13.8v-13.5h13.8V310.9z M228.1,308h7.8v-7.6h-7.8V308z"/>
		</g>
		<g>
			<rect x="205.2" y="298.9" class="st1" width="10.8" height="10.5"/>
			<path class="st1" d="M217.5,310.9h-13.8v-13.5h13.8V310.9z M206.7,308h7.8v-7.6h-7.8V308z"/>
		</g>
		<g>
			<rect x="183.9" y="298.9" class="st1" width="10.8" height="10.5"/>
			<path class="st1" d="M196.1,310.9h-13.8v-13.5h13.8V310.9z M185.3,308h7.8v-7.6h-7.8V308z"/>
		</g>
	</g>
	<g>
		<g>
			<rect x="346.8" y="320.6" class="st1" width="18.9" height="10.5"/>
			<path class="st1" d="M367.2,332.6h-21.9v-13.5h21.9V332.6z M348.3,329.7h16v-7.6h-16V329.7z"/>
		</g>
		<g>
			<rect x="183.4" y="320.6" class="st1" width="18.9" height="10.5"/>
			<path class="st1" d="M203.8,332.6h-21.9v-13.5h21.9V332.6z M184.9,329.7h16v-7.6h-16V329.7z"/>
		</g>
		<g>
			<g>
				<rect x="212.6" y="320.6" class="st1" width="11.6" height="10.5"/>
				<path class="st1" d="M225.6,332.6h-14.5v-13.5h14.5V332.6z M214,329.7h8.6v-7.6H214V329.7z"/>
			</g>
			<g>
				<rect x="235.1" y="320.6" class="st1" width="11.6" height="10.5"/>
				<path class="st1" d="M248.1,332.6h-14.5v-13.5h14.5V332.6z M236.5,329.7h8.6v-7.6h-8.6V329.7z"/>
			</g>
			<g>
				<rect x="257.6" y="320.6" class="st1" width="11.6" height="10.5"/>
				<path class="st1" d="M270.6,332.6h-14.5v-13.5h14.5V332.6z M259,329.7h8.6v-7.6H259V329.7z"/>
			</g>
			<g>
				<rect x="280.1" y="320.6" class="st1" width="11.6" height="10.5"/>
				<path class="st1" d="M293.1,332.6h-14.5v-13.5h14.5V332.6z M281.5,329.7h8.6v-7.6h-8.6V329.7z"/>
			</g>
			<g>
				<rect x="302.6" y="320.6" class="st1" width="11.6" height="10.5"/>
				<path class="st1" d="M315.6,332.6h-14.5v-13.5h14.5V332.6z M304,329.7h8.6v-7.6H304V329.7z"/>
			</g>
			<g>
				<rect x="325.1" y="320.6" class="st1" width="11.6" height="10.5"/>
				<path class="st1" d="M338.1,332.6h-14.5v-13.5h14.5V332.6z M326.5,329.7h8.6v-7.6h-8.6V329.7z"/>
			</g>
		</g>
	</g>
</g>
<g>
	<g>
		<polygon class="st1" points="308.9,152.5 293.3,142 293.3,139.5 308.9,129 310.5,131.5 296.8,140.8 310.5,150 		"/>
	</g>
	<g>
		<polygon class="st1" points="342.8,152.5 341.1,150 354.9,140.8 341.1,131.5 342.8,129 358.3,139.5 358.3,142 		"/>
	</g>
	<g>
		
			<rect x="309.2" y="139.3" transform="matrix(0.3353 -0.9421 0.9421 0.3353 83.9571 400.512)" class="st1" width="33.1" height="3"/>
	</g>
</g>
<g>
	<g>
		<path class="st1" d="M114.1,364.1c-0.8,0-1.5-0.7-1.5-1.5v-4.7c0-0.8,0.7-1.5,1.5-1.5c0.8,0,1.5,0.7,1.5,1.5v4.7
			C115.6,363.4,114.9,364.1,114.1,364.1z"/>
	</g>
	<g>
		<path class="st1" d="M107.2,366.9c-0.4,0-0.8-0.1-1-0.4l-3.3-3.3c-0.6-0.6-0.6-1.5,0-2.1c0.6-0.6,1.5-0.6,2.1,0l3.3,3.3
			c0.6,0.6,0.6,1.5,0,2.1C107.9,366.8,107.6,366.9,107.2,366.9z"/>
	</g>
	<g>
		<path class="st1" d="M104.3,373.8h-4.7c-0.8,0-1.5-0.7-1.5-1.5c0-0.8,0.7-1.5,1.5-1.5h4.7c0.8,0,1.5,0.7,1.5,1.5
			C105.8,373.2,105.1,373.8,104.3,373.8z"/>
	</g>
	<g>
		<path class="st1" d="M103.9,384c-0.4,0-0.8-0.1-1-0.4c-0.6-0.6-0.6-1.5,0-2.1l3.3-3.3c0.6-0.6,1.5-0.6,2.1,0
			c0.6,0.6,0.6,1.5,0,2.1l-3.3,3.3C104.6,383.9,104.2,384,103.9,384z"/>
	</g>
	<g>
		<path class="st1" d="M114.1,388.3c-0.8,0-1.5-0.7-1.5-1.5v-4.7c0-0.8,0.7-1.5,1.5-1.5c0.8,0,1.5,0.7,1.5,1.5v4.7
			C115.6,387.6,114.9,388.3,114.1,388.3z"/>
	</g>
	<g>
		<path class="st1" d="M124.3,384c-0.4,0-0.8-0.1-1-0.4l-3.3-3.3c-0.6-0.6-0.6-1.5,0-2.1c0.6-0.6,1.5-0.6,2.1,0l3.3,3.3
			c0.6,0.6,0.6,1.5,0,2.1C125,383.9,124.7,384,124.3,384z"/>
	</g>
	<g>
		<path class="st1" d="M128.5,373.8h-4.7c-0.8,0-1.5-0.7-1.5-1.5c0-0.8,0.7-1.5,1.5-1.5h4.7c0.8,0,1.5,0.7,1.5,1.5
			C130,373.2,129.3,373.8,128.5,373.8z"/>
	</g>
	<g>
		<path class="st1" d="M121,366.9c-0.4,0-0.8-0.1-1-0.4c-0.6-0.6-0.6-1.5,0-2.1l3.3-3.3c0.6-0.6,1.5-0.6,2.1,0
			c0.6,0.6,0.6,1.5,0,2.1l-3.3,3.3C121.7,366.8,121.3,366.9,121,366.9z"/>
	</g>
</g>
<g>
	<g>
		<path class="st1" d="M142.2,56c-0.8,0-1.5-0.7-1.5-1.5v-4.7c0-0.8,0.7-1.5,1.5-1.5s1.5,0.7,1.5,1.5v4.7
			C143.7,55.4,143,56,142.2,56z"/>
	</g>
	<g>
		<path class="st1" d="M135.3,58.9c-0.4,0-0.8-0.1-1-0.4l-3.3-3.3c-0.6-0.6-0.6-1.5,0-2.1c0.6-0.6,1.5-0.6,2.1,0l3.3,3.3
			c0.6,0.6,0.6,1.5,0,2.1C136,58.7,135.7,58.9,135.3,58.9z"/>
	</g>
	<g>
		<path class="st1" d="M132.4,65.8h-4.7c-0.8,0-1.5-0.7-1.5-1.5c0-0.8,0.7-1.5,1.5-1.5h4.7c0.8,0,1.5,0.7,1.5,1.5
			C133.9,65.1,133.2,65.8,132.4,65.8z"/>
	</g>
	<g>
		<path class="st1" d="M132,76c-0.4,0-0.8-0.1-1-0.4c-0.6-0.6-0.6-1.5,0-2.1l3.3-3.3c0.6-0.6,1.5-0.6,2.1,0c0.6,0.6,0.6,1.5,0,2.1
			l-3.3,3.3C132.7,75.8,132.3,76,132,76z"/>
	</g>
	<g>
		<path class="st1" d="M142.2,80.2c-0.8,0-1.5-0.7-1.5-1.5V74c0-0.8,0.7-1.5,1.5-1.5s1.5,0.7,1.5,1.5v4.7
			C143.7,79.6,143,80.2,142.2,80.2z"/>
	</g>
	<g>
		<path class="st1" d="M152.4,76c-0.4,0-0.8-0.1-1-0.4l-3.3-3.3c-0.6-0.6-0.6-1.5,0-2.1c0.6-0.6,1.5-0.6,2.1,0l3.3,3.3
			c0.6,0.6,0.6,1.5,0,2.1C153.1,75.8,152.8,76,152.4,76z"/>
	</g>
	<g>
		<path class="st1" d="M156.6,65.8h-4.7c-0.8,0-1.5-0.7-1.5-1.5c0-0.8,0.7-1.5,1.5-1.5h4.7c0.8,0,1.5,0.7,1.5,1.5
			C158.1,65.1,157.4,65.8,156.6,65.8z"/>
	</g>
	<g>
		<path class="st1" d="M149.1,58.9c-0.4,0-0.8-0.1-1-0.4c-0.6-0.6-0.6-1.5,0-2.1l3.3-3.3c0.6-0.6,1.5-0.6,2.1,0
			c0.6,0.6,0.6,1.5,0,2.1l-3.3,3.3C149.8,58.7,149.4,58.9,149.1,58.9z"/>
	</g>
</g>
<g>
	<g>
		<path class="st1" d="M33,201.1c-0.8,0-1.5-0.7-1.5-1.5V195c0-0.8,0.7-1.5,1.5-1.5c0.8,0,1.5,0.7,1.5,1.5v4.7
			C34.5,200.5,33.8,201.1,33,201.1z"/>
	</g>
	<g>
		<path class="st1" d="M26.1,204c-0.4,0-0.8-0.1-1-0.4l-3.3-3.3c-0.6-0.6-0.6-1.5,0-2.1c0.6-0.6,1.5-0.6,2.1,0l3.3,3.3
			c0.6,0.6,0.6,1.5,0,2.1C26.9,203.8,26.5,204,26.1,204z"/>
	</g>
	<g>
		<path class="st1" d="M23.3,210.9h-4.7c-0.8,0-1.5-0.7-1.5-1.5c0-0.8,0.7-1.5,1.5-1.5h4.7c0.8,0,1.5,0.7,1.5,1.5
			C24.8,210.2,24.1,210.9,23.3,210.9z"/>
	</g>
	<g>
		<path class="st1" d="M22.8,221.1c-0.4,0-0.8-0.1-1-0.4c-0.6-0.6-0.6-1.5,0-2.1l3.3-3.3c0.6-0.6,1.5-0.6,2.1,0
			c0.6,0.6,0.6,1.5,0,2.1l-3.3,3.3C23.6,221,23.2,221.1,22.8,221.1z"/>
	</g>
	<g>
		<path class="st1" d="M33,225.3c-0.8,0-1.5-0.7-1.5-1.5v-4.7c0-0.8,0.7-1.5,1.5-1.5c0.8,0,1.5,0.7,1.5,1.5v4.7
			C34.5,224.7,33.8,225.3,33,225.3z"/>
	</g>
	<g>
		<path class="st1" d="M43.2,221.1c-0.4,0-0.8-0.1-1-0.4l-3.3-3.3c-0.6-0.6-0.6-1.5,0-2.1c0.6-0.6,1.5-0.6,2.1,0l3.3,3.3
			c0.6,0.6,0.6,1.5,0,2.1C44,221,43.6,221.1,43.2,221.1z"/>
	</g>
	<g>
		<path class="st1" d="M47.5,210.9h-4.7c-0.8,0-1.5-0.7-1.5-1.5c0-0.8,0.7-1.5,1.5-1.5h4.7c0.8,0,1.5,0.7,1.5,1.5
			C49,210.2,48.3,210.9,47.5,210.9z"/>
	</g>
	<g>
		<path class="st1" d="M39.9,204c-0.4,0-0.8-0.1-1-0.4c-0.6-0.6-0.6-1.5,0-2.1l3.3-3.3c0.6-0.6,1.5-0.6,2.1,0c0.6,0.6,0.6,1.5,0,2.1
			l-3.3,3.3C40.7,203.8,40.3,204,39.9,204z"/>
	</g>
</g>
<g>
	<g>
		<path class="st1" d="M412.6,312.3c-0.8,0-1.5-0.7-1.5-1.5v-4.7c0-0.8,0.7-1.5,1.5-1.5c0.8,0,1.5,0.7,1.5,1.5v4.7
			C414.1,311.7,413.4,312.3,412.6,312.3z"/>
	</g>
	<g>
		<path class="st1" d="M405.7,315.2c-0.4,0-0.8-0.1-1-0.4l-3.3-3.3c-0.6-0.6-0.6-1.5,0-2.1c0.6-0.6,1.5-0.6,2.1,0l3.3,3.3
			c0.6,0.6,0.6,1.5,0,2.1C406.4,315,406.1,315.2,405.7,315.2z"/>
	</g>
	<g>
		<path class="st1" d="M402.8,322.1h-4.7c-0.8,0-1.5-0.7-1.5-1.5c0-0.8,0.7-1.5,1.5-1.5h4.7c0.8,0,1.5,0.7,1.5,1.5
			C404.3,321.4,403.6,322.1,402.8,322.1z"/>
	</g>
	<g>
		<path class="st1" d="M402.4,332.3c-0.4,0-0.8-0.1-1-0.4c-0.6-0.6-0.6-1.5,0-2.1l3.3-3.3c0.6-0.6,1.5-0.6,2.1,0
			c0.6,0.6,0.6,1.5,0,2.1l-3.3,3.3C403.1,332.2,402.7,332.3,402.4,332.3z"/>
	</g>
	<g>
		<path class="st1" d="M412.6,336.5c-0.8,0-1.5-0.7-1.5-1.5v-4.7c0-0.8,0.7-1.5,1.5-1.5c0.8,0,1.5,0.7,1.5,1.5v4.7
			C414.1,335.9,413.4,336.5,412.6,336.5z"/>
	</g>
	<g>
		<path class="st1" d="M422.8,332.3c-0.4,0-0.8-0.1-1-0.4l-3.3-3.3c-0.6-0.6-0.6-1.5,0-2.1c0.6-0.6,1.5-0.6,2.1,0l3.3,3.3
			c0.6,0.6,0.6,1.5,0,2.1C423.6,332.2,423.2,332.3,422.8,332.3z"/>
	</g>
	<g>
		<path class="st1" d="M427,322.1h-4.7c-0.8,0-1.5-0.7-1.5-1.5c0-0.8,0.7-1.5,1.5-1.5h4.7c0.8,0,1.5,0.7,1.5,1.5
			C428.5,321.4,427.8,322.1,427,322.1z"/>
	</g>
	<g>
		<path class="st1" d="M419.5,315.2c-0.4,0-0.8-0.1-1-0.4c-0.6-0.6-0.6-1.5,0-2.1l3.3-3.3c0.6-0.6,1.5-0.6,2.1,0
			c0.6,0.6,0.6,1.5,0,2.1l-3.3,3.3C420.2,315,419.9,315.2,419.5,315.2z"/>
	</g>
</g>
<g>
	<path class="st1" d="M367.2,287.5H359v-8.6h8.2V287.5z M349.6,287.5h-8.2v-8.6h8.2V287.5z M331.9,287.5h-8.2v-8.6h8.2V287.5z
		 M314.3,287.5H306v-8.6h8.2V287.5z M296.6,287.5h-8.2v-8.6h8.2V287.5z M278.9,287.5h-8.2v-8.6h8.2V287.5z M261.3,287.5H253v-8.6
		h8.2V287.5z M243.6,287.5h-8.2v-8.6h8.2V287.5z M225.9,287.5h-8.2v-8.6h8.2V287.5z M208.3,287.5H200v-8.6h8.2V287.5z M190.6,287.5
		h-8.2v-8.6h8.2V287.5z"/>
</g>
</svg>
