<svg xmlns="http://www.w3.org/2000/svg" width="376.3" height="117" viewBox="0 0 376.3 117"><path fill-rule="evenodd" clip-rule="evenodd" fill="#FFF" d="M58.9 39.3L48.7 103 12.3 89.4l14.6-45.7"/><path fill-rule="evenodd" clip-rule="evenodd" d="M65.9 86.4c0-1 0-2 .1-3 .6-1.3.2-2.6.3-3.9.1-1.5-.3-3 .3-4.5 0-1.2 0-2.4.1-3.6.6-1.1.2-2.3.3-3.4.1-1.7-.3-3.4.3-5v-4.2c.8-2.6-.2-5.3.6-7.8 0-1.2 0-2.4.1-3.6.6-1.2.2-2.6.3-3.8.1-1.3-.3-2.7.3-4v-4.8c.8-2.4-.2-4.9.6-7.2.2-2.1-.3-4.2.7-6.2.4.3.9.5 1.2.9 3 3.8 6.7 6.2 11.8 5.7 2-.2 2.6.9 2.9 2.9 3.1 21.3 6.3 42.6 9.4 63.9.4 2.7.8 5.4 1.2 8 .2 1.3-.1 1.9-1.6 2.2-9.5 1.9-19 4-28.5 6-2.2-.6-.9-2.5-1.3-3.7.8-2.6-.2-5.3.6-7.8 0-1.4 0-2.8.1-4.2.6-1.8.1-3.6.3-5.4-.2-1.5-.6-2.6-.1-3.5zM169.8 93.5c1.5-8.1 3-16 4.5-23.8.4-2.2.7-4.4.8-6.6.1-1.6-.3-3.3-1.9-4.1-1.8-.9-3.6-.5-5.1.6-3.1 2.2-4.9 5.4-5.7 8.9-1.7 7.4-3.2 14.9-4.5 22.4-.4 2.2-1.2 2.8-3.3 2.7-2.4-.2-4.8-.2-7.2 0-2.2.2-2.5-.7-2.1-2.6 2.5-12.8 4.9-25.6 7.3-38.4 1.3-6.9 2.7-13.8 3.9-20.7.3-1.6.9-2.2 2.5-2.1 2.7.1 5.4.2 8.1 0 2.1-.1 2.2.7 1.9 2.5-1.5 7.3-2.8 14.6-4.4 22.7 4.1-4.2 8.2-6.6 13.5-6.6 5.7.1 9.4 3.5 9.9 9.2.4 4.4-.4 8.6-1.2 12.8-1.4 7-2.7 14-4 21-.3 1.5-.7 2.2-2.4 2.2-3.6-.2-7-.1-10.6-.1zM373.6 49.4c-5 10.7-9.7 21-14.5 31.2-3.7 7.8-7.7 15.4-13.2 22.2-3.8 4.7-8.4 8.3-14.2 10.3-1.3.5-1.9.4-2.3-1.1-.7-2.4-1.4-4.8-2.3-7.1-.6-1.6-.1-2.1 1.2-2.6 4.6-1.8 8.4-4.7 11.2-8.8 1-1.4 1.3-2.9 1-4.5-2.3-12.2-4.5-24.5-6.9-36.7-.5-2.4.1-3 2.4-2.8 2.6.2 5.2.2 7.8 0 1.9-.1 2.6.5 2.8 2.5.8 8.9 1.7 17.8 2.6 26.7 1.2-.1 1-1.1 1.2-1.8 3.2-8.4 6.4-16.9 9.5-25.3.4-1.2.8-2.1 2.4-2.1 3.5 0 7.2-.1 11.3-.1zM301.3 93.5c2.1-11 4-21.7 6.1-32.4.4-2 .2-2.8-1.9-2.5-2.8.5-3.9-.5-2.7-3.4.3-.6.3-1.4.3-2.1.2-3 1.3-4.7 4.6-4 1.5.3 2.2-.5 2.4-1.9.3-2.5 1.1-4.9 2.1-7.2 3.8-8.6 12.7-12.9 21.9-10.8 1.7.4 2.6.9 1.7 2.8-.3.7-.5 1.5-.6 2.3-.3 3.5-1.2 5.7-5.8 5-3.5-.6-7.9 5.7-7.1 9 .2.8.7.8 1.3.8h3c4.1 0 4.1 0 3.4 3.9-1 5.4-1.1 5.6-6.6 5.4-2.3-.1-3.2.5-3.6 3-1.6 9.8-3.6 19.5-5.4 29.3-.4 1.9-.9 2.9-3.2 2.7-3.2-.1-6.4.1-9.9.1zM123 94.2c-3.5.1-7.1-.7-10.6-2-1.3-.5-2-1.3-1.2-2.7.1-.2.1-.4.2-.6.7-2 .9-4.6 2.3-5.8 1.6-1.3 3.6 1.1 5.6 1.3 2.3.3 4.5 1 6.8.2 3.3-1.1 4.2-4.3 1.9-6.9-1.3-1.5-3.2-2.4-4.9-3.5-4.6-2.9-7.9-6.7-7.1-12.6.8-5.8 4.2-9.6 9.6-11.7 5.6-2.2 11.4-2 17.1-.5 1.8.5 2.2 1.3 1.5 3-.8 1.9-.8 4.5-2.1 5.9-1.6 1.7-3.7-1-5.7-.6h-.3c-3.9-.4-6.8.5-7.4 2.6-1 3.7 2 4.8 4.3 6.3 1.4.9 2.9 1.8 4.2 2.9 8.1 6.2 5 16.8-.6 20.7-3.9 3.1-8.5 4.1-13.6 4zM284.3 93.5c-6.4 0-6.3 0-5.1-6.4 2.3-11.8 4.6-23.6 6.7-35.4.4-2.1 1.2-2.4 2.9-2.3 2.5.1 5 .1 7.5 0 1.9-.1 2.6.3 2.2 2.5-2.5 12.7-5.1 25.3-7.3 38.1-.5 3.1-1.6 4.1-4.6 3.7-.6-.3-1.5-.2-2.3-.2zM288.4 37.8c0-4.1 3.1-7.3 7.1-7.3 3.6 0 6.3 2.7 6.3 6.3 0 4.1-3.1 7.2-7.2 7.3-3.7 0-6.2-2.5-6.2-6.3z"/><path fill-rule="evenodd" clip-rule="evenodd" d="M69.6 21c-1.2-.9-2.3-.1-3.4.2-1 .3-1.6.3-2.1-.9-1.9-4.7-4.6-8.5-10.3-8.8-.3 0-.6-.2-.8-.4-4.4-4.2-8.9-2.7-13.2 0-5.2 3.2-8.8 8.1-10.2 13.8C27.8 32 24 35.6 17 36.5c-2 .2-2.8 1.7-3.1 3.8C11.6 59 9.3 77.7 6.6 96.4c-.5 3.6.8 4 3.6 4.6 15.7 2.8 31.3 5.9 47 8.8 2.9.5 5.7 1.8 8.8 1-.3-1.4-.5-2.7-.5-4.1.1-2.5-.3-5 .4-7.5.3-1.4.3-2.8.2-4.2-.1-1.7 0-3.4 0-5.1 0-1.2 0-2.3.4-3.4.2-1 .3-2 .3-3V80c0-1.7-.2-3.3.4-4.9.2-1.2.3-2.4.3-3.5-.1-1 0-2 0-3 0-1.8-.2-3.7.4-5.5.3-1.4.3-2.8.2-4.2.1-2.6-.4-5.2.3-7.7.2-1.2.3-2.4.3-3.6-.1-1.2 0-2.4 0-3.6 0-1.5-.1-3 .4-4.5.3-1.5.3-3.1.2-4.7 0-2.4-.3-4.8.3-7.2.2-2.5.6-4.5 0-6.6zm-17.2-2.9c1.5 6 1 7.2-4.8 8.9-1.4.4-2.8.8-4.5 1.3 1.3-4.6 2.9-8.4 6.5-11.2 1.3-1.1 2.2-1.2 2.8 1zm-3.5-5.6c-1.7 1.7-3.7 2.9-5.1 4.7-2 2.7-3.6 5.7-4.2 8.9-.5 2.9-2 4.3-4.8 4.8-1.2.2-2.4.7-3.7 1.1 1.3-10.7 10.3-20.7 17.8-19.5zm4.3 34.8c-.4.8-.6 1.7-.9 2.5-.7 2.1-.9 4.8-2.3 6.1-1.4 1.3-3.7-.9-5.8-.9-1.1 0-2.2-.1-3.3 0-2.2.2-4.1 1.2-4.8 3.5-.7 2.3.5 3.9 2.2 5.2 2.5 2 5.4 3.5 7.5 6 4.7 5.4 4.8 11.5 2.2 17.7-2.5 5.8-7.3 8.3-13.5 8.1-4.7 0-8.8-1.5-12.6-4.3-1.5-1.1-2.2-2.1-1.4-4 .8-1.9.7-4.9 2.1-5.8 1.6-1.1 3.3 1.8 5.2 2.3.5.1.9.4 1.4.5 2.4.7 4.8 1.4 6.5-1.2 1.3-2 .6-4.8-1.7-7-.9-.8-1.8-1.6-2.8-2.3-9.9-7.2-6.3-20.3.3-25.5 6-4.6 12.7-5.6 19.9-4.1 2 .5 2.8 1.4 1.8 3.2zm4.4-23.5c-1.3.6-1.2-.5-1.2-1.3 0-2.4-.5-4.7-1.1-7.3 3.6 1.1 5 3.8 5.6 6.5.5 2.1-2.1 1.5-3.3 2.1z"/><path fill-rule="evenodd" clip-rule="evenodd" fill="#91B565" d="M65.3 99c-.2 2.6.7 5.3-.6 7.8.4-2.5-.6-5.2.6-7.8z"/><path fill-rule="evenodd" clip-rule="evenodd" fill="#90B467" d="M67.7 50.8c-.2 2.6.7 5.3-.6 7.8.4-2.6-.6-5.3.6-7.8z"/><path fill-rule="evenodd" clip-rule="evenodd" fill="#91B567" d="M68.9 27.3c-.2 2.4.6 4.9-.6 7.2.4-2.4-.5-4.9.6-7.2z"/><path fill-rule="evenodd" clip-rule="evenodd" fill="#90B466" d="M67.1 62.8v5.4c-.2.3-.4.3-.6 0 .3-1.7-.5-3.6.6-5.4z"/><path fill-rule="evenodd" clip-rule="evenodd" fill="#8FB268" d="M65.9 89.4c-.2 1.8.6 3.7-.6 5.5v-5.4c.2-.4.4-.4.6-.1z"/><path fill-rule="evenodd" clip-rule="evenodd" fill="#91B566" d="M66.5 74.9v4.8c-.2.3-.4.3-.5 0 .2-1.6-.6-3.3.5-4.8z"/><path fill-rule="evenodd" clip-rule="evenodd" fill="#92B566" d="M68.3 39.3v4.2c-.2.3-.4.3-.5 0 .2-1.4-.6-2.9.5-4.2z"/><path fill-rule="evenodd" clip-rule="evenodd" fill="#85A964" d="M67.8 43.5h.5c-.1 1.2.5 2.5-.5 3.6v-3.6z"/><path fill-rule="evenodd" clip-rule="evenodd" fill="#87AB65" d="M66 79.7h.5c-.1 1.2.5 2.5-.5 3.6v-3.6z"/><path fill-rule="evenodd" clip-rule="evenodd" fill="#82A762" d="M66.6 68.2h.6c-.1 1 .4 2.2-.5 3-.1-.9-.1-1.9-.1-3z"/><path fill-rule="evenodd" clip-rule="evenodd" fill="#93B95B" d="M65.9 89.4h-.6c.1-1-.4-2.1.5-3 .1 1 .1 2 .1 3z"/><path fill-rule="evenodd" clip-rule="evenodd" d="M277.5 60.9c-1.3-11.4-11.3-16-20.7-10.1-1.8 1.1-3.2 2.7-4.8 4.3-.7-2.3 1.2-4.8-.2-5.8s-3.9-.3-5.9-.4c-.8 0-1.6.1-2.4 0-1.8-.2-2.4.5-2.6 2.3-.6 4.7-1.3 9.3-2.1 14-2.7 14.6-5.4 29.2-8.3 43.7-.4 1.8-.1 2.3 1.7 2.2 2.8-.1 5.6-.1 8.4 0 1.4 0 2-.3 2.3-1.9.9-5.4 2-10.8 3.1-16.3 9 3 16.8 1.2 23.2-5.7 6.8-7.3 9.4-16.4 8.3-26.3zM264.6 67c-.3 4.7-1.8 9.6-4.9 14-1.5 2.1-3.5 3.6-6.1 4-4 .5-5.8-1.4-5-5.2.8-3.9 1.2-7.9 2.4-11.8.8-2.6 2-5 4-7 1.8-1.7 3.9-3 6.5-2s3.1 3.2 3.2 5.6c-.1.6-.1 1.2-.1 2.4zM207.8 49.9c-9.8 3.8-16.4 14.3-16.5 26.4-.1 9.7 5.1 16.6 13.6 17.8 8.3 1.1 15.5-1.4 21-7.8 4.6-5.3 6.8-11.6 7.1-18.5.7-15.2-10.9-23.5-25.2-17.9zm9.2 29.3c-2.3 4.5-5.4 6.3-8.7 5.3-2.8-.8-4.3-3.7-4.2-9.5.3-4.2 1.4-9.1 4.5-13.4 2.1-3 5-4.2 7.7-3.4 2.5.8 4 3.3 4 7.1 0 4.9-1 9.5-3.3 13.9zM63.6 110.9l5-89.8 1.2.2.7 3.5-3.5 85c.2-.1 1.7.7-3.4 1.1z"/></svg>