<?xml version="1.0" encoding="utf-8"?>
<!-- Generator: Adobe Illustrator 16.0.0, SVG Export Plug-In . SVG Version: 6.00 Build 0)  -->
<!DOCTYPE svg PUBLIC "-//W3C//DTD SVG 1.1//EN" "http://www.w3.org/Graphics/SVG/1.1/DTD/svg11.dtd">
<svg version="1.1" id="Layer_1" xmlns="http://www.w3.org/2000/svg" xmlns:xlink="http://www.w3.org/1999/xlink" x="0px" y="0px"
	 width="160px" height="60px" viewBox="0 0 160 60" enable-background="new 0 0 160 60" xml:space="preserve">
<path fill-rule="evenodd" clip-rule="evenodd" fill="#FFFFFF" d="M35.473-115.957c1.552,0.308,1.905-0.509,1.73-1.822
	c0.415-0.036,0.75-0.064,1.361-0.117c-0.176,0.874-0.193,1.676-0.507,2.337c-0.431,0.91-1.396,0.789-2.212,0.671
	c-0.214-0.031-0.36-0.525-0.537-0.807C35.362-115.782,35.417-115.869,35.473-115.957z"/>
<path fill-rule="evenodd" clip-rule="evenodd" fill="#FFFFFF" d="M142.14,31.057c-0.341-0.277-0.679-0.56-1.017-0.844
	c-0.596-0.5-1.211-1.017-1.828-1.476c-1.038-0.771-2.184-1.221-3.405-1.334c-1.842-0.168-3.535,0.464-5.456,2.012
	c-0.359,0.29-0.709,0.597-1.06,0.905c-0.412,0.361-0.824,0.723-1.249,1.058c-1.19,0.939-2.354,1.429-3.556,1.499
	c-1.964,0.112-3.568-1.01-4.735-1.983c-0.268-0.224-0.533-0.453-0.797-0.682c-0.56-0.485-1.088-0.943-1.646-1.349
	c-2.397-1.749-4.838-1.964-7.254-0.633c-0.585,0.322-1.138,0.781-1.725,1.267c-0.316,0.263-0.632,0.525-0.957,0.769
	c-0.797,0.6-1.6,1.187-2.409,1.759c-1.182,0.834-2.474,1.096-3.834,0.774c-1.564-0.37-2.854-1.376-4.039-2.375
	c-0.844-0.71-1.846-1.523-2.883-2.164c-1.295-0.801-2.739-1.062-4.27-0.771c-1.799,0.339-3.316,1.485-4.564,2.561
	c-0.848,0.731-1.684,1.435-2.581,2c-0.735,0.462-1.504,0.739-2.284,0.822l-0.873,0.092v-0.081c-1.84,0.035-3.291-0.959-4.36-1.827
	c-0.342-0.277-0.681-0.562-1.019-0.846c-0.595-0.5-1.209-1.016-1.826-1.474c-1.038-0.771-2.184-1.221-3.405-1.334
	c-1.844-0.171-3.536,0.465-5.455,2.012c-0.36,0.29-0.71,0.597-1.06,0.905c-0.412,0.361-0.824,0.723-1.249,1.058
	c-1.191,0.939-2.355,1.429-3.557,1.499c-1.964,0.115-3.567-1.009-4.735-1.983c-0.269-0.224-0.534-0.454-0.799-0.684
	c-0.559-0.484-1.086-0.941-1.643-1.347c-2.398-1.749-4.838-1.964-7.254-0.633c-0.585,0.322-1.14,0.782-1.726,1.269
	c-0.316,0.262-0.632,0.524-0.955,0.767c-0.797,0.6-1.6,1.187-2.409,1.759c-1.181,0.834-2.474,1.096-3.835,0.774
	c-1.564-0.37-2.853-1.376-4.039-2.375c-0.843-0.71-1.846-1.523-2.883-2.164c-1.296-0.801-2.739-1.063-4.27-0.771
	c-1.799,0.339-3.317,1.485-4.564,2.561c-0.849,0.732-1.686,1.437-2.581,2c-0.704,0.442-1.432,0.714-2.172,0.811v1.725
	c1.408-0.149,2.815-0.806,4.282-1.995c0.34-0.275,0.67-0.567,1-0.859c0.404-0.357,0.808-0.713,1.225-1.042
	c1.286-1.011,2.514-1.523,3.756-1.565l0.167-0.003c1.346,0,2.651,0.545,4.107,1.715c0.397,0.32,0.785,0.66,1.173,1
	c0.373,0.327,0.745,0.654,1.128,0.961c1.897,1.525,3.898,2.086,5.958,1.674c1.678-0.335,3.129-1.446,4.448-2.596
	c0.768-0.669,1.602-1.366,2.504-1.93c1.8-1.125,3.728-1.13,5.556-0.012c0.601,0.368,1.159,0.813,1.697,1.244l0.503,0.398
	c0.289,0.225,0.574,0.46,0.858,0.696c0.481,0.398,0.936,0.774,1.411,1.099c1.662,1.134,3.389,1.508,5.141,1.109
	c1.707-0.386,3.173-1.51,4.26-2.446l0.203-0.175c0.718-0.621,1.461-1.263,2.263-1.79c1.913-1.259,3.953-1.282,5.895-0.07
	c0.507,0.316,0.976,0.692,1.43,1.055c0.181,0.145,0.361,0.289,0.543,0.429c0.306,0.235,0.607,0.478,0.909,0.721
	c0.637,0.513,1.238,0.998,1.873,1.407c1.156,0.746,2.396,1.087,3.685,1.007l0.181,0c1.62,0,3.226-0.663,4.908-2.026
	c0.339-0.274,0.669-0.567,0.999-0.858c0.404-0.357,0.808-0.714,1.227-1.043c1.284-1.011,2.513-1.523,3.754-1.565l0.167-0.003
	c1.345,0,2.65,0.545,4.106,1.715c0.398,0.321,0.787,0.661,1.175,1.001c0.373,0.326,0.744,0.653,1.126,0.96
	c1.897,1.525,3.899,2.086,5.959,1.674c1.678-0.335,3.129-1.446,4.448-2.596c0.766-0.668,1.599-1.364,2.504-1.93
	c0.903-0.565,1.837-0.852,2.777-0.852c0.933,0,1.868,0.283,2.778,0.839c0.601,0.367,1.157,0.812,1.694,1.241l0.506,0.401
	c0.289,0.225,0.572,0.459,0.856,0.694c0.482,0.399,0.937,0.776,1.413,1.101c1.662,1.134,3.389,1.508,5.141,1.109
	c1.708-0.386,3.173-1.51,4.26-2.446l0.203-0.175c0.719-0.621,1.461-1.262,2.264-1.79c1.913-1.259,3.952-1.282,5.895-0.07
	c0.506,0.316,0.976,0.692,1.43,1.055c0.18,0.145,0.36,0.289,0.543,0.429c0.305,0.234,0.606,0.477,0.907,0.72
	c0.638,0.513,1.24,0.998,1.875,1.408c0.67,0.433,1.371,0.714,2.09,0.872v-1.781C143.899,32.381,142.917,31.688,142.14,31.057z"/>
</svg>
