<svg id="Layer_1" xmlns="http://www.w3.org/2000/svg" viewBox="0 0 24 24"><style>.st0{fill:#5adcb2}</style><path class="st0" d="M21.4 9.6c-1.2-.1-2.9-.3-4-.7.8-3.4 1.3-8.9-2.2-8.9-1.9 0-2.4 1.7-2.8 3.3-1.5 5.3-3.9 6.8-6.4 7.4V10H0v12h6v-.9c2.4.2 4.1.9 6.2 1.7 1.3.5 3.1 1.2 5.3 1.2 2.5 0 4.3-1 5-3.7.5-1.9 1.5-7.2 1.5-8.2 0-1.7-1.2-2.5-2.6-2.5zM4 20H2v-8h2v8zm15.9-5.6H21c1.1 0 1.1 1.5 0 1.6l-1.8.1c-.7.1-.7 1.2.1 1.2h1.1c1.1-.1 1 1.4 0 1.6-.4.1-1.7.1-1.7.1-.8.1-.7 1.2.1 1.1h.8c.8-.1 1 .8-.3 1.7-1.6.9-4.7.1-6.4-.6-2.2-1-4.4-1.9-7-2v-6c3.3-.7 6.3-2.3 8.3-9.1C15.2.8 16 2 16 4.5c0 2.1-.5 3.8-.9 5.5 1.1.5 3.4 1.4 6.1 1.6 1.1.1 1 1.5-.1 1.6l-1.4.2c.1-.1-.6 1 .2 1z"/></svg>