<?xml version="1.0" encoding="utf-8"?>
<!-- Generator: Adobe Illustrator 21.0.0, SVG Export Plug-In . SVG Version: 6.00 Build 0)  -->
<svg version="1.1" id="Layer_1" xmlns="http://www.w3.org/2000/svg" xmlns:xlink="http://www.w3.org/1999/xlink" x="0px" y="0px"
	 viewBox="0 0 24 24" style="enable-background:new 0 0 24 24;" xml:space="preserve">
<style type="text/css">
	.st0{fill:#30373B;}
</style>
<path class="st0" d="M16,2c3.3,0,6,2.7,6,6s-2.7,6-6,6s-6-2.7-6-6S12.7,2,16,2z M16,0c-4.4,0-8,3.6-8,8s3.6,8,8,8s8-3.6,8-8
	S20.4,0,16,0z M10.6,16.4L9.1,18H6v2H4v2H2v-2.2l5.9-6c-0.4-0.6-0.8-1.2-1-1.8L0,19v5h6v-2h2v-2h2l2.5-2.7
	C11.8,17.1,11.2,16.8,10.6,16.4z M18,5c0.6,0,1,0.4,1,1s-0.4,1-1,1s-1-0.4-1-1S17.4,5,18,5z M18,4c-1.1,0-2,0.9-2,2s0.9,2,2,2
	s2-0.9,2-2S19.1,4,18,4z"/>
</svg>
