<svg xmlns="http://www.w3.org/2000/svg" width="285.333" height="81.333" viewBox="0 0 285.333 81.333"><path fill="#FFF" d="M176.552 41.13c0 3.197-.474 6.281-1.305 9.215h-6.451c1.025-2.885 1.613-5.981 1.613-9.215 0-15.242-12.4-27.645-27.644-27.645-5.241 0-10.124 1.488-14.297 4.038l5.707 8.249h-21.483l6.611-21.501 5.68 8.212c5.17-3.225 11.238-5.14 17.783-5.14 18.656 0 33.786 15.128 33.786 33.787zm-19.518 23.628a27.33 27.33 0 0 1-14.269 4.017c-15.242 0-27.645-12.404-27.645-27.645 0-3.235.588-6.328 1.614-9.215h-6.452c-.831 2.934-1.305 6.016-1.305 9.215 0 18.657 15.127 33.787 33.787 33.787 6.533 0 12.589-1.907 17.755-5.123l5.69 8.195 6.61-21.468h-21.483l5.698 8.237z"/><path fill="#010101" d="M-23.924-122.992l-.375.213v-1.875l.375-.213v1.875zm3.082-3.63l-.373.213v1.876l.373-.214v-1.875zm3.822-8.301v12.566l-10.646 6.049-11.192-5.448v-12.564l10.665-6.01 11.173 5.407zm-12.935-1.917l7.667 3.495 1.857-1.001-7.767-3.486-1.757.992zm.924 8.411l-7.644-3.54v8.943l7.644 3.438v-8.841zm3.298-3.067l-7.445-3.538-2.231 1.275 7.49 3.45 2.186-1.187zm6.529-1.03l-2.184 1.177v3.042l-3.275 1.842v-3.118l-2.185 1.177v9.13l7.644-4.351v-8.899zm-5.358 8.023l-.381.217v1.872l.381-.213v-1.876zm1.534-.874l-.375.214v1.875l.375-.214v-1.875zm.627-.356l-.374.213v1.875l.374-.213v-1.875zm.638-.364l-.381.217v1.875l.381-.218v-1.874zm-20.59-4.952h-7.632v1.091h7.632m0 1.092h-13.166v1.093h13.166m0 1.091h-7.632v1.092h7.632m37.677 27.478l-.374.214v-1.875l.374-.212v1.873zm3.083-3.629l-.373.213v1.876l.373-.214v-1.875zm3.822-8.301v12.566l-10.646 6.049-11.193-5.448v-12.564l10.665-6.01 11.174 5.407zm-12.935-1.918l7.668 3.495 1.856-1-7.767-3.486-1.757.991zm.924 8.411l-7.643-3.539v8.943l7.643 3.438v-8.842zm3.298-3.067l-7.445-3.537-2.232 1.274 7.49 3.451 2.187-1.188zm6.529-1.03l-2.184 1.178v3.042l-3.276 1.842v-3.118l-2.183 1.177v9.13l7.643-4.351v-8.9zm-5.358 8.023l-.38.216v1.872l.38-.213v-1.875zm1.535-.874l-.375.214v1.874l.375-.214v-1.874zm.627-.357l-.375.214v1.874l.375-.212v-1.876zm.637-.363l-.381.218v1.874l.381-.217v-1.875zm-20.59-4.952h-7.632v1.092h7.632m0 1.092H-36.27v1.092h13.166m0 1.092h-7.632v1.092h7.632"/><g fill="#FFF"><path d="M218.465 34.011c-.358-.715-.626-1.43-.535-2.235.177-1.519 1.116-2.367 2.636-2.636-7.15-6.747-19.081-4.557-23.414 3.038h.669c1.386-.043 2.726-.088 4.111-.178.492-.045.894.089.894.624.044.538-.402.671-.849.715-.268 0-.581.045-.849.045-.492 0-.67.09-.492.67 1.833 5.407 3.62 10.813 5.452 16.22.312-.223.312-.492.357-.715.982-2.905 1.922-5.809 2.949-8.713.179-.491.134-.893-.044-1.384-.626-1.609-1.251-3.172-1.743-4.781-.267-.939-.715-1.43-1.743-1.341-.447.045-.983-.089-.938-.67.045-.669.536-.669 1.072-.625 2.01.179 4.021.179 6.032.133.625-.043 1.208-.088 1.832-.133.447-.044.715.179.715.625.045.403-.224.626-.625.67-.312.045-.671.09-.982.09-.626 0-.761.179-.537.804 1.162 3.396 2.279 6.747 3.441 10.143.668 1.922 1.295 3.888 1.965 5.809a124.099 124.099 0 0 0 2.637-8.489c.491-1.877.134-3.665-.761-5.361-.402-.806-.849-1.565-1.25-2.325z"/><path d="M228.428 39.774c-.357-9.606-9.025-17.604-18.767-17.291-10.455.357-18.23 8.757-17.872 19.347.312 9.651 9.025 17.694 18.767 17.337 10.501-.357 18.23-8.803 17.872-19.393zm-18.364 18.588c-9.65-.044-17.47-7.908-17.426-17.56 0-9.651 7.864-17.47 17.471-17.47 9.651 0 17.516 7.864 17.516 17.515-.045 9.651-7.911 17.515-17.561 17.515z"/><path d="M210.377 42.232c1.207 3.217 2.278 6.256 3.395 9.294.448 1.251.895 2.457 1.342 3.708.134.358.089.536-.312.626-2.86.848-5.721.938-8.624.223-.491-.133-.581-.268-.403-.714 1.608-4.335 3.083-8.669 4.602-13.137zm-7.194 12.645c-7.507-3.396-10.902-12.958-7.417-20.375 2.503 6.791 4.96 13.54 7.417 20.375zm21.046-21.001c4.021 8.222.044 17.069-5.942 20.286-.226-.179-.046-.357.043-.536 1.61-4.602 3.172-9.25 4.782-13.852.581-1.698.938-3.439.938-5.272-.046-.224-.268-.491.179-.626z"/><path d="M224.229 33.876c-.268.179-.045.492-.18.671a1.592 1.592 0 0 1-.088-1.028c.178.045.223.179.268.357z"/></g><g fill="#FFF"><path d="M78.403 48.33c0-.357 0-.713.035-1.069.213-.464.071-.927.106-1.391.036-.535-.106-1.069.107-1.604 0-.427 0-.854.036-1.282.214-.393.071-.821.107-1.212.036-.606-.107-1.212.106-1.782v-1.497c.286-.927-.071-1.889.214-2.78 0-.427 0-.855.036-1.283.214-.428.071-.927.107-1.354.036-.464-.107-.963.107-1.426v-1.709c.285-.856-.071-1.747.215-2.566.07-.749-.107-1.498.249-2.209.143.106.32.176.428.32 1.069 1.354 2.387 2.209 4.205 2.032.713-.072.927.321 1.035 1.033 1.105 7.591 2.246 15.183 3.35 22.774.142.963.285 1.924.427 2.852.072.462-.035.677-.57.784-3.386.677-6.771 1.425-10.158 2.138-.784-.214-.32-.892-.463-1.32.286-.925-.071-1.888.214-2.779 0-.5 0-.998.036-1.497.213-.641.036-1.283.107-1.924-.072-.537-.215-.929-.036-1.249z"/><path d="M79.721 25.019c-.428-.319-.82-.035-1.211.072-.357.107-.57.107-.749-.321-.677-1.675-1.64-3.03-3.671-3.136-.107 0-.214-.071-.285-.142-1.568-1.497-3.171-.962-4.705 0-1.853 1.141-3.136 2.886-3.634 4.917-.643 2.532-1.997 3.814-4.492 4.134-.713.071-.998.606-1.104 1.355-.82 6.665-1.64 13.33-2.603 19.996-.178 1.282.286 1.425 1.283 1.638 5.596.998 11.155 2.104 16.752 3.136 1.033.178 2.032.642 3.136.357a6.833 6.833 0 0 1-.178-1.461c.035-.892-.108-1.783.143-2.673.106-.5.106-.998.071-1.497-.036-.606 0-1.212 0-1.818 0-.428 0-.82.141-1.212.072-.356.108-.712.108-1.069v-1.247c0-.607-.072-1.177.142-1.748a7.6 7.6 0 0 0 .108-1.247c-.036-.356 0-.712 0-1.069 0-.641-.072-1.318.142-1.96.107-.5.107-.998.072-1.497.035-.927-.143-1.853.106-2.743a7.84 7.84 0 0 0 .107-1.283c-.036-.428 0-.856 0-1.284 0-.534-.036-1.069.143-1.604.105-.535.105-1.105.071-1.674 0-.856-.107-1.711.106-2.566.072-.892.215-1.604.001-2.354zm-6.13-1.033c.534 2.138.356 2.566-1.712 3.172-.498.143-.998.285-1.603.463.462-1.64 1.033-2.994 2.316-3.992.464-.392.784-.428.999.357zm-1.248-1.996c-.605.606-1.318 1.034-1.817 1.676-.713.961-1.284 2.03-1.497 3.172-.179 1.033-.713 1.532-1.71 1.71-.428.071-.855.249-1.32.393.464-3.814 3.67-7.379 6.344-6.951zm1.532 12.404c-.143.285-.214.605-.32.891-.25.749-.32 1.71-.82 2.174-.5.462-1.318-.32-2.066-.32-.393 0-.785-.036-1.177 0-.785.071-1.462.427-1.712 1.246-.25.82.179 1.391.784 1.854.892.713 1.925 1.249 2.673 2.139 1.676 1.924 1.71 4.099.785 6.308-.892 2.068-2.603 2.958-4.812 2.887-1.675 0-3.136-.535-4.49-1.532-.535-.392-.784-.749-.5-1.425.286-.678.25-1.748.748-2.068.571-.393 1.177.641 1.854.82.178.036.32.143.499.179.856.25 1.71.499 2.317-.427.463-.713.214-1.712-.607-2.497-.32-.284-.641-.569-.998-.819-3.527-2.566-2.245-7.235.108-9.088 2.138-1.64 4.527-1.997 7.093-1.462.713.178.998.498.641 1.14zm1.569-8.376c-.464.214-.428-.179-.428-.463 0-.855-.179-1.676-.392-2.602 1.283.392 1.781 1.354 1.996 2.316.178.749-.748.535-1.176.749z"/><path d="M78.188 52.82c-.07.927.25 1.889-.213 2.78.142-.892-.215-1.853.213-2.78zm.856-17.178c-.071.926.249 1.889-.214 2.779.143-.926-.215-1.889.214-2.779zm.428-8.377c-.071.855.213 1.746-.214 2.566.142-.855-.179-1.746.214-2.566zm-.642 12.652v1.925c-.072.108-.143.108-.215 0 .108-.605-.177-1.283.215-1.925zm-.427 9.481c-.072.642.212 1.319-.215 1.96v-1.925c.072-.142.143-.142.215-.035zm.212-5.169v1.712c-.071.107-.141.107-.177 0 .071-.571-.214-1.176.177-1.712zm.642-12.687v1.499c-.071.105-.143.105-.179 0 .072-.5-.213-1.035.179-1.499z"/><path d="M79.079 33.04h.179c-.036.427.179.89-.179 1.282V33.04zm-.641 12.901h.177c-.035.428.179.89-.177 1.282v-1.282zm.213-4.099h.213c-.035.356.144.784-.178 1.069-.035-.32-.035-.677-.035-1.069zm-.248 7.556h-.215c.036-.357-.142-.748.179-1.069.036.356.036.713.036 1.069z"/><path d="M79.792 25.127l-.428-.072-1.782 32.006c1.818-.143 1.282-.428 1.212-.393l1.247-30.294-.249-1.247z"/></g><path fill="#FFF" d="M138.939 44.983l.44.252v2.207l-.44-.252v-2.207zm-3.63.14l.44.253v-2.21l-.44-.25v2.207zm8.657-18.348l12.557 7.077v14.792l-13.178 6.415-12.536-7.121V33.145l13.157-6.37zm.004 2.942l-9.146 4.105L137.011 35l9.028-4.113-2.069-1.17zm.981 21.484l9-4.049V36.623l-9 4.165v10.413zm-1.307-12.625l8.819-4.063-2.629-1.501-8.765 4.167 2.575 1.397zm-10.263 7.868l9 5.122v-10.75l-2.573-1.386v3.67l-3.856-2.17v-3.578l-2.571-1.388v10.48zm6.308 1.175l.448.25v-2.202l-.448-.255v2.207zm-1.807-1.03l.443.253v-2.207l-.443-.253v2.207zm-.737-.419l.44.251v-2.207l-.44-.251v2.207zm-.749-.429l.447.257v-2.206l-.447-.258v2.207z"/></svg>