<?xml version="1.0" encoding="utf-8"?>
<!-- Generator: Adobe Illustrator 21.0.0, SVG Export Plug-In . SVG Version: 6.00 Build 0)  -->
<svg version="1.1" id="Layer_1" xmlns="http://www.w3.org/2000/svg" xmlns:xlink="http://www.w3.org/1999/xlink" x="0px" y="0px"
	 viewBox="0 0 450 450" style="enable-background:new 0 0 450 450;" xml:space="preserve">
<style type="text/css">
	.st0{fill:#C2DEFF;}
	.st1{fill:#FFF5C9;}
	.st2{fill:#F0F8FF;}
	.st3{fill:#F0F8FA;}
	.st4{fill:#27477C;}
	.st5{fill:#FFFFFF;}
</style>
<polygon class="st0" points="222.2,421 305,362.5 224,362.5 "/>
<path class="st1" d="M173.8,52.4c-2.8,1.1-6.6,0.5-9.4-0.3c-2.4-0.7-4.7-2.6-6-4.8c-0.7-3.3-6-4.3-6.8-0.4c-0.9,4.4,4.6,9.3,8.3,11
	c4.4,2.1,11.3,3.1,15.9,1.3C179.9,57.6,178.1,50.7,173.8,52.4z"/>
<path class="st2" d="M101.8,79.9L101.8,79.9C101.8,79.8,101.8,79.8,101.8,79.9L101.8,79.9L101.8,79.9z"/>
<g>
	<g>
		<path class="st3" d="M403.3,134.7c-0.1-0.1-0.2-0.3-0.3-0.5c0.1,0.3,0.2,0.6,0.3,0.7C403.3,134.8,403.3,134.7,403.3,134.7z"/>
	</g>
	<path class="st2" d="M120.9,379.2l0.1,0.1C120.9,379.2,120.9,379.2,120.9,379.2L120.9,379.2z"/>
	<path class="st2" d="M182.5,345.6c-0.1-0.1-0.1-0.3-0.2-0.4c0,0,0-0.1-0.1-0.1C182.4,345.5,182.5,345.6,182.5,345.6z"/>
</g>
<path class="st2" d="M220.2,360.3c0.1,0.1,0.1,0.1,0.1,0.1S220.3,360.3,220.2,360.3L220.2,360.3z"/>
<path class="st4" d="M157.7,330.3c-0.3,0-0.6-0.1-0.8-0.2c-0.9-0.4-1.2-1.5-0.7-2.4l16.8-32.2c0.5-0.9,1.5-1.2,2.4-0.7
	c0.9,0.4,1.2,1.5,0.7,2.4l-16.8,32.2C158.9,329.9,158.3,330.3,157.7,330.3z"/>
<g>
	<circle class="st4" cx="191" cy="115.6" r="4.2"/>
</g>
<g>
	<circle class="st4" cx="265.8" cy="122.4" r="4.2"/>
</g>
<g>
	<circle class="st4" cx="313.9" cy="180.2" r="4.2"/>
</g>
<g>
	<circle class="st4" cx="307.1" cy="255" r="4.2"/>
</g>
<g>
	<circle class="st4" cx="133.2" cy="163.7" r="4.2"/>
</g>
<g>
	<circle class="st4" cx="126.4" cy="238.5" r="4.2"/>
</g>
<g>
	<circle class="st4" cx="174.5" cy="296.3" r="4.2"/>
</g>
<g>
	<ellipse transform="matrix(0.3889 -0.9213 0.9213 0.3889 52.9032 269.9789)" class="st4" cx="230" cy="95.1" rx="4.9" ry="4.9"/>
</g>
<g>
	<ellipse transform="matrix(0.3889 -0.9213 0.9213 0.3889 62.216 367.5272)" class="st4" cx="308.1" cy="136.9" rx="4.9" ry="4.9"/>
</g>
<g>
	
		<ellipse transform="matrix(0.3889 -0.9213 0.9213 0.3889 -0.1606 443.0269)" class="st4" cx="333.9" cy="221.6" rx="4.9" ry="4.9"/>
</g>
<g>
	
		<ellipse transform="matrix(0.3889 -0.9213 0.9213 0.3889 -97.5997 452.3193)" class="st4" cx="292.2" cy="299.7" rx="4.9" ry="4.9"/>
</g>
<g>
	
		<ellipse transform="matrix(0.3889 -0.9213 0.9213 0.3889 -22.5781 207.7101)" class="st4" cx="145.3" cy="120.9" rx="4.9" ry="4.9"/>
</g>
<g>
	
		<ellipse transform="matrix(0.3889 -0.9213 0.9213 0.3889 -120.0165 217.0015)" class="st4" cx="103.6" cy="199" rx="4.9" ry="4.9"/>
</g>
<g>
	
		<ellipse transform="matrix(0.3889 -0.9213 0.9213 0.3889 -182.3952 292.5042)" class="st4" cx="129.3" cy="283.7" rx="4.9" ry="4.9"/>
</g>
<g>
	<path class="st4" d="M95.1,163.4H57.8c-5.7,0-10.3-4.6-10.3-10.3v-37.2c0-5.7,4.6-10.3,10.3-10.3H95c5.7,0,10.3,4.6,10.3,10.3v37.2
		C105.4,158.8,100.8,163.4,95.1,163.4z M57.8,109.1c-3.8,0-6.8,3.1-6.8,6.8v37.2c0,3.8,3.1,6.8,6.8,6.8H95c3.8,0,6.8-3.1,6.8-6.8
		v-37.2c0-3.8-3.1-6.8-6.8-6.8C95,109.1,57.8,109.1,57.8,109.1z"/>
</g>
<g>
	<g>
		<path class="st4" d="M85.9,127.5H67c-1,0-1.8-0.8-1.8-1.8s0.8-1.8,1.8-1.8h18.8c1,0,1.8,0.8,1.8,1.8
			C87.6,126.7,86.8,127.5,85.9,127.5z"/>
	</g>
	<g>
		<path class="st4" d="M85.9,136.2H67c-1,0-1.8-0.8-1.8-1.8s0.8-1.8,1.8-1.8h18.8c1,0,1.8,0.8,1.8,1.8
			C87.6,135.4,86.8,136.2,85.9,136.2z"/>
	</g>
	<g>
		<path class="st4" d="M85.9,145H67c-1,0-1.8-0.8-1.8-1.8s0.8-1.8,1.8-1.8h18.8c1,0,1.8,0.8,1.8,1.8S86.8,145,85.9,145z"/>
	</g>
</g>
<path class="st4" d="M315.4,92.5h-37.2c-5.7,0-10.3-4.6-10.3-10.3V45c0-5.7,4.6-10.3,10.3-10.3h37.2c5.7,0,10.3,4.6,10.3,10.3v37.2
	C325.7,87.9,321.1,92.5,315.4,92.5z M278.2,38.2c-3.8,0-6.8,3.1-6.8,6.8v37.2c0,3.8,3.1,6.8,6.8,6.8h37.2c3.8,0,6.8-3.1,6.8-6.8V45
	c0-3.8-3.1-6.8-6.8-6.8H278.2z"/>
<path class="st4" d="M189.4,81.5h-37.2c-5.7,0-10.3-4.6-10.3-10.3V34c0-5.7,4.6-10.3,10.3-10.3h37.2c5.7,0,10.3,4.6,10.3,10.3v37.2
	C199.7,76.9,195,81.5,189.4,81.5z M152.1,27.2c-3.8,0-6.8,3.1-6.8,6.8v37.2c0,3.8,3.1,6.8,6.8,6.8h37.2c3.8,0,6.8-3.1,6.8-6.8V34
	c0-3.8-3.1-6.8-6.8-6.8H152.1z"/>
<path class="st4" d="M395.9,189.2h-37.2c-5.7,0-10.3-4.6-10.3-10.3v-37.2c0-5.7,4.6-10.3,10.3-10.3h37.2c5.7,0,10.3,4.6,10.3,10.3
	v37.2C406.2,184.6,401.5,189.2,395.9,189.2z M358.6,134.8c-3.8,0-6.8,3.1-6.8,6.8v37.2c0,3.8,3.1,6.8,6.8,6.8h37.2
	c3.8,0,6.8-3.1,6.8-6.8v-37.2c0-3.8-3.1-6.8-6.8-6.8H358.6z"/>
<path class="st4" d="M384.8,314.7h-37.2c-5.7,0-10.3-4.6-10.3-10.3v-37.2c0-5.7,4.6-10.3,10.3-10.3h37.2c5.7,0,10.3,4.6,10.3,10.3
	v37.2C395.1,310.1,390.5,314.7,384.8,314.7z M347.5,260.4c-3.8,0-6.8,3.1-6.8,6.8v37.2c0,3.8,3.1,6.8,6.8,6.8h37.2
	c3.8,0,6.8-3.1,6.8-6.8v-37.2c0-3.8-3.1-6.8-6.8-6.8H347.5z"/>
<path class="st4" d="M162.7,384.6h-37.2c-5.7,0-10.3-4.6-10.3-10.3v-37.2c0-5.7,4.6-10.3,10.3-10.3h37.2c5.7,0,10.3,4.6,10.3,10.3
	v37.2C173,380,168.3,384.6,162.7,384.6z M125.4,330.3c-3.8,0-6.8,3.1-6.8,6.8v37.2c0,3.8,3.1,6.8,6.8,6.8h37.2
	c3.8,0,6.8-3.1,6.8-6.8v-37.2c0-3.8-3.1-6.8-6.8-6.8H125.4z"/>
<g>
	<path class="st4" d="M81.7,288H44.5c-5.7,0-10.3-4.6-10.3-10.3v-37.2c0-5.7,4.6-10.3,10.3-10.3h37.2c5.7,0,10.3,4.6,10.3,10.3v37.2
		C92,283.4,87.4,288,81.7,288z M44.5,233.7c-3.8,0-6.8,3.1-6.8,6.8v37.2c0,3.8,3.1,6.8,6.8,6.8h37.2c3.8,0,6.8-3.1,6.8-6.8v-37.2
		c0-3.8-3.1-6.8-6.8-6.8L44.5,233.7L44.5,233.7z"/>
</g>
<g>
	<g>
		<polygon class="st4" points="55.5,272.1 52.2,270.9 61.4,246.3 64.7,246.3 74,270.9 70.7,272.1 63.1,251.9 		"/>
	</g>
	<g>
		<rect x="55.8" y="262" class="st4" width="14.1" height="3.5"/>
	</g>
</g>
<circle class="st4" cx="220.2" cy="209.7" r="31.6"/>
<path class="st4" d="M220.2,243c-18.4,0-33.4-15-33.4-33.4s15-33.4,33.4-33.4s33.4,15,33.4,33.4C253.5,228.1,238.6,243,220.2,243z
	 M220.2,179.8c-16.5,0-29.8,13.4-29.8,29.8s13.4,29.8,29.8,29.8c16.5,0,29.8-13.4,29.8-29.8S236.6,179.8,220.2,179.8z"/>
<path class="st4" d="M209.1,257.9c-0.1,0-0.3,0-0.4,0c-6.1-1.4-11.8-4-16.9-7.6c-0.8-0.6-1-1.7-0.4-2.5s1.7-1,2.5-0.4
	c4.8,3.3,10,5.7,15.7,7c0.9,0.2,1.5,1.2,1.3,2.1C210.6,257.4,209.9,257.9,209.1,257.9z M234,257.2c-0.8,0-1.5-0.5-1.7-1.3
	c-0.3-0.9,0.2-1.9,1.2-2.2c5.5-1.7,10.7-4.3,15.2-8c0.8-0.6,1.9-0.5,2.5,0.3s0.5,1.9-0.3,2.5c-4.9,3.9-10.4,6.8-16.4,8.6
	C234.3,257.2,234.1,257.2,234,257.2z M176.8,231.6c-0.7,0-1.3-0.4-1.6-1c-2.6-5.7-4.2-11.7-4.5-17.9c-0.1-1,0.7-1.8,1.7-1.9
	c1,0,1.8,0.7,1.9,1.7c0.3,5.8,1.8,11.4,4.2,16.7c0.4,0.9,0,1.9-0.9,2.3C177.3,231.6,177.1,231.6,176.8,231.6z M264.6,229
	c-0.2,0-0.4,0-0.6-0.1c-0.9-0.4-1.3-1.4-1-2.3c2.1-5.4,3.2-11.1,3.2-16.9c0-1,0.8-1.8,1.8-1.8s1.8,0.8,1.8,1.8
	c0,6.3-1.2,12.4-3.4,18.2C266,228.5,265.3,229,264.6,229z M177.5,190c-0.3,0-0.5-0.1-0.8-0.2c-0.9-0.4-1.2-1.5-0.8-2.4
	c2.8-5.6,6.6-10.5,11.3-14.7c0.7-0.6,1.8-0.6,2.5,0.1c0.6,0.7,0.6,1.8-0.1,2.5c-4.3,3.9-7.9,8.5-10.5,13.6
	C178.7,189.6,178.1,190,177.5,190z M262.2,188.7c-0.6,0-1.2-0.3-1.6-0.9c-2.8-5.1-6.4-9.6-10.9-13.3c-0.7-0.6-0.8-1.7-0.2-2.5
	c0.6-0.7,1.7-0.8,2.5-0.2c4.8,4,8.7,8.9,11.7,14.3c0.5,0.9,0.1,1.9-0.7,2.4C262.8,188.6,262.5,188.7,262.2,188.7z M210.5,164.6
	c-0.8,0-1.6-0.6-1.7-1.4c-0.2-1,0.4-1.9,1.4-2.1c3.3-0.7,6.6-1,10-1l0,0c2.9,0,5.7,0.2,8.5,0.7c1,0.2,1.6,1.1,1.4,2
	c-0.2,1-1.1,1.6-2,1.4c-2.6-0.5-5.3-0.7-7.9-0.7l0,0c-3.1,0-6.2,0.3-9.3,0.9C210.8,164.6,210.6,164.6,210.5,164.6z"/>
<path class="st4" d="M230.9,293h-21.6c-1,0-1.8-0.8-1.8-1.8v-17.6l-14.9-4.8L182.4,283c-0.6,0.8-1.7,1-2.5,0.4l-17.4-12.7
	c-0.4-0.3-0.6-0.7-0.7-1.2c-0.1-0.5,0-0.9,0.3-1.3l10.3-14.2l-9.2-12.7l-16.7,5.4c-0.9,0.3-1.9-0.2-2.2-1.1l-6.7-20.5
	c-0.1-0.4-0.1-0.9,0.1-1.3c0.2-0.4,0.6-0.7,1-0.9l16.6-5.4l-0.6-7.7c0-0.1,0-0.2,0-0.3l0.6-7.7l-16.6-5.4c-0.4-0.1-0.8-0.5-1-0.9
	s-0.3-0.9-0.1-1.3l6.7-20.5c0.3-0.9,1.3-1.4,2.2-1.1l16.7,5.4l9.2-12.7l-10.3-14.2c-0.3-0.4-0.4-0.9-0.3-1.3
	c0.1-0.5,0.3-0.9,0.7-1.2l17.4-12.7c0.8-0.6,1.9-0.4,2.5,0.4l10.3,14.2l14.9-4.8v-17.6c0-1,0.8-1.8,1.8-1.8H231c1,0,1.8,0.8,1.8,1.8
	v17.6l14.9,4.8l10.3-14.2c0.3-0.4,0.7-0.6,1.2-0.7c0.5-0.1,0.9,0,1.3,0.3l17.4,12.7c0.8,0.6,1,1.7,0.4,2.5L268,165.3l9.2,12.7
	l16.7-5.4c0.9-0.3,1.9,0.2,2.2,1.1l6.7,20.5c0.1,0.4,0.1,0.9-0.1,1.3c-0.2,0.4-0.6,0.7-1,0.9l-16.6,5.4l0.6,7.7c0,0.1,0,0.2,0,0.3
	l-0.6,7.7l16.6,5.4c0.4,0.1,0.8,0.5,1,0.9s0.3,0.9,0.1,1.3l-6.7,20.5c-0.3,0.9-1.3,1.4-2.2,1.1l-16.7-5.4L268,254l10.3,14.2
	c0.6,0.8,0.4,1.9-0.4,2.5l-17.4,12.7c-0.4,0.3-0.9,0.4-1.3,0.3c-0.5-0.1-0.9-0.3-1.2-0.7l-10.3-14.2l-14.9,4.8v17.6
	C232.7,292.2,231.9,293,230.9,293z M211.1,289.5h18v-17.1c0-0.8,0.5-1.4,1.2-1.7l17.3-5.6c0.7-0.2,1.5,0,2,0.6l10.1,13.8l14.6-10.6
	L264.2,255c-0.4-0.6-0.4-1.5,0-2.1l10.7-14.7c0.4-0.6,1.2-0.9,2-0.6l16.3,5.3l5.6-17.1l-16.3-5.3c-0.8-0.3-1.3-1-1.2-1.8l0.6-9
	l-0.6-9c-0.1-0.8,0.4-1.6,1.2-1.8l16.3-5.3l-5.6-17.1l-16.3,5.3c-0.7,0.2-1.5,0-2-0.6l-10.7-14.7c-0.4-0.6-0.4-1.5,0-2.1l10.1-13.9
	l-14.6-10.6l-10.1,13.8c-0.4,0.6-1.2,0.9-2,0.6l-17.3-5.6c-0.7-0.2-1.2-0.9-1.2-1.7v-17.1h-18V147c0,0.8-0.5,1.4-1.2,1.7l-17.3,5.6
	c-0.7,0.2-1.5,0-2-0.6l-10.1-13.8L166,150.4l10.1,13.9c0.4,0.6,0.4,1.5,0,2.1l-10.7,14.7c-0.4,0.6-1.2,0.9-2,0.6l-16.3-5.3
	l-5.6,17.1l16.3,5.3c0.8,0.3,1.3,1,1.2,1.8l-0.6,9l0.6,9c0.1,0.8-0.4,1.6-1.2,1.8l-16.3,5.3l5.6,17.1l16.3-5.3c0.7-0.2,1.5,0,2,0.6
	L176,253c0.4,0.6,0.5,1.5,0,2.1l-10,13.8l14.6,10.6l10.1-13.8c0.4-0.6,1.2-0.9,2-0.6l17.3,5.6c0.7,0.2,1.2,0.9,1.2,1.7v17.1H211.1z"
	/>
<path class="st5" d="M297.8,271l-45.2-16.8c-5.7-2.1-11.8,2.1-11.8,8.2v-47.9c0-4.8-3.9-8.8-8.8-8.8h-3c-4.8,0-8.8,3.9-8.8,8.8v86.1
	l-27.3-11.9c-9.9-4.3-21.4,0-25.9,9.8l53.2,28.7l17.2,18.7h56l10.1-17.2v-49.5C303.5,275.6,301.2,272.3,297.8,271z"/>
<path class="st4" d="M293.4,347.7c-0.3,0-0.6-0.1-0.9-0.2c-0.8-0.5-1.1-1.6-0.6-2.4l9.8-16.8v-49c0-2.9-1.8-5.6-4.6-6.6L252,255.9
	c-2.2-0.8-4.5-0.5-6.4,0.8s-3,3.4-3,5.8v25.1c0,1-0.8,1.8-1.8,1.8s-1.8-0.8-1.8-1.8v-73c0-3.9-3.1-7-7-7h-3c-3.9,0-7,3.1-7,7v86.1
	c0,0.6-0.3,1.1-0.8,1.5c-0.5,0.3-1.1,0.4-1.7,0.1l-27.3-11.9c-8.4-3.7-18.3-0.3-22.8,7.5l51.6,27.9c0.2,0.1,0.3,0.2,0.5,0.4
	l17.2,18.7c0.7,0.7,0.6,1.8-0.1,2.5c-0.7,0.7-1.8,0.6-2.5-0.1l-17-18.5l-52.9-28.6c-0.8-0.4-1.2-1.4-0.8-2.3
	c4.9-10.6,17.5-15.3,28.2-10.7l24.8,10.8v-83.4c0-5.8,4.7-10.5,10.5-10.5h3c5.8,0,10.5,4.7,10.5,10.5v40.1c0.3-0.3,0.6-0.5,1-0.8
	c2.8-2,6.5-2.4,9.7-1.2l45.2,16.8c4.1,1.5,6.9,5.5,6.9,9.9v49.5c0,0.3-0.1,0.6-0.2,0.9l-10,17C294.6,347.4,294,347.7,293.4,347.7z"
	/>
<g>
	<rect x="226.6" y="345.9" class="st4" width="72.6" height="14.8"/>
	<path class="st4" d="M299.2,362.5h-72.6c-1,0-1.8-0.8-1.8-1.8v-14.8c0-1,0.8-1.8,1.8-1.8h72.6c1,0,1.8,0.8,1.8,1.8v14.8
		C300.9,361.8,300.2,362.5,299.2,362.5z M228.4,359h69v-11.3h-69V359z"/>
</g>
<g>
	<rect x="234.5" y="351.9" class="st5" width="7.2" height="2.9"/>
	<path class="st5" d="M241.7,356.6h-7.2c-1,0-1.8-0.8-1.8-1.8v-2.9c0-1,0.8-1.8,1.8-1.8h7.2c1,0,1.8,0.8,1.8,1.8v2.9
		C243.5,355.8,242.7,356.6,241.7,356.6z"/>
</g>
<g>
	<path class="st4" d="M306.8,421c-1,0-1.8-0.8-1.8-1.8v-56.7h-81v56.7c0,1-0.8,1.8-1.8,1.8s-1.8-0.8-1.8-1.8v-58.4
		c0-1,0.8-1.8,1.8-1.8h84.5c1,0,1.8,0.8,1.8,1.8v58.4C308.6,420.2,307.8,421,306.8,421z"/>
</g>
<g>
	<circle class="st4" cx="235.2" cy="375.4" r="1.4"/>
	<path class="st4" d="M235.2,378.6c-1.8,0-3.2-1.4-3.2-3.2c0-1.8,1.4-3.2,3.2-3.2s3.2,1.4,3.2,3.2S237,378.6,235.2,378.6z
		 M235.2,375.1c-0.2,0-0.3,0.1-0.3,0.3c0,0.2,0.1,0.3,0.3,0.3s0.3-0.1,0.3-0.3C235.6,375.2,235.4,375.1,235.2,375.1z"/>
</g>
<g>
	<circle class="st4" cx="235.2" cy="390" r="1.4"/>
	<path class="st4" d="M235.2,393.2c-1.8,0-3.2-1.4-3.2-3.2c0-1.8,1.4-3.2,3.2-3.2s3.2,1.4,3.2,3.2
		C238.4,391.8,237,393.2,235.2,393.2z M235.2,389.7c-0.2,0-0.3,0.1-0.3,0.3c0,0.2,0.1,0.3,0.3,0.3s0.3-0.1,0.3-0.3
		C235.6,389.8,235.4,389.7,235.2,389.7z"/>
</g>
<g>
	<path class="st4" d="M165.8,70.3c-0.5,0-0.9-0.2-1.2-0.5s-0.5-0.8-0.5-1.3V47.6c0-7,5.7-12.8,12.8-12.8c7,0,12.8,5.7,12.8,12.8
		C189.6,69.1,166.2,70.3,165.8,70.3C165.9,70.3,165.9,70.3,165.8,70.3z M176.8,38.4c-5.1,0-9.2,4.1-9.2,9.2v19c5-0.7,18.5-4,18.5-19
		C186.1,42.5,181.9,38.4,176.8,38.4z"/>
</g>
<g>
	<path class="st5" d="M169.8,44.5h-20.9c0,0,2.6,14.4,19.7,16.1c0.4,0.1,0.8,0.1,1.2,0.1c4.5,0,8.1-3.6,8.1-8.1
		S174.3,44.5,169.8,44.5z"/>
	<path class="st4" d="M169.8,62.4c-0.4,0-0.9,0-1.4-0.1c-18.2-1.8-21.2-17.3-21.2-17.5c-0.1-0.5,0-1,0.4-1.4
		c0.3-0.4,0.8-0.6,1.4-0.6h20.9c5.4,0,9.8,4.4,9.8,9.8C179.6,58,175.2,62.4,169.8,62.4z M151.2,46.3c1.4,3.8,5.7,11.4,17.5,12.5h0.1
		c0.4,0.1,0.7,0.1,1,0.1c3.5,0,6.3-2.8,6.3-6.3s-2.8-6.3-6.3-6.3H151.2z"/>
</g>
<g>
	<g>
		<path class="st4" d="M188.3,52c-0.4,0-0.8-0.1-1.1-0.4c-0.5-0.4-0.8-1.1-0.6-1.7c0.2-0.8,0.2-1.5,0.2-2.3c0-0.5,0-1-0.1-1.5
			c-0.1-0.4,0-0.9,0.3-1.3c0.5-0.7,1.4-1,2.2-0.7l4.9,2.2c0.6,0.3,1,0.9,1,1.6c0,0.7-0.4,1.3-1.1,1.6l-5,2.2
			C188.8,51.9,188.6,52,188.3,52z"/>
	</g>
</g>
<g>
	<path class="st4" d="M182.1,48.8c-1.3,0-2.3-1-2.3-2.3s1-2.3,2.3-2.3s2.3,1,2.3,2.3C184.5,47.8,183.4,48.8,182.1,48.8z"/>
</g>
<path class="st4" d="M190.1,116.3c-0.8,0-1.5-0.5-1.7-1.3L178,80.3c-0.3-0.9,0.3-1.9,1.2-2.2c0.9-0.3,1.9,0.3,2.2,1.2l10.4,34.8
	c0.3,0.9-0.3,1.9-1.2,2.2C190.4,116.3,190.2,116.3,190.1,116.3z"/>
<path class="st4" d="M265.8,124.2c-0.3,0-0.6-0.1-0.8-0.2c-0.9-0.5-1.2-1.5-0.7-2.4L281,89.9c0.5-0.9,1.5-1.2,2.4-0.7
	s1.2,1.5,0.7,2.4l-16.8,31.7C267.1,123.8,266.4,124.2,265.8,124.2z"/>
<path class="st4" d="M315.3,181.9c-0.8,0-1.4-0.5-1.7-1.2c-0.3-0.9,0.2-1.9,1.2-2.2l34.8-10.9c0.9-0.3,1.9,0.2,2.2,1.2
	c0.3,0.9-0.2,1.9-1.2,2.2l-34.8,10.9C315.6,181.9,315.4,181.9,315.3,181.9z"/>
<path class="st4" d="M338.8,273.7c-0.3,0-0.6-0.1-0.8-0.2l-31.7-16.9c-0.9-0.5-1.2-1.5-0.7-2.4s1.5-1.2,2.4-0.7l31.7,16.9
	c0.9,0.5,1.2,1.5,0.7,2.4C340,273.3,339.4,273.7,338.8,273.7z"/>
<path class="st4" d="M90.3,251.8c-0.7,0-1.4-0.5-1.7-1.2c-0.3-0.9,0.2-1.9,1.1-2.2l36.1-11.5c0.9-0.3,1.9,0.2,2.2,1.1
	c0.3,0.9-0.2,1.9-1.1,2.2l-36.1,11.5C90.6,251.8,90.4,251.8,90.3,251.8z"/>
<path class="st4" d="M133.2,165.4c-0.3,0-0.5-0.1-0.8-0.2l-29.7-15.3c-0.9-0.4-1.2-1.5-0.8-2.4c0.4-0.9,1.5-1.2,2.4-0.8L134,162
	c0.9,0.4,1.2,1.5,0.8,2.4C134.5,165.1,133.9,165.4,133.2,165.4z"/>
<g>
	<path class="st4" d="M377.2,176.7c-9.1,0-16.4-7.4-16.4-16.4c0-9.1,7.4-16.4,16.4-16.4s16.4,7.4,16.4,16.4
		C393.7,169.3,386.3,176.7,377.2,176.7z M377.2,147.3c-7.1,0-12.9,5.8-12.9,12.9c0,7.1,5.8,12.9,12.9,12.9s12.9-5.8,12.9-12.9
		S384.4,147.3,377.2,147.3z"/>
</g>
<g>
	<path class="st4" d="M389.1,168.8l0.1-2.6l1.7-3.1l0.1-1.7l-1.1,0.9l-2.3-3.2l0.8-2.5l2,2.8l0.8,0.1l-0.3-2l-0.6,0.4l-1-1.2
		l1.5-0.7h0.5c-1.5-4.9-5.5-8.6-10.4-9.9l2,2.7l-2.4,0.2l-1,2.5l1.4,1.4l-1.3,1.4l-2.4-1l2,2.3l-1.4,0.5l4.1-0.5l0.6-0.7l1.2-0.6
		l0.6-2l3,2.2l-1.2,1.2l0.1,1.1l1.2-0.6l0.2,1.6l-2.7,1h-2.4l0.1-0.8l-4.2,0.9l-2.8,3.9l0.4,3.2l2.3,1.7l3.8-0.9l1.5,1l-0.6,1.1
		l1.2,1.7l-0.6,3.3C385.8,172.4,387.7,170.8,389.1,168.8z"/>
</g>
<g>
	<path class="st4" d="M369.9,171.7l0.1-1.1l0.8-1.1l-4.1-3.7l-4-5.4l-0.1-0.1l0,0c0,4.7,2.2,8.9,5.7,11.6l0.2-0.1L369.9,171.7z"/>
</g>
<g>
	<path class="st4" d="M363.9,157l2.1-2.7l3.6-0.8l0.8-3.6l-2.3,1l1.3-1.9l2.1-0.5l0.2,0.8l1.6-1.7l1.1,0.1l-1.5,1.8l0.1,1.4l3.5-2
		l0.4-1.8l-1.8-0.2l-1.3-1h-0.1c-4.5,1.1-8.2,4.3-10,8.6l0.1,0.1L363.9,157z"/>
</g>
<g>
	<path class="st4" d="M373.5,298.6h-26.2c-1,0-1.8-0.8-1.8-1.8v-22c0-1,0.8-1.8,1.8-1.8h26.2c1,0,1.8,0.8,1.8,1.8v22
		C375.2,297.8,374.4,298.6,373.5,298.6z M349,295h22.7v-18.5H349V295z"/>
</g>
<g>
	<g>
		<path class="st4" d="M376.2,292.7h-2.7c-1,0-1.8-0.8-1.8-1.8v-10.4c0-1,0.8-1.8,1.8-1.8h2.7c1,0,1.8,0.8,1.8,1.8V291
			C377.9,291.9,377.1,292.7,376.2,292.7z"/>
	</g>
	<g>
		<path class="st4" d="M383.2,297L383.2,297c-0.7,0-1.4-0.2-2-0.6l-6.1-3.9c-0.5-0.3-0.8-0.9-0.8-1.5v-10.4c0-0.6,0.3-1.2,0.8-1.5
			l6.1-3.9c0.6-0.4,1.3-0.6,2-0.6c2,0,3.7,1.6,3.7,3.7v15.1c0,1-0.4,1.9-1.1,2.6C385.1,296.6,384.2,297,383.2,297z M377.9,290
			l5.3,3.4h0.1h0.1c0,0,0,0,0-0.1v-15.1c0-0.1-0.1-0.1-0.1-0.1s0,0-0.1,0l-5.3,3.4V290z"/>
	</g>
</g>
<path class="st4" d="M314.5,77.3h-35.3c-1,0-1.8-0.8-1.8-1.8V51.7c0-1,0.8-1.8,1.8-1.8h35.3c1,0,1.8,0.8,1.8,1.8v23.8
	C316.2,76.5,315.4,77.3,314.5,77.3z M280.9,73.7h31.8V53.4h-31.8V73.7z"/>
<g>
	<path class="st4" d="M296.8,68.2c-0.3,0-0.7-0.1-1-0.3L278.1,56c-0.5-0.3-0.8-0.9-0.8-1.5v-2.9c0-1,0.8-1.8,1.8-1.8h35.3
		c1,0,1.8,0.8,1.8,1.8v2.9c0,0.6-0.3,1.1-0.8,1.5l-17.7,11.9C297.5,68.1,297.1,68.2,296.8,68.2z M280.9,53.6l15.9,10.7l15.9-10.7
		v-0.2h-31.8V53.6z"/>
</g>
<g>
	<path class="st4" d="M136.9,363.6h-8.5c-1,0-1.8-0.8-1.8-1.8v-12.2c0-1,0.8-1.8,1.8-1.8h8.5c1,0,1.8,0.8,1.8,1.8v12.2
		C138.7,362.8,137.9,363.6,136.9,363.6z M130.2,360h4.9v-8.7h-4.9V360z"/>
</g>
<g>
	<path class="st4" d="M139.4,363.6h-2.5c-1,0-1.8-0.8-1.8-1.8v-12.2c0-1,0.8-1.8,1.8-1.8h2.5c1,0,1.8,0.8,1.8,1.8v12.2
		C141.2,362.8,140.4,363.6,139.4,363.6z"/>
</g>
<g>
	<g>
		<path class="st4" d="M158.6,372.2H156c-1,0-1.8-0.8-1.8-1.8v-29.5c0-1,0.8-1.8,1.8-1.8h2.6c1,0,1.8,0.8,1.8,1.8v29.5
			C160.4,371.4,159.6,372.2,158.6,372.2z"/>
	</g>
	<g>
		<path class="st4" d="M156,372.2c-0.3,0-0.6-0.1-0.8-0.2l-16.6-8.6c-0.6-0.3-1-0.9-1-1.6v-12.2c0-0.7,0.4-1.3,1-1.6l16.6-8.6
			c0.5-0.3,1.2-0.3,1.7,0.1c0.5,0.3,0.8,0.9,0.8,1.5v29.5c0,0.6-0.3,1.2-0.8,1.5C156.7,372.1,156.3,372.2,156,372.2z M141.2,360.7
			l13.1,6.8v-23.7l-13.1,6.8V360.7z"/>
	</g>
</g>
<g>
	<path class="st4" d="M100.2,85.9c-1,0-1.8-0.8-1.8-1.8V67.6c0-1,0.8-1.8,1.8-1.8s1.8,0.8,1.8,1.8v16.5
		C102,85.1,101.2,85.9,100.2,85.9z"/>
</g>
<g>
	<path class="st4" d="M108.5,77.7H91.9c-1,0-1.8-0.8-1.8-1.8s0.8-1.8,1.8-1.8h16.5c1,0,1.8,0.8,1.8,1.8
		C110.2,76.9,109.4,77.7,108.5,77.7z"/>
</g>
<g>
	<path class="st4" d="M49,201.7H32.5c-1,0-1.8-0.8-1.8-1.8s0.8-1.8,1.8-1.8H49c1,0,1.8,0.8,1.8,1.8S50,201.7,49,201.7z"/>
</g>
<g>
	<path class="st4" d="M40.7,209.9c-1,0-1.8-0.8-1.8-1.8v-16.5c0-1,0.8-1.8,1.8-1.8s1.8,0.8,1.8,1.8v16.5
		C42.5,209.1,41.7,209.9,40.7,209.9z"/>
</g>
<g>
	<path class="st4" d="M86.7,339.9H70.2c-1,0-1.8-0.8-1.8-1.8s0.8-1.8,1.8-1.8h16.5c1,0,1.8,0.8,1.8,1.8S87.7,339.9,86.7,339.9z"/>
</g>
<g>
	<path class="st4" d="M78.4,348.1c-1,0-1.8-0.8-1.8-1.8v-16.5c0-1,0.8-1.8,1.8-1.8s1.8,0.8,1.8,1.8v16.5
		C80.2,347.4,79.4,348.1,78.4,348.1z"/>
</g>
<g>
	<path class="st4" d="M340.1,353.5c-1,0-1.8-0.8-1.8-1.8v-16.5c0-1,0.8-1.8,1.8-1.8s1.8,0.8,1.8,1.8v16.5
		C341.9,352.7,341.1,353.5,340.1,353.5z"/>
</g>
<g>
	<path class="st4" d="M348.4,345.2h-16.5c-1,0-1.8-0.8-1.8-1.8s0.8-1.8,1.8-1.8h16.5c1,0,1.8,0.8,1.8,1.8S349.3,345.2,348.4,345.2z"
		/>
</g>
<g>
	<path class="st4" d="M407.8,221.2h-16.5c-1,0-1.8-0.8-1.8-1.8s0.8-1.8,1.8-1.8h16.5c1,0,1.8,0.8,1.8,1.8
		C409.6,220.4,408.8,221.2,407.8,221.2z"/>
</g>
<g>
	<path class="st4" d="M399.6,229.5c-1,0-1.8-0.8-1.8-1.8v-16.5c0-1,0.8-1.8,1.8-1.8s1.8,0.8,1.8,1.8v16.5
		C401.3,228.7,400.5,229.5,399.6,229.5z"/>
</g>
<g>
	<path class="st4" d="M362.2,91.5h-16.5c-1,0-1.8-0.8-1.8-1.8s0.8-1.8,1.8-1.8h16.5c1,0,1.8,0.8,1.8,1.8
		C363.9,90.7,363.2,91.5,362.2,91.5z"/>
</g>
<g>
	<path class="st4" d="M353.9,99.7c-1,0-1.8-0.8-1.8-1.8V81.5c0-1,0.8-1.8,1.8-1.8s1.8,0.8,1.8,1.8V98
		C355.7,99,354.9,99.7,353.9,99.7z"/>
</g>
<g>
	<path class="st4" d="M229.9,40.3c-1,0-1.8-0.8-1.8-1.8V22c0-1,0.8-1.8,1.8-1.8s1.8,0.8,1.8,1.8v16.5
		C231.7,39.5,230.9,40.3,229.9,40.3z"/>
</g>
<g>
	<path class="st4" d="M238.2,32h-16.5c-1,0-1.8-0.8-1.8-1.8s0.8-1.8,1.8-1.8h16.5c1,0,1.8,0.8,1.8,1.8C239.9,31.2,239.2,32,238.2,32
		z"/>
</g>
</svg>
