<?xml version="1.0" encoding="utf-8"?>
<!-- Generator: Adobe Illustrator 21.0.0, SVG Export Plug-In . SVG Version: 6.00 Build 0)  -->
<svg version="1.1" id="Layer_1" xmlns="http://www.w3.org/2000/svg" xmlns:xlink="http://www.w3.org/1999/xlink" x="0px" y="0px"
	 viewBox="0 0 450 450" style="enable-background:new 0 0 450 450;" xml:space="preserve">
<style type="text/css">
	.st0{fill:#F0F8FF;}
	.st1{fill:#27477C;}
	.st2{fill:#FFFFFF;}
	.st3{fill:#C2DEFF;}
</style>
<path class="st0" d="M269.6,92L269.6,92L269.6,92C269.7,91.9,269.7,91.9,269.6,92L269.6,92z"/>
<path class="st0" d="M269.6,92.1L269.6,92.1L269.6,92.1L269.6,92.1z"/>
<path class="st0" d="M269.6,92.2L269.6,92.2C269.4,92.6,269.3,92.9,269.6,92.2L269.6,92.2z"/>
<path class="st0" d="M263.7,90.9c0,0,0-0.1,0-0.2C263.7,90.7,263.7,90.9,263.7,90.9L263.7,90.9z"/>
<path class="st0" d="M264,90c-0.1,0.4-0.1,0.7-0.2,1l0,0c0.3,0.2,1.2,0.6,1.1,0.6c0.7,0.2,1.4,0.4,2.1,0.5c0.9,0.1,1,0.2,0.1,0
	c0.5,0,1.1,0.1,1.6,0c0.1,0,0.2,0,0.3,0c0.1,0,0.2-0.1,0.3-0.1c-0.1,0-0.2-0.1-0.3-0.1c-0.5-0.2-1.1-0.4-1.6-0.6
	C266.4,90.9,265.2,90.4,264,90L264,90z"/>
<path class="st0" d="M93.8,381.2C93.8,381.1,93.8,381.1,93.8,381.2L93.8,381.2C93.8,381.1,93.8,381.1,93.8,381.2L93.8,381.2z"/>
<path class="st0" d="M93.8,380.9L93.8,380.9c0,0.1,0,0.1,0,0.1C93.9,381,93.8,381,93.8,380.9z"/>
<rect x="69.7" y="111" class="st1" width="173" height="224.2"/>
<path class="st1" d="M374.7,189.3v3.8c0,4.4,3.5,7.9,7.9,7.9h3.8h-3.8c-4.4,0-7.9,3.5-7.9,7.9v3.8v-3.8c0-4.4-3.5-7.9-7.9-7.9h-3.8
	h3.8c4.4,0,7.9-3.5,7.9-7.9V189.3z"/>
<path class="st1" d="M376.3,212.5h-3.2v-3.8c0-3.4-2.8-6.3-6.3-6.3h-3.8v-3.2h3.8c3.4,0,6.3-2.8,6.3-6.3v-3.8h3.2v3.8
	c0,3.4,2.8,6.3,6.3,6.3h3.8v3.2h-3.8c-3.4,0-6.3,2.8-6.3,6.3V212.5z M372,200.9c1.1,0.7,1.9,1.6,2.7,2.7c0.7-1.1,1.6-1.9,2.7-2.7
	c-1.1-0.7-1.9-1.6-2.7-2.7C374,199.3,373.1,200.2,372,200.9z"/>
<path class="st1" d="M266,80.8v3.8c0,4.4,3.5,7.9,7.9,7.9h3.8h-3.8c-4.4,0-7.9,3.5-7.9,7.9v3.8v-3.8c0-4.4-3.5-7.9-7.9-7.9h-3.8h3.8
	c4.4,0,7.9-3.5,7.9-7.9V80.8z"/>
<path class="st1" d="M267.6,104.1h-3.2v-3.8c0-3.4-2.8-6.3-6.3-6.3h-3.8v-3.2h3.8c3.4,0,6.3-2.8,6.3-6.3v-3.8h3.2v3.8
	c0,3.4,2.8,6.3,6.3,6.3h3.8v3.2h-3.8c-3.4,0-6.3,2.8-6.3,6.3V104.1z M263.4,92.4c1.1,0.7,1.9,1.6,2.7,2.7c0.7-1.1,1.6-1.9,2.7-2.7
	c-1.1-0.7-1.9-1.6-2.7-2.7C265.3,90.9,264.4,91.8,263.4,92.4z"/>
<rect x="310.5" y="255" class="st1" width="7.6" height="16.2"/>
<path class="st1" d="M319.7,272.8h-10.8v-19.4h10.8V272.8z M312.1,269.6h4.5v-13.1h-4.5V269.6z"/>
<path class="st1" d="M315.8,255h-3.2v-3.3c0-7.5,6.1-13.5,13.5-13.5h9.9c4.2,0,7.5-3.4,7.5-7.5c0-4.2-3.4-7.5-7.5-7.5h-25.3
	c-7.5,0-13.5-6.1-13.5-13.5v-12.5c0-4.5-3.6-8.2-8.2-8.2c-4.5,0-8.2,3.6-8.2,8.2v45.1c0,5-4,9.1-9.1,9.1c-5,0-9.1-4-9.1-9.1v-6.4
	c0-4-3.3-7.4-7.4-7.4h-5.8v-3.2h5.8c5.8,0,10.4,4.7,10.4,10.4v6.4c0,3.3,2.7,6,6,6c3.3,0,6-2.7,6-6v-45.1c0-6.3,5.1-11.3,11.3-11.3
	c6.3,0,11.3,5.1,11.3,11.3v12.5c0,5.8,4.7,10.4,10.4,10.4h25.3c5.9,0,10.7,4.8,10.7,10.7s-4.8,10.7-10.7,10.7h-9.9
	c-5.8,0-10.4,4.7-10.4,10.4v3.2H315.8z"/>
<rect x="78.4" y="123.1" class="st2" width="169.9" height="221.1"/>
<path class="st1" d="M249.8,345.9h-173V121.5h173V345.9z M79.9,342.7h166.7V124.7H79.9V342.7z"/>
<path class="st1" d="M249.8,148.9h-173v-27.4h173V148.9z M79.9,145.7h166.7v-21H79.9V145.7z"/>
<rect x="90.4" y="132.7" class="st1" width="5.1" height="5.1"/>
<path class="st1" d="M97.2,139.4h-8.3v-8.3h8.3V139.4z M92,136.2h2v-2h-2V136.2z"/>
<rect x="107" y="132.7" class="st1" width="5.1" height="5.1"/>
<path class="st1" d="M113.7,139.4h-8.3v-8.3h8.3V139.4z M108.6,136.2h2v-2h-2V136.2z"/>
<rect x="123.4" y="132.7" class="st1" width="5.1" height="5.1"/>
<path class="st1" d="M130.1,139.4h-8.3v-8.3h8.3V139.4z M125,136.2h2v-2h-2V136.2z"/>
<rect x="225.7" y="133.7" transform="matrix(0.7071 -0.7071 0.7071 0.7071 -27.6838 203.6896)" class="st1" width="12.7" height="3.2"/>
<rect x="230.4" y="128.9" transform="matrix(0.7071 -0.7071 0.7071 0.7071 -27.7059 203.6363)" class="st1" width="3.2" height="12.7"/>
<rect x="210.2" y="133.7" class="st1" width="11.8" height="3.2"/>
<path class="st1" d="M224.2,180.5h-5.4v-3.2h5.4V180.5z M212.6,180.5h-5.4v-3.2h5.4V180.5z M201.1,180.5h-5.4v-3.2h5.4V180.5z
	 M189.4,180.5H184v-3.2h5.4V180.5z M177.8,180.5h-5.4v-3.2h5.4V180.5z M166.2,180.5h-5.4v-3.2h5.4V180.5z M154.7,180.5h-5.4v-3.2
	h5.4V180.5z M143.1,180.5h-5.4v-3.2h5.4V180.5z M131.5,180.5H126v-3.2h5.4V180.5z M120,180.5h-5.4v-3.2h5.4V180.5z M108.4,180.5
	h-5.4v-3.2h5.4V180.5z"/>
<path class="st1" d="M224.2,195.4h-5.4v-3.2h5.4V195.4z M212.6,195.4h-5.4v-3.2h5.4V195.4z M201.1,195.4h-5.4v-3.2h5.4V195.4z
	 M189.4,195.4H184v-3.2h5.4V195.4z M177.8,195.4h-5.4v-3.2h5.4V195.4z M166.2,195.4h-5.4v-3.2h5.4V195.4z M154.7,195.4h-5.4v-3.2
	h5.4V195.4z M143.1,195.4h-5.4v-3.2h5.4V195.4z M131.5,195.4H126v-3.2h5.4V195.4z M120,195.4h-5.4v-3.2h5.4V195.4z M108.4,195.4
	h-5.4v-3.2h5.4V195.4z"/>
<path class="st1" d="M224.2,210.4h-5.4v-3.2h5.4V210.4z M212.6,210.4h-5.4v-3.2h5.4V210.4z M201.1,210.4h-5.4v-3.2h5.4V210.4z
	 M189.4,210.4H184v-3.2h5.4V210.4z M177.8,210.4h-5.4v-3.2h5.4V210.4z M166.2,210.4h-5.4v-3.2h5.4V210.4z M154.7,210.4h-5.4v-3.2
	h5.4V210.4z M143.1,210.4h-5.4v-3.2h5.4V210.4z M131.5,210.4H126v-3.2h5.4V210.4z M120,210.4h-5.4v-3.2h5.4V210.4z M108.4,210.4
	h-5.4v-3.2h5.4V210.4z"/>
<path class="st1" d="M224.2,225.3h-5.4v-3.2h5.4V225.3z M212.6,225.3h-5.4v-3.2h5.4V225.3z M201.1,225.3h-5.4v-3.2h5.4V225.3z
	 M189.4,225.3H184v-3.2h5.4V225.3z M177.8,225.3h-5.4v-3.2h5.4V225.3z M166.2,225.3h-5.4v-3.2h5.4V225.3z M154.7,225.3h-5.4v-3.2
	h5.4V225.3z M143.1,225.3h-5.4v-3.2h5.4V225.3z M131.5,225.3H126v-3.2h5.4V225.3z M120,225.3h-5.4v-3.2h5.4V225.3z M108.4,225.3
	h-5.4v-3.2h5.4V225.3z"/>
<path class="st1" d="M224.2,240.4h-5.4v-3.2h5.4V240.4z M212.6,240.4h-5.4v-3.2h5.4V240.4z M201.1,240.4h-5.4v-3.2h5.4V240.4z
	 M189.4,240.4H184v-3.2h5.4V240.4z M177.8,240.4h-5.4v-3.2h5.4V240.4z M166.2,240.4h-5.4v-3.2h5.4V240.4z M154.7,240.4h-5.4v-3.2
	h5.4V240.4z M143.1,240.4h-5.4v-3.2h5.4V240.4z M131.5,240.4H126v-3.2h5.4V240.4z M120,240.4h-5.4v-3.2h5.4V240.4z M108.4,240.4
	h-5.4v-3.2h5.4V240.4z"/>
<path class="st1" d="M224.2,255.3h-5.4v-3.2h5.4V255.3z M212.6,255.3h-5.4v-3.2h5.4V255.3z M201.1,255.3h-5.4v-3.2h5.4V255.3z
	 M189.4,255.3H184v-3.2h5.4V255.3z M177.8,255.3h-5.4v-3.2h5.4V255.3z M166.2,255.3h-5.4v-3.2h5.4V255.3z M154.7,255.3h-5.4v-3.2
	h5.4V255.3z M143.1,255.3h-5.4v-3.2h5.4V255.3z M131.5,255.3H126v-3.2h5.4V255.3z M120,255.3h-5.4v-3.2h5.4V255.3z M108.4,255.3
	h-5.4v-3.2h5.4V255.3z"/>
<path class="st1" d="M224.2,270.3h-5.4v-3.2h5.4V270.3z M212.6,270.3h-5.4v-3.2h5.4V270.3z M201.1,270.3h-5.4v-3.2h5.4V270.3z
	 M189.4,270.3H184v-3.2h5.4V270.3z M177.8,270.3h-5.4v-3.2h5.4V270.3z M166.2,270.3h-5.4v-3.2h5.4V270.3z M154.7,270.3h-5.4v-3.2
	h5.4V270.3z M143.1,270.3h-5.4v-3.2h5.4V270.3z M131.5,270.3H126v-3.2h5.4V270.3z M120,270.3h-5.4v-3.2h5.4V270.3z M108.4,270.3
	h-5.4v-3.2h5.4V270.3z"/>
<path class="st1" d="M224.2,285.2h-5.4V282h5.4V285.2z M212.6,285.2h-5.4V282h5.4V285.2z M201.1,285.2h-5.4V282h5.4V285.2z
	 M189.4,285.2H184V282h5.4V285.2z M177.8,285.2h-5.4V282h5.4V285.2z M166.2,285.2h-5.4V282h5.4V285.2z M154.7,285.2h-5.4V282h5.4
	V285.2z M143.1,285.2h-5.4V282h5.4V285.2z M131.5,285.2H126V282h5.4V285.2z M120,285.2h-5.4V282h5.4V285.2z M108.4,285.2h-5.4V282
	h5.4V285.2z"/>
<path class="st1" d="M224.2,300.2h-5.4v-3.2h5.4V300.2z M212.6,300.2h-5.4v-3.2h5.4V300.2z M201.1,300.2h-5.4v-3.2h5.4V300.2z
	 M189.4,300.2H184v-3.2h5.4V300.2z M177.8,300.2h-5.4v-3.2h5.4V300.2z M166.2,300.2h-5.4v-3.2h5.4V300.2z M154.7,300.2h-5.4v-3.2
	h5.4V300.2z M143.1,300.2h-5.4v-3.2h5.4V300.2z M131.5,300.2H126v-3.2h5.4V300.2z M120,300.2h-5.4v-3.2h5.4V300.2z M108.4,300.2
	h-5.4v-3.2h5.4V300.2z"/>
<path class="st1" d="M224.2,315.2h-5.4V312h5.4V315.2z M212.6,315.2h-5.4V312h5.4V315.2z M201.1,315.2h-5.4V312h5.4V315.2z
	 M189.4,315.2H184V312h5.4V315.2z M177.8,315.2h-5.4V312h5.4V315.2z M166.2,315.2h-5.4V312h5.4V315.2z M154.7,315.2h-5.4V312h5.4
	V315.2z M143.1,315.2h-5.4V312h5.4V315.2z M131.5,315.2H126V312h5.4V315.2z M120,315.2h-5.4V312h5.4V315.2z M108.4,315.2h-5.4V312
	h5.4V315.2z"/>
<rect x="165.8" y="271.2" class="st2" width="223.9" height="105"/>
<path class="st1" d="M391.3,377.7H164.2V269.6h227.1L391.3,377.7L391.3,377.7z M167.4,374.6h220.8V272.8H167.4V374.6z"/>
<rect x="242.6" y="350.4" class="st3" width="70.1" height="11.2"/>
<path class="st3" d="M314.4,363.2h-73.3v-14.4h73.3V363.2z M244.2,360.1h67V352h-67V360.1z"/>
<rect x="347.1" y="350.4" class="st1" width="27.6" height="11.2"/>
<path class="st1" d="M376.3,363.2h-30.8v-14.4h30.8V363.2z M348.7,360.1h24.5V352h-24.5V360.1z"/>
<rect x="180.8" y="350.4" class="st1" width="27.6" height="11.2"/>
<path class="st1" d="M210,363.2h-30.8v-14.4H210V363.2z M182.4,360.1h24.5V352h-24.5V360.1z"/>
<rect x="323.8" y="350.4" class="st1" width="11.5" height="11.2"/>
<path class="st1" d="M336.9,363.2h-14.7v-14.4h14.7V363.2z M325.4,360.1h8.3V352h-8.3V360.1z"/>
<rect x="220.1" y="350.4" class="st1" width="11.5" height="11.2"/>
<path class="st1" d="M233.2,363.2h-14.7v-14.4h14.7V363.2z M221.7,360.1h8.3V352h-8.3V360.1z"/>
<rect x="363.7" y="304.2" class="st1" width="11.5" height="11.2"/>
<path class="st1" d="M376.7,317H362v-14.4h14.7V317z M365.2,313.9h8.3v-8.1h-8.3V313.9z"/>
<rect x="340.9" y="304.2" class="st1" width="11.5" height="11.2"/>
<path class="st1" d="M354,317h-14.7v-14.4H354V317z M342.5,313.9h8.3v-8.1h-8.3V313.9z"/>
<rect x="318.1" y="304.2" class="st1" width="11.5" height="11.2"/>
<path class="st1" d="M331.2,317h-14.7v-14.4h14.7V317z M319.7,313.9h8.3v-8.1h-8.3V313.9z"/>
<rect x="295.3" y="304.2" class="st1" width="11.5" height="11.2"/>
<path class="st1" d="M308.4,317h-14.7v-14.4h14.7V317z M296.9,313.9h8.3v-8.1h-8.3V313.9z"/>
<rect x="272.5" y="304.2" class="st1" width="11.5" height="11.2"/>
<path class="st1" d="M285.6,317h-14.7v-14.4h14.7V317z M274.1,313.9h8.3v-8.1h-8.3V313.9z"/>
<rect x="249.7" y="304.2" class="st1" width="11.5" height="11.2"/>
<path class="st1" d="M262.8,317h-14.7v-14.4h14.7V317z M251.3,313.9h8.3v-8.1h-8.3L251.3,313.9L251.3,313.9z"/>
<rect x="226.8" y="304.2" class="st1" width="11.5" height="11.2"/>
<path class="st1" d="M240,317h-14.7v-14.4H240V317z M228.4,313.9h8.3v-8.1h-8.3V313.9z"/>
<rect x="204" y="304.2" class="st1" width="11.5" height="11.2"/>
<path class="st1" d="M217.2,317h-14.7v-14.4h14.7V317z M205.6,313.9h8.3v-8.1h-8.3V313.9z"/>
<rect x="181.3" y="304.2" class="st1" width="11.5" height="11.2"/>
<path class="st1" d="M194.3,317h-14.7v-14.4h14.7V317z M182.8,313.9h8.3v-8.1h-8.3V313.9z"/>
<rect x="354.9" y="327.3" class="st3" width="20.1" height="11.2"/>
<path class="st3" d="M376.7,340.1h-23.3v-14.4h23.3V340.1z M356.5,337h17.1v-8.1h-17.1V337z"/>
<rect x="180.8" y="327.3" class="st3" width="20.1" height="11.2"/>
<path class="st3" d="M202.6,340.1h-23.3v-14.4h23.3V340.1z M182.4,337h17.1v-8.1h-17.1V337z"/>
<rect x="211.9" y="327.3" class="st1" width="12.4" height="11.2"/>
<path class="st1" d="M225.8,340.1h-15.5v-14.4h15.5V340.1z M213.4,337h9.2v-8.1h-9.2V337z"/>
<rect x="235.9" y="327.3" class="st1" width="12.4" height="11.2"/>
<path class="st1" d="M249.8,340.1h-15.5v-14.4h15.5V340.1z M237.4,337h9.2v-8.1h-9.2V337z"/>
<rect x="259.9" y="327.3" class="st1" width="12.4" height="11.2"/>
<path class="st1" d="M273.7,340.1h-15.5v-14.4h15.5V340.1z M261.4,337h9.2v-8.1h-9.2V337z"/>
<rect x="283.9" y="327.3" class="st1" width="12.4" height="11.2"/>
<path class="st1" d="M297.7,340.1h-15.5v-14.4h15.5V340.1z M285.4,337h9.2v-8.1h-9.2V337z"/>
<rect x="307.8" y="327.3" class="st1" width="12.4" height="11.2"/>
<path class="st1" d="M321.7,340.1h-15.5v-14.4h15.5V340.1z M309.3,337h9.2v-8.1h-9.2V337z"/>
<rect x="331.8" y="327.3" class="st1" width="12.4" height="11.2"/>
<path class="st1" d="M345.7,340.1h-15.5v-14.4h15.5V340.1z M333.3,337h9.2v-8.1h-9.2V337z"/>
<polygon class="st1" points="314.6,148.2 297.9,137 297.9,134.3 314.6,123.1 316.3,125.8 301.7,135.7 316.3,145.5 "/>
<polygon class="st1" points="350.7,148.2 348.9,145.5 363.6,135.7 348.9,125.8 350.7,123.1 367.2,134.3 367.2,137 "/>
<rect x="315" y="134.2" transform="matrix(0.3353 -0.9421 0.9421 0.3353 93.1812 403.5688)" class="st1" width="35.3" height="3.2"/>
<path class="st1" d="M107,373.7c-0.9,0-1.6-0.7-1.6-1.6v-5c0-0.9,0.7-1.6,1.6-1.6s1.6,0.7,1.6,1.6v5
	C108.6,372.9,107.8,373.7,107,373.7z"/>
<path class="st1" d="M99.6,376.7c-0.4,0-0.9-0.1-1.1-0.4l-3.5-3.5c-0.6-0.6-0.6-1.6,0-2.2c0.6-0.6,1.6-0.6,2.2,0l3.5,3.5
	c0.6,0.6,0.6,1.6,0,2.2C100.4,376.5,100,376.7,99.6,376.7z"/>
<path class="st1" d="M96.5,384h-5c-0.9,0-1.6-0.7-1.6-1.6c0-0.9,0.7-1.6,1.6-1.6h5c0.9,0,1.6,0.7,1.6,1.6
	C98.1,383.4,97.4,384,96.5,384z"/>
<path class="st1" d="M96.1,394.9c-0.4,0-0.9-0.1-1.1-0.4c-0.6-0.6-0.6-1.6,0-2.2l3.5-3.5c0.6-0.6,1.6-0.6,2.2,0
	c0.6,0.6,0.6,1.6,0,2.2l-3.5,3.5C96.8,394.8,96.4,394.9,96.1,394.9z"/>
<path class="st1" d="M107,399.5c-0.9,0-1.6-0.7-1.6-1.6v-5c0-0.9,0.7-1.6,1.6-1.6s1.6,0.7,1.6,1.6v5
	C108.6,398.7,107.8,399.5,107,399.5z"/>
<path class="st1" d="M117.8,394.9c-0.4,0-0.9-0.1-1.1-0.4l-3.5-3.5c-0.6-0.6-0.6-1.6,0-2.2s1.6-0.6,2.2,0l3.5,3.5
	c0.6,0.6,0.6,1.6,0,2.2C118.6,394.8,118.3,394.9,117.8,394.9z"/>
<path class="st1" d="M122.3,384h-5c-0.9,0-1.6-0.7-1.6-1.6c0-0.9,0.7-1.6,1.6-1.6h5c0.9,0,1.6,0.7,1.6,1.6
	C123.9,383.4,123.2,384,122.3,384z"/>
<path class="st1" d="M114.3,376.7c-0.4,0-0.9-0.1-1.1-0.4c-0.6-0.6-0.6-1.6,0-2.2l3.5-3.5c0.6-0.6,1.6-0.6,2.2,0
	c0.6,0.6,0.6,1.6,0,2.2l-3.5,3.5C115.1,376.5,114.6,376.7,114.3,376.7z"/>
<path class="st1" d="M136.9,45.3c-0.9,0-1.6-0.7-1.6-1.6v-5c0-0.9,0.7-1.6,1.6-1.6c0.9,0,1.6,0.7,1.6,1.6v5
	C138.5,44.7,137.8,45.3,136.9,45.3z"/>
<path class="st1" d="M129.6,48.4c-0.4,0-0.9-0.1-1.1-0.4l-3.5-3.5c-0.6-0.6-0.6-1.6,0-2.2c0.6-0.6,1.6-0.6,2.2,0l3.5,3.5
	c0.6,0.6,0.6,1.6,0,2.2C130.3,48.2,130,48.4,129.6,48.4z"/>
<path class="st1" d="M126.5,55.8h-5c-0.9,0-1.6-0.7-1.6-1.6c0-0.9,0.7-1.6,1.6-1.6h5c0.9,0,1.6,0.7,1.6,1.6S127.3,55.8,126.5,55.8z"
	/>
<path class="st1" d="M126,66.7c-0.4,0-0.9-0.1-1.1-0.4c-0.6-0.6-0.6-1.6,0-2.2l3.5-3.5c0.6-0.6,1.6-0.6,2.2,0c0.6,0.6,0.6,1.6,0,2.2
	l-3.5,3.5C126.8,66.4,126.4,66.7,126,66.7z"/>
<path class="st1" d="M136.9,71.1c-0.9,0-1.6-0.7-1.6-1.6v-5c0-0.9,0.7-1.6,1.6-1.6c0.9,0,1.6,0.7,1.6,1.6v5
	C138.5,70.5,137.8,71.1,136.9,71.1z"/>
<path class="st1" d="M147.8,66.7c-0.4,0-0.9-0.1-1.1-0.4l-3.5-3.5c-0.6-0.6-0.6-1.6,0-2.2c0.6-0.6,1.6-0.6,2.2,0L149,64
	c0.6,0.6,0.6,1.6,0,2.2C148.5,66.4,148.2,66.7,147.8,66.7z"/>
<path class="st1" d="M152.3,55.8h-5c-0.9,0-1.6-0.7-1.6-1.6c0-0.9,0.7-1.6,1.6-1.6h5c0.9,0,1.6,0.7,1.6,1.6S153.1,55.8,152.3,55.8z"
	/>
<path class="st1" d="M144.3,48.4c-0.4,0-0.9-0.1-1.1-0.4c-0.6-0.6-0.6-1.6,0-2.2l3.5-3.5c0.6-0.6,1.6-0.6,2.2,0
	c0.6,0.6,0.6,1.6,0,2.2l-3.5,3.5C145,48.2,144.6,48.4,144.3,48.4z"/>
<path class="st1" d="M20.5,200c-0.9,0-1.6-0.7-1.6-1.6v-4.9c0-0.9,0.7-1.6,1.6-1.6s1.6,0.7,1.6,1.6v5C22.1,199.3,21.4,200,20.5,200z
	"/>
<path class="st1" d="M13.2,203.1c-0.4,0-0.9-0.1-1.1-0.4l-3.5-3.5c-0.6-0.6-0.6-1.6,0-2.2c0.6-0.6,1.6-0.6,2.2,0l3.5,3.5
	c0.6,0.6,0.6,1.6,0,2.2C14,202.8,13.6,203.1,13.2,203.1z"/>
<path class="st1" d="M10.2,210.4h-5c-0.9,0-1.6-0.7-1.6-1.6s0.7-1.6,1.6-1.6h5c0.9,0,1.6,0.7,1.6,1.6S11.1,210.4,10.2,210.4z"/>
<path class="st1" d="M9.7,221.3c-0.4,0-0.9-0.1-1.1-0.4c-0.6-0.6-0.6-1.6,0-2.2l3.5-3.5c0.6-0.6,1.6-0.6,2.2,0
	c0.6,0.6,0.6,1.6,0,2.2l-3.5,3.5C10.5,221.2,10.1,221.3,9.7,221.3z"/>
<path class="st1" d="M20.5,225.8c-0.9,0-1.6-0.7-1.6-1.6v-5c0-0.9,0.7-1.6,1.6-1.6s1.6,0.7,1.6,1.6v5
	C22.1,225.1,21.4,225.8,20.5,225.8z"/>
<path class="st1" d="M31.4,221.3c-0.4,0-0.9-0.1-1.1-0.4l-3.5-3.5c-0.6-0.6-0.6-1.6,0-2.2c0.6-0.6,1.6-0.6,2.2,0l3.5,3.5
	c0.6,0.6,0.6,1.6,0,2.2C32.3,221.2,31.8,221.3,31.4,221.3z"/>
<path class="st1" d="M36,210.4h-5c-0.9,0-1.6-0.7-1.6-1.6s0.7-1.6,1.6-1.6h5c0.9,0,1.6,0.7,1.6,1.6S36.8,210.4,36,210.4z"/>
<path class="st1" d="M27.9,203.1c-0.4,0-0.9-0.1-1.1-0.4c-0.6-0.6-0.6-1.6,0-2.2l3.5-3.5c0.6-0.6,1.6-0.6,2.2,0
	c0.6,0.6,0.6,1.6,0,2.2l-3.5,3.5C28.7,202.8,28.3,203.1,27.9,203.1z"/>
<path class="st1" d="M425.1,318.5c-0.9,0-1.6-0.7-1.6-1.6v-5c0-0.9,0.7-1.6,1.6-1.6c0.9,0,1.6,0.7,1.6,1.6v5
	C426.7,317.8,425.9,318.5,425.1,318.5z"/>
<path class="st1" d="M417.7,321.6c-0.4,0-0.9-0.1-1.1-0.4l-3.5-3.5c-0.6-0.6-0.6-1.6,0-2.2c0.6-0.6,1.6-0.6,2.2,0l3.5,3.5
	c0.6,0.6,0.6,1.6,0,2.2C418.4,321.3,418.1,321.6,417.7,321.6z"/>
<path class="st1" d="M414.6,328.9h-5c-0.9,0-1.6-0.7-1.6-1.6c0-0.9,0.7-1.6,1.6-1.6h5c0.9,0,1.6,0.7,1.6,1.6
	C416.2,328.2,415.5,328.9,414.6,328.9z"/>
<path class="st1" d="M414.2,339.8c-0.4,0-0.9-0.1-1.1-0.4c-0.6-0.6-0.6-1.6,0-2.2l3.5-3.5c0.6-0.6,1.6-0.6,2.2,0
	c0.6,0.6,0.6,1.6,0,2.2l-3.5,3.5C414.9,339.7,414.5,339.8,414.2,339.8z"/>
<path class="st1" d="M425.1,344.3c-0.9,0-1.6-0.7-1.6-1.6v-5c0-0.9,0.7-1.6,1.6-1.6c0.9,0,1.6,0.7,1.6,1.6v5
	C426.7,343.6,425.9,344.3,425.1,344.3z"/>
<path class="st1" d="M435.9,339.8c-0.4,0-0.9-0.1-1.1-0.4l-3.5-3.5c-0.6-0.6-0.6-1.6,0-2.2c0.6-0.6,1.6-0.6,2.2,0l3.5,3.5
	c0.6,0.6,0.6,1.6,0,2.2C436.8,339.7,436.4,339.8,435.9,339.8z"/>
<path class="st1" d="M440.4,328.9h-5c-0.9,0-1.6-0.7-1.6-1.6c0-0.9,0.7-1.6,1.6-1.6h5c0.9,0,1.6,0.7,1.6,1.6
	C442,328.2,441.3,328.9,440.4,328.9z"/>
<path class="st1" d="M432.4,321.6c-0.4,0-0.9-0.1-1.1-0.4c-0.6-0.6-0.6-1.6,0-2.2l3.5-3.5c0.6-0.6,1.6-0.6,2.2,0
	c0.6,0.6,0.6,1.6,0,2.2l-3.5,3.5C433.2,321.3,432.8,321.6,432.4,321.6z"/>
<path class="st1" d="M376.7,292h-8.7v-9.2h8.7V292z M357.9,292h-8.7v-9.2h8.7V292z M339.1,292h-8.7v-9.2h8.7V292z M320.3,292h-8.8
	v-9.2h8.7v9.2H320.3z M301.4,292h-8.7v-9.2h8.7V292z M282.6,292h-8.7v-9.2h8.7V292z M263.8,292H255v-9.2h8.7v9.2H263.8z M245,292
	h-8.7v-9.2h8.7V292z M226.1,292h-8.7v-9.2h8.7V292z M207.3,292h-8.8v-9.2h8.7v9.2H207.3z M188.5,292h-8.7v-9.2h8.7V292z"/>
</svg>
