<?xml version="1.0" encoding="utf-8"?>
<!-- Generator: Adobe Illustrator 23.0.4, SVG Export Plug-In . SVG Version: 6.00 Build 0)  -->
<svg version="1.1" id="Layer_1" xmlns="http://www.w3.org/2000/svg" xmlns:xlink="http://www.w3.org/1999/xlink" x="0px" y="0px"
	 viewBox="0 0 152.9 48.6" style="enable-background:new 0 0 152.9 48.6;" xml:space="preserve">
<style type="text/css">
	.st0{fill:#94BE46;}
	.st1{fill:#608D3E;}
	.st2{fill:#FFFFFF;}
	.st3{fill:#231F20;}
</style>
<g>
	<g>
		<path d="M90.3,33.7l2.1-11.1c0.3-1.4,0.5-2.5,0.6-3.6h0.9l-0.3,2.2h0c0.9-1.4,2.2-2.4,3.6-2.4c1.9,0,2.7,1.6,2.7,3.3
			c0,3.5-2.4,7.5-5.7,7.5c-1,0-1.7-0.4-2.1-0.4h0l-0.8,4.4H90.3z M92.2,28.1c0.5,0.4,1.2,0.6,2,0.6c2.7,0,4.6-3.9,4.6-6.5
			c0-1.2-0.5-2.6-2-2.6c-1.5,0-3.4,1.9-3.9,5L92.2,28.1z"/>
		<path d="M106.8,29.5c0-0.8,0.1-1.7,0.3-2.8h0c-1.2,2.2-2.5,2.9-3.8,2.9c-1.6,0-2.5-1.3-2.5-3.2c0-3.5,2.5-7.6,6.5-7.6
			c0.7,0,1.5,0.1,2.1,0.3l-1.1,5.7c-0.4,1.9-0.5,3.7-0.4,4.8H106.8z M108.1,19.7c-0.2-0.1-0.6-0.2-1.2-0.2c-3,0-5.3,3.3-5.3,6.5
			c0,1.3,0.4,2.5,1.8,2.5c1.7,0,3.6-2.5,4-5.2L108.1,19.7z"/>
		<path d="M109.9,29.5l1.3-7c0.3-1.3,0.4-2.4,0.5-3.5h0.8c-0.1,0.8-0.2,1.4-0.3,2.5h0c0.6-1.4,1.6-2.6,2.9-2.6c0.1,0,0.3,0,0.4,0
			l-0.2,1c-0.1,0-0.2,0-0.3,0c-1.4,0-2.8,2.2-3.3,4.4l-1,5.4H109.9z"/>
		<path d="M119.8,16.7l-0.5,2.3h2.4l-0.2,0.8h-2.4l-1.1,6.1c-0.1,0.7-0.2,1.2-0.2,1.8c0,0.6,0.3,1,0.9,1c0.3,0,0.6,0,0.7-0.1
			l0.1,0.7c-0.3,0.1-0.6,0.1-1,0.1c-1.2,0-1.7-0.8-1.7-1.7c0-0.6,0.1-1.1,0.2-1.9l1.2-6.1h-1.5l0.1-0.8h1.5l0.3-1.8L119.8,16.7z"/>
		<path d="M121.7,29.5l1.4-7.4c0.2-1.2,0.4-2.3,0.4-3.1h0.9l-0.3,2.2h0c0.9-1.4,2.2-2.4,3.6-2.4c1,0,2.3,0.6,2.3,2.6
			c0,0.5-0.1,1.1-0.2,1.7l-1.2,6.4h-0.9l1.2-6.5c0.1-0.5,0.2-1,0.2-1.6c0-1.1-0.4-1.9-1.7-1.9c-1.4,0-3.3,1.8-3.8,4.3l-1,5.6H121.7z
			"/>
		<path d="M137.4,28.7c-0.5,0.4-1.5,0.8-2.8,0.8c-2.4,0-3.2-1.9-3.2-3.9c0-3,2.1-6.8,5-6.8c1.7,0,2.4,1.1,2.4,2.2
			c0,2.6-3,3.3-6.4,3.3c-0.1,0.5-0.1,1.8,0.1,2.6c0.4,1.2,1.2,1.7,2.2,1.7c1.1,0,1.9-0.4,2.4-0.7L137.4,28.7z M137.9,21
			c0-0.9-0.7-1.5-1.6-1.5c-1.6,0-3,1.7-3.6,3.9C135.3,23.5,137.9,23.1,137.9,21L137.9,21z"/>
		<path d="M139.4,29.5l1.3-7c0.3-1.3,0.4-2.4,0.5-3.5h0.8c-0.1,0.8-0.2,1.4-0.3,2.5h0c0.6-1.4,1.6-2.6,2.9-2.6c0.1,0,0.3,0,0.4,0
			l-0.2,1c-0.1,0-0.2,0-0.3,0c-1.3,0-2.8,2.2-3.3,4.4l-1,5.4H139.4z"/>
		<path d="M144.8,28c0.4,0.3,1,0.6,1.8,0.6c1.3,0,2.3-1,2.3-2.1c0-1-0.4-1.6-1.4-2.3c-1-0.7-1.6-1.6-1.6-2.5c0-1.6,1.3-2.9,3.1-2.9
			c0.7,0,1.4,0.2,1.7,0.4l-0.3,0.8c-0.3-0.2-0.9-0.4-1.5-0.4c-1.2,0-2.1,0.9-2.1,1.9c0,1,0.6,1.5,1.4,2.1c1,0.7,1.6,1.6,1.6,2.7
			c0,2.1-1.5,3.2-3.3,3.2c-0.9,0-1.7-0.3-2.1-0.6L144.8,28z"/>
	</g>
	<g>
		<g>
			<path class="st0" d="M9.1,17.4C9,17.4,9,17.4,9.1,17.4c-0.3,0-0.5-0.2-0.5-0.5c0-0.2-0.1-5.5,3-6.7c0.8-0.3,1.5-0.2,2.1,0.2
				c0.7,0.5,1.3,1.6,1.6,3.1c0.2,1.1,0.3,2,0.3,2c0,0.2-0.2,0.4-0.4,0.4c-0.2,0-0.4-0.2-0.4-0.5c0-1-0.4-3.6-1.4-4.4
				c-0.3-0.2-0.8-0.3-1.3-0.1c-2.7,1-2.5,6-2.5,6C9.4,17.3,9.3,17.4,9.1,17.4z"/>
			<path class="st0" d="M15.7,12.2l-12,3.7c0,0-0.5,0.1-0.6,0.3c-0.1,0.2-0.2,0.6-0.2,0.6L1.1,31.1L15,33.7L16,12.2
				C15.9,12.2,15.7,12.2,15.7,12.2z"/>
			<path class="st1" d="M19.8,14.1c0,0,0-0.1-0.1-0.2c-0.1,0-0.1,0-0.1,0l-2-0.1l-1.4-1.4c-0.1,0-0.1-0.1-0.2-0.1L15,33.7l7.5-1.6
				L19.8,14.1z"/>
			<path class="st2" d="M10.7,24.2c-0.2-0.3-0.5-0.5-0.7-0.8c-0.3-0.2-0.5-0.4-0.8-0.6c-0.2-0.1-0.4-0.2-0.5-0.3
				c-0.1-0.1-0.3-0.2-0.3-0.3c-0.1-0.1-0.2-0.2-0.2-0.3c0-0.1-0.1-0.2-0.1-0.3c0-0.2,0-0.3,0.1-0.4c0.1-0.1,0.1-0.2,0.3-0.3
				c0.1-0.1,0.2-0.2,0.4-0.2c0.2-0.1,0.3-0.1,0.5-0.1c0.2,0,0.4,0,0.6,0c0.2,0,0.4,0.1,0.6,0.1c0.2,0,0.3,0.1,0.5,0.1
				c0.1,0.1,0.3,0.1,0.4,0.2l0.9-2.8c-0.1-0.1-0.3-0.1-0.5-0.2c-0.2-0.1-0.4-0.1-0.6-0.1c-0.2,0-0.5,0-0.8,0c-0.3,0-0.5,0-0.8,0.1
				C9,17.8,8.5,18,8,18.2c-0.5,0.2-0.9,0.6-1.3,0.9c-0.3,0.4-0.6,0.8-0.8,1.3c-0.2,0.5-0.3,1-0.3,1.6c0,0.3,0,0.6,0.1,0.9
				c0.1,0.3,0.2,0.6,0.3,0.8c0.1,0.2,0.3,0.5,0.5,0.7C6.7,24.6,7,24.8,7.2,25c0.2,0.1,0.4,0.3,0.5,0.4C7.8,25.6,8,25.7,8,25.8
				c0.1,0.1,0.1,0.3,0.2,0.4c0,0.1,0,0.3,0,0.4c0,0.1,0,0.3-0.1,0.4c-0.1,0.1-0.1,0.2-0.2,0.3c-0.1,0.1-0.2,0.1-0.4,0.2
				c-0.1,0-0.3,0-0.5,0c-0.2,0-0.4-0.1-0.6-0.2c-0.2-0.1-0.4-0.2-0.6-0.3c-0.2-0.1-0.4-0.2-0.5-0.3c-0.1-0.1-0.3-0.2-0.4-0.3
				l-0.6,2.1c0.1,0.1,0.2,0.3,0.4,0.4c0.2,0.1,0.3,0.3,0.5,0.4c0.2,0.1,0.4,0.2,0.7,0.3c0.2,0.1,0.5,0.2,0.8,0.2c0,0,0,0,0,0
				c0,0,0,0,0,0c0,0,0,0,0,0c0,0,0,0,0,0c0.6,0.1,1.1,0.2,1.7,0.1c0.5-0.1,1-0.2,1.5-0.5c0.4-0.3,0.8-0.7,1.1-1.2
				c0.3-0.5,0.4-1.2,0.5-1.9c0-0.4,0-0.9-0.2-1.2C11.1,24.8,11,24.5,10.7,24.2z"/>
			<path class="st0" d="M6.1,16.7C6.1,16.7,6.1,16.7,6.1,16.7c-0.3,0-0.4-0.2-0.4-0.5c0-0.2,0.8-5.5,4.1-6.7
				c0.8-0.3,1.5-0.2,2.1,0.2c0.7,0.5,1,1.6,1.1,3.1c0,1.1-0.1,2-0.1,2c0,0.2-0.2,0.4-0.5,0.4c-0.2,0-0.4-0.2-0.4-0.5
				c0.1-1,0.3-3.6-0.7-4.4c-0.3-0.2-0.7-0.3-1.3-0.1c-2.8,1-3.6,6-3.6,6C6.5,16.6,6.4,16.7,6.1,16.7z"/>
		</g>
		<path class="st3" d="M31.3,23.2c-0.8-0.4-1.1-0.8-1.1-1.2c0-0.6,0.5-1,1.4-1c0.8,0,1.4,0.2,1.8,0.4l0.7-2.1
			c-0.5-0.3-1.4-0.5-2.5-0.5c-2.6,0-4.4,1.5-4.4,3.6c0,1.2,0.8,2.1,2,2.7c0.9,0.5,1.2,0.9,1.2,1.4c0,0.6-0.5,1-1.3,1
			c-0.9,0-1.9-0.4-2.4-0.6L25.9,29c0.6,0.4,1.7,0.7,2.9,0.7c2.7,0,4.6-1.3,4.6-3.7C33.4,24.8,32.4,23.9,31.3,23.2z"/>
		<path class="st3" d="M41.9,18.8c-1.3,0-2.3,0.6-3.1,1.6l0,0l1.1-5.9h-3L34,29.5h3l1-5.2c0.4-2,1.4-3.2,2.3-3.2
			c0.7,0,0.9,0.5,0.9,1.1c0,0.4,0,0.9-0.1,1.3L40,29.5h3l1.2-6.1c0.1-0.6,0.2-1.4,0.2-1.9C44.3,19.8,43.4,18.8,41.9,18.8z"/>
		<path class="st3" d="M51,18.8c-3.6,0-5.9,3.2-5.9,6.8c0,2.3,1.4,4.1,4.1,4.1c3.5,0,5.9-3.1,5.9-6.8C55,20.8,53.8,18.8,51,18.8z
			 M49.6,27.5c-1,0-1.4-0.9-1.4-1.9c0-1.7,0.9-4.5,2.5-4.5c1.1,0,1.4,0.9,1.4,1.8C52,24.7,51.1,27.5,49.6,27.5z"/>
		<path class="st3" d="M62.6,18.8c-1.2,0-2.3,0.6-3.1,1.8h0l0.2-1.6H57c-0.1,1.1-0.4,2.7-0.6,3.9l-2.1,10.8h3l0.8-4.4h0.1
			c0.3,0.2,1,0.4,1.7,0.4c3.5,0,5.8-3.6,5.8-7.2C65.7,20.6,64.8,18.8,62.6,18.8z M59.8,27.5c-0.5,0-0.9-0.2-1.2-0.4l0.5-2.8
			c0.3-1.8,1.3-3.1,2.3-3.1c0.9,0,1.2,0.8,1.2,1.6C62.6,24.8,61.4,27.5,59.8,27.5z"/>
		<path class="st3" d="M69.9,14.6c-0.9,0-1.7,0.8-1.7,1.7c0,0.9,0.6,1.5,1.4,1.5h0c0.9,0,1.7-0.6,1.7-1.7
			C71.4,15.2,70.8,14.6,69.9,14.6z"/>
		<polygon class="st3" points="65.8,29.5 68.7,29.5 70.7,19 67.8,19 		"/>
		<path class="st3" d="M78.3,19h-2.1l0.1-0.5c0.2-1,0.8-1.9,1.8-1.9c0.4,0,0.7,0.1,0.9,0.2l0.6-2.3c-0.3-0.2-0.9-0.3-1.6-0.3
			c-1.1,0-2.1,0.3-2.9,1c-1,0.9-1.5,2.1-1.7,3.4L73.3,19h-1.4l-0.4,2.2h1.4l-1.6,8.3h3l1.6-8.3h2L78.3,19z"/>
		<path class="st3" d="M85.4,19l-1.8,4.7c-0.4,1.1-0.6,1.8-0.9,2.5h0c0-0.7-0.1-1.4-0.3-2.5L82,19h-3.1l1.8,9.6c0,0.2,0,0.3-0.1,0.5
			c-0.3,0.7-0.9,1.3-1.6,1.8c-0.6,0.4-1.2,0.7-1.7,0.8l0.8,2.5c0.6-0.1,1.8-0.6,2.9-1.6c1.4-1.3,2.6-3.2,3.9-5.9l3.6-7.8H85.4z"/>
	</g>
</g>
</svg>
