<?xml version="1.0" encoding="utf-8"?>
<!-- Generator: Adobe Illustrator 23.0.4, SVG Export Plug-In . SVG Version: 6.00 Build 0)  -->
<svg version="1.1" id="Layer_1" xmlns="http://www.w3.org/2000/svg" xmlns:xlink="http://www.w3.org/1999/xlink" x="0px" y="0px"
	 viewBox="0 0 152.9 48.6" style="enable-background:new 0 0 152.9 48.6;" xml:space="preserve">
<style type="text/css">
	.st0{fill:#94BE47;}
	.st1{fill:#5E8D3E;}
	.st2{fill:#FEFEFE;}
	.st3{fill:#FEFEFD;}
</style>
<path d="M149.8,20.7c-0.2,0.1-0.2,0.4-0.3,0.6c-2.1,4.5-4.2,9-6.3,13.5c-1.4,2.8-3,5.5-5.1,7.8c-1.4,1.6-3.1,2.7-5.2,3.4
	c-0.4,0.1-0.5,0.1-0.6-0.3c-0.3-1.1-0.7-2.2-1.1-3.3c-0.1-0.4,0-0.5,0.3-0.6c1.9-0.7,3.5-1.9,4.7-3.6c0.4-0.6,0.6-1.2,0.4-2
	c-1-5-1.9-10.1-2.8-15.2c-0.1-0.5,0.1-0.5,0.4-0.5c1.4,0,2.8,0,4.2,0c0.5,0,0.6,0.1,0.6,0.6c0.4,3.8,0.8,7.6,1.2,11.4
	c0.2-0.1,0.2-0.3,0.2-0.5c1.3-3.7,2.7-7.4,4.1-11.1c0.1-0.2,0.1-0.4,0.4-0.4c1.7,0,3.3-0.1,5,0.1C149.8,20.6,149.8,20.6,149.8,20.7z
	"/>
<path class="st0" d="M26.7,45.1c-1.4-0.1-2.7-0.5-4.1-0.7c-6.2-1.2-12.4-2.3-18.7-3.5c-0.5-0.1-0.6-0.2-0.5-0.7
	c0.4-3.1,0.8-6.2,1.2-9.3c0.4-3.4,0.9-6.8,1.3-10.2c0.2-1.3,0.4-2.6,0.5-3.9c0.1-0.8,0.4-1.2,1.1-1.4c1.1-0.3,2.2-0.7,3.3-1
	c0.4-0.1,0.6-0.3,0.7-0.7c0.6-2.4,1.6-4.6,3.1-6.6c1.3-1.6,2.9-2.7,5-2.8c0.9-0.1,1.6,0.3,2.2,0.9c0.1,0.1,0.3,0.3,0.5,0.3
	c1.7,0,2.7,1,3.5,2.4c0.2,0.4,0.4,0.8,0.6,1.2c0.1,0.4,0.3,0.4,0.7,0.3c0.4-0.1,0.8-0.3,1.3-0.3c0.3,0.4,0.2,0.8,0.2,1.2
	c-0.2,1.1-0.1,2.2-0.2,3.2c-0.1,2-0.2,4-0.3,5.9c-0.1,1.9-0.1,3.8-0.3,5.7c-0.1,0.9-0.1,1.7-0.1,2.6c-0.1,2-0.2,4-0.3,5.9
	c-0.1,2.7-0.2,5.5-0.4,8.2c-0.1,0.9,0,1.7-0.1,2.6C26.8,44.7,26.8,45,26.7,45.1z"/>
<path class="st1" d="M26.7,45.1c0.1-2.7,0.2-5.5,0.4-8.2c0.1-1.4,0.2-2.8,0.2-4.3c0.1-2.5,0.3-5,0.4-7.5c0.1-1.5,0.2-3,0.2-4.4
	c0.1-2.4,0.2-4.9,0.3-7.3c0.1-1.4,0.2-2.8,0.2-4.3c0.2-0.1,0.3,0.1,0.5,0.2c0.6,0.5,1.1,1,1.6,1.6c0.4,0.5,1,0.7,1.6,0.7
	c0.7,0,1.4,0.1,2.1,0.1c0.4,0,0.6,0.2,0.7,0.7c0.7,5,1.5,10,2.2,15c0.7,4.8,1.4,9.6,2.1,14.4c0,0.3,0.1,0.5-0.4,0.6
	c-4,0.8-8,1.7-12,2.6C26.8,45.2,26.7,45.1,26.7,45.1z"/>
<path d="M101.1,23.1c0.9-1.2,1.9-2.1,3.2-2.6c2.6-1,6.4-0.5,7.1,4.2c0.7,4.4-0.5,8.4-3.8,11.5c-2.2,2.1-4.8,2.8-7.8,1.9
	c-0.9-0.3-0.9-0.3-1.1,0.7c-0.4,2-0.8,4-1.1,6c0,0.3-0.1,0.4-0.4,0.4c-1.4,0-2.8,0-4.2,0c-0.4,0-0.3-0.2-0.3-0.5
	c0.8-4.2,1.6-8.4,2.4-12.6c0.7-3.7,1.5-7.5,1.9-11.3c0-0.4,0.1-0.6,0.6-0.5c1.1,0,2.3,0,3.4,0c0.4,0,0.5,0.1,0.4,0.5
	C101.3,21.6,101.2,22.3,101.1,23.1z"/>
<path d="M66.5,22.7c0.4-0.4,0.8-0.8,1.1-1.1c1.5-1.3,3.3-1.8,5.2-1.4c1.7,0.4,2.7,1.7,2.9,3.6c0.2,1.7-0.2,3.4-0.5,5
	c-0.6,3-1.1,5.9-1.7,8.9c0,0.2-0.1,0.4-0.4,0.4c-1.5,0-3,0-4.6,0c0.3-1.7,0.7-3.4,1-5.1c0.4-2.1,0.9-4.2,1.1-6.4c0-0.3,0-0.6,0-0.9
	c-0.1-1.2-1-1.8-2.2-1.4c-0.8,0.3-1.3,0.8-1.8,1.4c-1,1.4-1.4,2.9-1.7,4.6c-0.5,2.5-0.9,5-1.4,7.5c-0.1,0.3-0.2,0.5-0.5,0.5
	c-1.4,0-2.7,0-4.1,0c-0.4,0-0.5-0.1-0.4-0.4c1.6-8.2,3.1-16.3,4.7-24.5c0.1-0.3,0.1-0.5,0.5-0.5c1.4,0,2.7,0,4.1,0
	c0.4,0,0.4,0.1,0.4,0.5c-0.6,3-1.2,6.1-1.8,9.1C66.5,22.4,66.5,22.6,66.5,22.7z"/>
<path d="M86,20.1c4.7-0.1,7.3,2.2,7.6,6.1c0.3,3.9-0.8,7.4-3.9,10.1c-2.3,2-5,2.6-8,1.8c-2.7-0.7-4.2-2.7-4.5-5.4
	c-0.5-4.2,0.8-7.8,4-10.6C82.9,20.8,84.8,20.2,86,20.1z"/>
<path d="M120.9,38.2c0.4-2.2,0.8-4.3,1.2-6.4c0.4-2.3,0.9-4.6,1.3-6.9c0.1-0.5,0-0.6-0.5-0.6c-0.4,0-0.9,0-1.3,0
	c-0.3,0-0.4-0.1-0.4-0.4c0.2-1,0.4-2,0.6-3c0-0.2,0.1-0.3,0.4-0.3c0.5,0,1,0,1.4,0c0.4,0,0.6-0.1,0.7-0.5c0.1-1,0.4-2,0.8-2.9
	c1.5-3.6,4.6-5,8-4.6c1.7,0.2,1.7,0.2,1.3,1.9c-0.2,0.7-0.3,1.4-0.5,2.1c-0.1,0.2-0.1,0.3-0.4,0.2c-0.2-0.1-0.4-0.1-0.6-0.1
	c-1.9-0.2-3.1,0.8-3.6,2.8c-0.3,1.1-0.3,1.1,0.9,1.1c0.6,0,1.3,0,1.9,0c0.3,0,0.4,0,0.3,0.4c-0.2,1-0.4,2-0.6,3
	c-0.1,0.3-0.2,0.4-0.5,0.4c-0.8,0-1.7,0-2.5,0c-0.4,0-0.5,0.1-0.6,0.4c-0.6,3.5-1.3,7-2,10.5c-0.2,0.9-0.3,1.7-0.5,2.6
	c0,0.2,0,0.4-0.3,0.4C124.1,38.2,122.5,38.2,120.9,38.2z"/>
<path d="M54.5,20.2c1.3,0,2.5,0.1,3.6,0.6c0.4,0.1,0.5,0.3,0.3,0.7c-0.3,0.9-0.6,1.7-0.8,2.6c-0.1,0.3-0.2,0.4-0.6,0.3
	c-1.2-0.4-2.3-0.7-3.6-0.4c-0.7,0.2-1.2,0.5-1.4,1.2c-0.2,0.7,0.2,1.2,0.7,1.6c0.3,0.2,0.6,0.4,0.9,0.6c0.5,0.3,1.1,0.7,1.6,1
	c3.8,2.7,2.4,7.4-0.6,8.9c-3.1,1.6-6.2,1.5-9.4,0.2c-0.3-0.1-0.4-0.3-0.2-0.6c0.3-0.9,0.7-1.8,0.9-2.7c0.1-0.4,0.3-0.4,0.6-0.2
	c1,0.5,2,0.7,3.1,0.9c0.5,0.1,0.9,0,1.4-0.1c1.4-0.3,1.8-1.8,0.9-2.8c-0.3-0.4-0.8-0.7-1.2-0.9c-0.6-0.4-1.2-0.8-1.8-1.2
	c-2.9-2.4-2-5.9-0.1-7.6C50.5,20.7,52.5,20.2,54.5,20.2z"/>
<path d="M120,20.5c-0.8,4.3-1.6,8.6-2.4,12.8c-0.3,1.5-0.6,2.9-0.8,4.4c-0.1,0.4-0.2,0.4-0.5,0.4c-1.3,0-2.7,0-4,0
	c-0.5,0-0.5-0.1-0.4-0.5c0.6-2.9,1.1-5.8,1.6-8.7c0.5-2.6,1-5.1,1.4-7.7c0.1-0.6,0.3-0.8,0.9-0.7C117.2,20.6,118.5,20.5,120,20.5z"
	/>
<path d="M121.1,15.5c0,1.7-1.2,2.9-2.9,2.9c-1.4,0-2.4-1-2.3-2.5c0-1.6,1.3-2.9,2.9-2.9C120.1,13,121.1,14,121.1,15.5z"/>
<path class="st2" d="M19.1,18.3c1.1,0,2,0.1,2.9,0.4c0.3,0.1,0.4,0.3,0.3,0.6c-0.4,1.3-0.9,2.5-1.3,3.8c-0.1,0.3-0.2,0.4-0.6,0.2
	c-1.1-0.5-2.3-0.7-3.5-0.5c-0.8,0.1-1.4,0.5-1.7,1.3c-0.2,0.8,0.1,1.4,0.7,1.9c0.8,0.6,1.6,1.3,2.4,1.9c3.3,2.6,2.7,7.1,0.7,9.3
	c-1.4,1.5-3.1,2-5.1,1.8c-1.7-0.2-3.3-0.8-4.7-2C9,36.7,8.8,36.4,9,36c0.3-0.8,0.5-1.6,0.7-2.4c0.1-0.5,0.2-0.6,0.7-0.2
	c0.7,0.6,1.5,1,2.3,1.3c0.4,0.1,0.7,0.2,1.1,0.2c1.1,0,1.9-0.9,1.6-2.1c-0.2-0.7-0.6-1.2-1.1-1.6c-0.4-0.4-0.8-0.7-1.2-1
	c-2.2-1.7-2.6-4-1.8-6.6c1-3.1,3.3-4.7,6.4-5.1C18.2,18.3,18.7,18.2,19.1,18.3z"/>
<path class="st2" d="M20.5,5.9C18,7.3,17,9.6,16.4,12.1c-0.1,0.4-0.3,0.6-0.7,0.8c-0.9,0.2-1.7,0.5-2.5,0.8c-0.1-0.2,0-0.3,0-0.5
	c0.6-1.9,1.4-3.8,2.7-5.4c0.8-1,1.9-1.8,3.2-2.1C19.6,5.7,20,5.6,20.5,5.9z"/>
<path class="st2" d="M17.9,12.2c0.6-1.9,1.3-3.6,3-4.7c0.6-0.4,0.6-0.4,0.8,0.3c0.2,0.9,0.3,1.9,0.3,2.8c0,0.2,0,0.4-0.3,0.5
	C20.4,11.4,19.2,11.8,17.9,12.2z"/>
<path class="st3" d="M23.4,10.5c0-1.2-0.1-2.4-0.5-3.5c0.6,0,0.9,0.3,1.2,0.6c0.5,0.6,0.8,1.3,1.1,2c0.1,0.2,0,0.3-0.2,0.4
	C24.5,10.1,24,10.3,23.4,10.5z"/>
<path class="st2" d="M106.3,27.5c-0.1,2.1-0.7,4.3-2.4,6.1c-1.1,1.3-2.6,1.5-4,0.7c-0.2-0.1-0.4-0.2-0.4-0.6
	c0.4-1.9,0.6-3.8,1.1-5.6c0.3-1.1,0.8-2,1.5-2.8c0.4-0.5,1-0.9,1.6-1c1-0.2,1.8,0.2,2.2,1.2C106.3,26,106.3,26.6,106.3,27.5z"/>
<path class="st2" d="M88.7,27.1c-0.1,2-0.5,4-1.5,5.7c-0.3,0.5-0.6,0.9-1.1,1.3c-1.4,1.1-3.1,0.5-3.6-1.1c-0.4-1.2-0.2-2.4,0-3.6
	c0.3-1.5,0.8-3,1.7-4.2c0.6-0.8,1.4-1.3,2.5-1.2c1.1,0.1,1.9,1,2,2.5C88.7,26.7,88.7,26.9,88.7,27.1z"/>
</svg>
