<?xml version="1.0" standalone="no"?>
<!DOCTYPE svg PUBLIC "-//W3C//DTD SVG 20010904//EN"
 "http://www.w3.org/TR/2001/REC-SVG-20010904/DTD/svg10.dtd">
<svg version="1.0" xmlns="http://www.w3.org/2000/svg"
 width="300.000000pt" height="300.000000pt" viewBox="0 0 300.000000 300.000000"
 preserveAspectRatio="xMidYMid meet">
<metadata>
Created by potrace 1.14, written by Peter Selinger 2001-2017
</metadata>
<g transform="translate(0.000000,300.000000) scale(0.100000,-0.100000)"
fill="#000000" stroke="none">
<path d="M0 1500 l0 -1500 1500 0 1500 0 0 1500 0 1500 -1500 0 -1500 0 0
-1500z m1795 1325 c331 -74 611 -252 808 -513 271 -361 345 -835 196 -1259
-165 -466 -565 -804 -1053 -888 -116 -20 -335 -19 -451 1 -815 142 -1315 973
-1055 1755 69 209 157 353 311 513 211 220 450 346 759 402 98 17 387 11 485
-11z"/>
<path d="M1447 2396 c-100 -36 -197 -142 -231 -253 -7 -22 -5 -23 46 -23 50 0
55 2 72 33 46 79 133 137 210 137 88 0 178 -55 221 -134 19 -34 22 -36 72 -36
36 0 53 4 53 13 0 29 -53 121 -97 168 -68 73 -147 109 -238 109 -38 -1 -87 -7
-108 -14z"/>
<path d="M835 1918 c-6 -40 -39 -450 -60 -748 -13 -200 -13 -216 3 -244 9 -16
30 -38 45 -50 28 -21 35 -21 699 -24 660 -2 671 -2 713 18 75 36 77 49 60 321
-9 129 -24 342 -35 475 -11 132 -20 251 -20 262 l0 22 -700 0 -699 0 -6 -32z
m486 -575 c47 -79 108 -116 199 -121 38 -2 85 1 106 8 47 16 119 82 145 132
l19 38 85 0 c61 0 85 -3 85 -12 0 -21 -57 -136 -87 -175 -45 -58 -138 -121
-215 -144 -194 -59 -404 33 -501 219 -61 117 -63 112 41 112 l89 0 34 -57z"/>
</g>
</svg>
